<svg xmlns="http://www.w3.org/2000/svg" viewBox="0 0 90 90">
  <path fill="none" stroke="hsl(26, 40%, 22%)" stroke-width="2" d="M16.9 51.8c0-16.1 5.4-28.8 15-35M28.5 11L71 83.1M28.4 10.9C17.9 17.5 12 31.4 11.9 49l59.2 34.2 6.6-3.8L34.9 7zm10 2.2L32 17m21.9 47a5.5 3.2 60 0 0-4-6.7 5.5 3.2 60 0 0-3.9 2.3 5.5 3.2 60 0 0 4 6.7 5.5 3.2 60 0 0 3.9-2.2zm-9.5-12.5a5.5 3.2 60 0 0-4-6.8 5.5 3.2 60 0 0-3.8 2.3 5.5 3.2 60 0 0 3.9 6.8 5.5 3.2 60 0 0 3.9-2.3zm-13.1-1.5a6 3.5 60 0 0-4.3-7.4 6 3.5 60 0 0-4.3 2.5 6 3.5 60 0 0 4.3 7.4 6 3.5 60 0 0 4.3-2.5zm6-14a6 3.5 60 0 0-4.2-7.4 6 3.5 60 0 0-4.3 2.4 6 3.5 60 0 0 4.3 7.5 6 3.5 60 0 0 4.3-2.5z"/>
</svg>
