<svg xmlns="http://www.w3.org/2000/svg" viewBox="0 0 400 400">
  <path d="M47 20c-16.08 41.56-16.01 90.32-14.13 97.79C11.92 140.45 2 174.16 2 204.92 2 306.3 44.18 360 200 360s198-53.69 198-155.08c0-30.77-9.92-64.47-30.87-87.13C369 110.32 369.09 61.55 353 20c-37.32.67-85.4 33.91-99.09 46.92-36.95-11.04-73.4-10.74-107.82 0C132.39 53.91 84.34 20.67 47 20zm79.03 163.4c29.44 0 29.71 4.32 73.97 4.32s53.2-4.23 73.97-4.32c38.14-.16 70.38 21.7 70.62 66.57.33 61.05-37.7 88.03-144.59 88.03-106.9 0-144.9-26.98-144.58-88.03.24-44.86 41.15-66.57 70.6-66.57zM132 218c-15.4 0-28 17.28-28 38.58 0 21.29 12.61 38.42 28 38.42s28-17.13 28-38.42c0-21.3-12.62-38.58-28-38.58zm136.23 0c-15.39 0-28.23 17.28-28.23 38.58 0 21.29 12.62 38.63 28 38.63 15.4 0 28-17.34 28-38.63 0-21.3-12.38-38.58-27.77-38.58z"/>
</svg>
