<?xml version="1.0" encoding="UTF-8" standalone="no"?>
<svg
   xmlns:dc="http://purl.org/dc/elements/1.1/"
   xmlns:cc="http://creativecommons.org/ns#"
   xmlns:rdf="http://www.w3.org/1999/02/22-rdf-syntax-ns#"
   xmlns:svg="http://www.w3.org/2000/svg"
   xmlns="http://www.w3.org/2000/svg"
   xmlns:sodipodi="http://sodipodi.sourceforge.net/DTD/sodipodi-0.dtd"
   xmlns:inkscape="http://www.inkscape.org/namespaces/inkscape"
   viewBox="0 0 400 400"
   version="1.1"
   id="svg4"
   sodipodi:docname="github.svg"
   inkscape:version="0.92.3 (2405546, 2018-03-11)">
  <metadata
     id="metadata10">
    <rdf:RDF>
      <cc:Work
         rdf:about="">
        <dc:format>image/svg+xml</dc:format>
        <dc:type
           rdf:resource="http://purl.org/dc/dcmitype/StillImage" />
        <dc:title></dc:title>
      </cc:Work>
    </rdf:RDF>
  </metadata>
  <defs
     id="defs8" />
  <sodipodi:namedview
     pagecolor="#ffffff"
     bordercolor="#666666"
     borderopacity="1"
     objecttolerance="10"
     gridtolerance="10"
     guidetolerance="10"
     inkscape:pageopacity="0"
     inkscape:pageshadow="2"
     inkscape:window-width="1920"
     inkscape:window-height="1177"
     id="namedview6"
     showgrid="false"
     inkscape:zoom="0.59"
     inkscape:cx="200"
     inkscape:cy="200"
     inkscape:window-x="-8"
     inkscape:window-y="-8"
     inkscape:window-maximized="1"
     inkscape:current-layer="svg4" />
  <path
     d="M 47,28 C 30.92,69.56 30.99,118.32 32.87,125.79 11.92,148.45 2,182.16 2,212.92 2,314.3 44.18,368 200,368 355.82,368 398,314.31 398,212.92 398,182.15 388.08,148.45 367.13,125.79 369,118.32 369.09,69.55 353,28 315.68,28.67 267.6,61.91 253.91,74.92 216.96,63.88 180.51,64.18 146.09,74.92 132.39,61.91 84.34,28.67 47,28 Z m 79.03,163.4 c 29.44,0 29.71,4.32 73.97,4.32 44.26,0 53.2,-4.23 73.97,-4.32 38.14,-0.16 70.38,21.7 70.62,66.57 C 344.92,319.02 306.89,346 200,346 93.1,346 55.1,319.02 55.42,257.97 55.66,213.11 96.57,191.4 126.02,191.4 Z M 132,226 c -15.4,0 -28,17.28 -28,38.58 0,21.29 12.61,38.42 28,38.42 15.39,0 28,-17.13 28,-38.42 C 160,243.28 147.38,226 132,226 Z m 136.23,0 c -15.39,0 -28.23,17.28 -28.23,38.58 0,21.29 12.62,38.63 28,38.63 15.4,0 28,-17.34 28,-38.63 C 296,243.28 283.62,226 268.23,226 Z"
     id="path2"
     inkscape:connector-curvature="0" />
</svg>
