<svg xmlns="http://www.w3.org/2000/svg" viewBox="0 0 500 200">
  <defs>
    <linearGradient id="d" x1="226.25" x2="682.34" y1="239.78" y2="540.76" gradientTransform="translate(-201.01 -75.96)" gradientUnits="userSpaceOnUse">
      <stop offset="0" stop-color="#4AC7F4"/>
      <stop offset="1" stop-color="#5D2E8E"/>
    </linearGradient>
    <linearGradient id="c" x1="481.37" x2="676.17" y1="198.8" y2="536.72" gradientTransform="translate(-201.01 -75.96)" gradientUnits="userSpaceOnUse">
      <stop offset="0" stop-color="#EA0E7D"/>
      <stop offset="1" stop-color="#5D2E8E"/>
    </linearGradient>
    <linearGradient id="b" x1="498.18" x2="1100.18" y1="218.37" y2="114.4" gradientTransform="translate(-201.01 -75.96)" gradientUnits="userSpaceOnUse">
      <stop offset="0" stop-color="#EA0E7D"/>
      <stop offset="1" stop-color="#9F77A6"/>
    </linearGradient>
    <linearGradient id="a" x1="401.54" x2="1139.28" y1="531.38" y2="111.19" gradientTransform="translate(-201.01 -75.96)" gradientUnits="userSpaceOnUse">
      <stop offset="0" stop-color="#29ABE2"/>
      <stop offset="1" stop-color="#9F77A6"/>
    </linearGradient>
  </defs>
  <path fill="url(#a)" d="M1174.6 36.4A36.53 36.53 0 0 0 1138.2 0c-6.7 0-13.2 1.8-19 5.1L275.5 506.3c-6.1 2.9-10.1 9.1-10.3 15.9 0 9.8 8.2 17.4 18 17.4 3.1 0 5.6-.5 7.7-2 .3 0 .5-.2.5-.5l861.7-468.3c1.5-.5 2.9-1.4 4.1-2.6 10.8-6 17.5-17.4 17.4-29.8z" transform="matrix(.36694 0 0 .36694 -2.38 1)"/>
  <path fill="url(#b)" d="M1174.6 36.4A36.53 36.53 0 0 0 1138.2 0h-4.1L491.4 91.8c-28.2 1.5-49.8 26.2-48.2 54.4 1.6 28.2 26.2 49.8 54.4 48.2 4.6-.5 8.7-1 12.8-2.6l632.9-120c1.5 0 2.6-.5 4.1-.5 15.4-4.1 27.2-18 27.2-34.9z" transform="matrix(.36694 0 0 .36694 -2.38 1)"/>
  <path fill="url(#c)" d="M741.2 459.6c-.4-12.6-4.4-24.8-11.3-35.4L542.2 124.6c-7.7-20-28.2-33.8-50.8-32.8-28.2 1.5-49.8 26.2-48.2 54.4.1 4 .8 8 2.1 11.8 2 6.2 4.6 11.8 8.7 16.4l162 310.8c1.5 4 3.6 7.8 6.2 11.3a64.72 64.72 0 0 0 55.9 29.2c35.4-.5 63.6-30.2 63.1-66.1z" transform="matrix(.36694 0 0 .36694 -2.38 1)"/>
  <path fill="url(#d)" d="M741.2 459.6a65.06 65.06 0 0 0-39-58l-467.3-258c-4.1-2.1-8.7-3.6-13.3-3.1-12.4 1.1-21.6 12-20.5 24.5v.2c.4 7.3 4.5 13.8 10.8 17.4l418.5 323.6a65.47 65.47 0 0 0 48.2 19.5c34.9-.5 63.1-30.2 62.6-66.1z" transform="matrix(.36694 0 0 .36694 -2.38 1)"/>
  <path d="M164.94 70.06h96v95.99h-96v-96z"/>
  <path fill="#fff" d="M173.23 148h35.96V154h-35.96V148zm-.4-52.7l2.83-2.64c.73.96 1.5 1.5 2.45 1.5 1.14 0 1.7-.76 1.7-2.27v-9.98h4.32v9.98c0 1.87-.55 3.38-1.5 4.33-.96.95-2.46 1.5-4.33 1.5a5.83 5.83 0 0 1-5.47-2.42zm12.44-13.17h12.62v3.6h-8.29v2.45h7.52v3.38h-7.52v2.46h8.48v3.78h-12.63V82.17l-.18-.04zm18.24 3.78h-4.7v-3.78h13.72v3.78h-4.7v11.85h-4.32V85.91zm-30.28 15.41h8.11c1.88 0 3.38.55 4.33 1.32.66.74 1 1.65.96 2.64 0 1.88-.96 2.83-2.46 3.6 1.87.55 3.2 1.69 3.2 3.78 0 2.64-2.28 4.33-5.84 4.33h-8.08v-15.63l-.22-.04zm9.03 4.92c0-.96-.73-1.32-1.87-1.32h-2.83v2.82h2.65c1.28-.22 2.05-.58 2.05-1.5zm-1.5 4.33h-3.38v2.82h3.38c1.32 0 2.05-.55 2.05-1.5.18-.77-.55-1.36-2.05-1.32zm7.15-9.25h7.34c2.46 0 4.15.55 5.1 1.69.96.95 1.32 2.05 1.32 3.6 0 2.45-1.32 3.96-3.19 4.88l3.78 5.46h-4.88l-3.2-4.7h-1.86v4.7h-4.33l-.08-15.63zm7.16 7.52c1.5 0 2.27-.73 2.27-1.87 0-1.32-.95-1.87-2.27-1.87h-2.83v3.74h2.83zm11.85-7.52h4.15l6.6 15.82h-4.73l-1.14-2.83h-6.02l-.95 2.64h-4.52l6.6-15.63zm3.74 9.4l-1.69-4.34-1.68 4.52h3.37v-.19zm7.56-9.4h4.33v15.63h-4.33v-15.63zm5.43 0h4.15l6.38 8.3v-8.3h4.33v15.63h-3.78l-6.79-8.66v8.66h-4.29v-15.63zm15.05 13.36l2.45-2.83a7.44 7.44 0 0 0 5.1 1.87c1.14 0 1.88-.36 1.88-1.13 0-.77-.55-.96-2.65-1.5-3.37-.74-5.83-1.7-5.83-4.89 0-2.82 2.28-5.1 6.02-5.1a10 10 0 0 1 6.38 2.06l-2.27 3c-1.5-.95-3.01-1.5-4.33-1.5-1.14 0-1.5.37-1.5.95 0 .74.54.96 2.64 1.5 3.6.74 5.83 1.88 5.83 4.89 0 3.2-2.46 5.1-6.39 5.1-2.64.22-5.28-.66-7.33-2.42z"/>
</svg>
