<svg xmlns="http://www.w3.org/2000/svg" viewBox="0 0 1200 500">
  <path fill="#00b2d3" d="M306.8 474.4c-17.6 2.7-53 18.5-15.5 24 37.6 5.5 434.2-32 615.2-13.1 28.6 3.1 22.8-7-5.4-9.7-52-10.2-526.7-13.8-594.3-1.2"/>
  <path fill="#003e7e" d="M632.7 381.5c-12.8-5-16.5-17.5-16.5-25.1.2-33.2 15.2-62.6 18.8-70.2 3.5-7.7-11.7-18.9-29.7-14.9-18 4.2-31.3 26.9-34.4 31-3.2 4-7.9 5.4-5-4.6 0-1 1.5-5.3 1.8-6.3.7-2.4 1.4-5.2-.6-8.4-2.7-4.5-23-7.6-34.5-.9-15 8.5-25.3 32.5-27 22.7.1-.4-.8-4.4-1.6-6-1.8-2.6-9.6-4.1-17-.5-7.5 3.5-11.8 13.7-13.9 17.2l-2 3.6-5 9.2c-2.3 3.6-9.9 19-11.5 22.3-2 3.7-1 7.3 1.2 10.4 1.8 2.5 8.5 6.1 11.3.7 1.4-2 2.3-4.5 3.4-6.8l-.2.7.2-.8 6-13.6c0-.6 3.6-7.9 7-14.6 2.6-4 9.4-7.2 7.9 1.5-.8 4.7-3.6 13.5-5.2 19.3-.8 3.3 5.9 10.8 10.5-1.3a99.5 99.5 0 0 1 22.4-35.8c3.4-3 11.6-5.5 9.9 2.4a154.3 154.3 0 0 0 1.6 52.4c3.6 18 18.4 20.6 26.2-4.1a263.9 263.9 0 0 1 27-57.8c7.9-11.2 22-14.9 16.3-2.4-.4 1.5-6 14.7-8 23.3-3.1 13.2-7.2 35.5-1.3 49 6.8 15.9 37.2 26.6 42.8 20.5 3.8-4.1 3.8-9.9-1-12.2M402 330.8C371.3 223 461.8-4.6 504.4 26.4c16.7 12.2 19.8 84.6-21.7 176.8-12 26.8-63.6 107.3-80.7 127.6m100.5 50.4c-4 1.2-37 29.6-70.7 9.2-16.3-9.5-20.7-24-26.3-44.5C526 185.7 537.7 84.9 528.5 36 525 16 514.8-8.5 474.6 4.8 433.5 20.6 390.3 83 374 197c-7.9 54.6.2 119.1 8.3 150.4-34 34-67.5 39.8-67.5 39.8s-16.4 3-13.7 20c.2 1 1.7 21 63.2-22.7 8.7-6.1 17.1-11.6 25.4-20.1 25.3 59.2 96.6 42.4 118.7 34.6a13 13 0 0 0 4-2.5c6.8-7.6-3-18.5-10-15.2m335-80.6C804.2 350.7 759 365 759 365s-68.6 27.4-89.8 1.4c-21.1-26.1 6.8-70.7 11.8-78.7 4.8-7.7 25.1-27.8 25.1-14.4 0 12-5 35 9.3 28.5a27.4 27.4 0 0 0 10.1-12c5.3-11.2 10.2-30.3-7.6-41.1-26.8-16-55.6 18-63.5 43-5.4 18.7-15.9 52.7 2.7 73.9 44.3 49.3 130 28 189.5-19.1 45.2-38.5 24.3-96.1-9.1-46"/>
</svg>
