<svg xmlns="http://www.w3.org/2000/svg" viewBox="0 0 1200 420">
  <path fill="#868686" d="M795.77 337.67c0 6.73-2.51 11.94-7.35 15.71-4.84 3.77-11.43 5.66-19.8 5.66a49.64 49.64 0 0 1-20.85-3.52v-8.55a55.17 55.17 0 0 0 21.17 4.28c5.9 0 10.37-1.14 13.39-3.4 2.95-2.2 4.46-5.34 4.46-9.36 0-2.64-.57-4.77-1.57-6.47a14.64 14.64 0 0 0-5.34-4.65c-2.52-1.45-6.29-3.08-11.31-4.84a36.2 36.2 0 0 1-15.27-9.05 19.92 19.92 0 0 1-4.53-13.63c0-5.84 2.2-10.56 6.6-14.01 4.4-3.46 10.24-5.22 17.6-5.22 7.53 0 14.45 1.39 20.85 4.21l-2.76 7.67c-6.28-2.64-12.44-3.96-18.35-3.96-4.71 0-8.35 1-11 3.02-2.63 2.07-3.95 4.83-3.95 8.42 0 2.63.44 4.83 1.44 6.47.95 1.7 2.58 3.26 4.9 4.65 2.33 1.44 5.85 2.95 10.62 4.7a42.1 42.1 0 0 1 16.53 9.18c3.01 3.27 4.52 7.54 4.52 12.7zm56.86 20.3H810.1v-76.22h42.53v7.86h-33.61v24.5h31.6v7.86h-31.6v28.08h33.61zm24.2-31.73v31.73h-8.93v-76.22h20.86c9.43 0 16.34 1.76 20.74 5.34 4.52 3.59 6.72 8.99 6.72 16.15 0 10.06-5.09 16.97-15.33 20.49l20.73 34.24h-10.49l-18.47-31.73h-15.9zm0-7.54h12.12c6.28 0 10.87-1.26 13.82-3.77 2.9-2.51 4.34-6.28 4.34-11.19 0-5.02-1.5-8.67-4.46-10.93-2.96-2.2-7.73-3.33-14.33-3.33h-11.5zm100.84-37h9.61l-27.52 76.27h-8.8l-27.33-76.28h9.43l17.53 49.39a141.45 141.45 0 0 1 4.77 16.52 135.2 135.2 0 0 1 4.9-16.84zm21.17 76.27v-76.22h8.8v76.22zm79.36-65.35a40.34 40.34 0 0 0-17.34-4.08c-8.36 0-15.02 2.83-19.86 8.42a33.74 33.74 0 0 0-7.22 22.87c0 10.05 2.32 17.72 6.97 23.18 4.71 5.4 11.31 8.17 20.04 8.17 5.28 0 11.31-1 18.23-2.89v7.73c-5.35 2.01-11.88 3.02-19.6 3.02-11.26 0-19.93-3.46-26.02-10.24-6.1-6.8-9.11-16.53-9.11-29.03 0-7.86 1.44-14.77 4.4-20.67a31.67 31.67 0 0 1 12.69-13.7c5.53-3.14 12.06-4.78 19.6-4.78 7.98 0 14.96 1.45 20.99 4.4zm59.44 65.35h-42.54v-76.22h42.54v7.86h-33.62v24.5h31.6v7.86h-31.6v28.08h33.62zm60.31-20.3c0 6.73-2.38 11.94-7.28 15.71-4.84 3.77-11.44 5.66-19.8 5.66a49.64 49.64 0 0 1-20.86-3.52v-8.55a55.1 55.1 0 0 0 21.18 4.28c5.9 0 10.37-1.14 13.38-3.4 2.95-2.2 4.46-5.34 4.46-9.36 0-2.64-.5-4.77-1.57-6.47a14.77 14.77 0 0 0-5.34-4.65c-2.51-1.45-6.28-3.08-11.3-4.84a36.2 36.2 0 0 1-15.28-9.05 19.92 19.92 0 0 1-4.52-13.63c0-5.84 2.2-10.56 6.6-14.01 4.4-3.46 10.24-5.22 17.59-5.22 7.54 0 14.45 1.39 20.86 4.21l-2.76 7.67c-6.29-2.64-12.45-3.96-18.35-3.96-4.71 0-8.36 1-11 3.02-2.64 2.07-3.96 4.83-3.96 8.42 0 2.63.44 4.83 1.45 6.47.94 1.7 2.58 3.26 4.9 4.65 2.33 1.44 5.84 2.95 10.68 4.7 7.92 2.84 13.45 5.91 16.46 9.18 3.02 3.27 4.53 7.54 4.53 12.7z"/>
  <path fill="#5d5d5d" d="M545.02 244.88V74.44h36.14v140.6h69.13v29.84zm99.56-130.34h38.93l24.6 73.32c2.1 6.38 3.54 13.92 4.32 22.62h.7a99.7 99.7 0 0 1 5-22.62l24.14-73.32h38.12l-55.14 147c-5.06 13.6-12.26 23.79-21.63 30.55-9.36 6.76-20.3 10.14-32.81 10.14-6.15 0-12.17-.66-18.07-1.98v-28.21a60.7 60.7 0 0 0 13.99 1.51c6.3 0 11.8-1.92 16.5-5.77 4.7-3.84 8.37-9.65 11.01-17.42l2.1-6.42zm238.48 130.34v-76.13c0-9.4-1.67-16.46-5-21.16-3.35-4.7-8.67-7.06-15.98-7.06-9.95 0-17.14 3.33-21.57 9.97-4.43 6.64-6.65 17.66-6.65 33.05v61.33h-35.55V114.54h27.16l4.78 16.67h1.98a37.57 37.57 0 0 1 16.38-14.28c6.95-3.23 14.86-4.84 23.72-4.84 15.15 0 26.66 4.1 34.5 12.3 7.85 8.2 11.78 20.03 11.78 35.5v84.99zm123.16-26c6.21 0 13.68-1.36 22.39-4.08v26.46c-8.86 3.97-19.75 5.95-32.64 5.95-14.23 0-24.58-3.6-31.07-10.78-6.49-7.2-9.74-17.98-9.74-32.36v-62.83h-17.02V126.2l19.59-11.9 10.26-27.5h22.73v27.74h36.5v26.7h-36.5v62.83c0 5.06 1.42 8.78 4.25 11.19 2.83 2.42 6.58 3.62 11.25 3.62z"/>
  <path fill="#f6a30d" d="M195.12 313.22a50.45 50.45 0 0 0 .21-20.97 85.9 85.9 0 0 0 20.03-16.6 70.79 70.79 0 0 0-8.68-15.64 76.46 76.46 0 0 0-25.72 7.18 50.3 50.3 0 0 0-18.17-10.52 83.41 83.41 0 0 0-4.31-25.33 73.86 73.86 0 0 0-18.02-.27 76.5 76.5 0 0 0-6.9 25.62 51.78 51.78 0 0 0-18.36 10.54 83.81 83.81 0 0 0-24.32-8.78 73.17 73.17 0 0 0-9.43 15.4 74.9 74.9 0 0 0 18.87 18.48 50.76 50.76 0 0 0-.21 20.98 85.3 85.3 0 0 0-20.03 16.6 70.22 70.22 0 0 0 8.7 15.65 76.96 76.96 0 0 0 25.73-7.18 50.13 50.13 0 0 0 18.15 10.51c.1 8.3 1.51 16.98 4.31 25.33 6 .88 12.03.84 18.03.28a76.9 76.9 0 0 0 6.89-25.63 51.5 51.5 0 0 0 18.38-10.54 83.94 83.94 0 0 0 24.3 8.8 73.82 73.82 0 0 0 9.43-15.41 74.72 74.72 0 0 0-18.88-18.5zm-65.54-7.13a17.94 17.94 0 0 1 15.84-19.61c9.73-1.08 18.47 6 19.43 15.74a17.91 17.91 0 0 1-15.84 19.6 17.56 17.56 0 0 1-19.43-15.73z" clip-rule="evenodd"/>
  <path fill="#575756" d="M364.78 331.02c-2.68-13.22-7.1-24.98-11.82-35.33-.33.39-.67.76-1.03 1.11 1.82 4.51 3.51 9.27 5.01 14.26 1.95 6.44 3.5 13.3 4.46 20.44 1 7.3 1.14 14.7.42 22.04a76.13 76.13 0 0 1-2.17 11.09c-3 10.87-7.63 21.04-17.52 27.45-6.7 4.35-14.7 8.1-22.69 9.47-9.81 1.7-20.12.78-29.87-.72-10.05-1.55-20.33-4.49-30.75-8.21-5.44-2-10.8-4.23-16.06-6.67a243.7 243.7 0 0 1-16.39-8.24c-2.72-1.55-5.52-3.06-8.2-4.74L214 370.5l-4.12-2.6c-2.81-1.74-16.32-9.91-17.68-10.9l-16.36 2.15L173 371.5c1.64 1.17 6.56 5.11 8.23 6.21 3.3 2.21 6.5 4.46 9.85 6.5a251.81 251.81 0 0 0 39.26 20.42c6.39 2.64 12.86 4.8 19.2 6.78 12.38 3.66 24.63 6.02 36.58 6.68 5.76.34 11.45.31 17.01-.18a88.02 88.02 0 0 0 15.87-2.74 73.67 73.67 0 0 0 14.38-5.38 63.42 63.42 0 0 0 12.3-8.13c.9-.8 1.85-1.54 2.69-2.4.85-.86 1.69-1.7 2.5-2.55.84-.93 1.63-1.89 2.43-2.83l.57-.7.48-.65.93-1.29a57.85 57.85 0 0 0 6.64-12 69.84 69.84 0 0 0 3.7-12.57c.76-4.2 1.15-8.35 1.3-12.43a105.4 105.4 0 0 0-2.14-23.2zM86.73 298.35c-5-2.24-9.92-4.66-14.73-7.28a166.6 166.6 0 0 1-23.5-15.38c-7.53-5.9-14.72-12.77-20.69-20.67-5.87-7.74-10.6-17.16-12.49-26.21-1.98-10.07-.82-18.69 2.73-27.96 3.82-8.84 10.29-16.74 18.25-23.47 2.87-2.43 5.92-4.7 9.14-6.85l5.6-15.76-13.29-2.88c-5 3.8-9.67 7.94-13.98 12.38-8.64 8.93-15.55 19.63-19.18 31.38a62.49 62.49 0 0 0 .15 35.56c3.9 11.07 9.38 20.59 17.1 28.7 7.21 8.08 15.44 14.51 23.64 20.1 13.86 9.28 27.96 15.82 41.26 20.92zM239.37 33.88a141.3 141.3 0 0 1 29.1-6.96 101.56 101.56 0 0 1 31.44.78c5.2 1.1 10.3 2.67 15.2 4.79a65.19 65.19 0 0 1 13.53 8.28c12.87 10.64 19.8 26.03 21.46 42.3.94 11.73-.37 23.3-2.93 33.89-1.3 5.57-7.82 24.13-10.17 30.6l2.6 11.07 15.8-3.1c1.8-4.35 4.3-13.43 5.74-18 2.01-6.29 3.62-12.7 4.8-19.19 2.34-13.68 2.8-27.52.59-40.26a86.24 86.24 0 0 0-5.87-19.33 69.95 69.95 0 0 0-24.8-29.45 73.8 73.8 0 0 0-16.73-7.89 90.43 90.43 0 0 0-17.56-3.45c-11.75-1-23.16.12-33.8 2.41-21.3 4.72-39.36 13.5-54.32 22.43l-2.5 1.58c.64.43 1.26.9 1.88 1.38a194.76 194.76 0 0 1 26.54-11.88z"/>
  <path fill="#8dbe32" d="M367.43 238.19c8.22-1.67 16.27-4.1 24.04-7.27 0-4.77-.38-9.54-1.13-14.25-8.2-2.45-16.66-4-25.2-4.6a74.34 74.34 0 0 0-7.36-17.35c5.47-6 10.74-12.84 15.15-20a91.25 91.25 0 0 0-9.3-10.83 117.74 117.74 0 0 0-23.05 11.08c-5.16-3.87-10.6-7.5-16.18-9.69.96-8.25 1.15-16.68.5-25.09-4.51-1.59-9.22-2.46-13.9-3.38a119.52 119.52 0 0 0-12.14 22.6c-6.54-.5-12.83.68-18.8 1.58-4-7.07-8.8-14-14.3-20.6-4.5 1.66-9.02 3.3-13.23 5.58.18 8.63 1.44 17.26 3.43 25.36-5.24 3.69-10.48 7.74-14.21 12.38a131.06 131.06 0 0 0-23.7-8.27 91.52 91.52 0 0 0-7.5 12.23 120.78 120.78 0 0 0 17.65 18.48c-2.1 6.17-3.63 12.34-4.16 18.39A133.57 133.57 0 0 0 200 231.8c.05 4.76.33 9.55 1.14 14.26 8.2 2.46 16.65 4 25.19 4.58a72.45 72.45 0 0 0 7.35 17.36 136.25 136.25 0 0 0-15.15 20.02 94.96 94.96 0 0 0 9.3 10.84 118.5 118.5 0 0 0 23.05-11.09c5.14 3.88 10.6 7.5 16.17 9.68a130.63 130.63 0 0 0-.5 25.1c4.52 1.59 9.22 2.46 13.9 3.39 4.95-7.42 8.98-14.7 12.13-22.62 6.56.5 12.83-.69 18.81-1.59 4.01 7.1 8.8 14 14.32 20.61 4.48-1.67 9-3.3 13.22-5.58a115.98 115.98 0 0 0-3.45-25.37c5.26-3.68 10.48-7.73 14.22-12.37 7.62 3.5 15.56 6.27 23.7 8.28a92.25 92.25 0 0 0 7.51-12.25 120.46 120.46 0 0 0-17.66-18.47 78.89 78.89 0 0 0 4.18-18.39zm-56.73 9.85a22.95 22.95 0 1 1-30.13-34.63 22.95 22.95 0 0 1 30.13 34.63z" clip-rule="evenodd"/>
  <path fill="#e94a3b" d="M219.3 139.51c1.83-5.71 3.62-11.44 4.27-16.98a162.32 162.32 0 0 0 22.03-5.08c.13-4.14.3-8.33.11-12.47a145.1 145.1 0 0 0-21.95-6.82c-.75-5.85-2.44-11.44-4.09-17.07 5.9-4.39 11.58-9.29 17.04-14.7-1.5-3.88-3.7-7.44-5.6-11.14-7.76.78-15.45 2.26-22.64 4.2-3.38-5.02-7.61-9.18-11.5-13.2 3.24-6.8 6-13.83 8.25-21.03-3.08-2.77-6.7-4.86-10.08-7.25a142.7 142.7 0 0 0-18.06 14.3c-5.32-2.87-10.98-4.61-16.28-6.39a159.92 159.92 0 0 0-2.4-22.46c-4.04-1-8.22-1.19-12.32-1.73a141.76 141.76 0 0 0-9.36 21.1c-6.04-.08-11.83 1.09-17.33 2.01a154.77 154.77 0 0 0-12.53-18.81 90.8 90.8 0 0 0-11.67 4.21c-.22 7.7.37 15.6 1.46 23.07-5.35 2.76-10.1 6.3-14.41 9.84A148.08 148.08 0 0 0 62.4 32.29c-3 2.85-5.79 5.93-8.34 9.19a135.3 135.3 0 0 0 12 19.75c-3.48 4.94-6 10.31-8.22 15.44-7.51-.72-14.95-.8-22.54-.38a89.35 89.35 0 0 0-3.14 12.05c6.2 4.56 12.98 8.58 19.75 11.94-.72 6-.58 11.92-.08 17.51-6.96 2.9-13.67 6.3-20.11 10.2a85.6 85.6 0 0 0 2.81 12.1 132.3 132.3 0 0 0 22.97 1.4c2.3 5.54 4.78 11 8 15.56-4.82 5.83-9.2 12-13.1 18.47 2.64 3.2 5.14 6.55 8.14 9.4 7.39-2.65 14.25-5.7 20.94-9.51 4.65 3.8 9.34 7.51 14.32 10.04a154.4 154.4 0 0 0-3.07 22.46c3.8 1.65 7.56 3.4 11.54 4.57a133.6 133.6 0 0 0 14.15-18.2c5.85 1.26 11.73 2.32 17.3 2.24a154.5 154.5 0 0 0 7.72 21.33c4.12-.4 8.3-.47 12.33-1.35 1.97-7.7 3.4-15 4.06-22.72 5.73-1.72 11.45-3.44 16.35-6.07a164.4 164.4 0 0 0 16.7 15.35c3.48-2.25 7-4.46 10.3-6.98a145.7 145.7 0 0 0-6.92-22.03c4.27-4.21 8.43-8.48 11.62-13.05a163.7 163.7 0 0 0 21.86 5.8c2.02-3.6 4.14-7.2 5.87-10.96a141.9 141.9 0 0 0-16.31-16.33zm-74.17-4.1a27.79 27.79 0 1 1-13.12-54 27.79 27.79 0 0 1 13.12 54z" clip-rule="evenodd"/>
</svg>
