<svg xmlns="http://www.w3.org/2000/svg" viewBox="0 0 270 113">
  <path d="M262.15 91.07c4.88 1.5 6.85 3.52 6.85 6.94 0 4.37-3.38 7.04-8.82 7.04-3.57 0-6.1-1.08-7.8-3.33-.79-1.03-1.45-2.58-1.45-3.42 0-1.08.94-2.02 2.07-2.02 1.03 0 1.55.47 1.97 1.92.7 2.3 2.63 3.61 5.3 3.61 2.72 0 4.64-1.45 4.64-3.42 0-1.78-.8-2.44-3.98-3.52l-3-.94c-4.18-1.36-5.92-3.19-5.92-6.24 0-3.99 3.2-6.57 8.07-6.57 3.24 0 5.77 1.08 7.32 3.05a5.78 5.78 0 0 1 1.32 3.05c0 .94-.85 1.74-1.88 1.74-.75 0-1.22-.38-1.64-1.22a6.56 6.56 0 0 0-1.13-1.97 5.33 5.33 0 0 0-3.99-1.55c-2.48 0-4.17 1.22-4.17 2.96 0 1.5.8 2.2 3.23 3zm-48.09-7.32c0-1.55.76-2.49 2.07-2.49 1.03 0 1.78.7 1.97 1.79.05.28.05.42.05 1.08 1.64-2.02 3.8-3 6.38-3a6.93 6.93 0 0 1 6.33 3.51 8.93 8.93 0 0 1 7.32-3.52c4.88 0 7.46 2.86 7.46 8.17v13.13c0 1.55-.75 2.5-2.02 2.5-1.31 0-2.06-.95-2.06-2.5V89.57c0-3.24-1.5-4.88-4.41-4.88-1.5 0-2.86.66-3.9 1.83-.94 1.03-1.36 2.58-1.36 4.78v11.12c0 1.55-.75 2.5-2.01 2.5-1.32 0-2.07-.95-2.07-2.5V89.76c0-3.38-1.45-5.02-4.4-5.02-1.88 0-3.43.84-4.33 2.39-.75 1.17-.93 2.3-.93 5.11v10.18c0 1.55-.75 2.5-2.02 2.5-1.31 0-2.07-.95-2.07-2.5zm-22.23 10.32c.1 4.88 2.53 7.56 6.8 7.56 2.54 0 4.13-.94 5.73-3.43.65-1.03 1.08-1.31 1.92-1.31 1.17 0 2.02.8 2.02 1.87 0 .66-.33 1.46-.94 2.21a10.83 10.83 0 0 1-8.63 4.08c-6.8 0-11.12-4.6-11.12-11.87 0-7.13 4.4-12.06 10.88-12.06 5.87 0 10.09 4.37 10.09 10.51 0 1.83-.56 2.44-2.3 2.44h-14.45zm12.71-3.28c-.47-4.13-2.58-6.24-6.19-6.24-3.56 0-5.77 2.1-6.43 6.24zm-21.43-9.2c1.3 0 2.1.66 2.1 1.69 0 1.13-.8 1.74-2.1 1.74h-2.26v13.32c0 2.25.7 2.91 3.05 2.96.99 0 1.74.75 1.74 1.73 0 1.04-.75 1.7-1.93 1.7h-1.03c-2.34 0-3.52-.38-4.5-1.32-1.03-1.08-1.4-2.35-1.4-4.79v-13.6h-2.03c-1.31 0-2.06-.61-2.06-1.74 0-1.08.75-1.69 2.06-1.69h2.02V76.9c0-1.6.75-2.49 2.02-2.49 1.31 0 2.06.9 2.06 2.49v4.7zm-19.38 9.48c4.88 1.5 6.85 3.52 6.85 6.94 0 4.37-3.38 7.04-8.82 7.04-3.57 0-6.1-1.08-7.79-3.33-.8-1.03-1.45-2.58-1.45-3.42 0-1.08.94-2.02 2.06-2.02 1.03 0 1.55.47 1.97 1.92.7 2.3 2.63 3.61 5.3 3.61 2.72 0 4.65-1.45 4.65-3.42 0-1.78-.8-2.44-3.99-3.52l-3-.94c-4.18-1.36-5.91-3.19-5.91-6.24 0-3.99 3.19-6.57 8.07-6.57 3.23 0 5.77 1.08 7.31 3.05a5.79 5.79 0 0 1 1.32 3.05c0 .94-.85 1.74-1.88 1.74-.75 0-1.22-.37-1.64-1.22a6.54 6.54 0 0 0-1.13-1.97 5.32 5.32 0 0 0-3.98-1.55c-2.49 0-4.18 1.22-4.18 2.96 0 1.5.8 2.2 3.24 3zm-17.78-7.93c.47-1.31 1.08-1.88 2.12-1.88 1.07 0 2.01.9 2.01 1.93 0 .33-.1.75-.23 1.22l-7.09 20.03c-1.83 5.21-2.44 6.29-4.27 7.23-.89.47-2.39.75-3.75.75-2.02 0-3.14-.7-3.14-2.02 0-1.03.51-1.69 1.36-1.69.19 0 .47 0 .84.05.43.1.8.1 1.18.1 2.01 0 2.9-.94 4.03-4.18l-7.7-20.04a4.73 4.73 0 0 1-.37-1.45c0-.99 1.03-1.93 2.11-1.93 1.03 0 1.6.52 2.07 1.79l5.72 15.8zm-25.47 7.93c4.88 1.5 6.85 3.52 6.85 6.94 0 4.37-3.38 7.04-8.82 7.04-3.57 0-6.1-1.08-7.79-3.33-.8-1.03-1.45-2.58-1.45-3.42 0-1.08.94-2.02 2.06-2.02 1.03 0 1.55.47 1.97 1.92.7 2.3 2.63 3.61 5.3 3.61 2.73 0 4.65-1.45 4.65-3.42 0-1.78-.8-2.44-3.99-3.52l-3-.94c-4.18-1.36-5.91-3.19-5.91-6.24 0-3.99 3.19-6.57 8.07-6.57 3.23 0 5.77 1.08 7.32 3.05a5.79 5.79 0 0 1 1.31 3.05c0 .94-.85 1.74-1.88 1.74-.75 0-1.22-.37-1.64-1.22a6.48 6.48 0 0 0-1.13-1.97 5.33 5.33 0 0 0-3.98-1.55c-2.49 0-4.18 1.22-4.18 2.96 0 1.5.8 2.2 3.24 3z"/>
  <path fill="#3093cc" d="M0 0h101.12v92.02H0z"/>
  <path fill="#fff" d="M73.19 69.17c0 5.2 2.53 8.49 6.52 8.49 2.72 0 4.64-1.36 5.77-4.08.52-1.27 1.03-1.7 1.97-1.7 1.17 0 2.02.85 2.02 1.93 0 1.17-.61 2.53-1.6 3.75-1.97 2.4-4.64 3.52-8.2 3.52-3.3 0-5.87-.98-7.66-2.95-1.92-2.16-3.05-5.5-3.05-9.1 0-7.18 4.32-11.88 10.89-11.88 3.24 0 5.77 1.08 7.7 3.29.84.98 1.5 2.3 1.5 3.14 0 1.08-.94 2.02-2.07 2.02-.98 0-1.5-.42-2.06-1.64a5.1 5.1 0 0 0-5.12-3.38c-4.08 0-6.61 3.28-6.61 8.59zm-9.67 9.29c0 1.55-.75 2.48-2.06 2.48-1.27 0-2.02-.94-2.02-2.48V51.48c0-1.55.75-2.49 2.02-2.49 1.31 0 2.06.9 2.06 2.49zM54 69.12c0 7.41-4.27 11.96-11.16 11.96-6.57 0-10.75-4.73-10.75-12.15 0-7.04 4.41-11.78 10.94-11.78 6.7 0 10.97 4.65 10.97 11.97zm-17.68.05c0 5.49 2.44 8.63 6.75 8.63 4.22 0 6.71-3.14 6.71-8.45 0-5.63-2.39-8.77-6.66-8.77-4.36 0-6.8 3.1-6.8 8.59z"/>
</svg>
