<svg xmlns="http://www.w3.org/2000/svg" id="Icons" viewBox="-122 292 612 78">
  <style id="style2">
  </style>
  <g id="g852" fill="#f80000" fill-rule="evenodd" stroke-width="1.05" transform="translate(-121.39 292.69) scale(.95606)">
    <path id="path848" d="M266 52.12h40.65l-21.5-34.59-39.45 62.53h-17.95l47.98-75.1a11.34 11.34 0 0 1 9.42-4.88c3.73 0 7.21 1.77 9.23 4.75l48.18 75.23H324.6l-8.47-13.97h-41.16zm186.5 13.97V.84h-15.23v71.63c0 1.96.76 3.86 2.21 5.32a7.78 7.78 0 0 0 5.56 2.27h69.48l8.98-13.97zm-252.06-11.7a26.77 26.77 0 1 0 0-53.55h-66.66v79.22h15.23V14.82h50.41c7.09 0 12.78 5.75 12.78 12.83s-5.7 12.83-12.78 12.83l-42.95-.06 45.48 39.64h22.13l-30.6-25.67zM40.02 80.06A39.6 39.6 0 0 1 .41 40.48 39.65 39.65 0 0 1 40.02.84h46.05a39.64 39.64 0 0 1 39.6 39.64 39.58 39.58 0 0 1-39.6 39.58zM85.04 66.1a25.6 25.6 0 0 0 25.65-25.6 25.66 25.66 0 0 0-25.65-25.67h-44A25.67 25.67 0 0 0 15.4 40.48a25.61 25.61 0 0 0 25.64 25.6zm289.32 13.97a39.6 39.6 0 1 1 0-79.22h54.69l-8.92 13.98h-44.76a25.63 25.63 0 1 0 0 51.27h54.94l-8.98 13.97zM560.68 66.1a25.6 25.6 0 0 1-24.66-18.65h65.12l8.98-13.97h-74.1a25.68 25.68 0 0 1 24.66-18.65h44.7L614.42.84h-54.75a39.6 39.6 0 0 0 0 79.22h46.97l8.98-13.97z"/>
    <path id="path850" d="M622.57 9.25c0-3.85 3.1-6.95 6.96-6.95 3.92 0 7.01 3.1 7.01 6.95 0 3.92-3.1 7.02-7.01 7.02a6.95 6.95 0 0 1-6.96-7.02zm6.96 8.98a8.9 8.9 0 1 0 0-17.83 8.89 8.89 0 0 0-8.85 8.92 8.9 8.9 0 0 0 8.85 8.9zM628.7 4c1.4 0 1.96.07 2.6.32 1.77.57 1.96 2.15 1.96 2.78 0 .13 0 .44-.13.82a2.56 2.56 0 0 1-1.2 1.71c-.13.06-.2.13-.44.25l2.27 4.11h-2.21l-2.02-3.79h-1.4V14h-1.95V4zm.7 4.56c.63-.07 1.26-.07 1.64-.64.2-.25.26-.5.26-.88 0-.5-.32-.95-.76-1.2-.44-.2-.89-.2-1.84-.2h-.56v2.92z"/>
  </g>
</svg>
