<svg xmlns="http://www.w3.org/2000/svg" viewBox="0 0 4360 900">
  <path fill="#d50911" fill-rule="evenodd" d="M435 58l-73 14-48 11c-15 4-30 7-44 12l-41 14a270 270 0 0 0-109 81l-19 31c-6 10-9 23-9 35 0 35 22 65 48 87l26 20c27 19 56 35 86 50l93 42c30 13 60 23 91 34l26 9 84 28c17 6 35 12 52 20 18 8 36 16 52 28a86 86 0 0 1 37 64c0 12-3 24-10 35-17 27-47 45-76 58a1217 1217 0 0 1-209 69l-78 21a1096 1096 0 0 1-123 28l-27 6-56 12-64 14-19 4c-6 1-26 6-11 5 21-1 79-6 201-23l133-21c55-9 110-20 165-33l47-12 30-9c43-13 112-37 128-44 62-27 101-48 121-97a118 118 0 0 0-9-105c-9-14-20-26-32-38-23-21-48-38-75-52l-23-11-30-13-43-16-113-37-63-23-26-12-29-16c-12-7-31-19-26-36 4-12 17-17 27-21l30-9c31-8 63-13 94-20l28-6c24-6 50-10 73-19 20-8 46-21 53-42 11-32-1-67-19-94l-19-29-29-37c-4-6-10-5-15-4-8 2-24 21-158 47"/>
  <path fill-rule="evenodd" d="M2462 379l2-4 2-4 2-3 2-3 1-3 1-2 1-2 1-1 3-6 2-3 2-3 5-8 3-4 3-5 1-1h1l2 1 1 1 2 2 3 4 3 6 4 8 4 10 4 12 1 2 1 3 2 4 2 6v2l1 3 1 2v8l-2 2-1 1-3 1-3 1-4 1h-4l-25 2h-25l-3-1-2-1-2-1-1-1-1-2v-4l1-3 2-3 2-3 2-3 2-2 1-2 1-2 2-2m-163 122l4 1c14 4 21 13 10 26l-9 13-2 4c-2 4-4 7-4 12v2c1 6 6 13 9 18 6 11 13 21 21 31 1 2 17-25 19-27l19-23c8-10 16-19 27-26 11-6 23-9 36-10l37-3c25-1 51-4 76-7 10-1 24-3 33 1 9 5 15 13 22 20l23 26 27 31 20 17 4 2c13 6 21-2 24-15 4-19-7-37-15-53l-13-26c-3-7-7-19-1-26 5-5 15-6 21-7l23-6c15-3 31-7 47-9 9-1 23-8 31 0 10 10 0 29-3 40-6 18-13 36-15 55-2 17 2 36 13 49 8 10 22 19 34 11 10-6 17-18 22-29 8-20 14-41 21-61l19-55 16-40 11-25c3-7 4-16 11-21 9-5 19 10 23 16l22 31c8 11 15 27 28 33 22 11 42-15 54-29l26-30 28-31c6-7 14-20 24-20 9 0 11 9 11 16 4 33 5 66 10 99l6 36 3 17 5 24 13 50c4 14 10 29 22 39 14 12 39 8 47-8 2-3 3-8 3-11 2-8 1-16 0-25-2-29-10-57-11-86l2-36c2-28 6-56 7-84 2-34 5-70-5-103a111 111 0 0 0-28-48c-6-7-13-13-22-17-8-4-18-7-26-8-21-1-43 11-59 23-14 10-27 22-39 35-21 23-43 46-61 71-5 7-12 20-23 19-13-2-20-21-24-32l-13-29-18-36c-5-10-9-21-17-29-8-10-19-14-31-18-8-3-20-6-29-1-11 7-9 23-10 34l-3 28c-2 23-4 47-9 69-2 10-6 23-14 29-7 5-15 4-23 5h-19l-44-1-37 2-33 2c-13 1-28 3-40-3-9-4-14-14-18-23-6-13-13-25-21-37l-19-32-28-46-19-30c-5-8-12-19-22-22-9-3-17 3-19 11l-1 17c-1 6-4 12-6 17-5 11-11 22-18 32-22 35-39 73-58 109l-11 20c-5 9-8 17-19 20-10 3-21 1-31 4-12 3-16 14-18 25l-4 30c-1 7-3 15-2 22zM944 703l-30 2c-12-1-19-8-24-18-5-13-8-27-11-40-3-12-5-25-4-38 1-7 2-12 8-17 9-7 21-3 31-8 8-5 11-15 12-24 1-15 0-31-1-46-2-39 0-78-5-117-1-9-4-19-14-22-19-5-20-25-21-41-1-10-1-23 3-33 6-13 21-20 34-25l39-11c13-4 27-6 40-8l42-6 41-5 39-4 45-2h41l40 1c14 0 28 2 41 3 20 3 39 6 56 17 18 12 29 36 12 53-18 18-46 15-69 15l-56 1-54 4-50 4a914 914 0 0 0-93 10c-11 2-25 4-34 13-6 6-7 17-4 25 5 16 29 12 42 11 29-1 57-6 86-8l39-2 48-1c14 1 28 2 41 5 17 3 32 10 48 17 20 7 17 32 13 48-2 8-4 16-12 21-17 11-42 8-61 8l-57 4-89 9-54 7c-12 1-28 0-38 9l-2 2-1 1-1 2-1 2c-1 8-9 33-1 39l2 1h3l30-1 45-3 87-7 58-4c29-3 57-4 86-5 17-1 34 0 50-8 19-8 35-23 53-33l71-34c29-14 57-30 87-43l68-30 33-15c7-4 26-13 21-25-2-6-10-7-16-7-22-3-76 1-110 7-54 9-62 17-77 2-11-12-9-30-7-45 2-16 9-39 14-45 16-21 67-23 91-25l38-1 53 1 45 3c17 2 36 2 53 8l16 6c17 8 33 19 45 34a69 69 0 0 1 15 46c-1 4-2 12-4 15l-1 1c-2 5-7 10-11 14-20 18-50 25-75 35l-36 16c-34 15-67 31-102 45-28 12-57 24-84 38-7 4-18 10-23 17-4 8 5 8 12 8l21-1 63-6 64-7 60-7a707 707 0 0 1 130 1l3 1h6c9 0 19-1 24-10 8-15 12-33 18-49a1095 1095 0 0 1 25-69l26-69 10-28c2-7 3-14 7-21 6-11 16-18 27-10 9 6 15 18 21 27 5 10 10 20 13 32 3 11 0 22-4 32l-11 34c-6 25 18 44 36 55 17 10 36 17 54 25 13 6 27 12 41 14 9 2 19 3 27-2 12-9 16-26 20-40l12-51 7-43 3-34c1-15 0-29-1-44 0-10 2-22 8-29 9-10 24-5 31 5l3 3c4 7 8 16 10 24 4 15 7 30 8 46l3 38c2 44-2 88-7 132-3 24-8 46-13 70-3 13-5 26-11 38l-14 22-9 8c-12 8-28 7-41 6a259 259 0 0 1-88-27l-33-17-31-20c-10-7-19-14-27-23-7-7-13-17-19-25-7-8-13-11-17 0-3 7-4 15-6 23l-11 40c-4 13-21 49-40 32-6-5-11-12-20-12s-18 4-27 6l-29 5-55 12a2925 2925 0 0 1-109 16l-57 7-46 5-38 4-64 5c-32 1-66 3-97-3-7-1-18-2-23-8-4-4-1-10-4-14v-1l-1-1-1-1-1-1h-3l-1 1-2 1-7-2-3 2-2 2-1 2-1 3c-7 22-30 31-51 33l-339 40m3169-172c-45 3-87 11-132 6-15-1-40-3-52-11-36-24 90-66 106-72 44-16 132-41 132-41s83-21 86-65c3-54-53-79-95-92a489 489 0 0 0-90-11c-23-1-45 1-68 4s-73 4-81 34c-4 15-21 46-6 60s40 8 58 7l76-10c19-2 43-6 59 8 19 17-31 33-41 38-38 16-78 28-116 44-36 15-72 29-107 46l-46 26-7-5-44 5-44 4-89 5c-15 1-38 1-50-10-26-24-11-58 6-81 18-25 44-44 71-60 18-11 38-20 58-26 14-4 28-8 42-10l7 12c1 2 34-12 37-13 10-5 24-16 25-29 0-16-13-31-25-39-14-9-29-12-45-12-17 0-35 1-52 3-12 2-24 4-36 8a289 289 0 0 0-121 73 200 200 0 0 0-43 76c-13 43-9 97 10 138 13 28 34 52 61 69 33 21 76 27 114 20 16-3 30-7 45-13 16-6 31-11 46-20 3-2 34-19 36-17l13 20c5 6 11 11 18 16 13 10 28 14 43 15a990 990 0 0 0 214 3l61-7c52-6 95-18 151-42 26-12 43-28 53-40l-19-10c-41-16-87-17-131-12l-60 6-28 2m-691 46c0-8 0-15-3-21-6-15-22-31-38-34-15-3-32 0-44 9-6 5-13 13-17 21-7 17-7 41 4 56 18 25 57 25 78 5 11-9 18-21 20-36"/>
</svg>
