<svg xmlns="http://www.w3.org/2000/svg" viewBox="0 0 1200 268">
  <path fill="#6dbb45" d="M597.82 191.3a35.64 35.64 0 0 0-35.57 35.57 35.63 35.63 0 0 0 35.57 35.51 35.61 35.61 0 0 0 35.52-35.57 35.49 35.49 0 0 0-35.52-35.52z"/>
  <path fill="#3c3d3a" d="M267.72 146.74c-28-4.51-35.04-6.8-35.04-15.4 0-10.08 4.52-14.6 26.02-14.6 21.69 0 67.9 6.03 67.9 6.03l.8-41.68s-45.5-9.34-72.31-9.34c-39.16 0-72.29 17.45-72.29 60.78 0 16.6 3.77 28.2 11.76 36.77 10.99 11.9 30.1 17.78 58.4 22.57 26.08 4.51 30.27 7.56 30.27 15.66 0 9.66-6.32 14.18-30.26 14.18-18.96 0-65.2-6.02-65.2-6.02l-1.5 42.15s43.97 8.9 71.53 8.9c46.67-.01 75.28-16.74 75.28-60.4 0-16.25-3-28.15-10.35-37.04-9.66-11.73-27-18.21-55-22.56zm107.85 115.48h49.98V1.26h-50.01v167.88zm99.97 0h50V76.23h-50v92.91zm298-93.07v45.66s-21.69 4.78-36.1 5.25c-23.1-.79-30.27-14.75-30.61-50.9v-2.14c0-36.9 11.6-50.25 30.26-50.25 15.99 0 36.64 3.32 36.64 3.32v49.11h-.19zm0-92.6s-26.5-4.78-40.19-4.78c-50.76 0-77.1 27.98-77.1 95.44v2.12c.27 63.85 17 97.17 72.69 97.17 18.98 0 44.73-11.63 44.73-11.63v7.54h49.7V1.26h-50.01v75.29zm194.28 94.88c0-33.45-7.25-50.92-34.2-50.92-26.96 0-34.19 17.47-34.19 50.92 0 33.46 7.17 51.19 34.16 51.19 26.95 0 34.18-17.8 34.18-51.19zm49.38 0c0 56.02-20.34 95.3-83.58 95.3-63.26 0-83.57-39.28-83.57-95.3 0-56.01 20.28-94.88 83.55-94.88 63.24 0 83.57 38.84 83.57 94.88z"/>
</svg>
