<svg xmlns="http://www.w3.org/2000/svg" viewBox="0 0 540 72">
  <path fill="#ed1c24" d="M162 13.6a56.4 56.4 0 0 0-29.7 7c-2.3 1.3-.4 4.9 2 3.6a56 56 0 0 1 27.6-6.3 55 55 0 0 1 27.6 6.3c2.4 1.3 4.4-2.2 2-3.5-9.1-4.8-16.8-7-29.5-7zm-.1-13a83.9 83.9 0 0 0-38 8.1c-3 1.4-.9 6 2 4.6a84.7 84.7 0 0 1 36-7.6c12.6 0 25 2.5 35.8 7.6 3 1.4 5-3 2.1-4.4a83.9 83.9 0 0 0-38-8.3z"/>
  <path fill="#231f20" d="M535.5 68.2h-1.4l-.8-1.7h-.4v1.7h-1.2v-4.6h1.9c2 0 2 2.2.8 2.6zm-1.4-3.2c0-.7-.5-.6-1.2-.6v1.2c.8 0 1.2 0 1.2-.6zm1.4-2.2c1.5.9 2 3.3 1.2 5-1.4 2.5-5.2 2.4-6.4-.3-1.6-3.4 2-6.7 5.2-4.7m-3.7-1.3c-5.3 1.9-3.6 9.4 2 9 2 0 3.2-.7 4-2.4 2-3.9-1.8-8-6-6.6M375 29c-2 0-3.9.7-4.7 1.7l-26.8 36.1c-1 1.3 0 2.8 1.3 3.6 1.5.8 3.8.7 4.4-.1l8.1-10.4H393l8.1 10.4c.8 1 3.7 1.5 5.5.6 1-.6 2.5-3 1.5-4.3L380 30.7c-1-1.2-3-1.8-5-1.7zm46.7.2c-2.3 0-4.4 1.3-4.4 3.5v35.6c0 1.1.9 2 2 2h4.4a2 2 0 0 0 2-2v-29l40.3 30.3c1.2.8 2.6 1.2 4 1.2 2.3 0 4.4-1.3 4.4-3.5V31.7a2 2 0 0 0-2-2H468a2 2 0 0 0-2 2v29l-40.3-30.3a6.4 6.4 0 0 0-4-1.2zm-359.2.3c-1.5 0-3 .2-3.6.6-1 .7-1 2.7 0 3.5l23.4 19.8v14.9c0 1.1.9 1.8 2 2 1.4.2 2.9.2 4.3 0 1.1-.2 2-.9 2-2V53.4L114 33.6c1-.8 1-2.8-.1-3.5-1.1-.8-6.1-.8-7.4.3L86.3 47.5 66.2 30.4c-.7-.5-2.2-.8-3.8-.9zm424.8 0c-1.6 0-3 .2-3.6.6-1 .7-1.1 2.7-.1 3.5l23.4 19.8v14.9c0 1.1 1 2 2 2h4.4a2 2 0 0 0 2-2V53.4l23.4-19.8c1-.8 1-2.8 0-3.5-1.1-.8-6.1-.8-7.4.3L511 47.5 491 30.4c-.6-.5-2.2-.8-3.7-.9zm-484.7 0a2 2 0 0 0-2 2v2c0 1.2 1 2 2 2h19.6v32.8c0 1.1 1 1.7 2 2 1 .2 2.6.2 4.4 0 1-.1 2-.9 2-2V35.6H50a2 2 0 0 0 2-2v-2a2 2 0 0 0-2-2zm278.3 0l-2.2.2c-1 .2-2 1-2 2v36.6c0 1.1 1 1.8 2 2 1.4.2 3 .2 4.4 0 1.1-.2 2-.9 2-2v-15H326v15c0 1.1.9 1.8 2 2 1.5.2 3 .2 4.4 0 1-.2 2-.9 2-2V31.7c0-1-1-1.8-2-2a16.9 16.9 0 0 0-4.4 0c-1.1.2-2 1-2 2V47H285V31.7c0-1-.9-1.8-2-2l-2.2-.1zm-155 .2c-1 0-2.9 1.6-2.9 3v35.6c0 1.1 1 1.8 2 2 1.5.2 3 .2 4.4 0 1.1-.1 2-.9 2-2V41.5l6.7 5.7c6.9 5.3 15.2 11.1 23.8 11.1 8.6 0 17-5.8 23.8-11.1l6.7-5.7v26.8c0 1.1.9 1.8 2 2 1.4.2 2.9.2 4.4 0 1-.2 2-.9 2-2V32.7c0-1.4-1.9-3-3-3h-3.4c-1 0-1.9.7-2.6 1.3-.7.6-4.7 5-11 9.9-6.4 5-14.5 9.4-18.9 9.4-4.4 0-12.5-4.5-18.8-9.4-6.3-5-10.4-9.2-11.1-10-.8-.7-1.6-1.2-2.6-1.2zm86.1 0a2 2 0 0 0-2 2v36.6c0 1.1 1 1.9 2 2 1.5.2 3 .2 4.4 0 1.1-.2 2-.9 2-2V55.8h15.9c8.7 0 16.8 0 18-.2 8-.8 12.7-3 14.5-7 .2-.5.7-1.5.7-3v-7.3c0-5.7-8.7-8-13.9-8.5h-5.7zm6.4 5.8h31.5c1.6 0 3.8.3 5.3.6 2 .5 3.9 1.4 4 3v6.6c0 .8-1.2 1.8-2.3 2.5-1.8 1.1-4.5 1.3-7.2 1.3l-31.3.1zM375.1 37L388 53.5h-25.8z"/>
</svg>
