<svg xmlns="http://www.w3.org/2000/svg" version="1" viewBox="0 0 1200 330">
  <path fill="#373841" d="M233 167c3 3 6 10 8 19v13l-1 10 5-8 5-13 5-17c3-20 0-40-8-57a109 109 0 0 0-129-61 105 105 0 0 0-63 49c-21 38-17 85 8 118 24 36 65 60 112 61 77 1 141-61 142-138A139 139 0 0 0 101 25c16-8 33-13 52-14 70-5 132 46 137 114a121 121 0 0 1-80 121c-42 13-76-14-78-48a54 54 0 0 1 53-56c21-1 39 9 48 25m103-83a165 165 0 0 1-163 215A165 165 0 0 1 20 84a173 173 0 1 0 315 0m816 117l-31 72h8l10-24h34l10 24h8l-31-72zm4 8l14 33h-28zm-55-8l-25 63-26-63h-8l30 72h7l30-72zm-109 0l-31 72h8l10-24h34l10 24h8l-31-72zm4 8l14 33h-28zm-110-8h17c7 0 15 0 21 3 7 4 11 12 11 20 0 12-9 22-21 22l20 27h-9l-24-33h2c5 0 11 0 16-2 6-3 9-8 9-15 0-5-3-10-7-12-5-4-10-4-16-4h-12v66h-7zm-70 0v6h17v66h7v-66h17v-6zm-61 52c1 7 7 14 15 14s15-6 15-14c0-4-2-8-5-10-4-3-7-4-11-5-5-1-9-3-13-6s-6-8-6-13c0-12 9-20 20-20s20 9 20 20h-7c-1-7-6-13-13-13s-13 6-13 13c0 9 7 11 14 13 6 1 10 2 14 6 5 4 7 9 7 15 0 12-10 21-22 21s-22-9-22-21zm-35-17c0 21-18 38-38 38-21 0-39-16-39-37s18-38 39-38c20 0 38 17 38 37m-38-30c-17 0-31 14-31 31a31 31 0 0 0 62-1c0-16-15-30-31-30zm-153-5v72h7v-33h29v-7h-29v-26h30v-6zm-33 35c0 21-17 38-38 38s-38-16-38-37 17-38 38-38c20 0 38 17 38 37m-38-30c-17 0-31 14-31 31a31 31 0 0 0 62-1c0-16-15-30-31-30zm683-82l-35-68h21l24 50 23-50h22l-35 68v40h-20zm-78-48h-19V56h59v20h-20v88h-20zm-53-20h20v108h-20zm-64 77c0 9 7 14 15 14s14-6 14-14c0-11-10-15-18-18-8-2-14-4-19-10-5-5-8-13-8-20 0-18 14-31 31-31s32 14 32 31h-21c0-7-6-11-12-11s-11 4-11 11c0 8 8 11 14 13 8 3 15 5 21 10 8 6 11 14 11 24 0 19-16 34-35 34-18 0-34-14-34-33zm-98-77h31c10 0 20 1 28 8 7 6 12 16 12 26 0 8-3 18-9 24-5 5-11 8-19 10l29 40h-24l-28-42v42h-20zm31 51c5 0 12 0 15-4 4-3 5-7 5-12 0-4-2-9-5-12-5-3-10-4-15-3h-11v31zM770 56h58v20h-38v24h36v20h-36v24h38v20h-58zm-112 0h21l29 82 29-82h21l-42 108h-16zm-33 0h20v108h-20zm-109 0h22l45 79V56h20v108h-22l-45-79v79h-20zm-75 0v67c0 5 0 10 2 15 3 5 8 9 15 9 5 0 10-3 13-8s3-10 3-16V56h20v67c0 11-1 21-8 29s-18 14-28 14c-11 0-21-5-28-13-8-9-9-19-9-30V56z"/>
</svg>
