<svg xmlns="http://www.w3.org/2000/svg" viewBox="0 0 378 50">
  <path fill="#00bed6" d="M141.57 1.3h1.6v47.5h-1.6zm70.7 46.02h4.54v1.34h-6.13V38.58h6.13v1.35h-4.56v2.94h3.88v1.36h-3.88zm-7.54 1.5a3.72 3.72 0 0 1-3.1-1.34 6.19 6.19 0 0 1-1.07-3.9 5.87 5.87 0 0 1 1.11-3.79 3.76 3.76 0 0 1 3.09-1.37 5.21 5.21 0 0 1 2.83.81l-.72 1.23a4.09 4.09 0 0 0-1.05-.48 3.74 3.74 0 0 0-1-.16 2.23 2.23 0 0 0-1.95 1 5 5 0 0 0-.65 2.8 5.22 5.22 0 0 0 .64 2.9 2.17 2.17 0 0 0 2 1 3.48 3.48 0 0 0 1.1-.16 5 5 0 0 0 1.15-.56l.67 1.16a5.14 5.14 0 0 1-3 .94zm-7.27-.16h-1.9l-3.32-8v8h-1.43V38.58h1.9l3.33 8.06v-8.06h1.38zm-14.2-1.34h4.55v1.34h-6.12V38.58h6.12v1.35h-4.55v2.94h3.87v1.36h-3.87zm-4.6 0v1.34h-6.72v-1.34h2.6v-7.39h-2.55v-1.35h6.61v1.35h-2.53v7.4zm-11.85 1.5a3.74 3.74 0 0 1-3.1-1.34 6.2 6.2 0 0 1-1.07-3.9 5.87 5.87 0 0 1 1.17-3.79 3.75 3.75 0 0 1 3-1.37 5.4 5.4 0 0 1 1.48.2 5.07 5.07 0 0 1 1.35.61l-.7 1.23a4.42 4.42 0 0 0-1-.48 3.75 3.75 0 0 0-1-.16 2.2 2.2 0 0 0-1.95 1 4.87 4.87 0 0 0-.65 2.8 5.31 5.31 0 0 0 .63 2.9 2.2 2.2 0 0 0 2 1 3.5 3.5 0 0 0 1.11-.16 5.18 5.18 0 0 0 1.15-.56l.67 1.16a5.2 5.2 0 0 1-3 .94zm-6.7-2.85a2.56 2.56 0 0 1-.93 2.07 3.73 3.73 0 0 1-2.47.77 6.71 6.71 0 0 1-1.79-.25 5.91 5.91 0 0 1-1.64-.69l.66-1.23a6.45 6.45 0 0 0 1.43.63 4.7 4.7 0 0 0 1.37.21 2.1 2.1 0 0 0 1.31-.37 1.32 1.32 0 0 0 .1-1.94 5.74 5.74 0 0 0-1.65-.93 12.79 12.79 0 0 1-1.26-.6 4.08 4.08 0 0 1-.68-.49 2.52 2.52 0 0 1-.9-2 2.47 2.47 0 0 1 .89-2 3.33 3.33 0 0 1 2.28-.77 6.33 6.33 0 0 1 1.62.22 7.07 7.07 0 0 1 1.54.64l-.62 1.23a6.7 6.7 0 0 0-1.31-.55 4.33 4.33 0 0 0-1.21-.18 1.79 1.79 0 0 0-1.18.36 1.22 1.22 0 0 0 0 1.82 5.7 5.7 0 0 0 1.65.94c.56.26 1 .47 1.25.62a4.24 4.24 0 0 1 .68.47 2.52 2.52 0 0 1 .9 2zm211.48-20.1V30h-1.58V19.92h3.44a3.64 3.64 0 0 1 2.45.78 2.64 2.64 0 0 1 .91 2.14 3 3 0 0 1-.52 1.8 2.81 2.81 0 0 1-1.5 1l2.4 4.34h-1.77l-2.2-4.13zm3.63-3a1.49 1.49 0 0 0-.47-1.18 1.91 1.91 0 0 0-1.3-.42h-1.86v3.25h1.85a1.86 1.86 0 0 0 1.37-.42 1.56 1.56 0 0 0 .41-1.23zm-12.83 5.8h4.55V30h-6.13V19.92h6.12v1.35h-4.55v2.94h3.87v1.35h-3.87zm-7.1-7.4V30h-1.56v-8.73h-3v-1.35h7.62v1.35zm-10.2 7.5a1.83 1.83 0 0 0 1.37-.5 2 2 0 0 0 .48-1.42v-6.93h1.53v6.93a3.19 3.19 0 0 1-.93 2.4 3.36 3.36 0 0 1-2.45.9 3.44 3.44 0 0 1-2.48-.9 3.16 3.16 0 0 1-.94-2.4v-6.93h1.57v6.93a2 2 0 0 0 .48 1.42 1.84 1.84 0 0 0 1.37.5zm-11.28-2.62V30h-1.57V19.92h3.41a3.69 3.69 0 0 1 2.5.81 2.85 2.85 0 0 1 .94 2.25 3 3 0 0 1-.92 2.34 3.61 3.61 0 0 1-2.51.83zm3.7-3.14a1.64 1.64 0 0 0-.51-1.28 2 2 0 0 0-1.4-.46h-1.79v3.55h1.8a2 2 0 0 0 1.4-.47 1.79 1.79 0 0 0 .49-1.34zm-14.61-.98v8h-1.4v-10.1h1.82l2 5.06 1.93-5.07h1.81V30h-1.39v-8l-1.86 4.65h-1.14zM318.81 25a6.39 6.39 0 0 1-1 3.83 3.68 3.68 0 0 1-5.63 0 6.76 6.76 0 0 1-.94-3.94 6.39 6.39 0 0 1 1-3.82 3.65 3.65 0 0 1 5.57.03 6.7 6.7 0 0 1 1 3.9zm-5.92-.09a6.18 6.18 0 0 0 .52 2.92 1.73 1.73 0 0 0 1.61.94 1.77 1.77 0 0 0 1.65-.92 6.07 6.07 0 0 0 .52-2.85 6.33 6.33 0 0 0-.52-2.9 1.77 1.77 0 0 0-1.65-.94 1.74 1.74 0 0 0-1.63.9 6.06 6.06 0 0 0-.54 2.85zm-6.7 5.24a3.7 3.7 0 0 1-3.1-1.34 6.14 6.14 0 0 1-1.08-3.9 5.83 5.83 0 0 1 1.11-3.8 3.75 3.75 0 0 1 3.07-1.38 5.35 5.35 0 0 1 1.48.2 5.07 5.07 0 0 1 1.35.61l-.7 1.23a4.09 4.09 0 0 0-1.05-.48 3.41 3.41 0 0 0-1-.16 2.23 2.23 0 0 0-1.94.94 5 5 0 0 0-.65 2.81 5.24 5.24 0 0 0 .64 2.9 2.17 2.17 0 0 0 1.95 1 3.5 3.5 0 0 0 1.1-.16 5.18 5.18 0 0 0 1.16-.56l.67 1.15a5.11 5.11 0 0 1-3 .95zM288.71 30h-2.86V19.92h2.85a3.88 3.88 0 0 1 3.16 1.27 5.74 5.74 0 0 1 1.07 3.78 5.65 5.65 0 0 1-1.13 3.73 3.88 3.88 0 0 1-3.1 1.3zm2.6-5a4.76 4.76 0 0 0-.64-2.77 2.24 2.24 0 0 0-2-.9h-1.29v7.33h1.3a2.24 2.24 0 0 0 2-.9 4.72 4.72 0 0 0 .64-2.79zm-8.77 5h-1.9l-3.31-8v8h-1.4V19.92h1.87l3.33 8.05v-8h1.38zm-9.24 0h-1.6l-.74-2.68h-3.47l-.75 2.68h-1.54l2.94-10.08h2.23zm-4.07-9l-1.38 5h2.75zm-15.55 9.15a3.81 3.81 0 0 1-3.15-1.33 6.08 6.08 0 0 1-1.08-3.9 5.86 5.86 0 0 1 1.1-3.8 3.76 3.76 0 0 1 3.1-1.36 5.92 5.92 0 0 1 1.44.17 5.3 5.3 0 0 1 1.31.55l-.68 1.26a4.45 4.45 0 0 0-1-.43 3.67 3.67 0 0 0-1-.15 2.24 2.24 0 0 0-2 .93 5 5 0 0 0-.64 2.82 5.15 5.15 0 0 0 .65 2.9 2.24 2.24 0 0 0 2 1 3.38 3.38 0 0 0 .74-.07 3.07 3.07 0 0 0 .68-.2V25.1h1.5v4.15a5.1 5.1 0 0 1-1.4.66 5.17 5.17 0 0 1-1.57.24zm-7.2-.15h-1.93l-3.3-8v8h-1.38V19.92h1.94l3.33 8.05v-8h1.39zm-9.45-1.34V30h-6.7v-1.34h2.58v-7.39h-2.54v-1.35H237v1.35h-2.53v7.4zm-14.67-2.79V30h-1.56V19.92h3.44a3.66 3.66 0 0 1 2.45.78 2.67 2.67 0 0 1 .91 2.14 3 3 0 0 1-.53 1.8 2.74 2.74 0 0 1-1.5 1l2.4 4.34h-1.77l-2.2-4.13zm3.64-3a1.52 1.52 0 0 0-.47-1.18 1.94 1.94 0 0 0-1.32-.42h-1.85v3.25h1.85a1.86 1.86 0 0 0 1.32-.43 1.57 1.57 0 0 0 .47-1.22zm-12.84 5.8h4.56V30h-6.13V19.92h6.13v1.35h-4.56v2.94h3.88v1.35h-3.88zm-9.36 0h4.55V30h-6.12V19.92h6.12v1.35h-4.55v2.94h3.87v1.35h-3.87zM198.68 30h-1.85l-3.31-8v8h-1.4V19.92h1.9l3.34 8.05v-8h1.38zm-9.43-1.34V30h-6.7v-1.34h2.58v-7.39h-2.53v-1.35h6.6v1.35h-2.53v7.4zm-12.34 1.5a3.81 3.81 0 0 1-3.15-1.34 6.08 6.08 0 0 1-1.08-3.9 5.8 5.8 0 0 1 1.15-3.82 3.76 3.76 0 0 1 3-1.34 6 6 0 0 1 1.45.17 5.3 5.3 0 0 1 1.3.55l-.69 1.26a4.2 4.2 0 0 0-1-.43 3.72 3.72 0 0 0-1-.15 2.23 2.23 0 0 0-2 .93 5 5 0 0 0-.65 2.82 5.14 5.14 0 0 0 .66 2.9 2.24 2.24 0 0 0 2 1 3.45 3.45 0 0 0 .74-.07 3 3 0 0 0 .67-.2V25.1h1.51v4.15a5.1 5.1 0 0 1-1.39.66 5.26 5.26 0 0 1-1.53.24zm-7.22-.16h-1.86l-3.31-8v8h-1.4V19.92h1.9l3.34 8.05v-8h1.38zm-14.2-1.34h4.55V30h-6.12V19.92h6.12v1.35h-4.55v2.94h3.87v1.35h-3.87zM333.68 10h4.74v1.33h-6.3V1.26h1.57zm-4.25 1.33h-1.61l-.75-2.67h-3.47l-.78 2.67h-1.5l2.94-10.07h2.23zm-4.08-9l-1.38 5h2.75zm-8.72 9.16a3.74 3.74 0 0 1-3.1-1.34 6.14 6.14 0 0 1-1.06-3.9 5.83 5.83 0 0 1 1.1-3.78 3.74 3.74 0 0 1 3.08-1.37 4.94 4.94 0 0 1 2.83.81l-.72 1.2a4.09 4.09 0 0 0-1.05-.49 3.35 3.35 0 0 0-1-.16 2.19 2.19 0 0 0-1.94.94 4.9 4.9 0 0 0-.66 2.81 5.35 5.35 0 0 0 .63 2.9 2.19 2.19 0 0 0 2 .95 3.8 3.8 0 0 0 1.1-.15 5 5 0 0 0 1.16-.56l.66 1.15a4.92 4.92 0 0 1-1.4.71 5.18 5.18 0 0 1-1.63.28zm-6.4-1.49v1.33h-6.7V10h2.59V2.61h-2.54V1.26h6.6v1.35h-2.52v7.4zm-14.66-2.79v4.12H294V1.26h3.44a3.71 3.71 0 0 1 2.45.77 2.71 2.71 0 0 1 .93 2.15 3 3 0 0 1-.53 1.8 2.67 2.67 0 0 1-1.5 1l2.4 4.34h-1.77l-2.2-4.12zm3.64-3a1.48 1.48 0 0 0-.48-1.18 1.89 1.89 0 0 0-1.31-.42h-1.85v3.25h1.85a1.86 1.86 0 0 0 1.32-.43 1.57 1.57 0 0 0 .47-1.22zm-10.72-1.6v8.72h-1.55V2.61h-3V1.26h7.62v1.35zm-9.24 8.88a3.75 3.75 0 0 1-3.11-1.34 6.14 6.14 0 0 1-1.06-3.9 5.83 5.83 0 0 1 1.1-3.78 3.75 3.75 0 0 1 3.07-1.37 5.41 5.41 0 0 1 1.48.2 5.11 5.11 0 0 1 1.35.61l-.7 1.2a4.42 4.42 0 0 0-1.05-.49 3.41 3.41 0 0 0-1-.16 2.19 2.19 0 0 0-1.94.94 4.9 4.9 0 0 0-.65 2.81 5.36 5.36 0 0 0 .63 2.9 2.19 2.19 0 0 0 2 .95 3.82 3.82 0 0 0 1.1-.15 5.18 5.18 0 0 0 1.16-.56l.67 1.15a5.11 5.11 0 0 1-3 1zM267.87 10h4.56v1.33h-6.13V1.26h6.13v1.35h-4.56v2.94h3.88V6.9h-3.88zm-8.67 0h4.72v1.33h-6.3V1.26h1.57zm-9.38 0h4.55v1.33h-6.13V1.26h6.13v1.35h-4.55v2.94h3.87V6.9h-3.87zm-15.34-2.9v4.27h-1.55V1.27h6.1V2.6h-4.56v3.1h3.87v1.4zm-4.75-.76a6.39 6.39 0 0 1-1 3.83 3.67 3.67 0 0 1-5.63 0 6.7 6.7 0 0 1-.94-3.93 6.39 6.39 0 0 1 1-3.82 3.24 3.24 0 0 1 2.79-1.32 3.27 3.27 0 0 1 2.87 1.31 6.7 6.7 0 0 1 .9 3.93zm-5.91-.09a6.18 6.18 0 0 0 .52 2.92 1.9 1.9 0 0 0 3.26 0 5.93 5.93 0 0 0 .53-2.85 6.18 6.18 0 0 0-.53-2.9 1.91 1.91 0 0 0-3.27 0 6 6 0 0 0-.52 2.83zm-12.45 1.18v3.9h-1.55v-3.9l-3.24-6.17h1.67l2.36 4.71 2.35-4.7h1.58zm-9.15-4.82v8.72h-1.56V2.61h-3V1.26h7.62v1.35zm-9.55 7.4h4.73v1.32h-6.3V1.26h1.56zm-8.45.1a1.82 1.82 0 0 0 1.37-.5 2 2 0 0 0 .48-1.42V1.26h1.53V8.2a3.19 3.19 0 0 1-.93 2.4 3.36 3.36 0 0 1-2.45.9 3.44 3.44 0 0 1-2.48-.9 3.16 3.16 0 0 1-.94-2.4V1.26h1.57V8.2a2 2 0 0 0 .45 1.42 1.82 1.82 0 0 0 1.4.5zm-8.91 1.38a3.73 3.73 0 0 1-3.1-1.34 6.14 6.14 0 0 1-1.07-3.9 5.83 5.83 0 0 1 1.1-3.78 3.76 3.76 0 0 1 3.09-1.37 5 5 0 0 1 2.83.81l-.72 1.2a4.09 4.09 0 0 0-1.05-.49 3.4 3.4 0 0 0-1-.16 2.22 2.22 0 0 0-1.95.94 5 5 0 0 0-.65 2.81 5.26 5.26 0 0 0 .64 2.9 2.17 2.17 0 0 0 2 .95 3.8 3.8 0 0 0 1.1-.15 5 5 0 0 0 1.15-.56l.67 1.15a5.11 5.11 0 0 1-3 1zm-5.87-.16h-1.62l-.75-2.67h-3.45l-.74 2.67h-1.54l2.94-10.07h2.22zm-4.07-9l-1.4 5h2.76zm-9.83 4.77v4.27h-1.55V1.27h6.1V2.6h-4.56v3.1h3.87v1.4z"/>
  <path fill="#00a499" d="M126.64 48.67h-1.6l-.75-2.68h-3.47l-.75 2.68h-1.53l2.93-10.08h2.23zm-4.08-9l-1.38 5h2.75zm-4.85-1.08l-2.81 10.08h-2.23l-2.85-10.08h1.63l2.37 8.85 2.3-8.85zm-8.67 10.08h-1.6l-.75-2.68h-3.47l-.75 2.68h-1.53l2.93-10.08h2.23zm-4.08-9l-1.38 5h2.75zm-11.64 4.88v4.12h-1.57V38.6h3.44a3.66 3.66 0 0 1 2.45.78 2.69 2.69 0 0 1 .9 2.14 3 3 0 0 1-.52 1.8 2.74 2.74 0 0 1-1.5 1l2.4 4.34h-1.77l-2.2-4.12zm3.64-3a1.5 1.5 0 0 0-.48-1.19 1.89 1.89 0 0 0-1.31-.42h-1.85v3.25h1.85a1.9 1.9 0 0 0 1.32-.42 1.6 1.6 0 0 0 .47-1.22zm-10.87-1.6v8.72h-1.56v-8.73h-3V38.6h7.59v1.35zm-6.33 6.03a2.59 2.59 0 0 1-.94 2.12 3.74 3.74 0 0 1-2.47.77 7.06 7.06 0 0 1-1.8-.24 6.46 6.46 0 0 1-1.64-.7l.67-1.23a6.26 6.26 0 0 0 1.43.63 4.65 4.65 0 0 0 1.37.21 2.12 2.12 0 0 0 1.33-.44 1.34 1.34 0 0 0 .1-1.92 5.74 5.74 0 0 0-1.64-.93 12.79 12.79 0 0 1-1.26-.6 3.39 3.39 0 0 1-.68-.49 2.55 2.55 0 0 1-.68-.89 2.6 2.6 0 0 1-.22-1.1 2.49 2.49 0 0 1 .87-2 3.34 3.34 0 0 1 2.3-.77 6.19 6.19 0 0 1 1.6.22 6.87 6.87 0 0 1 1.55.64l-.62 1.23a6.38 6.38 0 0 0-1.3-.55 4.4 4.4 0 0 0-1.22-.18 1.74 1.74 0 0 0-1.17.36 1.14 1.14 0 0 0-.43.94 1.2 1.2 0 0 0 .38.88 6 6 0 0 0 1.65.94c.56.26 1 .47 1.24.62a4.36 4.36 0 0 1 .7.47 2.52 2.52 0 0 1 .9 2zm-8.94-2.3a6.36 6.36 0 0 1-1 3.82 3.68 3.68 0 0 1-5.63 0 6.72 6.72 0 0 1-.94-3.94 6.27 6.27 0 0 1 1-3.8 3.64 3.64 0 0 1 5.62 0 6.72 6.72 0 0 1 .95 3.92zm-5.93-.1a6.24 6.24 0 0 0 .53 2.93 1.72 1.72 0 0 0 1.62.93 1.76 1.76 0 0 0 1.64-.92 5.92 5.92 0 0 0 .52-2.84 6.14 6.14 0 0 0-.52-2.9 1.9 1.9 0 0 0-3.27 0 6 6 0 0 0-.5 2.8zm-13.46.81v4.28h-1.55V38.6h6.1v1.35h-4.55v3.1h3.87v1.35zm-4.75-.7a6.36 6.36 0 0 1-1 3.81 3.68 3.68 0 0 1-5.63 0 6.72 6.72 0 0 1-.94-3.94 6.34 6.34 0 0 1 1-3.8 3.64 3.64 0 0 1 5.62 0 6.72 6.72 0 0 1 .95 3.92zm-5.92-.1a6.26 6.26 0 0 0 .52 2.92 1.74 1.74 0 0 0 1.62.93 1.77 1.77 0 0 0 1.65-.92 6 6 0 0 0 .52-2.84 6.27 6.27 0 0 0-.52-2.9 1.91 1.91 0 0 0-3.28 0 6 6 0 0 0-.51 2.8zm87.06-17.49v3.91h-1.57v-3.9l-3.22-6.18h1.68l2.37 4.71 2.35-4.7H131zm-9.11-4.82v8.73h-1.56v-8.73h-3v-1.35h7.62v1.35zm-6.36 7.4V30h-6.7v-1.34h2.58v-7.39h-2.53v-1.35h6.6v1.35h-2.48v7.4zm-9.12-1.36a2.55 2.55 0 0 1-.91 2.06 3.72 3.72 0 0 1-2.48.78 6.59 6.59 0 0 1-1.78-.25 5.86 5.86 0 0 1-1.65-.7l.67-1.23a6.13 6.13 0 0 0 1.43.64 4.59 4.59 0 0 0 1.37.2 2.09 2.09 0 0 0 1.3-.36 1.32 1.32 0 0 0 .09-1.94 5.29 5.29 0 0 0-1.64-.93 12.79 12.79 0 0 1-1.26-.6 3.79 3.79 0 0 1-.7-.49 2.47 2.47 0 0 1-.87-2 2.48 2.48 0 0 1 .87-2 3.33 3.33 0 0 1 2.28-.77 6.33 6.33 0 0 1 1.62.22 7.07 7.07 0 0 1 1.54.64l-.62 1.23a5.93 5.93 0 0 0-1.31-.55 4.33 4.33 0 0 0-1.21-.17 1.84 1.84 0 0 0-1.18.35 1.25 1.25 0 0 0 0 1.83 5.7 5.7 0 0 0 1.65.94c.56.26 1 .47 1.25.62a3.37 3.37 0 0 1 .68.47 2.72 2.72 0 0 1 .69.9 2.75 2.75 0 0 1 .17 1.11zM88.66 25.9v4.12h-1.57V19.93h3.44a3.66 3.66 0 0 1 2.45.78 2.67 2.67 0 0 1 .9 2.14 3 3 0 0 1-.51 1.8 2.81 2.81 0 0 1-1.5 1L94.26 30h-1.77l-2.2-4.12zm3.64-3a1.52 1.52 0 0 0-.48-1.19 1.94 1.94 0 0 0-1.32-.42h-1.84v3.25h1.85a1.86 1.86 0 0 0 1.3-.43 1.53 1.53 0 0 0 .49-1.22zm-12.83 5.78h4.55v1.34h-6.13V19.93h6.13v1.35h-4.55v2.94h3.87v1.35h-3.87zm-4.17-8.74l-2.82 10.08h-2.22l-2.82-10.08h1.64l2.3 8.85 2.33-8.85zm-9.57 8.74v1.34h-6.7v-1.34h2.58v-7.39h-2.54v-1.35h6.6v1.35h-2.52v7.4zm-9.52 1.34h-1.92l-3.31-8v8H49.6V19.93h1.89l3.33 8.05v-8h1.39zm-13.27-1.23a1.8 1.8 0 0 0 1.36-.5 1.91 1.91 0 0 0 .52-1.42v-6.93h1.52v6.93a3.19 3.19 0 0 1-.93 2.4 3.34 3.34 0 0 1-2.44.9 3.46 3.46 0 0 1-2.5-.9 3.19 3.19 0 0 1-.93-2.4v-6.93h1.57v6.93a2 2 0 0 0 .49 1.42 1.81 1.81 0 0 0 1.34.5zm74.78-18.77h4.73v1.33h-6.3V1.27h1.57zm-4.26 1.33h-1.64l-.75-2.67h-3.47l-.74 2.67h-1.54l2.98-10.07h2.22zm-4.07-8.95l-1.4 5h2.76zm-8.88 9.11a3.73 3.73 0 0 1-3.1-1.34 6.14 6.14 0 0 1-1.07-3.9 5.83 5.83 0 0 1 1.1-3.78 3.77 3.77 0 0 1 3.09-1.38 5.28 5.28 0 0 1 1.47.2 5 5 0 0 1 1.36.61l-.72 1.23a4.09 4.09 0 0 0-1-.48 3.4 3.4 0 0 0-1-.16 2.22 2.22 0 0 0-1.95.94 5 5 0 0 0-.65 2.81 5.26 5.26 0 0 0 .64 2.9 2.19 2.19 0 0 0 2 1 3.79 3.79 0 0 0 1.1-.16 5 5 0 0 0 1.04-.59l.67 1.15a5.05 5.05 0 0 1-1.41.71 5.18 5.18 0 0 1-1.57.24zm-6.4-1.49v1.33h-6.7v-1.33h2.58V2.62h-2.53V1.27h6.6v1.35h-2.53v7.4zm-9.52 1.33h-1.91l-3.31-8v8h-1.4V1.27h1.9l3.34 8.05v-8h1.38zM69.42 6.77v4.57h-1.6V1.27h1.6v4.15h3.69V1.27h1.57v10.07H73.1V6.77zm-7.27 4.73a3.74 3.74 0 0 1-3.1-1.34 6.14 6.14 0 0 1-1.06-3.9 5.83 5.83 0 0 1 1.1-3.78 3.74 3.74 0 0 1 3.08-1.38 5.4 5.4 0 0 1 1.48.2 5 5 0 0 1 1.35.61l-.72 1.23a4.09 4.09 0 0 0-1.05-.48 3.35 3.35 0 0 0-1-.16 2.19 2.19 0 0 0-1.94.94 4.9 4.9 0 0 0-.66 2.81 5.35 5.35 0 0 0 .64 2.9 2.2 2.2 0 0 0 2 1 3.79 3.79 0 0 0 1.1-.16 5 5 0 0 0 1.16-.56l.66 1.15a4.92 4.92 0 0 1-1.41.71 5.18 5.18 0 0 1-1.63.21zm-11.21-1.49h4.55v1.33h-6.12V1.27h6.12v1.35h-4.55v2.94h3.88v1.35h-3.88zm-7.26-7.39v8.72h-1.55V2.62h-3V1.27h7.62v1.35zM20.82 1.3h3.3a4.06 4.06 0 0 1 2.45.65 2.16 2.16 0 0 1 .89 1.84 2.38 2.38 0 0 1-.4 1.38 2.52 2.52 0 0 1-1.12.9 2.8 2.8 0 0 1 1.43.88 2.25 2.25 0 0 1 .45 1.5 2.64 2.64 0 0 1-.94 2.14 3.82 3.82 0 0 1-2.52.78h-3.54zm4.7 2.8a1.1 1.1 0 0 0-.4-.92 2.09 2.09 0 0 0-1.22-.29h-1.2v2.54h1.2a1.82 1.82 0 0 0 1.2-.33 1.25 1.25 0 0 0 .42-1zm.4 4.26a1.2 1.2 0 0 0-.46-1.06A2.42 2.42 0 0 0 24 6.96H22.7v2.86h1.4a2.11 2.11 0 0 0 1.37-.37 1.34 1.34 0 0 0 .45-1.1zm-8 .25a2.64 2.64 0 0 1-.93 2.13 3.76 3.76 0 0 1-2.53.8 7.13 7.13 0 0 1-1.84-.26 6.53 6.53 0 0 1-1.71-.7l.75-1.48a7.16 7.16 0 0 0 1.45.64 4.72 4.72 0 0 0 1.38.21 1.89 1.89 0 0 0 1.14-.3 1.06 1.06 0 0 0 .4-.88 1 1 0 0 0-.34-.77 5.64 5.64 0 0 0-1.53-.9 13.32 13.32 0 0 1-1.34-.58 4.53 4.53 0 0 1-.7-.5 2.53 2.53 0 0 1-.63-.92 2.75 2.75 0 0 1-.22-1.13 2.57 2.57 0 0 1 .9-2 3.47 3.47 0 0 1 2.38-.87 6.36 6.36 0 0 1 1.68.23 6.91 6.91 0 0 1 1.59.68l-.7 1.51a8.1 8.1 0 0 0-1.3-.56 4.42 4.42 0 0 0-1.22-.19 1.53 1.53 0 0 0-1 .3 1 1 0 0 0-.37.78 1.08 1.08 0 0 0 .35.78 6.58 6.58 0 0 0 1.55.87c.57.26 1 .46 1.26.62a3.41 3.41 0 0 1 .69.5 2.46 2.46 0 0 1 .68.88 2.82 2.82 0 0 1 .17 1.11zM8.9 1.31l-2.7 10.06H3.52L.82 1.3h1.94l2.13 8.57L7 1.3zM7.35 24.9h1.6V43.6h-1.6zm6.13 5.13h1.6v18.68h-1.6zm12.3-10.25h1.6v18.68h-1.6zm-6.14 5.12h1.6v18.7h-1.6zM1.19 19.8h1.6v18.68H1.2z"/>
</svg>
