<svg xmlns="http://www.w3.org/2000/svg" viewBox="0 0 612 284">
  <g fill="#fff" stroke="#000" stroke-linejoin="round" stroke-miterlimit="10" stroke-width="1.5">
    <path d="M88.6 42v20l17.3 10v20l17.3 10V62zm277.1 0v10h17.4ZM158 62v40l34.6 20V82zm155.9 10v20l52 30v20l34.6 20v-40zM2 92v40l86.6 50v-40zm311.8 20v30H331v-20l-17.3-10zm-69.3 20v40l17.3-10 17.3 10v20l17.3 10v-40zm207.8 20v20l17.4 10v20l17.3-10v-20zM158 182v40l52 30v-40zm346.4 0v40l34.6 20v-40zM383 212v40l52 30v-40z"/>
    <path d="M123.2 62v40H158V62h-34.7zm277.2 40 17.3 10v30H435v-40h-34.6zM279 112v20l17.3 10h17.4v-30H279zm17.3 50v40H331v-40h-34.7zm-86.6 50v40h34.7v-40h-34.7zM435 242v40h34.7v-40H435z"/>
    <path d="m227.2 62-34.7 20v40l34.7-20V62zm242.5 20L435 102v40l34.7-20V82zM105.9 92l-17.3 10 17.3 10V92zm311.8 20-17.3 10v40l17.3-10v-40zm-294.5 10-34.6 20v40l34.6-20v-40zm242.5 20-34.6 20v40l34.6-20v-40zm-121.2 10-34.7 20 17.4 10 17.3-10v-20zm259.8 10L487 172v20l17.3 10v-40zm104 0-69.4 40v40l69.3-40v-40zm-138.6 20L435 202l17.3 10 17.4-10v-20zM279 192l-34.6 20v40l34.6-20v-40zm225.2 30-34.6 20v40l34.6-20v-40z"/>
    <path d="m157.9 2-17.3 10v20h-34.7L88.6 42l34.6 20H158l34.6 20 34.7-20-34.7-20V22L158 2zM383 32l-17.4 10L383 52h-34.7l-34.6 20 86.6 50 17.3-10-17.3-10H435l34.7-20L383 32ZM54 62 2 92l86.6 50 34.6-20-34.6-20 17.3-10V72L88.6 62H54zm225 30-34.6 20v20l52 30H331l34.6-20v-20l-52-30H279zm0 20h34.7l17.3 10v20h-34.7L279 132v-20zm242.5 0-69.3 40 34.7 20 17.3-10v20l34.6 20 69.3-40-34.6-20-17.3 10v-20l-34.7-20zm-329 30-34.7 20v20l52 30h34.6l34.6-20v-20l-17.3-10-34.6 20-17.4-10 34.7-20-17.3-10h-34.7zm225 30L383 192v20l52 30h34.6l34.6-20v-20L487 192l-34.7 20-17.3-10 34.7-20-17.4-10h-34.6z"/>
    <path d="m157.9 2-17.3 10v20h-34.7L88.6 42l34.6 20H158l34.6 20 34.7-20-34.7-20V22ZM383 32l-17.4 10L383 52h-34.7l-34.6 20 86.6 50 17.3-10-17.3-10H435l34.7-20ZM54 62 2 92l86.6 50 34.6-20-34.6-20 17.3-10V72L88.6 62Zm225 30-34.6 20v20l52 30H331l34.6-20v-20l-52-30Zm0 20h34.7l17.3 10v20h-34.7L279 132zm242.5 0-69.3 40 34.7 20 17.3-10v20l34.6 20 69.3-40-34.6-20-17.3 10v-20zm-329 30-34.7 20v20l52 30h34.6l34.6-20v-20l-17.3-10-34.6 20-17.4-10 34.7-20-17.3-10zm225 30L383 192v20l52 30h34.6l34.6-20v-20L487 192l-34.7 20-17.3-10 34.7-20-17.4-10z"/>
  </g>
</svg>
