<?xml version="1.0" encoding="UTF-8" standalone="no"?>
<!-- Created with Inkscape (http://www.inkscape.org/) -->

<svg
   xmlns:dc="http://purl.org/dc/elements/1.1/"
   xmlns:cc="http://creativecommons.org/ns#"
   xmlns:rdf="http://www.w3.org/1999/02/22-rdf-syntax-ns#"
   xmlns:svg="http://www.w3.org/2000/svg"
   xmlns="http://www.w3.org/2000/svg"
   xmlns:sodipodi="http://sodipodi.sourceforge.net/DTD/sodipodi-0.dtd"
   xmlns:inkscape="http://www.inkscape.org/namespaces/inkscape"
   id="svg2"
   version="1.1"
   inkscape:version="0.91 r13725"
   xml:space="preserve"
   width="1052.3625"
   height="744.09998"
   viewBox="0 0 1052.3625 744.09998"
   sodipodi:docname="SEMTEX Label (CMYK).svg"><metadata
     id="metadata8"><rdf:RDF><cc:Work
         rdf:about=""><dc:format>image/svg+xml</dc:format><dc:type
           rdf:resource="http://purl.org/dc/dcmitype/StillImage" /><dc:title></dc:title></cc:Work></rdf:RDF></metadata><defs
     id="defs6"><clipPath
       clipPathUnits="userSpaceOnUse"
       id="clipPath24"><path
         d="m 0,595.28 841.89,0 L 841.89,0 0,0 0,595.28 Z"
         id="path26"
         inkscape:connector-curvature="0" /></clipPath></defs><sodipodi:namedview
     pagecolor="#ffffff"
     bordercolor="#666666"
     borderopacity="1"
     objecttolerance="10"
     gridtolerance="10"
     guidetolerance="10"
     inkscape:pageopacity="0"
     inkscape:pageshadow="2"
     inkscape:window-width="805"
     inkscape:window-height="480"
     id="namedview4"
     showgrid="false"
     inkscape:zoom="0.22426718"
     inkscape:cx="608.26352"
     inkscape:cy="262.10588"
     inkscape:window-x="191"
     inkscape:window-y="280"
     inkscape:window-maximized="0"
     inkscape:current-layer="g10" /><g
     id="g10"
     inkscape:groupmode="layer"
     inkscape:label="SEMTEX Label (CMYK)"
     transform="matrix(1.25,0,0,-1.25,0,744.1)"><g
       id="g12"
       transform="matrix(3.0760603,0,0,3.0760603,701.82767,290.33685)"><path
         d="M 0,0 -93.554,-93.553 -187.108,0 -93.554,93.554 0,0 Z"
         style="fill:#fcd205;fill-opacity:1;fill-rule:nonzero;stroke:none"
         id="path14"
         inkscape:connector-curvature="0" /></g><g
       id="g16"
       transform="matrix(3.0760603,0,0,3.0760603,153.51685,290.33685)"><path
         d="M 0,0 84.697,-84.697 169.395,0 84.697,84.698 0,0 Z M 84.697,-86.112 -1.414,0 84.697,86.112 170.809,0 84.697,-86.112 Z"
         style="fill:#231f20;fill-opacity:1;fill-rule:nonzero;stroke:none"
         id="path18"
         inkscape:connector-curvature="0" /></g><g
       id="g20"
       transform="matrix(3.0760603,0,0,3.0760603,-882.86631,-626.03689)"><g
         id="g22"
         clip-path="url(#clipPath24)"><g
           id="g28"
           transform="translate(374.704,295.488)"><path
             d="m 0,0 -3.529,0.614 c -3.683,0.644 -5.892,2.761 -5.892,6.137 0,4.572 3.161,6.781 8.255,6.781 5.093,0 8.254,-2.209 8.254,-6.536 l 0,-0.521 -4.756,0 0,0.521 c 0,1.596 -1.289,2.394 -3.498,2.394 -2.21,0 -3.345,-0.645 -3.345,-2.302 0,-1.135 0.889,-1.902 2.179,-2.117 L 1.196,4.357 c 3.867,-0.675 5.892,-2.761 5.892,-6.106 0,-4.603 -3.161,-6.812 -8.254,-6.812 -5.094,0 -8.255,2.209 -8.255,6.536 l 0,0.522 4.757,0 0,-0.522 c 0,-1.596 1.288,-2.394 3.498,-2.394 2.209,0 3.344,0.614 3.344,2.333 C 2.178,-0.92 1.288,-0.215 0,0"
             style="fill:#231f20;fill-opacity:1;fill-rule:nonzero;stroke:none"
             id="path30"
             inkscape:connector-curvature="0" /></g><g
           id="g32"
           transform="translate(384.864,308.714)"><path
             d="m 0,0 14.974,0 0,-4.143 -10.218,0 0,-4.511 8.684,0 0,-4.142 -8.684,0 0,-4.541 10.218,0 0,-4.143 L 0,-21.48 0,0 Z"
             style="fill:#231f20;fill-opacity:1;fill-rule:nonzero;stroke:none"
             id="path34"
             inkscape:connector-curvature="0" /></g><g
           id="g36"
           transform="translate(417.732,299.354)"><path
             d="M 0,0 -5.032,-9.573 -10.065,0 l 0,-12.12 -4.756,0 0,21.48 4.603,0 5.186,-9.881 5.185,9.881 4.603,0 0,-21.48 L 0,-12.12 0,0 Z"
             style="fill:#231f20;fill-opacity:1;fill-rule:nonzero;stroke:none"
             id="path38"
             inkscape:connector-curvature="0" /></g><g
           id="g40"
           transform="translate(424.487,308.714)"><path
             d="m 0,0 16.908,0 0,-4.143 -6.076,0 0,-17.337 -4.757,0 0,17.337 L 0,-4.143 0,0 Z"
             style="fill:#231f20;fill-opacity:1;fill-rule:nonzero;stroke:none"
             id="path42"
             inkscape:connector-curvature="0" /></g><g
           id="g44"
           transform="translate(443.393,308.714)"><path
             d="m 0,0 14.973,0 0,-4.143 -10.218,0 0,-4.511 8.684,0 0,-4.142 -8.684,0 0,-4.541 10.218,0 0,-4.143 L 0,-21.48 0,0 Z"
             style="fill:#231f20;fill-opacity:1;fill-rule:nonzero;stroke:none"
             id="path46"
             inkscape:connector-curvature="0" /></g><g
           id="g48"
           transform="translate(469.264,294.077)"><path
             d="m 0,0 -4.296,-6.843 -5.37,0 7.027,10.617 -7.027,10.863 5.676,0 4.204,-6.844 4.328,6.844 5.369,0 L 2.884,4.019 9.911,-6.843 4.234,-6.843 0,0 Z"
             style="fill:#231f20;fill-opacity:1;fill-rule:nonzero;stroke:none"
             id="path50"
             inkscape:connector-curvature="0" /></g><g
           id="g52"
           transform="translate(394.483,270.362)"><path
             d="m 0,0 5.235,0 0,-1.448 -3.573,0 0,-1.577 3.036,0 0,-1.449 -3.036,0 0,-1.587 3.573,0 0,-1.448 L 0,-7.509 0,0 Z"
             style="fill:#231f20;fill-opacity:1;fill-rule:nonzero;stroke:none"
             id="path54"
             inkscape:connector-curvature="0" /></g><g
           id="g56"
           transform="translate(403.526,265.245)"><path
             d="m 0,0 -1.502,-2.392 -1.877,0 2.456,3.711 -2.456,3.798 1.984,0 1.47,-2.393 1.513,2.393 1.877,0 -2.457,-3.712 2.457,-3.797 -1.985,0 L 0,0 Z"
             style="fill:#231f20;fill-opacity:1;fill-rule:nonzero;stroke:none"
             id="path58"
             inkscape:connector-curvature="0" /></g><g
           id="g60"
           transform="translate(409.297,266.801)"><path
             d="m 0,0 1.373,0 c 0.558,0 0.912,0.257 0.912,1.061 0,0.805 -0.365,1.052 -0.912,1.052 L 0,2.113 0,0 Z m -1.663,3.561 3.09,0 c 1.555,0 2.574,-0.729 2.574,-2.5 0,-1.77 -1.008,-2.51 -2.574,-2.51 l -1.427,0 0,-2.499 -1.663,0 0,7.509"
             style="fill:#231f20;fill-opacity:1;fill-rule:nonzero;stroke:none"
             id="path62"
             inkscape:connector-curvature="0" /></g><g
           id="g64"
           transform="translate(414.156,270.362)"><path
             d="m 0,0 1.663,0 0,-6.061 3.572,0 0,-1.448 L 0,-7.509 0,0 Z"
             style="fill:#231f20;fill-opacity:1;fill-rule:nonzero;stroke:none"
             id="path66"
             inkscape:connector-curvature="0" /></g><g
           id="g68"
           transform="translate(424.465,267.745)"><path
             d="M 0,0 C 0,0.847 -0.526,1.276 -1.32,1.276 -2.135,1.276 -2.66,0.847 -2.66,0 l 0,-2.275 c 0,-0.847 0.525,-1.276 1.319,-1.276 0.815,0 1.341,0.429 1.341,1.276 L 0,0 Z m 1.663,-2.275 c 0,-1.801 -1.181,-2.724 -3.004,-2.724 -1.802,0 -2.982,0.923 -2.982,2.724 l 0,2.275 c 0,1.802 1.18,2.724 3.003,2.724 1.802,0 2.983,-0.922 2.983,-2.724 l 0,-2.275"
             style="fill:#231f20;fill-opacity:1;fill-rule:nonzero;stroke:none"
             id="path70"
             inkscape:connector-curvature="0" /></g><g
           id="g72"
           transform="translate(430.387,265.739)"><path
             d="m 0,0 -1.234,0.214 c -1.287,0.225 -2.059,0.966 -2.059,2.145 0,1.599 1.104,2.371 2.884,2.371 1.782,0 2.886,-0.772 2.886,-2.285 l 0,-0.182 -1.662,0 0,0.182 c 0,0.558 -0.451,0.837 -1.224,0.837 -0.771,0 -1.168,-0.225 -1.168,-0.804 0,-0.397 0.311,-0.666 0.761,-0.741 L 0.418,1.522 c 1.351,-0.235 2.059,-0.964 2.059,-2.134 0,-1.609 -1.104,-2.381 -2.886,-2.381 -1.78,0 -2.884,0.772 -2.884,2.285 l 0,0.182 1.662,0 0,-0.182 c 0,-0.559 0.451,-0.837 1.222,-0.837 0.773,0 1.17,0.214 1.17,0.815 C 0.761,-0.322 0.45,-0.075 0,0"
             style="fill:#231f20;fill-opacity:1;fill-rule:nonzero;stroke:none"
             id="path74"
             inkscape:connector-curvature="0" /></g><path
           d="m 433.937,262.853 1.663,0 0,7.509 -1.663,0 0,-7.509 z"
           style="fill:#231f20;fill-opacity:1;fill-rule:nonzero;stroke:none"
           id="path76"
           inkscape:connector-curvature="0" /><g
           id="g78"
           transform="translate(436.243,270.362)"><path
             d="M 0,0 1.803,0 3.497,-5.438 5.203,0 6.844,0 4.388,-7.509 2.457,-7.509 0,0 Z"
             style="fill:#231f20;fill-opacity:1;fill-rule:nonzero;stroke:none"
             id="path80"
             inkscape:connector-curvature="0" /></g><g
           id="g82"
           transform="translate(443.73,270.362)"><path
             d="m 0,0 5.236,0 0,-1.448 -3.572,0 0,-1.577 3.035,0 0,-1.449 -3.035,0 0,-1.587 3.572,0 0,-1.448 L 0,-7.509 0,0 Z"
             style="fill:#231f20;fill-opacity:1;fill-rule:nonzero;stroke:none"
             id="path84"
             inkscape:connector-curvature="0" /></g><g
           id="g86"
           transform="translate(401.916,257.489)"><path
             d="m 0,0 5.235,0 0,-1.448 -3.572,0 0,-1.576 3.036,0 0,-1.449 -3.036,0 0,-1.588 3.572,0 0,-1.448 L 0,-7.509 0,0 Z"
             style="fill:#231f20;fill-opacity:1;fill-rule:nonzero;stroke:none"
             id="path88"
             inkscape:connector-curvature="0" /></g><g
           id="g90"
           transform="translate(409.887,254.432)"><path
             d="m 0,0 0,-4.452 -1.663,0 0,7.509 1.556,0 2.767,-4.451 0,4.451 1.663,0 0,-7.509 -1.556,0 L 0,0 Z"
             style="fill:#231f20;fill-opacity:1;fill-rule:nonzero;stroke:none"
             id="path92"
             inkscape:connector-curvature="0" /></g><g
           id="g94"
           transform="translate(415.497,257.489)"><path
             d="m 0,0 5.235,0 0,-1.448 -3.572,0 0,-1.576 3.035,0 0,-1.449 -3.035,0 0,-1.588 3.572,0 0,-1.448 L 0,-7.509 0,0 Z"
             style="fill:#231f20;fill-opacity:1;fill-rule:nonzero;stroke:none"
             id="path96"
             inkscape:connector-curvature="0" /></g><g
           id="g98"
           transform="translate(423.467,253.928)"><path
             d="m 0,0 1.48,0 c 0.558,0 0.912,0.257 0.912,1.062 0,0.805 -0.365,1.051 -0.912,1.051 L 0,2.113 0,0 Z m -1.662,3.561 3.196,0 c 1.556,0 2.574,-0.73 2.574,-2.499 0,-1.223 -0.482,-1.963 -1.298,-2.296 l 1.406,-2.714 -1.931,0 -1.223,2.5 -1.062,0 0,-2.5 -1.662,0 0,7.509"
             style="fill:#231f20;fill-opacity:1;fill-rule:nonzero;stroke:none"
             id="path100"
             inkscape:connector-curvature="0" /></g><g
           id="g102"
           transform="translate(432.864,252.597)"><path
             d="m 0,0 0,0.097 -1.588,0 0,1.448 3.25,0 0,-4.162 -1.222,0 -0.247,0.558 c -0.461,-0.44 -1.126,-0.665 -1.91,-0.665 -1.534,0 -2.606,0.89 -2.606,2.724 l 0,2.221 c 0,1.909 1.18,2.778 3.004,2.778 1.759,0 2.981,-0.697 2.981,-2.445 l 0,-0.129 -1.662,0 0,0.129 c 0,0.697 -0.526,0.997 -1.319,0.997 -0.816,0 -1.341,-0.375 -1.341,-1.33 L -2.66,0 c 0,-0.846 0.525,-1.276 1.319,-1.276 C -0.526,-1.276 0,-0.846 0,0"
             style="fill:#231f20;fill-opacity:1;fill-rule:nonzero;stroke:none"
             id="path104"
             inkscape:connector-curvature="0" /></g><g
           id="g106"
           transform="translate(439.376,249.98)"><path
             d="m 0,0 -1.663,0 0,2.65 -2.703,4.859 1.984,0 1.577,-3.186 1.619,3.186 1.878,0 L 0,2.65 0,0 Z"
             style="fill:#231f20;fill-opacity:1;fill-rule:nonzero;stroke:none"
             id="path108"
             inkscape:connector-curvature="0" /></g><g
           id="g110"
           transform="translate(445.47,323.658)"><path
             d="m 0,0 -22.122,35.993 c -0.372,0.606 -1.019,0.968 -1.732,0.968 -0.712,0 -1.359,-0.362 -1.73,-0.967 L -47.708,0 c -0.382,-0.624 -0.399,-1.407 -0.041,-2.046 0.358,-0.64 1.037,-1.038 1.772,-1.038 l 13.013,0 -2.754,3.218 -8.129,0 19.993,32.53 19.994,-32.53 -8.129,0 -2.754,-3.218 13.012,0 c 0.735,0 1.415,0.398 1.773,1.038 C 0.399,-1.407 0.383,-0.624 0,0 m -13.04,3.015 c -1.316,-0.78 -2.629,-1.558 -4.009,-2.375 1.002,2.216 1.976,4.371 2.95,6.525 -0.019,0.011 -0.038,0.022 -0.057,0.033 -1.322,-1.181 -2.645,-2.362 -3.967,-3.542 -0.017,0.006 -0.034,0.012 -0.051,0.018 0.666,3.537 1.333,7.074 2,10.611 -0.022,0.006 -0.043,0.012 -0.064,0.018 -1.964,-3.067 -5.928,-9.201 -5.946,-9.199 l -1.67,11.98 L -25.578,5.1 c -1.964,3.068 -3.927,6.136 -5.891,9.203 -0.021,-0.006 -0.043,-0.012 -0.064,-0.018 0.667,-3.537 1.333,-7.074 2,-10.611 -0.017,-0.006 -0.034,-0.012 -0.051,-0.018 -1.323,1.18 -2.645,2.361 -3.967,3.542 -0.019,-0.011 -0.038,-0.022 -0.057,-0.033 0.974,-2.154 1.948,-4.309 2.95,-6.525 -1.38,0.817 -2.693,1.595 -4.009,2.375 -0.011,-0.021 -0.02,-0.031 -0.017,-0.035 1.548,-2.014 3.097,-4.027 4.649,-6.039 l 1.73,0 c -0.351,1.398 -0.693,2.76 -1.051,4.187 0.838,-0.652 1.617,-1.256 2.443,-1.898 -0.053,1.519 -0.104,2.989 -0.155,4.46 0.021,0.002 0.042,0.004 0.064,0.006 0.761,-1.12 1.522,-2.24 2.321,-3.417 l 0.829,2.959 0.83,-2.959 c 0.799,1.177 1.56,2.297 2.321,3.417 0.021,-0.002 0.043,-0.004 0.064,-0.006 -0.051,-1.471 -0.103,-2.941 -0.156,-4.46 0.827,0.642 1.606,1.246 2.444,1.898 -0.358,-1.427 -0.7,-2.789 -1.051,-4.187 l 1.73,0 c 1.552,2.012 3.101,4.025 4.649,6.039 0.003,0.004 -0.006,0.014 -0.017,0.035"
             style="fill:#231f20;fill-opacity:1;fill-rule:nonzero;stroke:none"
             id="path112"
             inkscape:connector-curvature="0" /></g><g
           id="g114"
           transform="translate(482.686,307.051)"><path
             d="m 0,0 -0.811,0 0,-1.08 0.811,0 c 0.305,0 0.521,0.162 0.521,0.54 C 0.521,-0.162 0.305,0 0,0 m 0.414,-1.494 0.612,-1.206 -0.595,0 -0.576,1.152 -0.666,0 0,-1.152 -0.522,0 0,3.169 1.35,0 c 0.63,0 1.026,-0.306 1.026,-0.99 0,-0.541 -0.234,-0.865 -0.629,-0.973 m -0.595,-1.944 c 1.387,0 2.287,0.9 2.287,2.322 0,1.423 -0.9,2.341 -2.287,2.341 -1.386,0 -2.286,-0.918 -2.286,-2.341 0,-1.422 0.9,-2.322 2.286,-2.322 m 0,5.077 c 1.675,0 2.755,-1.08 2.755,-2.755 0,-1.675 -1.08,-2.755 -2.755,-2.755 -1.674,0 -2.755,1.08 -2.755,2.755 0,1.675 1.081,2.755 2.755,2.755"
             style="fill:#231f20;fill-opacity:1;fill-rule:nonzero;stroke:none"
             id="path116"
             inkscape:connector-curvature="0" /></g></g></g></g></svg>