<svg xmlns="http://www.w3.org/2000/svg" xmlns:xlink="http://www.w3.org/1999/xlink" viewBox="-6 -6 512 230">
    <defs>
        <filter id="glow">
            <feGaussianBlur stdDeviation="2 2" result="glow" />
            <feComponentTransfer>
                <feFuncA type="linear" slope="0.75" />
            </feComponentTransfer>
            <feMerge>
                <feMergeNode/>
                <feMergeNode in="SourceGraphic"/>
            </feMerge>
        </filter>
    </defs>
    <g fill="none" vector-effect="non-scaling-stroke" stroke-width="3" stroke-linejoin="round" stroke-miterlimit="10">
        <path filter="url(#glow)" stroke="#36ffff" d="M130 19.4l-14 8.1v16.3H87.7L73.6 52l28.2 16.3H130l28.2 16.3 28.2-16.3L158.3 52V35.7zm183.6 24.4L299.4 52l14.2 8.1h-28.3L257 76.4l70.5 40.7 14.1-8.1-14-8.1h28.1l28.3-16.3zM45.4 68.3L3 92.7l70.6 40.7 28.2-16.3L73.6 101l14-8.2V76.4l-14-8.1zm183.4 24.4L200.6 109v16.3l42.4 24.4h28.2l28.2-16.3v-16.3L257 92.7zm0 16.3h28.3l14 8.1v16.3H243l-14.2-8.1zm197.6 0l-56.5 32.6 28.3 16.3 14.1-8.2V166l28.2 16.3 56.5-32.6-28.2-16.3-14.1 8.2v-16.3zm-268 24.4L130 149.7V166l42.3 24.5h28.2l28.2-16.3v-16.3l-14-8.2-28.3 16.3-14.1-8.1 28.2-16.3-14-8.2zM341.6 158l-28.1 16.3v16.3l42.3 24.4h28.2l28.2-16.3v-16.3l-14-8.1-28.4 16.3-14-8.2L384 166 370 158z" />
        <path filter="url(#glow)" stroke="#ffff0e" d="M130 11.2l-14 8.2v16.3H87.7l-14.1 8.1 28.2 16.3H130l28.2 16.3 28.2-16.3-28.2-16.3V27.5zm183.6 24.5l-14.2 8.1 14.2 8.2h-28.3L257 68.3l70.5 40.7 14.1-8.1-14-8.2h28.1l28.3-16.3zM45.4 60L3 84.6l70.6 40.7 28.2-16.3-28.2-16.3 14-8.1V68.3l-14-8.2zm183.4 24.5l-28.2 16.3V117l42.4 24.5h28.2l28.2-16.3V109L257 84.6zm0 16.3h28.3l14 8.1v16.3H243l-14.2-8.2zm197.6 0l-56.5 32.5 28.3 16.3 14.1-8.1v16.3l28.2 16.3 56.5-32.6-28.2-16.3-14.1 8.1v-16.3zm-268 24.4L130 141.6v16.3l42.3 24.4h28.2l28.2-16.3v-16.3l-14-8.1-28.3 16.3-14.1-8.2 28.2-16.3-14-8.1zm183.3 24.4L313.6 166v16.3l42.3 24.5h28.2l28.2-16.3v-16.3l-14-8.2-28.4 16.3-14-8.1 28.2-16.3-14.2-8.2z" />
        <path filter="url(#glow)" stroke="#c848d9" d="M130 3l-14 8.2v16.3H87.7l-14.1 8.2L101.8 52H130l28.2 16.3L186.5 52l-28.2-16.3V19.4zm183.6 24.5l-14.2 8.2 14.2 8.1h-28.3L257 60.1l70.5 40.8 14.1-8.2-14-8.1h28.1l28.3-16.3zM45.4 52L3 76.4l70.6 40.7 28.2-16.2-28.2-16.3 14-8.2V60.1l-14-8.1zm183.4 24.4l-28.2 16.3V109l42.4 24.4h28.2l28.2-16.3V101L257 76.4zm0 16.3h28.3l14 8.2V117H243l-14.2-8.1zm197.6 0l-56.5 32.6 28.3 16.3 14.1-8.2v16.3l28.2 16.3 56.5-32.6-28.2-16.3-14.1 8.2V109zm-268 24.4L130 133.4v16.3l42.3 24.5h28.2l28.2-16.3v-16.3l-14-8.2-28.3 16.3-14.1-8.1 28.2-16.3-14-8.2zm183.3 24.5l-28.1 16.3v16.3l42.3 24.4h28.2l28.2-16.3V166l-14-8.1-28.4 16.3-14-8.2 28.2-16.3-14.2-8.1z" />
    </g>
</svg>
