<svg xmlns="http://www.w3.org/2000/svg" viewBox="0 0 9810 4100">
  <path fill="#459db9" d="M3 2668l896 469v958L3 3626zm0-1074l896 469v958L3 2552z"/>
  <path fill="#459db9" d="M2255 1498h564c87 0 165 10 236 32 70 21 131 52 183 93a423 423 0 0 1 161 350v4c0 82-16 154-49 216a455 455 0 0 1-131 155c-55 42-120 73-194 94-73 20-150 30-233 30h-421v580h-116zm544 870c73 0 139-9 199-26 59-18 110-44 152-78a350 350 0 0 0 135-280v-5a370 370 0 0 0-34-164 323 323 0 0 0-98-116 450 450 0 0 0-150-72 705 705 0 0 0-192-24h-441v766zm1059 1047a494 494 0 0 1-226-50l38-97a405 405 0 0 0 194 42c30 0 58-4 83-13a200 200 0 0 0 71-45c23-22 44-50 65-84 20-34 42-75 62-124l-546-1124h127l473 1013 410-1014h120l-491 1174a638 638 0 0 1-166 250c-60 48-132 72-213 72"/>
  <path fill="#ee9041" d="M945 1976L55 1508l897-460 896 462zM1002 4l896 469v958l-896-469z"/>
  <path fill="#ee9041" d="M5026 1538h520c122 0 234 20 335 59a738 738 0 0 1 434 409 770 770 0 0 1 60 305v5c0 110-20 211-60 306s-97 177-170 247a807 807 0 0 1-264 164 904 904 0 0 1-335 60h-520zm520 1451a790 790 0 0 0 294-53 636 636 0 0 0 365-354 680 680 0 0 0 50-262v-4a682 682 0 0 0-192-475 643 643 0 0 0-223-145 776 776 0 0 0-294-54h-404v1347zm1545 132a570 570 0 0 1-159-22 456 456 0 0 1-140-67 360 360 0 0 1-102-111 302 302 0 0 1-39-156v-4a330 330 0 0 1 139-273c43-31 95-55 156-71a786 786 0 0 1 203-25 1393 1393 0 0 1 377 50v-50c0-114-33-200-100-258a407 407 0 0 0-275-86c-70 0-134 8-192 25a947 947 0 0 0-165 66l-40-96c62-30 126-54 190-72a783 783 0 0 1 214-28c156 0 275 42 359 125a432 432 0 0 1 116 320v706h-107v-189a566 566 0 0 1-165 148 548 548 0 0 1-270 68m6-104a530 530 0 0 0 166-26c52-17 97-40 137-70s70-67 93-110 35-90 35-142v-128a2420 2420 0 0 0-167-34 1300 1300 0 0 0-219-17 460 460 0 0 0-278 72 227 227 0 0 0-97 191v5c0 41 10 78 27 110a250 250 0 0 0 72 80c31 22 66 39 106 50a440 440 0 0 0 125 19m1308 96a450 450 0 0 1-125-17 267 267 0 0 1-170-155c-16-40-24-85-24-139v-742h-165v-100h165v-361h109v362h400v100h-400v730c0 80 21 138 64 170 42 33 97 49 164 49a370 370 0 0 0 167-38v102a433 433 0 0 1-185 40m860 6a570 570 0 0 1-159-22 455 455 0 0 1-140-67 360 360 0 0 1-102-111 302 302 0 0 1-39-156v-4a330 330 0 0 1 138-273c43-31 96-55 157-71a786 786 0 0 1 203-25 1393 1393 0 0 1 377 50v-50c0-114-34-200-100-258a407 407 0 0 0-275-86c-70 0-134 8-192 25a950 950 0 0 0-165 66l-40-96c62-30 125-54 190-72a784 784 0 0 1 213-28c157 0 276 42 360 125a432 432 0 0 1 116 320v706h-108v-189a562 562 0 0 1-166 148 546 546 0 0 1-270 68m8-104a530 530 0 0 0 165-26c52-17 98-40 138-70 39-30 70-67 93-110s35-90 35-142v-128c-48-12-104-23-168-34-63-11-136-17-218-17a460 460 0 0 0-278 72 227 227 0 0 0-97 191v5c0 41 9 78 27 110a250 250 0 0 0 72 80c30 22 66 39 106 50a440 440 0 0 0 125 19"/>
  <path fill="#667b83" d="M1004 2063l896-469v958l-896 470"/>
</svg>
