<svg version="1" xmlns="http://www.w3.org/2000/svg" width="933.333" height="933.333" viewBox="0 0 700.000000 700.000000"><path d="M300.4 120.9c-1 .2-2.3.7-2.9 1.1-.5.4-65.1 37.7-143.5 82.9S10.4 288.2 9.1 289.7c-1.8 2.1-2.2 3.4-1.7 6.2.3 1.9 1.1 4 1.8 4.7.7.7 53.1 31.1 116.3 67.6C455.9 559.1 490.8 579 493.7 579c3.6 0 192.3-108.6 196.6-113.1 3.2-3.5 3.4-6.7.7-10.1-1.1-1.4-42-25.7-91-53.9-48.9-28.3-89-51.6-89-51.9 0-.3 18.7-11.2 41.5-24.4 22.8-13.1 42.2-24.7 43.2-25.8 1.7-1.9 1.8-5.7 1.8-60.4 0-57.7 0-58.4-2.1-60.4-1.1-1.2-23.8-14.7-50.4-30.1L496.6 121l-97.1-.3c-53.4-.1-98 0-99.1.2zM485 239.5V341H311V138h174v101.5zM293.3 345.1c-2.5 2.2-86.8 49.9-87.7 49.6-1.8-.8-171-98.7-171.8-99.5-.4-.4 57.8-34.6 129.5-75.9l130.2-75.1.3 100.1c.1 55-.1 100.4-.5 100.8zm249-178.3l38.7 22.4v100.5l-38.7 22.4c-21.3 12.3-39 22.5-39.5 22.7-.4.2-.8-42.7-.8-95.3 0-52.6.4-95.5.8-95.3.5.1 18.3 10.4 39.5 22.6zm44.4 246.9c43.6 25.2 79.3 46.2 79.4 46.7.1.7-148.3 87.3-161.3 94.2l-2.8 1.5V364.9l2.8 1.5c1.5.8 38.4 22.1 81.9 47.3z"/></svg>