<?xml version="1.0" standalone="no"?>
<!DOCTYPE svg PUBLIC "-//W3C//DTD SVG 20010904//EN"
 "http://www.w3.org/TR/2001/REC-SVG-20010904/DTD/svg10.dtd">
<svg version="1.0" xmlns="http://www.w3.org/2000/svg"
 width="700.000000pt" height="700.000000pt" viewBox="0 0 700.000000 700.000000"
 preserveAspectRatio="xMidYMid meet">
<metadata>
Created by potrace 1.11, written by Peter Selinger 2001-2013
</metadata>
<g transform="translate(0.000000,700.000000) scale(0.100000,-0.100000)"
fill="#000000" stroke="none">
<path d="M4433 5253 l-233 -135 0 -269 0 -269 -467 0 -466 0 -101 -59 c-56
-32 -117 -68 -136 -79 -104 -58 -216 -124 -222 -130 -7 -7 59 -46 664 -394
l257 -148 466 0 466 0 67 -38 c37 -21 248 -143 469 -271 l403 -232 272 157
c150 86 287 165 303 174 81 47 237 137 293 168 34 20 62 38 62 41 0 3 -64 43
-143 87 -122 70 -468 270 -662 382 -33 19 -73 42 -90 52 l-30 17 -3 270 -2
271 -338 195 c-185 107 -353 204 -372 215 -19 10 -64 36 -100 57 -36 21 -78
45 -95 55 l-30 17 -232 -134z"/>
<path d="M1785 3726 c-38 -24 -90 -54 -115 -68 -25 -14 -85 -49 -135 -78 -49
-29 -106 -62 -125 -72 -33 -19 -373 -216 -470 -272 -25 -14 -83 -47 -129 -73
-46 -27 -103 -59 -126 -73 -24 -14 -82 -47 -129 -74 -47 -27 -86 -52 -86 -55
1 -3 56 -37 123 -75 67 -39 259 -149 427 -246 168 -97 334 -192 370 -212 36
-20 106 -59 155 -88 50 -29 109 -63 132 -76 23 -13 92 -53 153 -89 61 -36 115
-65 121 -65 5 0 9 -4 9 -10 0 -5 5 -10 11 -10 6 0 48 -22 93 -49 44 -26 187
-109 316 -183 129 -75 251 -145 270 -156 85 -50 144 -82 153 -82 9 0 877 498
911 523 16 12 -7 28 -230 157 -137 79 -334 192 -437 252 -104 60 -200 114
-213 120 -13 6 -24 14 -24 17 0 4 104 67 230 140 l230 133 -2 270 -3 270 -230
134 -230 133 -475 0 -475 -1 -70 -42z"/>
</g>
</svg>
