<?xml version="1.0" encoding="UTF-8" standalone="no"?>

    <svg
        id="main"
        width="1216.8" height="81"
        xmlns="http://www.w3.org/2000/svg"
    >
    <symbol id="fc" width="93.6" height="126.0">
        <path style="fill: #e6e8ef; stroke: #e6e8ef; stroke-width: 1px;"
            d="m 0,18.0 46.8,-18.0 46.8,18.0 -46.8,18.0 z"
        />
        <path style="fill: #f0f2f8; stroke: #f0f2f8; stroke-width: 1px;"
            d="m 0,18.0 46.8,18.0 0,180.0 -46.8,-18.0 z"
        />
        <path style="fill: #e0e2e8; stroke: #e0e2e8; stroke-width: 1px;"
            d="m 46.8,36.0 46.8,-18.0 0,180.0 -46.8,18.0 z"
        />
    </symbol>


        <style>
        /* <![CDATA[ */
            use {
                transition-property: transform;
                transition-duration: 1s;
                transition-timing-function: linear;
            }
            use:hover {
                transform: translate(0, 45.0px);
            }
        /* ]]> */
        </style>

<use href="#fc" x="0.0" y="45.0" />
<use href="#fc" x="93.6" y="27.0" />
<use href="#fc" x="187.2" y="9.0" />
<use href="#fc" x="280.8" y="18.0" />
<use href="#fc" x="374.4" y="45.0" />
<use href="#fc" x="468.0" y="9.0" />
<use href="#fc" x="561.6" y="36.0" />
<use href="#fc" x="655.2" y="45.0" />
<use href="#fc" x="748.8" y="27.0" />
<use href="#fc" x="842.4" y="36.0" />
<use href="#fc" x="936.0" y="27.0" />
<use href="#fc" x="1029.6" y="36.0" />
<use href="#fc" x="1123.2" y="27.0" />
<use href="#fc" x="1216.8" y="45.0" />
<use href="#fc" x="-46.8" y="36.0" />
<use href="#fc" x="46.8" y="54.0" />
<use href="#fc" x="140.4" y="36.0" />
<use href="#fc" x="234.0" y="45.0" />
<use href="#fc" x="327.6" y="27.0" />
<use href="#fc" x="421.2" y="45.0" />
<use href="#fc" x="514.8" y="36.0" />
<use href="#fc" x="608.4" y="45.0" />
<use href="#fc" x="702.0" y="54.0" />
<use href="#fc" x="795.6" y="36.0" />
<use href="#fc" x="889.2" y="27.0" />
<use href="#fc" x="982.8" y="63.0" />
<use href="#fc" x="1076.4" y="27.0" />
<use href="#fc" x="1170.0" y="36.0" />
<use href="#fc" x="0.0" y="45.0" />
<use href="#fc" x="93.6" y="81.0" />
<use href="#fc" x="187.2" y="72.0" />
<use href="#fc" x="280.8" y="81.0" />
<use href="#fc" x="374.4" y="72.0" />
<use href="#fc" x="468.0" y="81.0" />
<use href="#fc" x="561.6" y="45.0" />
<use href="#fc" x="655.2" y="54.0" />
<use href="#fc" x="748.8" y="45.0" />
<use href="#fc" x="842.4" y="81.0" />
<use href="#fc" x="936.0" y="54.0" />
<use href="#fc" x="1029.6" y="63.0" />
<use href="#fc" x="1123.2" y="81.0" />
<use href="#fc" x="1216.8" y="45.0" />
<use href="#fc" x="-46.8" y="81.0" />
<use href="#fc" x="46.8" y="72.0" />
<use href="#fc" x="140.4" y="81.0" />
<use href="#fc" x="234.0" y="72.0" />
<use href="#fc" x="327.6" y="81.0" />
<use href="#fc" x="421.2" y="72.0" />
<use href="#fc" x="514.8" y="81.0" />
<use href="#fc" x="608.4" y="90.0" />
<use href="#fc" x="702.0" y="81.0" />
<use href="#fc" x="795.6" y="90.0" />
<use href="#fc" x="889.2" y="81.0" />
<use href="#fc" x="982.8" y="63.0" />
<use href="#fc" x="1076.4" y="90.0" />
<use href="#fc" x="1170.0" y="81.0" />
<use href="#fc" x="0.0" y="108.0" />
<use href="#fc" x="93.6" y="81.0" />
<use href="#fc" x="187.2" y="117.0" />
<use href="#fc" x="280.8" y="81.0" />
<use href="#fc" x="374.4" y="117.0" />
<use href="#fc" x="468.0" y="81.0" />
<use href="#fc" x="561.6" y="117.0" />
<use href="#fc" x="655.2" y="81.0" />
<use href="#fc" x="748.8" y="117.0" />
<use href="#fc" x="842.4" y="81.0" />
<use href="#fc" x="936.0" y="117.0" />
<use href="#fc" x="1029.6" y="90.0" />
<use href="#fc" x="1123.2" y="81.0" />
<use href="#fc" x="1216.8" y="108.0" />
<use href="#fc" x="-46.8" y="108.0" />
<use href="#fc" x="46.8" y="117.0" />
<use href="#fc" x="140.4" y="108.0" />
<use href="#fc" x="234.0" y="126.0" />
<use href="#fc" x="327.6" y="108.0" />
<use href="#fc" x="421.2" y="117.0" />
<use href="#fc" x="514.8" y="108.0" />
<use href="#fc" x="608.4" y="117.0" />
<use href="#fc" x="702.0" y="108.0" />
<use href="#fc" x="795.6" y="117.0" />
<use href="#fc" x="889.2" y="126.0" />
<use href="#fc" x="982.8" y="117.0" />
<use href="#fc" x="1076.4" y="135.0" />
<use href="#fc" x="1170.0" y="108.0" />
<use href="#fc" x="0.0" y="117.0" />
<use href="#fc" x="93.6" y="144.0" />
<use href="#fc" x="187.2" y="135.0" />
<use href="#fc" x="280.8" y="153.0" />
<use href="#fc" x="374.4" y="117.0" />
<use href="#fc" x="468.0" y="144.0" />
<use href="#fc" x="561.6" y="117.0" />
<use href="#fc" x="655.2" y="144.0" />
<use href="#fc" x="748.8" y="117.0" />
<use href="#fc" x="842.4" y="153.0" />
<use href="#fc" x="936.0" y="117.0" />
<use href="#fc" x="1029.6" y="144.0" />
<use href="#fc" x="1123.2" y="135.0" />
<use href="#fc" x="1216.8" y="117.0" />
<use href="#fc" x="-46.8" y="171.0" />
<use href="#fc" x="46.8" y="144.0" />
<use href="#fc" x="140.4" y="171.0" />
<use href="#fc" x="234.0" y="135.0" />
<use href="#fc" x="327.6" y="153.0" />
<use href="#fc" x="421.2" y="171.0" />
<use href="#fc" x="514.8" y="153.0" />
<use href="#fc" x="608.4" y="144.0" />
<use href="#fc" x="702.0" y="171.0" />
<use href="#fc" x="795.6" y="162.0" />
<use href="#fc" x="889.2" y="144.0" />
<use href="#fc" x="982.8" y="171.0" />
<use href="#fc" x="1076.4" y="135.0" />
<use href="#fc" x="1170.0" y="171.0" />
<use href="#fc" x="0.0" y="171.0" />
<use href="#fc" x="93.6" y="153.0" />
<use href="#fc" x="187.2" y="162.0" />
<use href="#fc" x="280.8" y="180.0" />
<use href="#fc" x="374.4" y="162.0" />
<use href="#fc" x="468.0" y="153.0" />
<use href="#fc" x="561.6" y="180.0" />
<use href="#fc" x="655.2" y="153.0" />
<use href="#fc" x="748.8" y="162.0" />
<use href="#fc" x="842.4" y="171.0" />
<use href="#fc" x="936.0" y="180.0" />
<use href="#fc" x="1029.6" y="162.0" />
<use href="#fc" x="1123.2" y="180.0" />
<use href="#fc" x="1216.8" y="171.0" />
<use href="#fc" x="-46.8" y="180.0" />
<use href="#fc" x="46.8" y="207.0" />
<use href="#fc" x="140.4" y="189.0" />
<use href="#fc" x="234.0" y="207.0" />
<use href="#fc" x="327.6" y="171.0" />
<use href="#fc" x="421.2" y="198.0" />
<use href="#fc" x="514.8" y="207.0" />
<use href="#fc" x="608.4" y="189.0" />
<use href="#fc" x="702.0" y="198.0" />
<use href="#fc" x="795.6" y="207.0" />
<use href="#fc" x="889.2" y="171.0" />
<use href="#fc" x="982.8" y="189.0" />
<use href="#fc" x="1076.4" y="207.0" />
<use href="#fc" x="1170.0" y="180.0" />
<use href="#fc" x="0.0" y="216.0" />
<use href="#fc" x="93.6" y="198.0" />
<use href="#fc" x="187.2" y="216.0" />
<use href="#fc" x="280.8" y="207.0" />
<use href="#fc" x="374.4" y="225.0" />
<use href="#fc" x="468.0" y="207.0" />
<use href="#fc" x="561.6" y="198.0" />
<use href="#fc" x="655.2" y="225.0" />
<use href="#fc" x="748.8" y="189.0" />
<use href="#fc" x="842.4" y="198.0" />
<use href="#fc" x="936.0" y="225.0" />
<use href="#fc" x="1029.6" y="216.0" />
<use href="#fc" x="1123.2" y="207.0" />
<use href="#fc" x="1216.8" y="216.0" />
<use href="#fc" x="-46.8" y="243.0" />
<use href="#fc" x="46.8" y="225.0" />
<use href="#fc" x="140.4" y="207.0" />
<use href="#fc" x="234.0" y="216.0" />
<use href="#fc" x="327.6" y="234.0" />
<use href="#fc" x="421.2" y="216.0" />
<use href="#fc" x="514.8" y="207.0" />
<use href="#fc" x="608.4" y="234.0" />
<use href="#fc" x="702.0" y="216.0" />
<use href="#fc" x="795.6" y="225.0" />
<use href="#fc" x="889.2" y="234.0" />
<use href="#fc" x="982.8" y="216.0" />
<use href="#fc" x="1076.4" y="207.0" />
<use href="#fc" x="1170.0" y="243.0" />
<use href="#fc" x="0.0" y="225.0" />
<use href="#fc" x="93.6" y="252.0" />
<use href="#fc" x="187.2" y="243.0" />
<use href="#fc" x="280.8" y="261.0" />
<use href="#fc" x="374.4" y="243.0" />
<use href="#fc" x="468.0" y="261.0" />
<use href="#fc" x="561.6" y="243.0" />
<use href="#fc" x="655.2" y="225.0" />
<use href="#fc" x="748.8" y="261.0" />
<use href="#fc" x="842.4" y="225.0" />
<use href="#fc" x="936.0" y="243.0" />
<use href="#fc" x="1029.6" y="261.0" />
<use href="#fc" x="1123.2" y="252.0" />
<use href="#fc" x="1216.8" y="225.0" />
<use href="#fc" x="-46.8" y="252.0" />
<use href="#fc" x="46.8" y="279.0" />
<use href="#fc" x="140.4" y="252.0" />
<use href="#fc" x="234.0" y="243.0" />
<use href="#fc" x="327.6" y="252.0" />
<use href="#fc" x="421.2" y="270.0" />
<use href="#fc" x="514.8" y="252.0" />
<use href="#fc" x="608.4" y="279.0" />
<use href="#fc" x="702.0" y="261.0" />
<use href="#fc" x="795.6" y="252.0" />
<use href="#fc" x="889.2" y="279.0" />
<use href="#fc" x="982.8" y="270.0" />
<use href="#fc" x="1076.4" y="261.0" />
<use href="#fc" x="1170.0" y="252.0" />
<use href="#fc" x="0.0" y="279.0" />
<use href="#fc" x="93.6" y="261.0" />
<use href="#fc" x="187.2" y="288.0" />
<use href="#fc" x="280.8" y="279.0" />
<use href="#fc" x="374.4" y="297.0" />
<use href="#fc" x="468.0" y="279.0" />
<use href="#fc" x="561.6" y="261.0" />
<use href="#fc" x="655.2" y="288.0" />
<use href="#fc" x="748.8" y="261.0" />
<use href="#fc" x="842.4" y="279.0" />
<use href="#fc" x="936.0" y="270.0" />
<use href="#fc" x="1029.6" y="261.0" />
<use href="#fc" x="1123.2" y="297.0" />
<use href="#fc" x="1216.8" y="279.0" />
<use href="#fc" x="-46.8" y="279.0" />
<use href="#fc" x="46.8" y="288.0" />
<use href="#fc" x="140.4" y="297.0" />
<use href="#fc" x="234.0" y="315.0" />
<use href="#fc" x="327.6" y="306.0" />
<use href="#fc" x="421.2" y="279.0" />
<use href="#fc" x="514.8" y="306.0" />
<use href="#fc" x="608.4" y="288.0" />
<use href="#fc" x="702.0" y="315.0" />
<use href="#fc" x="795.6" y="306.0" />
<use href="#fc" x="889.2" y="279.0" />
<use href="#fc" x="982.8" y="315.0" />
<use href="#fc" x="1076.4" y="306.0" />
<use href="#fc" x="1170.0" y="279.0" />
<use href="#fc" x="0.0" y="333.0" />
<use href="#fc" x="93.6" y="324.0" />
<use href="#fc" x="187.2" y="306.0" />
<use href="#fc" x="280.8" y="297.0" />
<use href="#fc" x="374.4" y="315.0" />
<use href="#fc" x="468.0" y="306.0" />
<use href="#fc" x="561.6" y="315.0" />
<use href="#fc" x="655.2" y="297.0" />
<use href="#fc" x="748.8" y="306.0" />
<use href="#fc" x="842.4" y="333.0" />
<use href="#fc" x="936.0" y="315.0" />
<use href="#fc" x="1029.6" y="306.0" />
<use href="#fc" x="1123.2" y="315.0" />
<use href="#fc" x="1216.8" y="333.0" />
<use href="#fc" x="-46.8" y="342.0" />
<use href="#fc" x="46.8" y="315.0" />
<use href="#fc" x="140.4" y="351.0" />
<use href="#fc" x="234.0" y="333.0" />
<use href="#fc" x="327.6" y="324.0" />
<use href="#fc" x="421.2" y="342.0" />
<use href="#fc" x="514.8" y="315.0" />
<use href="#fc" x="608.4" y="351.0" />
<use href="#fc" x="702.0" y="342.0" />
<use href="#fc" x="795.6" y="333.0" />
<use href="#fc" x="889.2" y="324.0" />
<use href="#fc" x="982.8" y="342.0" />
<use href="#fc" x="1076.4" y="315.0" />
<use href="#fc" x="1170.0" y="342.0" />
<use href="#fc" x="0.0" y="351.0" />
<use href="#fc" x="93.6" y="342.0" />
<use href="#fc" x="187.2" y="360.0" />
<use href="#fc" x="280.8" y="369.0" />
<use href="#fc" x="374.4" y="333.0" />
<use href="#fc" x="468.0" y="369.0" />
<use href="#fc" x="561.6" y="360.0" />
<use href="#fc" x="655.2" y="342.0" />
<use href="#fc" x="748.8" y="333.0" />
<use href="#fc" x="842.4" y="360.0" />
<use href="#fc" x="936.0" y="369.0" />
<use href="#fc" x="1029.6" y="351.0" />
<use href="#fc" x="1123.2" y="342.0" />
<use href="#fc" x="1216.8" y="351.0" />
<use href="#fc" x="-46.8" y="351.0" />
<use href="#fc" x="46.8" y="378.0" />
<use href="#fc" x="140.4" y="351.0" />
<use href="#fc" x="234.0" y="360.0" />
<use href="#fc" x="327.6" y="378.0" />
<use href="#fc" x="421.2" y="360.0" />
<use href="#fc" x="514.8" y="369.0" />
<use href="#fc" x="608.4" y="351.0" />
<use href="#fc" x="702.0" y="369.0" />
<use href="#fc" x="795.6" y="387.0" />
<use href="#fc" x="889.2" y="369.0" />
<use href="#fc" x="982.8" y="360.0" />
<use href="#fc" x="1076.4" y="387.0" />
<use href="#fc" x="1170.0" y="351.0" />
<use href="#fc" x="0.0" y="378.0" />
<use href="#fc" x="93.6" y="405.0" />
<use href="#fc" x="187.2" y="387.0" />
<use href="#fc" x="280.8" y="369.0" />
<use href="#fc" x="374.4" y="405.0" />
<use href="#fc" x="468.0" y="396.0" />
<use href="#fc" x="561.6" y="405.0" />
<use href="#fc" x="655.2" y="396.0" />
<use href="#fc" x="748.8" y="378.0" />
<use href="#fc" x="842.4" y="369.0" />
<use href="#fc" x="936.0" y="396.0" />
<use href="#fc" x="1029.6" y="369.0" />
<use href="#fc" x="1123.2" y="396.0" />
<use href="#fc" x="1216.8" y="378.0" />
<use href="#fc" x="-46.8" y="405.0" />
<use href="#fc" x="46.8" y="387.0" />
<use href="#fc" x="140.4" y="414.0" />
<use href="#fc" x="234.0" y="423.0" />
<use href="#fc" x="327.6" y="396.0" />
<use href="#fc" x="421.2" y="387.0" />
<use href="#fc" x="514.8" y="396.0" />
<use href="#fc" x="608.4" y="405.0" />
<use href="#fc" x="702.0" y="423.0" />
<use href="#fc" x="795.6" y="414.0" />
<use href="#fc" x="889.2" y="423.0" />
<use href="#fc" x="982.8" y="405.0" />
<use href="#fc" x="1076.4" y="396.0" />
<use href="#fc" x="1170.0" y="405.0" />
<use href="#fc" x="0.0" y="441.0" />
<use href="#fc" x="93.6" y="423.0" />
<use href="#fc" x="187.2" y="405.0" />
<use href="#fc" x="280.8" y="423.0" />
<use href="#fc" x="374.4" y="432.0" />
<use href="#fc" x="468.0" y="423.0" />
<use href="#fc" x="561.6" y="405.0" />
<use href="#fc" x="655.2" y="414.0" />
<use href="#fc" x="748.8" y="423.0" />
<use href="#fc" x="842.4" y="414.0" />
<use href="#fc" x="936.0" y="405.0" />
<use href="#fc" x="1029.6" y="441.0" />
<use href="#fc" x="1123.2" y="405.0" />
<use href="#fc" x="1216.8" y="441.0" />
<use href="#fc" x="-46.8" y="432.0" />
<use href="#fc" x="46.8" y="450.0" />
<use href="#fc" x="140.4" y="459.0" />
<use href="#fc" x="234.0" y="432.0" />
<use href="#fc" x="327.6" y="459.0" />
<use href="#fc" x="421.2" y="432.0" />
<use href="#fc" x="514.8" y="450.0" />
<use href="#fc" x="608.4" y="459.0" />
<use href="#fc" x="702.0" y="423.0" />
<use href="#fc" x="795.6" y="459.0" />
<use href="#fc" x="889.2" y="450.0" />
<use href="#fc" x="982.8" y="432.0" />
<use href="#fc" x="1076.4" y="450.0" />
<use href="#fc" x="1170.0" y="432.0" />
<use href="#fc" x="0.0" y="459.0" />
<use href="#fc" x="93.6" y="450.0" />
<use href="#fc" x="187.2" y="459.0" />
<use href="#fc" x="280.8" y="468.0" />
<use href="#fc" x="374.4" y="441.0" />
<use href="#fc" x="468.0" y="477.0" />
<use href="#fc" x="561.6" y="450.0" />
<use href="#fc" x="655.2" y="459.0" />
<use href="#fc" x="748.8" y="468.0" />
<use href="#fc" x="842.4" y="459.0" />
<use href="#fc" x="936.0" y="477.0" />
<use href="#fc" x="1029.6" y="459.0" />
<use href="#fc" x="1123.2" y="477.0" />
<use href="#fc" x="1216.8" y="459.0" />
<use href="#fc" x="-46.8" y="486.0" />
<use href="#fc" x="46.8" y="459.0" />
<use href="#fc" x="140.4" y="486.0" />
<use href="#fc" x="234.0" y="495.0" />
<use href="#fc" x="327.6" y="477.0" />
<use href="#fc" x="421.2" y="486.0" />
<use href="#fc" x="514.8" y="477.0" />
<use href="#fc" x="608.4" y="459.0" />
<use href="#fc" x="702.0" y="468.0" />
<use href="#fc" x="795.6" y="459.0" />
<use href="#fc" x="889.2" y="468.0" />
<use href="#fc" x="982.8" y="459.0" />
<use href="#fc" x="1076.4" y="468.0" />
<use href="#fc" x="1170.0" y="486.0" />
<use href="#fc" x="0.0" y="513.0" />
<use href="#fc" x="93.6" y="495.0" />
<use href="#fc" x="187.2" y="477.0" />
<use href="#fc" x="280.8" y="486.0" />
<use href="#fc" x="374.4" y="513.0" />
<use href="#fc" x="468.0" y="477.0" />
<use href="#fc" x="561.6" y="504.0" />
<use href="#fc" x="655.2" y="513.0" />
<use href="#fc" x="748.8" y="495.0" />
<use href="#fc" x="842.4" y="504.0" />
<use href="#fc" x="936.0" y="495.0" />
<use href="#fc" x="1029.6" y="504.0" />
<use href="#fc" x="1123.2" y="495.0" />
<use href="#fc" x="1216.8" y="513.0" />
<use href="#fc" x="-46.8" y="504.0" />
<use href="#fc" x="46.8" y="522.0" />
<use href="#fc" x="140.4" y="504.0" />
<use href="#fc" x="234.0" y="513.0" />
<use href="#fc" x="327.6" y="495.0" />
<use href="#fc" x="421.2" y="513.0" />
<use href="#fc" x="514.8" y="504.0" />
<use href="#fc" x="608.4" y="513.0" />
<use href="#fc" x="702.0" y="522.0" />
<use href="#fc" x="795.6" y="504.0" />
<use href="#fc" x="889.2" y="495.0" />
<use href="#fc" x="982.8" y="531.0" />
<use href="#fc" x="1076.4" y="495.0" />
<use href="#fc" x="1170.0" y="504.0" />
</svg>
