<svg version="1" xmlns="http://www.w3.org/2000/svg" width="933.333" height="933.333" viewBox="0 0 700.000000 700.000000"><path d="M474.6 17.2c-3.7 2.1-51.1 40.9-52.5 42.9-1.1 1.6-1.4 9.3-1.6 40.2l-.1 38.2-49.5.5-49.5.5-5.5 4.5c-3 2.5-5.6 4.7-5.9 5-.3.3-2.5 2.1-5 4s-4.7 3.7-5 4c-.3.3-2.5 2.1-5 4s-5.3 4.2-6.2 5c-.9.8-5.5 4.4-10.1 8-8.4 6.4-11.7 10.3-11.7 13.4 0 2.2 4.7 6.7 15.8 15.1 2.9 2.1 5.1 4.2 5 4.6-.2.4-4.3 3.9-9.2 7.8-15.6 12.5-15.6 12.6.8 25.6 4.7 3.7 8.6 7.1 8.6 7.4 0 .3-3.8 3.7-8.4 7.4l-8.4 6.8H221c-27.6 0-51.2.4-52.4.9-1.3.4-2.9 1.4-3.7 2.2-.8.7-7.9 6.5-15.9 12.8-8 6.3-14.7 11.7-15 12-.3.3-2.3 1.8-4.5 3.5-2.2 1.6-5.1 3.9-6.5 5.1-1.4 1.2-8.8 7.2-16.5 13.3-7.7 6.1-14.7 11.7-15.5 12.4-.8.6-4.7 3.7-8.5 6.7-3.9 3-7.2 5.7-7.5 6-.3.3-13.4 10.8-29.1 23.2-15.7 12.5-30 24-31.7 25.6-5.6 5.2-4.2 7.9 10.6 19.7 4 3.2 7.1 6.1 7 6.6-.2.4-4.3 3.9-9.2 7.8-10 8-11.5 9.7-11.6 12.7 0 2.8 2 4.9 14.7 14.8 3.5 2.7 6.3 5.2 6.3 5.5-.1.3-4.4 4-9.6 8.1-5.3 4.1-9.9 8.1-10.4 9-2.6 5-4.4 3.4 93.5 81.7 51.7 41.3 94.5 75.5 95 76 .6.4 7.5 6 15.5 12.3 8 6.3 14.7 11.7 15 12 .3.3 4.8 3.9 10 8 11.2 8.9 12.9 10.2 14.4 11.5 4.7 4.2 14.5 11.4 16.3 11.9 1.2.4 3.3.2 4.5-.5 2-1 30.3-23.2 31.8-24.9.3-.3 16.1-13 35.1-28.2 19.1-15.2 35.6-28.6 36.8-29.9 1.1-1.2 2-3.3 1.8-4.7-.2-2.6-6-8.2-15.4-15-4.6-3.3-6.7-6.2-4.5-6.2.5 0 1.7-.8 2.8-1.8 1-.9 5.1-4.3 9.1-7.5 11.8-9.6 11.6-10.6-5.5-23.7-3.9-3-7.1-5.8-7.2-6.1 0-.4 4.3-4.1 9.5-8.3 5.2-4.2 9.9-8.5 10.4-9.5 1.1-1.9.7-5.9-.6-7.2-1.7-1.6-35.3-28.4-42-33.6-4-3-7.3-6.1-7.4-6.7-.2-2.9-.4-146.6-.1-146.6.1 0 9.1 7.1 20 15.8 10.9 8.8 20.7 16.4 21.9 17 1.6.9 16.3 1.2 52.5 1.2h50.4l50.8 40.7c40 32 51.4 40.6 53.6 40.6 2.2 0 8.9-4.8 29.7-21.4 14.7-11.7 27-21.6 27.3-21.9.3-.3 2.5-2.1 5-4s4.7-3.7 5-4c.3-.3 9.4-7.6 20.3-16.3 10.9-8.7 20.2-16.8 20.6-18 1.4-3.7-.2-5.9-10.8-14.5l-10.1-8.4 8.7-6.9c10.4-8.2 13.3-11.5 12.7-14.3-.4-2.2-5.5-7.2-14.8-14.5-3.1-2.5-5.5-4.8-5.4-5.2.2-.4 4.3-3.9 9.2-7.8 4.9-4 9.5-7.9 10.2-8.9 1.7-2.1 1.7-5.2.1-7.3-.7-.8-23.6-19.4-50.9-41.3L587 183.8v-39.3c0-21.7-.4-40.4-.9-41.7-.7-1.9-64.2-54.2-77.9-64.2-1.5-1.1-4.3-3.4-6.3-5-2-1.7-4.4-3.8-5.5-4.6-1-.8-4.9-3.8-8.5-6.7-7.1-5.6-10.4-6.9-13.3-5.1zm6.5 16.1c1.5 1.2 22.9 18.4 47.7 38.2l45.1 36v12.4c.1 9.7-.2 12.1-1.1 11.4-2.7-2.1-58.4-46.6-60.3-48.1-1.1-.9-5.4-4.4-9.5-7.7-10.5-8.4-10-8-14.9-12-9-7.3-11.5-7.6-18.2-1.7-4.9 4.1-34.2 27.7-35.4 28.4-.8.5-1.1-3.2-1.1-11.4l.1-12.1L450 53.3c23.6-19.3 24.1-19.6 25.9-21 2.1-1.6 2.2-1.6 5.2 1zm15.3 53.4c10.1 8.2 20.1 16.1 22.2 17.8 2.1 1.6 9.9 7.9 17.5 14 7.5 6 15.4 12.3 17.5 14 2.1 1.6 7.4 6 11.9 9.6l8 6.6.1 12.1c0 8.4-.3 11.9-1 11.3-2.5-1.9-68.1-54.3-79.4-63.3-11.5-9.2-13.5-10.4-17.2-9.8-.8.1-10.2 7.2-20.9 15.8-10.7 8.7-19.9 16-20.5 16.4-.9.5-1.3-11.4-.7-22.2.1-.9 8.8-8.6 19.4-17.2 10.5-8.6 20.3-16.5 21.7-17.7 1.4-1.1 2.6-2 2.8-2.1.2 0 8.5 6.6 18.6 14.7zm-7.4 35.4c5.2 4.1 10.4 8.2 11.5 9.1 1.1.9 18 14.4 37.5 30l35.5 28.3.3 39c.1 21.4.5 40.2.8 41.6.3 1.8 6.7 7.5 23.5 20.9 17.5 14 22.7 18.7 21.7 19.5-.8.5-9.4 7.5-19.3 15.4s-18.6 14.8-19.2 15.3c-.9.7-2.5 0-5.5-2.3-2.4-1.9-4.5-3.6-4.8-3.9-.3-.3-17.4-14-38-30.5-20.6-16.4-38-30.4-38.6-31-.6-.5-2.6-2.1-4.4-3.5-1.9-1.4-4.7-3.6-6.4-5l-3-2.5-51.3-.2-51.4-.2-4.2-3.3c-20.2-15.9-30.6-24.8-29-24.9H386c21.7 0 40.7-.2 42.3-.5 1.5-.3 3.2-1.5 3.9-2.7.8-1.6 1.2-13.7 1.3-42 .2-25.9.6-40.2 1.3-40.9 5-5 42.9-34.4 43.7-33.9.6.4 5.3 4.1 10.5 8.2zm-68.9 30.6c.6 4 .2 26.6-.5 27.1-.5.3-22.4.6-48.5.7-26.2.1-48.1.2-48.7.3-.6.1-6.2 4.2-12.4 9.1l-11.3 9-7.4-6.1c-4.1-3.3-7.1-6.4-6.6-6.9.4-.4 10-8.2 21.3-17.3l20.5-16.5 46.8-.1c25.7 0 46.8.3 46.8.7zm.5 54.3l.1 14h-94.2l-8.3-6.6c-4.6-3.7-8.2-7-8-7.5.2-.5 3.9-3.8 8.3-7.3l8-6.5h47l47.1-.1v14zm197.7 18.2c16.6 13.4 30.9 24.8 31.7 25.5.8.6 5.3 4.2 10 8 13.8 11 13.3 9.1 4.6 16.1l-7.5 6.1-6.3-5c-6.9-5.6-10.9-8.7-20.7-16.7-3.6-2.9-7.3-5.8-8.1-6.5-.9-.7-9.1-7.2-18.3-14.6L587 224.7v-11.9c0-6.5.2-11.8.5-11.8s14.1 10.9 30.8 24.2zm-311.6-3.6c4.1 3.2 7 6 6.6 6.4-3.1 2.9-13.8 11-14.5 11-.5 0-4.1-2.5-7.9-5.7-6.2-4.9-6.8-5.8-5.5-7.1 2.8-2.9 12.1-10.1 13-10.1.5-.1 4.3 2.4 8.3 5.5zm34.4 27.6c9.1 7.3 18.2 14.6 20.3 16.3 2.1 1.6 5 4 6.5 5.3 1.4 1.3 3.6 2.8 4.9 3.3 1.3.5 23.9.9 52.5.9h50.2l22 17.6c12.1 9.7 22.9 18.3 24 19.2 1.1 1 12.1 9.8 24.5 19.7 12.4 9.8 22.7 18.2 23 18.5.3.3 2.6 2.1 5.1 3.9 3.4 2.4 5.2 3.1 7.1 2.6 1.4-.4 13.1-9.2 26.2-19.6 15.9-12.8 24.1-18.7 25-18.2 2.2 1.3 13.5 10.8 13.5 11.3 0 .3-14.8 12.3-32.9 26.8-30.2 24-33.1 26.1-34.7 24.7-1-.8-13.7-11-28.3-22.6-14.6-11.7-28.1-22.5-30-24-19.6-15.9-33.2-26.7-36.4-29.1l-3.9-2.8H378l-34-27.2c-18.7-15-33.9-27.6-33.8-28 .3-.9 13-11.7 13.8-11.8.3 0 8 6 17.1 13.2zm251.7-3.5c2.6 2.1 4.9 4 5.2 4.3.3.3 4.1 3.4 8.5 6.9 4.4 3.4 8.9 7 10 7.9 1.1 1 8.2 6.6 15.8 12.6 7.5 6 13.7 11.2 13.7 11.6 0 .6-11 9.7-13.7 11.3-.8.5-9.5-5.8-23.3-16.9l-22-17.7v-11.8c0-6.6.3-11.9.6-11.9s2.7 1.7 5.2 3.7zm-267 31.9c14.1 11.3 27.3 21.9 29.2 23.4 14 11.3 16.7 13.3 18.5 14 1.1.4 23.8.8 50.5.8s49.2.1 50.2.1c.9.1 24.4 18.3 52.2 40.6 27.8 22.3 51.2 40.6 51.8 40.6.7.1 2.2 0 3.2-.1 1.4-.1 60.3-46.2 73.6-57.6 1.3-1.1 2.7-.4 8.9 4.5 4 3.2 7.3 6.2 7.3 6.6 0 .4-5.4 5-11.9 10.2-6.5 5.2-12.7 10.2-13.8 11.1-1.1.9-16.3 13.1-33.8 27.1-29 23.1-31.9 25.2-33.5 23.9-.9-.9-2.6-2.2-3.7-3.1-1.1-.9-15-12.1-31-24.8-15.9-12.8-30.4-24.4-32.1-25.8-1.7-1.4-9.3-7.6-16.9-13.6l-13.8-11-51.6-.3-51.5-.3-27.5-22.1c-15.2-12.2-36.3-29.2-46.9-37.6-10.6-8.5-19-15.7-18.7-16 3.4-3.4 13.3-11.1 14.3-11.2.7 0 12.8 9.3 27 20.6zm-31.7 16.1l23.4 18.8.1 12.3.2 12.2-4.2-3.3c-2.2-1.8-11.4-9.3-20.4-16.5-9-7.3-17.5-13.5-19-13.8-5.1-.9-102.7-1.1-105.1-.2-1.4.5-9.2 6.4-17.5 13-8.3 6.7-21.8 17.6-30.1 24.2-8.2 6.6-15.2 12.3-15.5 12.6-.3.3-2.5 2.1-5 4s-16.2 12.9-30.4 24.4c-14.3 11.5-26.5 20.9-27.2 21-.7.1-4.5-2.4-8.4-5.4l-7.1-5.5 2.8-2.5c1.6-1.4 4.9-4.1 7.3-6 2.4-1.9 6.2-5 8.4-6.8 2.3-1.8 4.8-3.9 5.6-4.5 8-6.4 101.2-80.6 109.9-87.6l11.4-9.1h97.5l23.3 18.7zm365.6 5.7c1 .8 3.9 3.2 6.5 5.3 2.6 2.1 4.7 4.2 4.8 4.6.1.9-13.1 11.7-14.4 11.7-1.7 0-14.8-11.2-13.9-12 2.6-2.6 13.7-11 14.4-11 .5 0 1.7.7 2.6 1.4zm-372 29.9c9.2 7.5 19.7 16 23.3 18.9l6.4 5.4.1 11.7c0 6.4-.2 11.7-.5 11.7-.4 0-1.5-.8-2.6-1.8-1-.9-8.4-6.9-16.4-13.2-8-6.3-15-11.9-15.6-12.5-6.2-5.4-.9-5-59.9-5h-54l-6.5 5c-3.6 2.7-6.7 5.2-7 5.5-.4.5-10.7 8.7-65.5 52.3-8.8 7-17 13.6-18.3 14.7l-2.4 2-6-4.8c-8.8-6.9-8.8-6.9-8.8-7.5 0-.3 6.6-5.9 14.8-12.4 8.1-6.5 15.2-12.2 15.8-12.8.6-.5 2.8-2.4 5-4 2.1-1.7 6.7-5.4 10.3-8.3 8.5-6.8 5.4-4.3 37.6-30.1 15.4-12.4 28.2-22.7 28.5-23.1.3-.3 2-1.7 3.9-3.2l3.4-2.6 48.8.3 48.8.2 16.8 13.6zm4.1 44.3c11.4 9.1 20.8 16.9 21 17.4.2.6-10.6 9.8-33.8 28.5-9.8 7.8-12 10.2-11.9 13 0 2.7 1.2 4.2 9.9 11 9.2 7.4 11.5 9.4 10.9 9.8-7.6 5.6-19.2 15.4-20 16.9-2 3.7-.1 6.6 10.1 14.8 5.5 4.5 10 8.5 10 8.9 0 .4-4.1 4.1-9 8.1-12.8 10.3-14.1 12.7-9.7 17.3 1.2 1.2 9 7.6 17.2 14.2 8.3 6.5 17.8 14 21.2 16.8l6.1 4.9-17.1 13.6c-9.5 7.5-17.8 14.2-18.5 14.9-2.5 2.4-5.3 3.5-6.5 2.5-.7-.6-44.3-35.4-97-77.5L79 432.2l34.2-27.3c18.9-15.1 34.5-27.6 34.8-27.9.3-.3 2.3-1.9 4.5-3.5 2.2-1.7 4.2-3.2 4.5-3.5.3-.3 4-3.3 8.4-6.8l7.9-6.2h97.9l20.6 16.6zm25.6 43.1c-.1 6.5-.2 12.1-.3 12.5 0 .3-4.2 3.9-9.1 7.8l-9.1 7.2-3.7-2.6c-2-1.5-5.4-4.1-7.6-6l-3.8-3.3 10.3-8.5c8.6-7 23.3-18.8 23.4-18.8 0 0 0 5.3-.1 11.7zM54.2 428.8c2.1 1.5 3.7 3 3.5 3.4-.3.8-14 11.8-14.8 11.8-.6 0-12.1-8.9-14.3-11-.4-.4 2.7-3.6 6.9-6.9l7.7-6.1 3.6 3c2.1 1.7 5.4 4.3 7.4 5.8zm69.4 55.5c29.7 23.7 55.7 44.5 57.8 46.2 5.1 4 26.7 21.3 28.6 22.8 1.5 1.2 34.7 27.7 38.4 30.7 1 .8 3.3 2.7 5 4.1 13.3 10.9 18.1 14.1 20.8 13.5 1.5-.3 13-8.7 25.5-18.7s23.3-18.4 24-18.6c.7-.3 4.6 2.2 8.7 5.4l7.4 5.9-3.1 2.5c-1.8 1.3-16.6 13.1-33 26.3-23.8 19-30.1 23.7-31.5 23-1.6-.8-75.9-59.8-77.2-61.3-.3-.3-3.4-2.8-7-5.6-3.6-2.7-6.7-5.2-7-5.5-.3-.3-29.2-23.5-64.2-51.4l-63.7-50.9 7.2-5.8c4-3.2 7.7-5.8 8.2-5.8.6-.1 25.3 19.4 55.1 43.2zm194.1-31.8c.1 3.6-.1 6.5-.4 6.5-.3 0-2.3-1.4-4.4-3.1l-3.9-3.1 4.2-3.4c2.4-1.9 4.3-3.4 4.3-3.4.1 0 .1 2.9.2 6.5zM48.5 465.4c2.1 1.7 5.1 4.1 6.5 5.2 1.4 1.2 7.7 6.3 14 11.3 6.3 5 12.2 9.7 13 10.4.8.7 10.3 8.2 21 16.8 10.7 8.5 51.1 40.8 89.7 71.7 79.2 63.3 77.8 62.2 80.9 62.2 2 0 10.2-6 26.4-19.3.8-.6 4.7-3.7 8.5-6.7 3.9-3 7.2-5.7 7.5-6 .3-.3 7.3-5.9 15.5-12.4 8.3-6.6 15.8-12.6 16.7-13.4 1.8-1.5 1.2-1.9 15 8.9 2 1.5.5 2.8-40.3 35.5-23.3 18.7-44.1 35.3-46.2 36.8l-3.7 2.8-4.8-3.8c-2.6-2.2-5.4-4.4-6.2-5.1-2.3-1.9-83.1-66.4-87.4-69.8-2.1-1.7-4.6-3.7-5.7-4.5-4.7-3.9-44.2-35.4-54.5-43.5-2.1-1.7-5.4-4.4-7.4-6-2-1.7-5.3-4.4-7.4-6-5.9-4.6-50.8-40.4-53.1-42.3-2.2-1.8-13.3-10.6-16.8-13.3-2-1.5-1.9-1.7 5.3-7.7 4.1-3.3 7.9-5.8 8.5-5.4.5.3 2.8 2 5 3.6zm258.8 2.4c3.7 3 6.4 5.9 6 6.3-2.2 2.1-13.6 10.9-14.2 10.9-.8 0-14.5-11-14.8-11.8-.3-1.2 14.1-12 15.2-11.4.6.3 4.1 3 7.8 6zm37.8 30.4c19.4 15.5 20 16.2 18.1 17.7-1.1.9-4.5 3.6-7.6 6l-5.6 4.3-19.9-15.8c-11-8.8-19.9-16.2-19.8-16.6.3-1 13-11.7 14-11.8.4 0 9.8 7.3 20.8 16.2zM326.8 524c6.6 5.2 12.1 9.9 12.1 10.5 0 .5-3.3 3.5-7.2 6.7l-7.2 5.6-3.5-2.6c-6.7-5.1-30.3-23.7-33.7-26.7l-3.4-3 7.6-6.2 7.6-6.2 7.8 6.2c4.3 3.4 13.3 10.5 19.9 15.7zm30.8 24.7c4 3.2 7.3 6 7.3 6.3 0 .3-3.4 3.1-7.5 6.4l-7.5 5.8-5.5-4.3c-3.1-2.4-6.5-5.2-7.7-6.1l-2.2-1.7 2.5-1.9c1.4-1.1 4.8-3.8 7.5-6 2.8-2.3 5.2-4.1 5.4-4.2.1 0 3.6 2.6 7.7 5.7z"/></svg>