<?xml version="1.0" standalone="no"?>
<!DOCTYPE svg PUBLIC "-//W3C//DTD SVG 20010904//EN"
 "http://www.w3.org/TR/2001/REC-SVG-20010904/DTD/svg10.dtd">
<svg version="1.0" xmlns="http://www.w3.org/2000/svg"
 width="16.000000pt" height="16.000000pt" viewBox="0 0 16.000000 16.000000"
 preserveAspectRatio="xMidYMid meet">
<metadata>
Created by potrace 1.11, written by Peter Selinger 2001-2013
</metadata>
<g transform="translate(0.000000,16.000000) scale(0.002286,-0.002286)"
fill="#000000" stroke="none">
<path d="M4556 6070 c-142 -82 -265 -155 -272 -161 -11 -9 -14 -69 -14 -310
l0 -299 -523 0 -523 0 -272 -157 -272 -156 0 -304 0 -303 -527 -1 -528 0 -800
-463 -800 -462 -3 -631 -2 -631 1335 -771 c735 -424 1341 -771 1348 -771 7 0
253 139 547 309 l535 309 0 633 0 633 -262 150 -263 151 0 278 c0 261 1 277
18 268 9 -5 123 -71 252 -145 l235 -136 531 0 532 0 512 -296 c281 -162 522
-300 535 -306 20 -9 84 25 564 302 l541 312 -2 632 -3 631 -527 305 -528 304
0 301 c0 165 -4 305 -8 311 -10 16 -1066 624 -1083 624 -8 0 -130 -68 -273
-150z m-1320 -1438 l499 -288 3 -582 c1 -320 -1 -582 -5 -582 -5 1 -111 61
-238 134 l-230 134 -3 305 c-2 240 -5 307 -16 316 -7 6 -125 76 -262 155
l-249 144 -3 276 c-1 152 -1 276 1 276 2 0 228 -130 503 -288z m1564 -892 l0
-590 -505 0 -505 0 0 590 0 590 505 0 505 0 0 -590z m1070 -598 l0 -583 -27
15 c-16 8 -242 138 -503 289 l-475 275 -3 585 -2 585 505 -291 505 -292 0
-583z m1060 584 l0 -583 -482 -278 c-266 -153 -493 -285 -505 -293 l-23 -14 0
585 0 584 503 291 c276 160 503 291 505 291 1 1 2 -262 2 -583z m-5516 -1111
l1265 -730 1 -583 c0 -321 -4 -582 -8 -580 -5 2 -592 340 -1305 752 l-1297
749 0 584 0 584 39 -23 c21 -13 608 -351 1305 -753z m1793 258 c-2 -2 -104 54
-225 124 -122 70 -218 131 -214 135 4 4 104 63 222 131 l215 125 3 -256 c1
-140 1 -257 -1 -259z m526 -1574 c-5 -4 -213 -125 -463 -269 -250 -145 -474
-274 -497 -287 l-43 -25 0 584 0 583 503 290 502 291 3 -580 c1 -319 -1 -583
-5 -587z"/>
</g>
</svg>
