<?xml version="1.0" encoding="UTF-8" standalone="no"?>
<svg
   xmlns:dc="http://purl.org/dc/elements/1.1/"
   xmlns:cc="http://creativecommons.org/ns#"
   xmlns:rdf="http://www.w3.org/1999/02/22-rdf-syntax-ns#"
   xmlns:svg="http://www.w3.org/2000/svg"
   xmlns="http://www.w3.org/2000/svg"
   xmlns:sodipodi="http://sodipodi.sourceforge.net/DTD/sodipodi-0.dtd"
   xmlns:inkscape="http://www.inkscape.org/namespaces/inkscape"
   viewBox="0 0 400 400"
   version="1.1"
   id="svg4"
   sodipodi:docname="github.svg"
   inkscape:version="0.92.3 (2405546, 2018-03-11)">
  <metadata
     id="metadata10">
    <rdf:RDF>
      <cc:Work
         rdf:about="">
        <dc:format>image/svg+xml</dc:format>
        <dc:type
           rdf:resource="http://purl.org/dc/dcmitype/StillImage" />
      </cc:Work>
    </rdf:RDF>
  </metadata>
  <defs
     id="defs8" />
  <sodipodi:namedview
     pagecolor="#ffffff"
     bordercolor="#666666"
     borderopacity="1"
     objecttolerance="10"
     gridtolerance="10"
     guidetolerance="10"
     inkscape:pageopacity="0"
     inkscape:pageshadow="2"
     inkscape:window-width="1920"
     inkscape:window-height="1057"
     id="namedview6"
     showgrid="false"
     inkscape:zoom="1.668772"
     inkscape:cx="176.45009"
     inkscape:cy="177.93938"
     inkscape:window-x="-8"
     inkscape:window-y="-8"
     inkscape:window-maximized="1"
     inkscape:current-layer="svg4" />
  <path
     d="M 37.951219,40.84878 C 20.834146,82.412682 32.199025,114.31805 34.066341,121.78732 13.279024,144.45268 2,174.15805 2,204.91512 c 0,101.39317 42.17561,154.2361 198,154.2361 155.82439,0 198,-52.84293 198,-154.2361 0,-30.7678 -11.26829,-60.46244 -32.06634,-83.1278 1.86732,-7.46927 13.2322,-39.385369 -3.89561,-80.93854 -39.76098,0.676097 -65.24878,19.059513 -84.83415,32.066342 -52.92878,-11.032195 -105.11707,-10.731708 -154.4078,0 C 103.2,59.908293 77.722928,41.524877 37.951219,40.84878 Z m 88.075121,142.54927 c 29.4478,0.12878 29.7161,4.32487 73.97366,4.32487 44.25756,0 53.20781,-4.23902 73.97366,-4.32487 38.14049,-0.17171 70.36781,21.71024 70.61463,66.56878 0.32195,61.05268 -37.68975,88.32195 -144.58829,88.32195 -106.89854,0 -144.910244,-27.26927 -144.577561,-88.32195 0.236098,-44.85854 41.145361,-66.69756 70.603901,-66.56878 z m 5.74146,34.57756 c -15.38926,0 -27.88097,17.31024 -27.88097,38.60195 0,21.29171 12.49171,38.63415 27.88097,38.63415 15.38927,0 27.88098,-17.34244 27.88098,-38.63415 0,-21.29171 -12.49171,-38.60195 -27.88098,-38.60195 z m 136.4644,0 c -15.38927,0 -27.88098,17.31024 -27.88098,38.60195 0,21.29171 12.49171,38.63415 27.88098,38.63415 15.38926,0 27.88097,-17.34244 27.88097,-38.63415 0,-21.29171 -12.49171,-38.60195 -27.88097,-38.60195 z"
     id="path2"
     inkscape:connector-curvature="0"
     style="stroke-width:1.07317078" />
</svg>
