<svg xmlns="http://www.w3.org/2000/svg" viewBox="0 0 65 108">
  <path fill="none" stroke="hsl(32, 100%, 50%)" stroke-width="2" d="M55.65 35.77c0 11.1-7.79 24.59-17.4 30.13-9.6 5.55-17.39 1.05-17.39-10.04 0-11.1 7.79-24.58 17.4-30.13 9.6-5.55 17.4-1.05 17.4 10.04zm-17.4 65.04L16.95 73.4c-2.47-3.17-3.79-7.7-3.8-13.1 0-16 11.25-35.47 25.12-43.48 13.86-8 25.11-1.51 25.1 14.5 0 5.4-1.32 11.45-3.8 17.46l-21.3 52.03-11.52-6.65-21.32-27.4c-2.47-3.17-3.78-7.7-3.78-13.1 0-16 11.24-35.48 25.1-43.48C33.4 6.33 39.8 5.7 44.5 8.42L56 15.06M21.65 61.31a18.22 18.22 0 0 0 5.1-2.05c9.6-5.55 17.4-19.04 17.39-30.14a18 18 0 0 0-.79-5.45"/>
</svg>
