<?xml version="1.0" encoding="UTF-8" standalone="no"?>
<svg
   xmlns:dc="http://purl.org/dc/elements/1.1/"
   xmlns:cc="http://creativecommons.org/ns#"
   xmlns:rdf="http://www.w3.org/1999/02/22-rdf-syntax-ns#"
   xmlns:svg="http://www.w3.org/2000/svg"
   xmlns="http://www.w3.org/2000/svg"
   xmlns:sodipodi="http://sodipodi.sourceforge.net/DTD/sodipodi-0.dtd"
   xmlns:inkscape="http://www.inkscape.org/namespaces/inkscape"
   width="32"
   height="32"
   viewBox="0 0 32 32"
   id="svg4184"
   version="1.1"
   inkscape:version="0.91 r13725"
   sodipodi:docname="icon-32px.svg"
   inkscape:export-filename="C:\work\_pyvec\cz.pycon.org-2017\pyconcz_2017\static\img\favicon\src\icon-32px.png"
   inkscape:export-xdpi="90"
   inkscape:export-ydpi="90">
  <metadata
     id="metadata38">
    <rdf:RDF>
      <cc:Work
         rdf:about="">
        <dc:format>image/svg+xml</dc:format>
        <dc:type
           rdf:resource="http://purl.org/dc/dcmitype/StillImage" />
        <dc:title></dc:title>
      </cc:Work>
    </rdf:RDF>
  </metadata>
  <defs
     id="defs36" />
  <sodipodi:namedview
     pagecolor="#ffffff"
     bordercolor="#666666"
     borderopacity="1"
     objecttolerance="10"
     gridtolerance="10"
     guidetolerance="10"
     inkscape:pageopacity="0"
     inkscape:pageshadow="2"
     inkscape:window-width="1816"
     inkscape:window-height="1057"
     id="namedview34"
     showgrid="false"
     fit-margin-top="1"
     fit-margin-left="1"
     fit-margin-right="1"
     fit-margin-bottom="1"
     inkscape:zoom="16.784314"
     inkscape:cx="11.715385"
     inkscape:cy="24.373744"
     inkscape:window-x="-8"
     inkscape:window-y="1192"
     inkscape:window-maximized="1"
     inkscape:current-layer="svg4184" />
  <style
     id="style4189">
    /*
<![CDATA[ */
    path{stroke-linecap:butt;stroke-linejoin:round;stroke-miterlimit:4;stroke-opacity:1}
    .border{stroke:#1a171b;stroke-width:1.5;}
    .frame{fill:transparent;}
    .side{fill:#fff;}
    .top{fill:#82e1e0;}
    svg:hover .top{fill:white;}
    .grid{stroke:#b800cc;stroke-width:0.5;display:none;}
    svg:hover .grid{display:block;}
    /*.left{fill:#d4d4d4;}
    .front{fill:#e4e4e4;}
    .right{fill:#fcfcfc;}*/
    /* ]]>
    */
  </style>
  <path
     id="path4235"
     style="fill:#ffffff;stroke:#1a171b;stroke-width:0.4;stroke-linecap:butt;stroke-linejoin:round;stroke-miterlimit:4;stroke-opacity:1;stroke-dasharray:none"
     d="m 26.869671,14.454863 4.83081,-2.789151 0,5.578327 -4.83081,2.789131 0,-5.578307 m -12.077436,1.394583 0,5.578265 -2.41541,1.394604 0,-5.578276 z m -2.41541,12.551177 4.830775,-2.789157 0,-5.578296 -4.830775,2.789145 z m 4.83094,-11.156584 4.830814,0 0,-5.578327 -4.830814,0 0,5.578327 m 4.830956,0 4.830815,2.789131 0,-5.578307 -4.830815,-2.789151 0,5.578327 m -9.661896,-8.3674776 0,5.5783016 4.830775,2.789176 0,-5.578327 z m -12.0774421,6.9728846 0,5.578265 12.0774421,6.972912 0,-5.578308 z"
     inkscape:connector-curvature="0"
     inkscape:export-xdpi="90"
     inkscape:export-ydpi="90" />
  <path
     id="path4178"
     style="fill:#82e1e0;fill-opacity:1;stroke:#1a171b;stroke-width:0.4;stroke-linecap:butt;stroke-linejoin:round;stroke-miterlimit:4;stroke-opacity:1;stroke-dasharray:none"
     d="m 12.376825,8.8765614 4.830775,2.7891506 4.831121,0 4.830815,2.789151 4.831091,-2.789151 -4.830816,-2.7891506 0,-2.7891495 -4.831232,-2.7891499 -2.415405,1.3945822 0,2.7891506 -4.831079,0 z m -12.0774421,6.9728846 7.2464936,-4.183734 4.8308045,0 2.415414,1.394596 0,2.789138 -2.415414,1.394593 4.831084,2.789131 -4.830806,2.789145 z"
     inkscape:connector-curvature="0"
     inkscape:export-xdpi="90"
     inkscape:export-ydpi="90" />
</svg>
