<?xml version="1.0" encoding="utf-8"?>
<!-- Generator: Adobe Illustrator 16.0.0, SVG Export Plug-In . SVG Version: 6.00 Build 0)  -->
<!DOCTYPE svg PUBLIC "-//W3C//DTD SVG 1.1//EN" "http://www.w3.org/Graphics/SVG/1.1/DTD/svg11.dtd">
<svg version="1.1" id="Layer_1" xmlns="http://www.w3.org/2000/svg" xmlns:xlink="http://www.w3.org/1999/xlink" x="0px" y="0px"
	 width="441.305px" height="440px" viewBox="0 0 441.305 440" enable-background="new 0 0 441.305 440" xml:space="preserve">
<g id="Layer_2">
</g>
<polygon fill="#E2002A" points="0,440.063 0.11,440.063 0.111,440.063 0,440 "/>
<polygon fill="#E2002A" points="0,416.831 0,416.96 0.111,416.896 "/>
<polygon fill="#E2002A" points="20.175,428.479 0.361,417.039 0.111,417.185 19.924,428.623 "/>
<polygon fill="#E2002A" points="20.175,428.768 39.738,440.063 40.236,440.063 40.238,440.063 20.425,428.623 "/>
<polygon fill="#E2002A" points="0,393.664 0,393.79 0.11,393.729 "/>
<polygon fill="#E2002A" points="60.301,428.479 40.488,417.039 40.238,417.185 60.051,428.623 "/>
<polygon fill="#E2002A" points="20.175,405.313 0.36,393.872 0.11,394.018 19.924,405.456 "/>
<polygon fill="#E2002A" points="60.301,428.769 79.865,440.063 80.363,440.063 80.364,440.063 60.551,428.623 "/>
<polygon fill="#E2002A" points="40.238,416.896 20.425,405.456 20.175,405.602 39.987,417.039 "/>
<polygon fill="#E2002A" points="40.238,393.729 20.424,382.288 20.174,382.434 39.988,393.872 "/>
<polygon fill="#E2002A" points="80.365,416.896 60.552,405.455 60.302,405.601 80.115,417.039 "/>
<polygon fill="#E2002A" points="0,370.496 0,370.625 0.111,370.561 "/>
<polygon fill="#E2002A" points="20.174,382.145 0.361,370.704 0.111,370.85 19.924,382.288 "/>
<polygon fill="#E2002A" points="100.428,428.768 119.993,440.063 120.49,440.063 120.492,440.063 100.678,428.622 "/>
<polygon fill="#E2002A" points="100.428,428.479 80.615,417.039 80.365,417.185 100.178,428.622 "/>
<polygon fill="#E2002A" points="60.302,405.312 40.488,393.872 40.238,394.018 60.051,405.455 "/>
<polygon fill="#E2002A" points="140.555,428.769 160.119,440.063 160.619,440.063 140.806,428.623 "/>
<polygon fill="#E2002A" points="60.302,382.145 40.487,370.704 40.237,370.85 60.051,382.288 "/>
<polygon fill="#E2002A" points="40.237,370.561 20.424,359.121 20.174,359.267 39.986,370.704 "/>
<polygon fill="#E2002A" points="140.555,428.479 120.742,417.039 120.491,417.185 140.305,428.623 "/>
<polygon fill="#E2002A" points="0,347.329 0,347.455 0.109,347.393 "/>
<polygon fill="#E2002A" points="80.365,393.729 60.552,382.288 60.302,382.434 80.115,393.872 "/>
<polygon fill="#E2002A" points="20.174,358.978 0.359,347.536 0.109,347.682 19.924,359.121 "/>
<polygon fill="#E2002A" points="100.428,405.313 80.615,393.872 80.365,394.018 100.178,405.456 "/>
<polygon fill="#E2002A" points="120.491,416.896 100.678,405.456 100.428,405.602 120.241,417.039 "/>
<polygon fill="#E2002A" points="40.238,347.394 20.424,335.952 20.174,336.098 39.988,347.537 "/>
<polygon fill="#E2002A" points="180.684,428.479 160.869,417.039 160.619,417.185 180.434,428.623 "/>
<polygon fill="#E2002A" points="180.684,428.769 200.246,440.063 200.744,440.063 200.746,440.063 180.934,428.623 "/>
<polygon fill="#E2002A" points="120.492,393.729 100.679,382.288 100.429,382.434 120.242,393.872 "/>
<polygon fill="#E2002A" points="60.301,358.977 40.488,347.537 40.238,347.683 60.051,359.12 "/>
<polygon fill="#E2002A" points="160.619,416.896 140.805,405.455 140.555,405.601 160.369,417.039 "/>
<polygon fill="#E2002A" points="140.555,405.312 120.742,393.872 120.492,394.018 140.305,405.455 "/>
<polygon fill="#E2002A" points="100.429,382.145 80.615,370.704 80.365,370.85 100.178,382.288 "/>
<polygon fill="#E2002A" points="0,324.161 0,324.287 0.109,324.225 "/>
<polygon fill="#E2002A" points="80.365,370.561 60.551,359.12 60.301,359.266 80.115,370.704 "/>
<polygon fill="#E2002A" points="20.174,335.809 0.359,324.368 0.109,324.514 19.924,335.952 "/>
<polygon fill="#E2002A" points="200.746,416.896 180.933,405.455 180.682,405.601 200.496,417.04 "/>
<polygon fill="#E2002A" points="140.555,382.145 120.742,370.704 120.492,370.85 140.305,382.288 "/>
<polygon fill="#E2002A" points="0,300.994 0,301.121 0.11,301.059 "/>
<polygon fill="#E2002A" points="120.492,370.561 100.68,359.121 100.429,359.267 120.242,370.704 "/>
<polygon fill="#E2002A" points="100.429,358.978 80.615,347.537 80.365,347.683 100.179,359.121 "/>
<polygon fill="#E2002A" points="40.236,324.226 20.423,312.785 20.173,312.931 39.986,324.369 "/>
<polygon fill="#E2002A" points="220.809,428.479 200.996,417.04 200.746,417.185 220.559,428.623 "/>
<polygon fill="#E2002A" points="180.682,405.313 160.869,393.872 160.619,394.018 180.432,405.455 "/>
<polygon fill="#E2002A" points="60.302,335.811 40.487,324.369 40.236,324.515 60.051,335.954 "/>
<polygon fill="#E2002A" points="160.619,393.729 140.806,382.288 140.555,382.434 160.368,393.872 "/>
<polygon fill="#E2002A" points="220.809,428.768 240.373,440.063 240.871,440.063 240.873,440.063 221.06,428.623 "/>
<polygon fill="#E2002A" points="20.173,312.642 0.361,301.202 0.11,301.348 19.922,312.785 "/>
<polygon fill="#E2002A" points="80.365,347.394 60.552,335.954 60.302,336.099 80.114,347.537 "/>
<polygon fill="#E2002A" points="80.365,324.227 60.551,312.785 60.301,312.931 80.115,324.37 "/>
<polygon fill="#E2002A" points="0,277.828 0,277.955 0.11,277.891 "/>
<polygon fill="#E2002A" points="200.746,393.729 180.933,382.288 180.682,382.434 200.496,393.872 "/>
<polygon fill="#E2002A" points="220.811,405.313 200.996,393.872 200.746,394.018 220.561,405.456 "/>
<polygon fill="#E2002A" points="180.682,382.145 160.869,370.704 160.619,370.85 180.432,382.288 "/>
<polygon fill="#E2002A" points="260.936,428.768 280.501,440.063 280.999,440.063 281,440.063 261.187,428.622 "/>
<polygon fill="#E2002A" points="60.301,312.642 40.486,301.201 40.236,301.347 60.051,312.785 "/>
<polygon fill="#E2002A" points="100.428,335.81 80.615,324.37 80.365,324.516 100.178,335.953 "/>
<polygon fill="#E2002A" points="0.11,278.18 19.924,289.619 20.174,289.475 0.361,278.035 "/>
<polygon fill="#E2002A" points="260.936,428.479 241.123,417.039 240.873,417.185 260.686,428.622 "/>
<polygon fill="#E2002A" points="120.492,347.394 100.678,335.953 100.428,336.099 120.242,347.537 "/>
<polygon fill="#E2002A" points="40.236,301.058 20.424,289.619 20.174,289.764 39.986,301.201 "/>
<polygon fill="#E2002A" points="140.556,358.977 120.742,347.537 120.492,347.683 140.305,359.12 "/>
<polygon fill="#E2002A" points="240.873,416.896 221.061,405.456 220.811,405.602 240.623,417.039 "/>
<polygon fill="#E2002A" points="160.619,370.561 140.806,359.12 140.556,359.266 160.369,370.704 "/>
<polygon fill="#E2002A" points="200.746,370.561 180.933,359.12 180.682,359.266 200.496,370.704 "/>
<polygon fill="#E2002A" points="20.174,266.597 39.986,278.036 40.237,277.892 20.424,266.452 "/>
<polygon fill="#E2002A" points="60.3,289.475 40.488,278.036 40.237,278.181 60.049,289.619 "/>
<polygon fill="#E2002A" points="180.682,358.977 160.869,347.537 160.619,347.683 180.432,359.12 "/>
<polygon fill="#E2002A" points="80.363,301.059 60.55,289.619 60.3,289.764 80.113,301.202 "/>
<polygon fill="#E2002A" points="100.429,312.643 80.613,301.202 80.363,301.348 100.178,312.786 "/>
<polygon fill="#E2002A" points="301.063,428.479 281.25,417.038 281,417.184 300.813,428.622 "/>
<polygon fill="#E2002A" points="220.809,382.145 200.996,370.704 200.746,370.85 220.559,382.288 "/>
<polygon fill="#E2002A" points="301.063,428.768 320.628,440.063 321.127,440.063 301.314,428.622 "/>
<polygon fill="#E2002A" points="0.109,255.013 19.924,266.452 20.174,266.308 0.359,254.868 "/>
<polygon fill="#E2002A" points="281,416.896 261.188,405.455 260.937,405.601 280.75,417.038 "/>
<polygon fill="#E2002A" points="260.937,405.312 241.124,393.872 240.873,394.018 260.686,405.455 "/>
<polygon fill="#E2002A" points="0,254.66 0,254.786 0.109,254.724 "/>
<polygon fill="#E2002A" points="120.492,324.227 100.679,312.786 100.429,312.932 120.241,324.37 "/>
<polygon fill="#E2002A" points="160.619,347.394 140.807,335.954 140.556,336.1 160.369,347.537 "/>
<polygon fill="#E2002A" points="240.873,393.729 221.06,382.288 220.809,382.434 240.623,393.872 "/>
<polygon fill="#E2002A" points="140.556,335.811 120.742,324.37 120.492,324.516 140.305,335.954 "/>
<polygon fill="#E2002A" points="20.174,243.429 39.987,254.868 40.238,254.724 20.424,243.284 "/>
<polygon fill="#E2002A" points="0.11,231.846 19.923,243.284 20.174,243.14 0.361,231.701 "/>
<polygon fill="#E2002A" points="200.746,347.394 180.933,335.953 180.682,336.099 200.496,347.537 "/>
<polygon fill="#E2002A" points="100.428,289.475 80.613,278.035 80.363,278.18 100.178,289.619 "/>
<polygon fill="#E2002A" points="80.363,277.891 60.551,266.452 60.301,266.597 80.113,278.035 "/>
<polygon fill="#E2002A" points="40.238,255.013 60.051,266.452 60.301,266.308 40.488,254.868 "/>
<polygon fill="#E2002A" points="341.191,428.479 321.377,417.039 321.127,417.185 340.941,428.623 "/>
<polygon fill="#E2002A" points="120.492,301.059 100.678,289.619 100.428,289.764 120.242,301.202 "/>
<polygon fill="#E2002A" points="321.127,416.896 301.313,405.455 301.063,405.601 320.877,417.039 "/>
<polygon fill="#E2002A" points="301.063,405.312 281.25,393.872 281,394.018 300.813,405.455 "/>
<polygon fill="#E2002A" points="240.873,370.561 221.059,359.12 220.809,359.266 240.623,370.704 "/>
<polygon fill="#E2002A" points="140.555,312.643 120.742,301.202 120.492,301.348 140.305,312.786 "/>
<polygon fill="#E2002A" points="180.682,335.81 160.869,324.37 160.619,324.516 180.432,335.953 "/>
<polygon fill="#E2002A" points="0,231.493 0,231.62 0.11,231.557 "/>
<polygon fill="#E2002A" points="281,393.729 261.188,382.288 260.938,382.434 280.75,393.872 "/>
<polygon fill="#E2002A" points="341.191,428.769 360.754,440.063 361.254,440.063 341.441,428.623 "/>
<polygon fill="#E2002A" points="260.938,382.145 241.123,370.704 240.873,370.85 260.688,382.288 "/>
<polygon fill="#E2002A" points="220.809,358.977 200.996,347.537 200.746,347.683 220.559,359.12 "/>
<polygon fill="#E2002A" points="160.619,324.227 140.805,312.786 140.555,312.932 160.369,324.37 "/>
<polygon fill="#E2002A" points="281.002,370.561 261.188,359.12 260.938,359.266 280.752,370.704 "/>
<polygon fill="#E2002A" points="0,208.325 0,208.453 0.111,208.389 "/>
<polygon fill="#E2002A" points="381.318,428.479 361.506,417.038 361.256,417.184 381.068,428.622 "/>
<polygon fill="#E2002A" points="200.747,324.226 180.934,312.786 180.684,312.932 200.496,324.369 "/>
<polygon fill="#E2002A" points="220.811,335.809 200.997,324.369 200.747,324.515 220.561,335.952 "/>
<polygon fill="#E2002A" points="260.938,358.977 241.124,347.536 240.873,347.682 260.688,359.12 "/>
<polygon fill="#E2002A" points="140.557,289.475 120.742,278.035 120.492,278.18 140.307,289.619 "/>
<polygon fill="#E2002A" points="0.111,208.678 19.924,220.117 20.175,219.973 0.361,208.533 "/>
<polygon fill="#E2002A" points="40.237,231.845 60.051,243.284 60.302,243.14 40.488,231.7 "/>
<polygon fill="#E2002A" points="160.619,301.059 140.807,289.619 140.557,289.764 160.369,301.202 "/>
<polygon fill="#E2002A" points="20.175,220.262 39.987,231.7 40.237,231.556 20.425,220.117 "/>
<polygon fill="#E2002A" points="381.318,428.768 400.885,440.063 401.381,440.063 401.383,440.063 381.569,428.622 "/>
<polygon fill="#E2002A" points="361.256,416.895 341.441,405.454 341.191,405.6 361.006,417.038 "/>
<polygon fill="#E2002A" points="120.492,277.891 100.678,266.451 100.428,266.596 120.242,278.035 "/>
<polygon fill="#E2002A" points="341.191,405.311 321.378,393.87 321.127,394.016 340.941,405.454 "/>
<polygon fill="#E2002A" points="240.873,347.393 221.061,335.952 220.811,336.098 240.623,347.536 "/>
<polygon fill="#E2002A" points="180.684,312.643 160.869,301.202 160.619,301.348 180.434,312.786 "/>
<polygon fill="#E2002A" points="301.064,382.144 281.252,370.704 281.002,370.85 300.814,382.287 "/>
<polygon fill="#E2002A" points="60.302,243.429 80.115,254.868 80.365,254.724 60.553,243.284 "/>
<polygon fill="#E2002A" points="321.127,393.727 301.314,382.287 301.064,382.433 320.877,393.87 "/>
<polygon fill="#E2002A" points="100.428,266.307 80.615,254.868 80.365,255.013 100.178,266.451 "/>
<polygon fill="#E2002A" points="60.301,220.262 80.114,231.701 80.365,231.557 60.551,220.117 "/>
<polygon fill="#E2002A" points="140.555,266.307 120.74,254.867 120.49,255.012 140.305,266.451 "/>
<polygon fill="#E2002A" points="0.109,185.51 19.924,196.95 20.174,196.806 0.36,185.365 "/>
<polygon fill="#E2002A" points="281,347.393 261.188,335.953 260.937,336.098 280.75,347.536 "/>
<polygon fill="#E2002A" points="160.619,277.892 140.805,266.451 140.555,266.596 160.369,278.036 "/>
<polygon fill="#E2002A" points="421.445,428.479 401.633,417.038 401.382,417.184 421.195,428.622 "/>
<polygon fill="#E2002A" points="421.445,428.768 441.01,440.063 441.51,440.063 421.695,428.622 "/>
<polygon fill="#E2002A" points="0,185.158 0,185.285 0.109,185.222 "/>
<polygon fill="#E2002A" points="120.49,254.723 100.679,243.285 100.428,243.43 120.24,254.867 "/>
<polygon fill="#E2002A" points="40.238,208.678 60.051,220.117 60.301,219.973 40.488,208.533 "/>
<polygon fill="#E2002A" points="20.174,197.095 39.987,208.533 40.238,208.389 20.425,196.95 "/>
<polygon fill="#E2002A" points="361.254,393.728 341.441,382.287 341.191,382.433 361.004,393.871 "/>
<polygon fill="#E2002A" points="341.191,382.144 321.378,370.704 321.127,370.85 340.94,382.287 "/>
<polygon fill="#E2002A" points="240.873,324.226 221.061,312.786 220.811,312.932 240.623,324.369 "/>
<polygon fill="#E2002A" points="381.318,405.312 361.505,393.871 361.254,394.017 381.068,405.455 "/>
<polygon fill="#E2002A" points="180.683,289.475 160.869,278.036 160.619,278.181 180.432,289.619 "/>
<polygon fill="#E2002A" points="80.365,231.846 100.178,243.285 100.428,243.141 80.615,231.701 "/>
<polygon fill="#E2002A" points="401.382,416.896 381.568,405.455 381.318,405.601 401.131,417.038 "/>
<polygon fill="#E2002A" points="220.811,312.643 200.996,301.202 200.746,301.348 220.56,312.786 "/>
<polygon fill="#E2002A" points="321.127,370.561 301.314,359.12 301.064,359.266 320.877,370.704 "/>
<polygon fill="#E2002A" points="301.064,358.978 281.25,347.536 281,347.682 300.814,359.12 "/>
<polygon fill="#E2002A" points="260.937,335.81 241.123,324.369 240.873,324.515 260.686,335.953 "/>
<polygon fill="#E2002A" points="200.746,301.059 180.934,289.619 180.683,289.764 200.496,301.202 "/>
<polygon fill="#E2002A" points="0.111,162.343 19.924,173.781 20.174,173.638 0.361,162.198 "/>
<polygon fill="#E2002A" points="140.555,243.139 120.742,231.701 120.492,231.846 140.305,243.283 "/>
<polygon fill="#E2002A" points="281,324.226 261.188,312.786 260.938,312.932 280.75,324.369 "/>
<polygon fill="#E2002A" points="100.429,220.262 120.242,231.701 120.492,231.557 100.679,220.117 "/>
<polygon fill="#E2002A" points="421.445,405.312 401.633,393.872 401.383,394.018 421.195,405.455 "/>
<polygon fill="#E2002A" points="60.302,197.094 80.114,208.533 80.364,208.389 60.552,196.949 "/>
<polygon fill="#E2002A" points="401.383,393.729 381.568,382.288 381.318,382.434 401.132,393.872 "/>
<polygon fill="#E2002A" points="0,161.99 0,162.117 0.111,162.054 "/>
<polygon fill="#E2002A" points="301.064,335.81 281.25,324.369 281,324.515 300.813,335.953 "/>
<polygon fill="#E2002A" points="200.746,277.891 180.934,266.452 180.684,266.597 200.496,278.035 "/>
<polygon fill="#E2002A" points="180.684,266.308 160.869,254.867 160.619,255.012 180.434,266.452 "/>
<polygon fill="#E2002A" points="20.174,173.926 39.988,185.365 40.238,185.222 20.424,173.781 "/>
<polygon fill="#E2002A" points="441.508,416.896 421.695,405.455 421.445,405.601 441.258,417.039 "/>
<polygon fill="#E2002A" points="361.254,370.561 341.441,359.12 341.191,359.266 361.004,370.704 "/>
<polygon fill="#E2002A" points="80.364,208.678 100.178,220.117 100.429,219.973 80.615,208.533 "/>
<polygon fill="#E2002A" points="341.191,358.977 321.379,347.537 321.129,347.683 340.941,359.12 "/>
<polygon fill="#E2002A" points="40.238,185.511 60.051,196.949 60.302,196.805 40.488,185.365 "/>
<polygon fill="#E2002A" points="381.318,382.145 361.504,370.704 361.254,370.85 381.068,382.288 "/>
<polygon fill="#E2002A" points="160.619,254.723 140.805,243.283 140.555,243.428 160.368,254.867 "/>
<polygon fill="#E2002A" points="260.938,312.643 241.123,301.202 240.873,301.348 260.688,312.786 "/>
<polygon fill="#E2002A" points="220.811,289.475 200.996,278.035 200.746,278.18 220.561,289.619 "/>
<polygon fill="#E2002A" points="240.873,301.059 221.061,289.619 220.811,289.764 240.623,301.202 "/>
<polygon fill="#E2002A" points="321.129,347.394 301.314,335.953 301.064,336.099 320.878,347.537 "/>
<polygon fill="#E2002A" points="341.191,335.81 321.377,324.369 321.127,324.515 340.941,335.953 "/>
<polygon fill="#E2002A" points="100.428,197.094 120.242,208.533 120.492,208.389 100.678,196.949 "/>
<polygon fill="#E2002A" points="321.127,324.226 301.314,312.785 301.064,312.931 320.877,324.369 "/>
<polygon fill="#E2002A" points="40.237,162.343 60.051,173.781 60.302,173.639 40.488,162.198 "/>
<polygon fill="#E2002A" points="240.873,277.891 221.061,266.451 220.811,266.596 240.623,278.035 "/>
<polygon fill="#E2002A" points="281,301.059 261.188,289.619 260.938,289.764 280.75,301.202 "/>
<polygon fill="#E2002A" points="361.254,347.393 341.441,335.953 341.191,336.099 361.004,347.536 "/>
<polygon fill="#E2002A" points="381.318,358.977 361.505,347.536 361.254,347.682 381.067,359.12 "/>
<polygon fill="#E2002A" points="301.064,312.642 281.251,301.202 281,301.348 300.813,312.785 "/>
<polygon fill="#E2002A" points="60.302,173.927 80.115,185.365 80.365,185.222 60.552,173.781 "/>
<polygon fill="#E2002A" points="200.746,254.724 180.932,243.284 180.682,243.429 200.496,254.868 "/>
<polygon fill="#E2002A" points="260.938,289.475 241.124,278.035 240.873,278.18 260.688,289.619 "/>
<polygon fill="#E2002A" points="20.174,150.76 39.987,162.198 40.237,162.054 20.424,150.615 "/>
<polygon fill="#E2002A" points="120.492,208.678 140.305,220.117 140.556,219.973 120.742,208.533 "/>
<polygon fill="#E2002A" points="80.365,185.511 100.178,196.949 100.428,196.805 80.615,185.365 "/>
<polygon fill="#E2002A" points="160.617,231.556 140.807,220.117 140.556,220.262 160.367,231.7 "/>
<polygon fill="#E2002A" points="421.445,382.434 441.258,393.871 441.51,393.728 421.695,382.288 "/>
<polygon fill="#E2002A" points="0,138.823 0,138.951 0.111,138.887 "/>
<polygon fill="#E2002A" points="220.811,266.308 200.997,254.868 200.746,255.013 220.56,266.451 "/>
<polygon fill="#E2002A" points="0.111,139.176 19.924,150.615 20.174,150.471 0.361,139.031 "/>
<polygon fill="#E2002A" points="180.682,243.14 160.868,231.7 160.617,231.845 180.432,243.284 "/>
<polygon fill="#E2002A" points="421.445,382.145 401.632,370.704 401.381,370.85 421.195,382.288 "/>
<polygon fill="#E2002A" points="401.381,370.561 381.568,359.12 381.318,359.266 401.131,370.704 "/>
<polygon fill="#E2002A" points="40.237,139.176 60.051,150.615 60.301,150.471 40.487,139.031 "/>
<polygon fill="#E2002A" points="100.428,173.927 120.24,185.365 120.49,185.221 100.679,173.781 "/>
<polygon fill="#E2002A" points="260.938,266.308 241.123,254.868 240.873,255.013 260.688,266.452 "/>
<polygon fill="#E2002A" points="0,115.656 0,115.783 0.11,115.72 "/>
<polygon fill="#E2002A" points="140.555,197.094 160.369,208.533 160.619,208.389 140.806,196.949 "/>
<polygon fill="#E2002A" points="301.064,289.475 281.25,278.035 281,278.18 300.814,289.619 "/>
<polygon fill="#E2002A" points="200.745,231.556 180.932,220.116 180.682,220.261 200.494,231.7 "/>
<polygon fill="#E2002A" points="401.381,347.393 381.568,335.953 381.318,336.099 401.131,347.536 "/>
<polygon fill="#E2002A" points="421.445,358.977 401.631,347.536 401.381,347.682 421.195,359.12 "/>
<polygon fill="#E2002A" points="60.301,150.76 80.115,162.198 80.365,162.055 60.551,150.615 "/>
<polygon fill="#E2002A" points="361.256,324.227 341.441,312.786 341.191,312.931 361.005,324.37 "/>
<polygon fill="#E2002A" points="341.191,312.643 321.377,301.202 321.127,301.348 340.94,312.786 "/>
<polygon fill="#E2002A" points="321.127,301.059 301.314,289.619 301.064,289.764 320.877,301.202 "/>
<polygon fill="#E2002A" points="281,277.891 261.188,266.452 260.938,266.597 280.75,278.035 "/>
<polygon fill="#E2002A" points="0.11,116.008 19.924,127.447 20.174,127.304 0.361,115.864 "/>
<polygon fill="#E2002A" points="381.318,335.81 361.506,324.37 361.256,324.516 381.068,335.953 "/>
<polygon fill="#E2002A" points="80.365,162.344 100.178,173.781 100.428,173.639 80.615,162.198 "/>
<polygon fill="#E2002A" points="20.174,127.592 39.986,139.031 40.237,138.887 20.424,127.447 "/>
<polygon fill="#E2002A" points="220.811,243.141 200.996,231.7 200.745,231.845 220.561,243.285 "/>
<polygon fill="#E2002A" points="240.873,254.724 221.061,243.285 220.811,243.43 240.623,254.868 "/>
<polygon fill="#E2002A" points="120.49,185.51 140.305,196.949 140.555,196.805 120.741,185.365 "/>
<polygon fill="#E2002A" points="180.682,219.972 160.869,208.533 160.619,208.678 180.432,220.116 "/>
<polygon fill="#E2002A" points="421.445,359.266 441.26,370.704 441.51,370.561 421.695,359.12 "/>
<polygon fill="#E2002A" points="140.555,173.927 160.367,185.365 160.618,185.222 140.805,173.781 "/>
<polygon fill="#E2002A" points="60.301,127.592 80.113,139.031 80.363,138.887 60.551,127.447 "/>
<polygon fill="#E2002A" points="321.127,277.892 301.313,266.452 301.063,266.597 320.877,278.036 "/>
<polygon fill="#E2002A" points="200.744,208.389 180.932,196.95 180.682,197.095 200.494,208.533 "/>
<polygon fill="#E2002A" points="120.491,162.344 140.304,173.781 140.555,173.638 120.742,162.198 "/>
<polygon fill="#E2002A" points="421.443,335.81 401.631,324.37 401.381,324.516 421.193,335.953 "/>
<polygon fill="#E2002A" points="100.428,150.76 120.241,162.198 120.491,162.055 100.678,150.615 "/>
<polygon fill="#E2002A" points="441.508,347.394 421.693,335.953 421.443,336.099 441.258,347.537 "/>
<polygon fill="#E2002A" points="341.189,289.475 321.377,278.036 321.127,278.181 340.939,289.619 "/>
<polygon fill="#E2002A" points="260.936,243.141 241.123,231.701 240.873,231.846 260.686,243.285 "/>
<polygon fill="#E2002A" points="401.381,324.227 381.568,312.786 381.318,312.932 401.131,324.37 "/>
<polygon fill="#E2002A" points="301.063,266.308 281.25,254.869 281,255.014 300.813,266.452 "/>
<polygon fill="#E2002A" points="240.873,231.557 221.059,220.117 220.809,220.262 240.623,231.701 "/>
<polygon fill="#E2002A" points="80.363,139.176 100.178,150.615 100.428,150.471 80.613,139.031 "/>
<polygon fill="#E2002A" points="381.318,312.643 361.504,301.202 361.254,301.348 381.068,312.786 "/>
<polygon fill="#E2002A" points="361.254,301.059 341.439,289.619 341.189,289.764 361.004,301.202 "/>
<polygon fill="#E2002A" points="160.618,185.511 180.432,196.95 180.682,196.806 160.869,185.365 "/>
<polygon fill="#E2002A" points="40.237,116.009 60.05,127.447 60.301,127.303 40.488,115.864 "/>
<polygon fill="#E2002A" points="281,254.725 261.186,243.285 260.936,243.43 280.75,254.869 "/>
<polygon fill="#E2002A" points="0.109,92.842 19.923,104.28 20.174,104.137 0.359,92.697 "/>
<polygon fill="#E2002A" points="220.809,219.973 200.994,208.533 200.744,208.678 220.559,220.117 "/>
<polygon fill="#E2002A" points="0,92.489 0,92.615 0.109,92.553 "/>
<polygon fill="#E2002A" points="20.174,104.425 39.986,115.864 40.237,115.72 20.424,104.28 "/>
<polygon fill="#E2002A" points="160.619,162.343 180.433,173.781 180.683,173.638 160.869,162.198 "/>
<polygon fill="#E2002A" points="321.127,254.724 301.314,243.284 301.064,243.429 320.877,254.868 "/>
<polygon fill="#E2002A" points="301.064,243.14 281.251,231.701 281,231.845 300.814,243.284 "/>
<polygon fill="#E2002A" points="100.428,127.592 120.242,139.031 120.492,138.887 100.679,127.447 "/>
<polygon fill="#E2002A" points="341.191,266.308 321.378,254.868 321.127,255.013 340.941,266.451 "/>
<polygon fill="#E2002A" points="260.938,219.973 241.123,208.533 240.873,208.678 260.688,220.117 "/>
<polygon fill="#E2002A" points="361.254,277.891 341.441,266.451 341.191,266.596 361.004,278.035 "/>
<polygon fill="#E2002A" points="20.174,81.257 39.988,92.696 40.238,92.552 20.424,81.112 "/>
<polygon fill="#E2002A" points="80.365,116.008 100.178,127.447 100.428,127.303 80.615,115.863 "/>
<polygon fill="#E2002A" points="240.873,208.389 221.059,196.949 220.809,197.094 240.623,208.533 "/>
<polygon fill="#E2002A" points="60.303,104.425 80.115,115.863 80.365,115.719 60.553,104.28 "/>
<polygon fill="#E2002A" points="140.557,150.76 160.369,162.198 160.619,162.054 140.807,150.615 "/>
<polygon fill="#E2002A" points="0,69.32 0,69.448 0.111,69.385 "/>
<polygon fill="#E2002A" points="40.238,92.841 60.052,104.28 60.303,104.136 40.488,92.696 "/>
<polygon fill="#E2002A" points="220.809,196.805 200.996,185.365 200.746,185.51 220.559,196.949 "/>
<polygon fill="#E2002A" points="441.508,324.226 421.695,312.785 421.445,312.931 441.258,324.369 "/>
<polygon fill="#E2002A" points="0.111,69.674 19.924,81.112 20.174,80.968 0.361,69.529 "/>
<polygon fill="#E2002A" points="281,231.557 261.188,220.117 260.938,220.262 280.75,231.701 "/>
<polygon fill="#E2002A" points="180.683,173.927 200.496,185.365 200.746,185.222 180.934,173.781 "/>
<polygon fill="#E2002A" points="401.383,301.059 381.568,289.619 381.318,289.764 401.133,301.202 "/>
<polygon fill="#E2002A" points="381.318,289.475 361.505,278.035 361.254,278.18 381.068,289.619 "/>
<polygon fill="#E2002A" points="120.492,139.176 140.306,150.615 140.557,150.471 120.742,139.031 "/>
<polygon fill="#E2002A" points="421.445,312.643 401.633,301.202 401.383,301.348 421.195,312.785 "/>
<polygon fill="#E2002A" points="120.492,116.008 140.307,127.447 140.557,127.303 120.742,115.863 "/>
<polygon fill="#E2002A" points="100.428,104.424 120.242,115.863 120.492,115.719 100.679,104.279 "/>
<polygon fill="#E2002A" points="281.002,208.389 261.187,196.949 260.936,197.094 280.751,208.533 "/>
<polygon fill="#E2002A" points="381.318,266.307 361.506,254.868 361.256,255.013 381.068,266.451 "/>
<polygon fill="#E2002A" points="361.256,254.724 341.441,243.284 341.191,243.429 361.005,254.868 "/>
<polygon fill="#E2002A" points="341.191,243.14 321.379,231.701 321.128,231.846 340.941,243.284 "/>
<polygon fill="#E2002A" points="0.111,46.506 19.924,57.945 20.174,57.801 0.361,46.361 "/>
<polygon fill="#E2002A" points="180.682,150.759 200.496,162.198 200.746,162.054 180.932,150.614 "/>
<polygon fill="#E2002A" points="321.128,231.557 301.314,220.117 301.064,220.262 320.877,231.701 "/>
<polygon fill="#E2002A" points="160.619,139.176 180.432,150.614 180.682,150.47 160.869,139.031 "/>
<polygon fill="#E2002A" points="421.447,289.764 441.26,301.202 441.51,301.059 421.697,289.619 "/>
<polygon fill="#E2002A" points="200.746,162.343 220.561,173.781 220.811,173.638 200.996,162.198 "/>
<polygon fill="#E2002A" points="421.447,289.475 401.632,278.035 401.382,278.18 421.195,289.619 "/>
<polygon fill="#E2002A" points="301.064,219.973 281.252,208.533 281.002,208.678 300.814,220.117 "/>
<polygon fill="#E2002A" points="401.382,277.891 381.568,266.451 381.318,266.596 401.131,278.035 "/>
<polygon fill="#E2002A" points="0,46.153 0,46.281 0.111,46.217 "/>
<polygon fill="#E2002A" points="140.557,127.592 160.369,139.031 160.619,138.887 140.807,127.447 "/>
<polygon fill="#E2002A" points="20.174,58.09 39.987,69.529 40.238,69.385 20.424,57.945 "/>
<polygon fill="#E2002A" points="60.301,81.257 80.115,92.696 80.365,92.552 60.552,81.112 "/>
<polygon fill="#E2002A" points="260.936,196.805 241.123,185.365 240.873,185.51 260.686,196.949 "/>
<polygon fill="#E2002A" points="240.873,185.221 221.061,173.781 220.811,173.927 240.622,185.365 "/>
<polygon fill="#E2002A" points="40.238,69.674 60.051,81.112 60.301,80.968 40.488,69.529 "/>
<polygon fill="#E2002A" points="80.365,92.841 100.178,104.279 100.428,104.135 80.615,92.696 "/>
<polygon fill="#E2002A" points="1.409,23.801 0.909,23.801 4.119,25.654 4.619,25.654 "/>
<polygon fill="#E2002A" points="10.504,29.34 19.924,34.778 20.174,34.634 11.004,29.34 "/>
<polygon fill="#E2002A" points="6.205,26.57 5.706,26.57 9.282,28.635 9.782,28.635 "/>
<polygon fill="#E2002A" points="301.064,196.806 281.25,185.365 280.999,185.51 300.814,196.95 "/>
<polygon fill="#E2002A" points="140.555,104.425 160.369,115.864 160.619,115.72 140.805,104.28 "/>
<polygon fill="#E2002A" points="421.445,266.308 401.631,254.868 401.381,255.013 421.193,266.451 "/>
<polygon fill="#E2002A" points="421.445,266.596 441.26,278.036 441.51,277.892 421.695,266.451 "/>
<polygon fill="#E2002A" points="160.619,116.009 180.432,127.448 180.682,127.304 160.869,115.864 "/>
<polygon fill="#E2002A" points="120.491,92.841 140.305,104.28 140.555,104.136 120.742,92.696 "/>
<polygon fill="#E2002A" points="180.682,127.592 200.494,139.031 200.745,138.887 180.933,127.448 "/>
<polygon fill="#E2002A" points="401.381,254.724 381.568,243.285 381.318,243.43 401.131,254.868 "/>
<polygon fill="#E2002A" points="381.318,243.141 361.504,231.701 361.254,231.846 381.068,243.285 "/>
<polygon fill="#E2002A" points="100.428,81.258 120.24,92.696 120.491,92.552 100.679,81.113 "/>
<polygon fill="#E2002A" points="321.127,208.389 301.314,196.95 301.064,197.095 320.877,208.533 "/>
<polygon fill="#E2002A" points="220.809,150.76 240.623,162.198 240.873,162.055 221.059,150.615 "/>
<polygon fill="#E2002A" points="280.999,185.221 261.186,173.781 260.936,173.926 280.748,185.365 "/>
<polygon fill="#E2002A" points="260.936,173.637 241.123,162.198 240.873,162.344 260.686,173.781 "/>
<polygon fill="#E2002A" points="361.254,231.557 341.441,220.117 341.191,220.262 361.004,231.701 "/>
<polygon fill="#E2002A" points="20.174,34.923 39.986,46.361 40.237,46.218 20.424,34.778 "/>
<polygon fill="#E2002A" points="200.745,139.176 220.559,150.615 220.809,150.471 200.995,139.031 "/>
<polygon fill="#E2002A" points="341.191,219.973 321.377,208.533 321.127,208.678 340.94,220.117 "/>
<polygon fill="#E2002A" points="80.364,69.674 100.178,81.113 100.428,80.969 80.615,69.529 "/>
<polygon fill="#E2002A" points="40.237,46.506 60.051,57.945 60.301,57.801 40.487,46.361 "/>
<polygon fill="#E2002A" points="60.301,58.09 80.113,69.529 80.364,69.385 60.551,57.945 "/>
<polygon fill="#E2002A" points="80.365,46.506 100.178,57.945 100.428,57.801 80.615,46.361 "/>
<polygon fill="#E2002A" points="301.063,173.637 281.25,162.198 280.999,162.343 300.813,173.781 "/>
<polygon fill="#E2002A" points="421.445,243.141 401.632,231.701 401.381,231.846 421.195,243.285 "/>
<polygon fill="#E2002A" points="60.301,34.922 80.115,46.361 80.365,46.217 60.552,34.777 "/>
<polygon fill="#E2002A" points="160.619,92.841 180.434,104.28 180.684,104.136 160.869,92.696 "/>
<polygon fill="#E2002A" points="441.508,254.724 421.695,243.285 421.445,243.429 441.258,254.868 "/>
<polygon fill="#E2002A" points="341.191,196.806 321.379,185.365 321.128,185.511 340.94,196.949 "/>
<polygon fill="#E2002A" points="7.961,4.414 7.46,4.414 8.105,4.786 8.606,4.786 "/>
<polygon fill="#E2002A" points="12.757,7.183 12.256,7.183 13.268,7.767 13.768,7.767 "/>
<polygon fill="#E2002A" points="3.164,1.644 2.662,1.644 2.942,1.805 3.443,1.805 "/>
<polygon fill="#E2002A" points="17.553,9.952 17.053,9.952 18.433,10.749 18.933,10.749 "/>
<polygon fill="#E2002A" points="140.555,81.257 160.369,92.696 160.619,92.552 140.806,81.112 "/>
<polygon fill="#E2002A" points="280.999,162.054 261.188,150.615 260.938,150.76 280.748,162.198 "/>
<polygon fill="#E2002A" points="401.381,231.557 381.568,220.117 381.318,220.262 401.131,231.701 "/>
<polygon fill="#E2002A" points="120.492,69.674 140.305,81.112 140.555,80.968 120.742,69.529 "/>
<polygon fill="#E2002A" points="50.632,29.34 60.051,34.777 60.301,34.633 51.133,29.34 "/>
<polygon fill="#E2002A" points="45.834,26.57 49.411,28.635 49.911,28.635 46.335,26.57 "/>
<polygon fill="#E2002A" points="41.037,23.801 44.247,25.654 44.748,25.654 41.539,23.801 "/>
<polygon fill="#E2002A" points="200.746,116.009 220.559,127.447 220.809,127.303 200.996,115.864 "/>
<polygon fill="#E2002A" points="220.809,127.592 240.623,139.031 240.873,138.887 221.059,127.447 "/>
<polygon fill="#E2002A" points="180.684,104.425 200.496,115.864 200.746,115.72 180.934,104.28 "/>
<polygon fill="#E2002A" points="381.318,219.973 361.504,208.533 361.254,208.678 381.067,220.117 "/>
<polygon fill="#E2002A" points="321.128,185.222 301.313,173.781 301.063,173.926 320.877,185.365 "/>
<polygon fill="#E2002A" points="240.873,139.176 260.687,150.615 260.938,150.471 241.123,139.031 "/>
<polygon fill="#E2002A" points="361.254,208.389 341.441,196.949 341.191,197.094 361.004,208.533 "/>
<polygon fill="#E2002A" points="22.352,12.722 21.85,12.722 23.594,13.729 24.096,13.729 "/>
<polygon fill="#E2002A" points="27.149,15.492 26.648,15.492 28.759,16.711 29.259,16.711 "/>
<polygon fill="#E2002A" points="36.742,21.031 36.242,21.031 39.085,22.673 39.584,22.673 "/>
<polygon fill="#E2002A" points="31.945,18.261 31.445,18.261 33.922,19.692 34.422,19.692 "/>
<polygon fill="#E2002A" points="100.428,58.09 120.242,69.529 120.492,69.385 100.679,57.945 "/>
<polygon fill="#E2002A" points="240.873,116.008 260.687,127.447 260.938,127.303 241.123,115.863 "/>
<polygon fill="#E2002A" points="401.382,208.389 381.568,196.949 381.318,197.094 401.131,208.533 "/>
<polygon fill="#E2002A" points="260.938,127.592 280.75,139.031 281,138.887 261.188,127.447 "/>
<polygon fill="#E2002A" points="200.746,92.841 220.561,104.28 220.811,104.136 200.997,92.696 "/>
<polygon fill="#E2002A" points="81.164,23.801 84.374,25.654 84.875,25.654 81.666,23.801 "/>
<polygon fill="#E2002A" points="90.759,29.34 100.178,34.777 100.429,34.633 91.26,29.34 "/>
<polygon fill="#E2002A" points="85.961,26.57 89.538,28.635 90.039,28.635 86.462,26.57 "/>
<polygon fill="#E2002A" points="341.191,173.638 321.377,162.197 321.127,162.342 340.941,173.781 "/>
<polygon fill="#E2002A" points="140.557,58.09 160.369,69.529 160.619,69.385 140.807,57.945 "/>
<polygon fill="#E2002A" points="421.445,219.973 401.633,208.533 401.382,208.678 421.195,220.117 "/>
<polygon fill="#E2002A" points="57.68,9.952 57.18,9.952 58.56,10.749 59.06,10.749 "/>
<polygon fill="#E2002A" points="52.383,7.183 53.394,7.767 53.895,7.767 52.883,7.183 "/>
<polygon fill="#E2002A" points="48.732,4.786 48.087,4.414 47.586,4.414 48.231,4.786 "/>
<polygon fill="#E2002A" points="43.067,1.805 43.569,1.805 43.289,1.644 42.788,1.644 "/>
<polygon fill="#E2002A" points="160.619,69.674 180.433,81.112 180.683,80.968 160.869,69.529 "/>
<polygon fill="#E2002A" points="361.255,185.222 341.441,173.781 341.191,173.927 361.004,185.365 "/>
<polygon fill="#E2002A" points="180.683,81.257 200.496,92.696 200.746,92.552 180.934,81.112 "/>
<polygon fill="#E2002A" points="441.508,231.557 421.695,220.117 421.445,220.262 441.258,231.7 "/>
<polygon fill="#E2002A" points="381.318,196.805 361.505,185.365 361.255,185.51 381.068,196.949 "/>
<polygon fill="#E2002A" points="220.811,104.425 240.623,115.863 240.873,115.719 221.061,104.28 "/>
<polygon fill="#E2002A" points="301.063,150.47 281.251,139.031 281,139.176 300.813,150.614 "/>
<polygon fill="#E2002A" points="69.386,16.711 67.276,15.492 66.775,15.492 68.885,16.711 "/>
<polygon fill="#E2002A" points="71.572,18.261 74.049,19.692 74.549,19.692 72.072,18.261 "/>
<polygon fill="#E2002A" points="76.869,21.031 76.369,21.031 79.212,22.673 79.711,22.673 "/>
<polygon fill="#E2002A" points="62.48,12.722 61.977,12.722 63.721,13.729 64.223,13.729 "/>
<polygon fill="#E2002A" points="120.492,46.506 140.307,57.945 140.557,57.801 120.742,46.361 "/>
<polygon fill="#E2002A" points="100.429,34.922 120.242,46.361 120.492,46.217 100.679,34.777 "/>
<polygon fill="#E2002A" points="321.127,162.054 301.313,150.614 301.063,150.759 320.877,162.197 "/>
<polygon fill="#E2002A" points="180.682,58.09 200.496,69.529 200.746,69.385 180.933,57.945 "/>
<polygon fill="#E2002A" points="116.996,21.031 116.497,21.031 119.34,22.673 119.839,22.673 "/>
<polygon fill="#E2002A" points="111.698,18.261 114.176,19.692 114.676,19.692 112.199,18.261 "/>
<polygon fill="#E2002A" points="109.513,16.711 107.403,15.492 106.901,15.492 109.012,16.711 "/>
<polygon fill="#E2002A" points="102.606,12.722 102.104,12.722 103.848,13.729 104.35,13.729 "/>
<polygon fill="#E2002A" points="281,116.008 300.814,127.447 301.064,127.303 281.25,115.863 "/>
<polygon fill="#E2002A" points="421.445,197.094 441.26,208.533 441.51,208.389 421.695,196.949 "/>
<polygon fill="#E2002A" points="341.189,150.47 321.377,139.03 321.127,139.175 340.939,150.614 "/>
<polygon fill="#E2002A" points="321.127,138.886 301.314,127.447 301.064,127.592 320.876,139.03 "/>
<polygon fill="#E2002A" points="220.811,81.258 240.623,92.696 240.873,92.553 221.061,81.113 "/>
<polygon fill="#E2002A" points="83.194,1.805 83.696,1.805 83.416,1.644 82.915,1.644 "/>
<polygon fill="#E2002A" points="97.806,9.952 97.307,9.952 98.687,10.749 99.186,10.749 "/>
<polygon fill="#E2002A" points="88.859,4.786 88.213,4.414 87.713,4.414 88.358,4.786 "/>
<polygon fill="#E2002A" points="92.51,7.183 93.521,7.767 94.021,7.767 93.01,7.183 "/>
<polygon fill="#E2002A" points="140.555,34.922 160.369,46.362 160.619,46.218 140.806,34.777 "/>
<polygon fill="#E2002A" points="260.936,104.424 280.75,115.863 281,115.719 261.187,104.279 "/>
<polygon fill="#E2002A" points="130.887,29.34 140.305,34.777 140.555,34.633 131.387,29.34 "/>
<polygon fill="#E2002A" points="126.088,26.57 129.665,28.635 130.166,28.635 126.59,26.57 "/>
<polygon fill="#E2002A" points="121.292,23.801 124.502,25.654 125.003,25.654 121.794,23.801 "/>
<polygon fill="#E2002A" points="381.318,173.638 361.506,162.198 361.256,162.344 381.068,173.781 "/>
<polygon fill="#E2002A" points="401.382,185.222 381.568,173.781 381.318,173.927 401.131,185.365 "/>
<polygon fill="#E2002A" points="160.619,46.506 180.432,57.945 180.682,57.801 160.869,46.362 "/>
<polygon fill="#E2002A" points="421.445,196.805 401.633,185.365 401.382,185.51 421.195,196.949 "/>
<polygon fill="#E2002A" points="200.746,69.674 220.561,81.113 220.811,80.969 200.996,69.529 "/>
<polygon fill="#E2002A" points="361.256,162.055 341.44,150.614 341.189,150.759 361.005,162.198 "/>
<polygon fill="#E2002A" points="240.873,92.841 260.686,104.279 260.936,104.135 241.123,92.696 "/>
<polygon fill="#E2002A" points="441.508,185.222 421.695,173.781 421.445,173.927 441.258,185.365 "/>
<polygon fill="#E2002A" points="240.874,69.674 260.688,81.113 260.938,80.969 241.124,69.529 "/>
<polygon fill="#E2002A" points="401.381,162.055 381.568,150.615 381.318,150.76 401.131,162.198 "/>
<polygon fill="#E2002A" points="149.64,16.711 147.53,15.492 147.029,15.492 149.14,16.711 "/>
<polygon fill="#E2002A" points="157.123,21.031 156.624,21.031 159.467,22.673 159.966,22.673 "/>
<polygon fill="#E2002A" points="151.826,18.261 154.303,19.692 154.803,19.692 152.326,18.261 "/>
<polygon fill="#E2002A" points="142.733,12.722 142.232,12.722 143.975,13.729 144.477,13.729 "/>
<polygon fill="#E2002A" points="421.445,173.638 401.632,162.198 401.381,162.343 421.195,173.781 "/>
<polygon fill="#E2002A" points="361.254,138.887 341.439,127.447 341.189,127.592 361.004,139.03 "/>
<polygon fill="#E2002A" points="260.938,81.258 280.75,92.696 281,92.552 261.188,81.113 "/>
<polygon fill="#E2002A" points="341.189,127.303 321.378,115.863 321.127,116.008 340.939,127.447 "/>
<polygon fill="#E2002A" points="166.217,26.57 169.793,28.635 170.293,28.635 166.717,26.57 "/>
<polygon fill="#E2002A" points="171.014,29.34 180.434,34.778 180.684,34.634 171.514,29.34 "/>
<polygon fill="#E2002A" points="161.42,23.801 164.63,25.654 165.13,25.654 161.921,23.801 "/>
<polygon fill="#E2002A" points="200.746,46.506 220.56,57.945 220.811,57.801 200.996,46.361 "/>
<polygon fill="#E2002A" points="281,92.84 300.813,104.279 301.064,104.136 281.25,92.696 "/>
<polygon fill="#E2002A" points="381.318,150.471 361.504,139.03 361.254,139.175 381.068,150.615 "/>
<polygon fill="#E2002A" points="301.064,104.424 320.877,115.863 321.127,115.719 301.314,104.279 "/>
<polygon fill="#E2002A" points="180.684,34.923 200.496,46.361 200.746,46.217 180.934,34.778 "/>
<polygon fill="#E2002A" points="220.811,58.09 240.623,69.529 240.874,69.385 221.061,57.945 "/>
<polygon fill="#E2002A" points="134.149,7.767 133.137,7.183 132.637,7.183 133.649,7.767 "/>
<polygon fill="#E2002A" points="123.323,1.805 123.823,1.805 123.544,1.644 123.044,1.644 "/>
<polygon fill="#E2002A" points="128.987,4.786 128.341,4.414 127.841,4.414 128.487,4.786 "/>
<polygon fill="#E2002A" points="137.934,9.952 137.434,9.952 138.814,10.749 139.314,10.749 "/>
<polygon fill="#E2002A" points="206.341,26.57 209.918,28.635 210.418,28.635 206.842,26.57 "/>
<polygon fill="#E2002A" points="211.139,29.34 220.559,34.778 220.809,34.634 211.639,29.34 "/>
<polygon fill="#E2002A" points="201.544,23.801 204.754,25.654 205.255,25.654 202.046,23.801 "/>
<polygon fill="#E2002A" points="260.938,58.09 280.75,69.529 281,69.385 261.188,57.945 "/>
<polygon fill="#E2002A" points="169.113,4.786 168.468,4.414 167.967,4.414 168.613,4.786 "/>
<polygon fill="#E2002A" points="179.44,10.749 178.06,9.952 177.561,9.952 178.941,10.749 "/>
<polygon fill="#E2002A" points="174.275,7.767 173.263,7.183 172.764,7.183 173.775,7.767 "/>
<polygon fill="#E2002A" points="163.448,1.805 163.95,1.805 163.671,1.644 163.17,1.644 "/>
<polygon fill="#E2002A" points="220.809,34.922 240.623,46.361 240.873,46.217 221.06,34.778 "/>
<polygon fill="#E2002A" points="240.873,46.506 260.688,57.945 260.938,57.801 241.123,46.361 "/>
<polygon fill="#E2002A" points="187.155,15.492 189.265,16.711 189.766,16.711 187.656,15.492 "/>
<polygon fill="#E2002A" points="197.249,21.031 196.75,21.031 199.592,22.673 200.091,22.673 "/>
<polygon fill="#E2002A" points="184.101,13.729 184.604,13.729 182.86,12.722 182.357,12.722 "/>
<polygon fill="#E2002A" points="191.951,18.261 194.429,19.692 194.929,19.692 192.452,18.261 "/>
<polygon fill="#E2002A" points="281,69.674 300.813,81.112 301.063,80.968 281.25,69.529 "/>
<polygon fill="#E2002A" points="321.127,92.841 340.94,104.28 341.191,104.136 321.377,92.696 "/>
<polygon fill="#E2002A" points="441.508,162.055 421.695,150.615 421.445,150.76 441.258,162.198 "/>
<polygon fill="#E2002A" points="401.382,138.888 381.566,127.447 381.316,127.592 401.131,139.031 "/>
<polygon fill="#E2002A" points="361.253,115.719 341.441,104.28 341.191,104.425 361.002,115.863 "/>
<polygon fill="#E2002A" points="301.063,81.257 320.877,92.696 321.127,92.552 301.313,81.112 "/>
<polygon fill="#E2002A" points="381.316,127.303 361.503,115.863 361.253,116.008 381.066,127.447 "/>
<polygon fill="#E2002A" points="421.445,150.471 401.633,139.031 401.382,139.176 421.195,150.615 "/>
<polygon fill="#E2002A" points="341.19,81.257 361.004,92.697 361.254,92.553 341.441,81.113 "/>
<polygon fill="#E2002A" points="421.445,127.304 401.631,115.863 401.381,116.008 421.195,127.448 "/>
<polygon fill="#E2002A" points="241.672,23.801 244.882,25.654 245.384,25.654 242.174,23.801 "/>
<polygon fill="#E2002A" points="246.469,26.57 250.045,28.635 250.546,28.635 246.97,26.57 "/>
<polygon fill="#E2002A" points="251.267,29.34 260.686,34.778 260.937,34.634 251.768,29.34 "/>
<polygon fill="#E2002A" points="301.064,58.09 320.877,69.529 321.127,69.385 301.314,57.945 "/>
<polygon fill="#E2002A" points="441.508,138.887 421.695,127.448 421.445,127.593 441.258,139.031 "/>
<polygon fill="#E2002A" points="401.381,115.719 381.566,104.279 381.316,104.424 401.131,115.863 "/>
<polygon fill="#E2002A" points="219.567,10.749 218.187,9.952 217.688,9.952 219.068,10.749 "/>
<polygon fill="#E2002A" points="214.402,7.767 213.391,7.183 212.891,7.183 213.903,7.767 "/>
<polygon fill="#E2002A" points="209.24,4.786 208.595,4.414 208.094,4.414 208.74,4.786 "/>
<polygon fill="#E2002A" points="203.575,1.805 204.077,1.805 203.798,1.644 203.297,1.644 "/>
<polygon fill="#E2002A" points="281,46.507 300.814,57.945 301.064,57.801 281.251,46.362 "/>
<polygon fill="#E2002A" points="260.937,34.923 280.75,46.362 281,46.218 261.188,34.778 "/>
<polygon fill="#E2002A" points="321.127,69.674 340.939,81.113 341.19,80.969 321.377,69.529 "/>
<polygon fill="#E2002A" points="224.229,13.729 224.73,13.729 222.987,12.722 222.485,12.722 "/>
<polygon fill="#E2002A" points="232.079,18.261 234.557,19.692 235.057,19.692 232.579,18.261 "/>
<polygon fill="#E2002A" points="227.282,15.492 229.393,16.711 229.894,16.711 227.783,15.492 "/>
<polygon fill="#E2002A" points="237.377,21.031 236.878,21.031 239.721,22.673 240.22,22.673 "/>
<polygon fill="#E2002A" points="381.316,104.135 361.505,92.697 361.254,92.841 381.066,104.279 "/>
<polygon fill="#E2002A" points="401.381,92.551 381.568,81.113 381.318,81.258 401.13,92.695 "/>
<polygon fill="#E2002A" points="421.443,104.135 401.631,92.695 401.381,92.84 421.193,104.279 "/>
<polygon fill="#E2002A" points="259.693,10.749 258.314,9.952 257.815,9.952 259.195,10.749 "/>
<polygon fill="#E2002A" points="243.702,1.805 244.204,1.805 243.926,1.644 243.423,1.644 "/>
<polygon fill="#E2002A" points="249.367,4.786 248.722,4.414 248.221,4.414 248.866,4.786 "/>
<polygon fill="#E2002A" points="254.529,7.767 253.518,7.183 253.018,7.183 254.03,7.767 "/>
<polygon fill="#E2002A" points="341.189,58.09 361.004,69.529 361.254,69.385 341.44,57.945 "/>
<polygon fill="#E2002A" points="321.127,46.506 340.939,57.945 341.189,57.801 321.378,46.362 "/>
<polygon fill="#E2002A" points="421.443,104.424 441.26,115.864 441.51,115.72 421.693,104.279 "/>
<polygon fill="#E2002A" points="264.357,13.729 264.859,13.729 263.115,12.722 262.613,12.722 "/>
<polygon fill="#E2002A" points="272.207,18.261 274.684,19.692 275.184,19.692 272.707,18.261 "/>
<polygon fill="#E2002A" points="270.022,16.711 267.911,15.492 267.409,15.492 269.521,16.711 "/>
<polygon fill="#E2002A" points="277.504,21.031 277.005,21.031 279.848,22.673 280.347,22.673 "/>
<polygon fill="#E2002A" points="301.064,34.923 320.877,46.362 321.127,46.218 301.314,34.778 "/>
<polygon fill="#E2002A" points="361.254,69.674 381.068,81.113 381.318,80.969 361.504,69.529 "/>
<polygon fill="#E2002A" points="286.596,26.57 290.173,28.635 290.673,28.635 287.097,26.57 "/>
<polygon fill="#E2002A" points="281.799,23.801 285.009,25.654 285.511,25.654 282.301,23.801 "/>
<polygon fill="#E2002A" points="291.394,29.34 300.814,34.778 301.064,34.634 291.895,29.34 "/>
<polygon fill="#E2002A" points="331.522,29.34 340.941,34.778 341.191,34.634 332.022,29.34 "/>
<polygon fill="#E2002A" points="326.724,26.57 330.3,28.635 330.801,28.635 327.225,26.57 "/>
<polygon fill="#E2002A" points="321.927,23.801 325.137,25.654 325.639,25.654 322.43,23.801 "/>
<polygon fill="#E2002A" points="317.631,21.031 317.132,21.031 319.975,22.673 320.473,22.673 "/>
<polygon fill="#E2002A" points="312.334,18.261 314.811,19.692 315.311,19.692 312.833,18.261 "/>
<polygon fill="#E2002A" points="304.484,13.729 304.985,13.729 303.24,12.722 302.74,12.722 "/>
<polygon fill="#E2002A" points="310.148,16.711 308.037,15.492 307.536,15.492 309.648,16.711 "/>
<polygon fill="#E2002A" points="299.82,10.749 298.441,9.952 297.942,9.952 299.322,10.749 "/>
<polygon fill="#E2002A" points="289.493,4.786 288.848,4.414 288.348,4.414 288.993,4.786 "/>
<polygon fill="#E2002A" points="294.656,7.767 293.644,7.183 293.145,7.183 294.156,7.767 "/>
<polygon fill="#E2002A" points="283.829,1.805 284.331,1.805 284.052,1.644 283.55,1.644 "/>
<polygon fill="#E2002A" points="421.443,80.968 401.632,69.529 401.381,69.674 421.193,81.112 "/>
<polygon fill="#E2002A" points="381.318,58.09 401.131,69.529 401.381,69.385 381.568,57.945 "/>
<polygon fill="#E2002A" points="361.254,46.506 381.067,57.945 381.318,57.801 361.504,46.361 "/>
<polygon fill="#E2002A" points="441.508,92.551 421.693,81.112 421.443,81.257 441.258,92.695 "/>
<polygon fill="#E2002A" points="341.191,34.923 361.004,46.361 361.254,46.217 341.441,34.778 "/>
<polygon fill="#E2002A" points="366.852,26.57 370.428,28.635 370.929,28.635 367.353,26.57 "/>
<polygon fill="#E2002A" points="362.055,23.801 365.265,25.654 365.767,25.654 362.557,23.801 "/>
<polygon fill="#E2002A" points="371.65,29.34 381.067,34.777 381.318,34.633 372.15,29.34 "/>
<polygon fill="#E2002A" points="441.508,69.384 421.695,57.945 421.445,58.09 441.258,69.528 "/>
<polygon fill="#E2002A" points="401.381,46.506 421.195,57.945 421.445,57.801 401.632,46.361 "/>
<polygon fill="#E2002A" points="334.782,7.767 333.772,7.183 333.271,7.183 334.282,7.767 "/>
<polygon fill="#E2002A" points="323.956,1.805 324.458,1.805 324.18,1.644 323.677,1.644 "/>
<polygon fill="#E2002A" points="329.621,4.786 328.976,4.414 328.475,4.414 329.12,4.786 "/>
<polygon fill="#E2002A" points="339.448,10.749 339.947,10.749 338.568,9.952 338.069,9.952 "/>
<polygon fill="#E2002A" points="381.318,34.922 401.131,46.361 401.381,46.217 381.568,34.777 "/>
<polygon fill="#E2002A" points="357.76,21.031 357.26,21.031 360.103,22.673 360.602,22.673 "/>
<polygon fill="#E2002A" points="350.275,16.711 348.164,15.492 347.664,15.492 349.775,16.711 "/>
<polygon fill="#E2002A" points="344.611,13.729 345.111,13.729 343.366,12.722 342.866,12.722 "/>
<polygon fill="#E2002A" points="354.939,19.692 355.439,19.692 352.961,18.261 352.461,18.261 "/>
<polygon fill="#E2002A" points="441.258,46.361 441.508,46.218 421.695,34.777 421.445,34.922 "/>
<polygon fill="#E2002A" points="400.229,22.673 400.728,22.673 397.885,21.031 397.386,21.031 "/>
<polygon fill="#E2002A" points="395.065,19.692 395.565,19.692 393.087,18.261 392.587,18.261 "/>
<polygon fill="#E2002A" points="384.736,13.729 385.238,13.729 383.493,12.722 382.991,12.722 "/>
<polygon fill="#E2002A" points="390.401,16.711 388.29,15.492 387.789,15.492 389.901,16.711 "/>
<polygon fill="#E2002A" points="405.391,25.654 405.892,25.654 402.682,23.801 402.18,23.801 "/>
<polygon fill="#E2002A" points="411.776,29.34 421.195,34.777 421.445,34.633 412.276,29.34 "/>
<polygon fill="#E2002A" points="406.978,26.57 410.555,28.635 411.055,28.635 407.479,26.57 "/>
<polygon fill="#E2002A" points="379.574,10.749 380.073,10.749 378.695,9.952 378.196,9.952 "/>
<polygon fill="#E2002A" points="373.399,7.183 374.41,7.767 374.91,7.767 373.899,7.183 "/>
<polygon fill="#E2002A" points="364.084,1.805 364.586,1.805 364.308,1.644 363.805,1.644 "/>
<polygon fill="#E2002A" points="369.748,4.786 369.104,4.414 368.602,4.414 369.247,4.786 "/>
<polygon fill="#E2002A" points="440.356,22.673 440.855,22.673 438.012,21.031 437.513,21.031 "/>
<polygon fill="#E2002A" points="424.865,13.729 425.365,13.729 423.621,12.722 423.12,12.722 "/>
<polygon fill="#E2002A" points="430.029,16.711 430.53,16.711 428.418,15.492 427.917,15.492 "/>
<polygon fill="#E2002A" points="435.192,19.692 435.692,19.692 433.215,18.261 432.715,18.261 "/>
<polygon fill="#E2002A" points="409.375,4.786 409.876,4.786 409.231,4.414 408.731,4.414 "/>
<polygon fill="#E2002A" points="414.538,7.767 415.038,7.767 414.027,7.183 413.527,7.183 "/>
<polygon fill="#E2002A" points="404.212,1.805 404.714,1.805 404.435,1.644 403.933,1.644 "/>
<polygon fill="#E2002A" points="419.703,10.749 420.202,10.749 418.823,9.952 418.324,9.952 "/>
<polygon fill="#E2002A" points="18.499,12.722 17.997,12.722 16.253,13.729 16.756,13.729 "/>
<polygon fill="#E2002A" points="4.107,21.031 3.607,21.031 0.765,22.673 1.264,22.673 "/>
<polygon fill="#E2002A" points="8.905,18.261 8.404,18.261 5.927,19.692 6.427,19.692 "/>
<polygon fill="#E2002A" points="13.702,15.492 13.2,15.492 11.09,16.711 11.591,16.711 "/>
<polygon fill="#E2002A" points="22.797,9.952 21.417,10.749 21.916,10.749 23.296,9.952 "/>
<polygon fill="#E2002A" points="32.89,4.414 32.389,4.414 31.744,4.786 32.244,4.786 "/>
<polygon fill="#E2002A" points="28.093,7.183 27.594,7.183 26.582,7.767 27.082,7.767 "/>
<polygon fill="#E2002A" points="37.408,1.805 37.687,1.644 37.186,1.644 36.906,1.805 "/>
<polygon fill="#E2002A" points="39.438,23.801 38.936,23.801 35.727,25.654 36.229,25.654 "/>
<polygon fill="#E2002A" points="68.221,7.183 67.72,7.183 66.709,7.767 67.209,7.767 "/>
<polygon fill="#E2002A" points="62.924,9.952 61.544,10.749 62.044,10.749 63.424,9.952 "/>
<polygon fill="#E2002A" points="77.535,1.805 77.815,1.644 77.313,1.644 77.033,1.805 "/>
<polygon fill="#E2002A" points="49.031,18.261 48.531,18.261 46.054,19.692 46.554,19.692 "/>
<polygon fill="#E2002A" points="53.829,15.492 53.327,15.492 51.217,16.711 51.718,16.711 "/>
<polygon fill="#E2002A" points="0.361,46.361 20.174,34.923 20.424,34.778 29.844,29.34 29.344,29.34 20.174,34.634 19.924,34.778 
	0.111,46.217 0,46.281 0,46.57 0.111,46.506 "/>
<polygon fill="#E2002A" points="43.734,21.031 40.891,22.673 41.39,22.673 44.233,21.031 "/>
<polygon fill="#E2002A" points="56.882,13.729 58.626,12.722 58.124,12.722 56.38,13.729 "/>
<polygon fill="#E2002A" points="72.372,4.786 73.017,4.414 72.516,4.414 71.871,4.786 "/>
<polygon fill="#E2002A" points="34.141,26.57 30.565,28.635 31.065,28.635 34.642,26.57 "/>
<polygon fill="#E2002A" points="93.955,15.492 93.454,15.492 91.344,16.711 91.844,16.711 "/>
<polygon fill="#E2002A" points="0.361,69.529 20.174,58.09 20.424,57.945 40.237,46.506 40.487,46.361 60.301,34.922 60.552,34.777 
	69.97,29.34 69.469,29.34 60.301,34.633 60.051,34.777 40.237,46.218 39.986,46.361 20.174,57.801 19.924,57.945 0.111,69.385 
	0,69.448 0,69.737 0.111,69.674 "/>
<polygon fill="#E2002A" points="79.063,23.801 75.854,25.654 76.355,25.654 79.565,23.801 "/>
<polygon fill="#E2002A" points="103.05,9.952 101.67,10.749 102.17,10.749 103.55,9.952 "/>
<polygon fill="#E2002A" points="89.158,18.261 88.658,18.261 86.181,19.692 86.68,19.692 "/>
<polygon fill="#E2002A" points="83.861,21.031 81.018,22.673 81.517,22.673 84.36,21.031 "/>
<polygon fill="#E2002A" points="112.498,4.786 113.143,4.414 112.643,4.414 111.998,4.786 "/>
<polygon fill="#E2002A" points="97.009,13.729 98.752,12.722 98.251,12.722 96.507,13.729 "/>
<polygon fill="#E2002A" points="117.661,1.805 117.941,1.644 117.441,1.644 117.161,1.805 "/>
<polygon fill="#E2002A" points="74.267,26.57 70.691,28.635 71.192,28.635 74.769,26.57 "/>
<polygon fill="#E2002A" points="107.335,7.767 108.347,7.183 107.847,7.183 106.835,7.767 "/>
<polygon fill="#E2002A" points="137.136,13.729 138.88,12.722 138.378,12.722 136.634,13.729 "/>
<polygon fill="#E2002A" points="114.395,26.57 110.819,28.635 111.319,28.635 114.896,26.57 "/>
<polygon fill="#E2002A" points="157.79,1.805 158.069,1.644 157.568,1.644 157.288,1.805 "/>
<polygon fill="#E2002A" points="147.463,7.767 148.474,7.183 147.974,7.183 146.963,7.767 "/>
<polygon fill="#E2002A" points="128.785,18.261 126.308,19.692 126.808,19.692 129.286,18.261 "/>
<polygon fill="#E2002A" points="123.988,21.031 121.146,22.673 121.645,22.673 124.488,21.031 "/>
<polygon fill="#E2002A" points="134.083,15.492 133.581,15.492 131.471,16.711 131.972,16.711 "/>
<polygon fill="#E2002A" points="0.359,92.697 20.174,81.257 20.424,81.112 40.238,69.674 40.488,69.529 60.301,58.09 60.551,57.945 
	80.365,46.506 80.615,46.361 100.429,34.922 100.679,34.777 110.098,29.34 109.597,29.34 100.429,34.633 100.178,34.777 
	80.365,46.217 80.115,46.361 60.301,57.801 60.051,57.945 40.238,69.385 39.987,69.529 20.174,80.968 19.924,81.112 0.109,92.553 
	0,92.615 0,92.904 0.109,92.842 "/>
<polygon fill="#E2002A" points="143.177,9.952 141.798,10.749 142.297,10.749 143.677,9.952 "/>
<polygon fill="#E2002A" points="152.626,4.786 153.271,4.414 152.771,4.414 152.125,4.786 "/>
<polygon fill="#E2002A" points="119.191,23.801 115.982,25.654 116.483,25.654 119.693,23.801 "/>
<polygon fill="#E2002A" points="164.115,21.031 161.273,22.673 161.772,22.673 164.615,21.031 "/>
<polygon fill="#E2002A" points="0.361,115.864 20.174,104.425 20.424,104.28 40.238,92.841 40.488,92.696 60.301,81.257 
	60.552,81.112 80.364,69.674 80.615,69.529 100.428,58.09 100.679,57.945 120.492,46.506 120.742,46.361 140.555,34.922 
	140.806,34.777 150.224,29.34 149.724,29.34 140.555,34.633 140.305,34.777 120.492,46.217 120.242,46.361 100.428,57.801 
	100.178,57.945 80.364,69.385 80.113,69.529 60.301,80.968 60.051,81.112 40.238,92.552 39.988,92.696 20.174,104.137 
	19.923,104.28 0.11,115.72 0,115.783 0,116.072 0.11,116.008 "/>
<polygon fill="#E2002A" points="177.262,13.729 179.007,12.722 178.505,12.722 176.761,13.729 "/>
<polygon fill="#E2002A" points="173.708,15.492 171.598,16.711 172.098,16.711 174.209,15.492 "/>
<polygon fill="#E2002A" points="182.424,10.749 183.804,9.952 183.304,9.952 181.924,10.749 "/>
<polygon fill="#E2002A" points="168.912,18.261 166.435,19.692 166.935,19.692 169.412,18.261 "/>
<polygon fill="#E2002A" points="154.522,26.57 150.945,28.635 151.445,28.635 155.022,26.57 "/>
<polygon fill="#E2002A" points="192.753,4.786 193.398,4.414 192.897,4.414 192.252,4.786 "/>
<polygon fill="#E2002A" points="187.59,7.767 188.601,7.183 188.101,7.183 187.089,7.767 "/>
<polygon fill="#E2002A" points="197.917,1.805 198.196,1.644 197.695,1.644 197.415,1.805 "/>
<polygon fill="#E2002A" points="159.318,23.801 156.109,25.654 156.609,25.654 159.819,23.801 "/>
<polygon fill="#E2002A" points="222.554,10.749 223.933,9.952 223.434,9.952 222.055,10.749 "/>
<polygon fill="#E2002A" points="232.881,4.786 233.527,4.414 233.026,4.414 232.38,4.786 "/>
<polygon fill="#E2002A" points="217.393,13.729 219.137,12.722 218.635,12.722 216.891,13.729 "/>
<polygon fill="#E2002A" points="227.719,7.767 228.73,7.183 228.23,7.183 227.219,7.767 "/>
<polygon fill="#E2002A" points="209.042,18.261 206.565,19.692 207.064,19.692 209.542,18.261 "/>
<polygon fill="#E2002A" points="194.651,26.57 191.074,28.635 191.575,28.635 195.152,26.57 "/>
<polygon fill="#E2002A" points="204.244,21.031 201.402,22.673 201.901,22.673 204.743,21.031 "/>
<polygon fill="#E2002A" points="0.361,139.031 20.174,127.592 20.424,127.447 40.237,116.009 40.488,115.864 60.303,104.425 
	60.553,104.28 80.365,92.841 80.615,92.696 100.428,81.258 100.679,81.113 120.492,69.674 120.742,69.529 140.557,58.09 
	140.807,57.945 160.619,46.506 160.869,46.362 180.684,34.923 180.934,34.778 190.354,29.34 189.854,29.34 180.684,34.634 
	180.434,34.778 160.619,46.218 160.369,46.362 140.557,57.801 140.307,57.945 120.492,69.385 120.242,69.529 100.428,80.969 
	100.178,81.113 80.365,92.552 80.115,92.696 60.303,104.136 60.052,104.28 40.237,115.72 39.986,115.864 20.174,127.304 
	19.924,127.447 0.111,138.887 0,138.951 0,139.24 0.111,139.176 "/>
<polygon fill="#E2002A" points="213.839,15.492 211.728,16.711 212.228,16.711 214.339,15.492 "/>
<polygon fill="#E2002A" points="199.447,23.801 196.238,25.654 196.739,25.654 199.948,23.801 "/>
<polygon fill="#E2002A" points="238.044,1.805 238.323,1.644 237.822,1.644 237.543,1.805 "/>
<polygon fill="#E2002A" points="249.166,18.261 246.69,19.692 247.19,19.692 249.666,18.261 "/>
<polygon fill="#E2002A" points="0.361,162.198 20.174,150.76 20.424,150.615 40.237,139.176 40.487,139.031 60.301,127.592 
	60.551,127.447 80.365,116.008 80.615,115.863 100.428,104.424 100.679,104.279 120.491,92.841 120.742,92.696 140.555,81.257 
	140.806,81.112 160.619,69.674 160.869,69.529 180.682,58.09 180.933,57.945 200.746,46.506 200.996,46.361 220.809,34.922 
	221.06,34.778 230.48,29.34 229.979,29.34 220.809,34.634 220.559,34.778 200.746,46.217 200.496,46.361 180.682,57.801 
	180.432,57.945 160.619,69.385 160.369,69.529 140.555,80.968 140.305,81.112 120.491,92.552 120.24,92.696 100.428,104.135 
	100.178,104.279 80.365,115.719 80.115,115.863 60.301,127.303 60.05,127.447 40.237,138.887 39.986,139.031 20.174,150.471 
	19.924,150.615 0.111,162.054 0,162.117 0,162.406 0.111,162.343 "/>
<polygon fill="#E2002A" points="239.573,23.801 236.363,25.654 236.865,25.654 240.074,23.801 "/>
<polygon fill="#E2002A" points="253.962,15.492 251.852,16.711 252.353,16.711 254.464,15.492 "/>
<polygon fill="#E2002A" points="244.369,21.031 241.527,22.673 242.026,22.673 244.868,21.031 "/>
<polygon fill="#E2002A" points="273.007,4.786 273.653,4.414 273.153,4.414 272.507,4.786 "/>
<polygon fill="#E2002A" points="234.777,26.57 231.199,28.635 231.7,28.635 235.278,26.57 "/>
<polygon fill="#E2002A" points="267.844,7.767 268.856,7.183 268.357,7.183 267.345,7.767 "/>
<polygon fill="#E2002A" points="257.517,13.729 259.261,12.722 258.759,12.722 257.015,13.729 "/>
<polygon fill="#E2002A" points="262.679,10.749 264.059,9.952 263.56,9.952 262.181,10.749 "/>
<polygon fill="#E2002A" points="278.171,1.805 278.45,1.644 277.948,1.644 277.669,1.805 "/>
<polygon fill="#E2002A" points="289.293,18.261 286.817,19.692 287.317,19.692 289.793,18.261 "/>
<polygon fill="#E2002A" points="291.979,16.711 292.48,16.711 294.591,15.492 294.089,15.492 "/>
<polygon fill="#E2002A" points="274.904,26.57 271.327,28.635 271.828,28.635 275.405,26.57 "/>
<polygon fill="#E2002A" points="279.699,23.801 276.49,25.654 276.991,25.654 280.201,23.801 "/>
<polygon fill="#E2002A" points="313.134,4.786 313.78,4.414 313.28,4.414 312.634,4.786 "/>
<polygon fill="#E2002A" points="318.298,1.805 318.576,1.644 318.075,1.644 317.796,1.805 "/>
<polygon fill="#E2002A" points="284.496,21.031 281.654,22.673 282.153,22.673 284.995,21.031 "/>
<polygon fill="#E2002A" points="307.971,7.767 308.983,7.183 308.484,7.183 307.472,7.767 "/>
<polygon fill="#E2002A" points="297.644,13.729 299.388,12.722 298.886,12.722 297.142,13.729 "/>
<polygon fill="#E2002A" points="0.36,185.365 20.174,173.926 20.424,173.781 40.237,162.343 40.488,162.198 60.301,150.76 
	60.551,150.615 80.363,139.176 80.613,139.031 100.428,127.592 100.679,127.447 120.492,116.008 120.742,115.863 140.555,104.425 
	140.805,104.28 160.619,92.841 160.869,92.696 180.683,81.257 180.934,81.112 200.746,69.674 200.996,69.529 220.811,58.09 
	221.061,57.945 240.873,46.506 241.123,46.361 260.937,34.923 261.188,34.778 270.607,29.34 270.106,29.34 260.937,34.634 
	260.686,34.778 240.873,46.217 240.623,46.361 220.811,57.801 220.56,57.945 200.746,69.385 200.496,69.529 180.683,80.968 
	180.433,81.112 160.619,92.552 160.369,92.696 140.555,104.136 140.305,104.28 120.492,115.719 120.242,115.863 100.428,127.303 
	100.178,127.447 80.363,138.887 80.113,139.031 60.301,150.471 60.051,150.615 40.237,162.054 39.987,162.198 20.174,173.638 
	19.924,173.781 0.109,185.222 0,185.285 0,185.573 0.109,185.51 "/>
<polygon fill="#E2002A" points="303.687,9.952 302.308,10.749 302.805,10.749 304.185,9.952 "/>
<polygon fill="#E2002A" points="315.031,26.57 311.454,28.635 311.955,28.635 315.532,26.57 "/>
<polygon fill="#E2002A" points="332.109,16.711 332.608,16.711 334.719,15.492 334.219,15.492 "/>
<polygon fill="#E2002A" points="0.361,208.533 20.174,197.095 20.425,196.95 40.238,185.511 40.488,185.365 60.302,173.927 
	60.552,173.781 80.365,162.344 80.615,162.198 100.428,150.76 100.678,150.615 120.492,139.176 120.742,139.031 140.557,127.592 
	140.807,127.447 160.619,116.009 160.869,115.864 180.684,104.425 180.934,104.28 200.746,92.841 200.997,92.696 220.811,81.258 
	221.061,81.113 240.874,69.674 241.124,69.529 260.938,58.09 261.188,57.945 281,46.507 281.251,46.362 301.064,34.923 
	301.314,34.778 310.734,29.34 310.233,29.34 301.064,34.634 300.814,34.778 281,46.218 280.75,46.362 260.938,57.801 
	260.688,57.945 240.874,69.385 240.623,69.529 220.811,80.969 220.561,81.113 200.746,92.552 200.496,92.696 180.684,104.136 
	180.434,104.28 160.619,115.72 160.369,115.864 140.557,127.303 140.307,127.447 120.492,138.887 120.242,139.031 100.428,150.471 
	100.178,150.615 80.365,162.055 80.115,162.198 60.302,173.639 60.051,173.781 40.238,185.222 39.988,185.365 20.174,196.806 
	19.924,196.95 0.111,208.389 0,208.453 0,208.742 0.111,208.678 "/>
<polygon fill="#E2002A" points="324.625,21.031 321.783,22.673 322.281,22.673 325.124,21.031 "/>
<polygon fill="#E2002A" points="348.099,7.767 349.111,7.183 348.611,7.183 347.599,7.767 "/>
<polygon fill="#E2002A" points="353.262,4.786 353.907,4.414 353.406,4.414 352.761,4.786 "/>
<polygon fill="#E2002A" points="343.814,9.952 342.435,10.749 342.934,10.749 344.313,9.952 "/>
<polygon fill="#E2002A" points="327.445,19.692 329.922,18.261 329.423,18.261 326.946,19.692 "/>
<polygon fill="#E2002A" points="337.772,13.729 339.515,12.722 339.015,12.722 337.272,13.729 "/>
<polygon fill="#E2002A" points="358.426,1.805 358.705,1.644 358.202,1.644 357.923,1.805 "/>
<polygon fill="#E2002A" points="319.826,23.801 316.616,25.654 317.119,25.654 320.328,23.801 "/>
<polygon fill="#E2002A" points="393.39,4.786 394.035,4.414 393.533,4.414 392.888,4.786 "/>
<polygon fill="#E2002A" points="372.235,16.711 372.736,16.711 374.847,15.492 374.346,15.492 "/>
<polygon fill="#E2002A" points="387.726,7.767 388.227,7.767 389.239,7.183 388.738,7.183 "/>
<polygon fill="#E2002A" points="367.573,19.692 370.049,18.261 369.549,18.261 367.073,19.692 "/>
<polygon fill="#E2002A" points="355.158,26.57 351.581,28.635 352.082,28.635 355.659,26.57 "/>
<polygon fill="#E2002A" points="383.941,9.952 382.562,10.749 383.061,10.749 384.44,9.952 "/>
<polygon fill="#E2002A" points="377.9,13.729 379.644,12.722 379.142,12.722 377.399,13.729 "/>
<polygon fill="#E2002A" points="364.752,21.031 361.909,22.673 362.408,22.673 365.251,21.031 "/>
<polygon fill="#E2002A" points="398.554,1.805 398.832,1.644 398.33,1.644 398.051,1.805 "/>
<polygon fill="#E2002A" points="359.954,23.801 356.744,25.654 357.246,25.654 360.456,23.801 "/>
<polygon fill="#E2002A" points="0.361,231.701 20.175,220.262 20.425,220.117 40.238,208.678 40.488,208.533 60.302,197.094 
	60.552,196.949 80.365,185.511 80.615,185.365 100.428,173.927 100.679,173.781 120.491,162.344 120.742,162.198 140.557,150.76 
	140.807,150.615 160.619,139.176 160.869,139.031 180.682,127.592 180.933,127.448 200.746,116.009 200.996,115.864 
	220.811,104.425 221.061,104.28 240.873,92.841 241.123,92.696 260.938,81.258 261.188,81.113 281,69.674 281.25,69.529 
	301.064,58.09 301.314,57.945 321.127,46.506 321.378,46.362 341.191,34.923 341.441,34.778 350.862,29.34 350.361,29.34 
	341.191,34.634 340.941,34.778 321.127,46.218 320.877,46.362 301.064,57.801 300.814,57.945 281,69.385 280.75,69.529 
	260.938,80.969 260.688,81.113 240.873,92.553 240.623,92.696 220.811,104.136 220.561,104.28 200.746,115.72 200.496,115.864 
	180.682,127.304 180.432,127.448 160.619,138.887 160.369,139.031 140.557,150.471 140.306,150.615 120.491,162.055 
	120.241,162.198 100.428,173.639 100.178,173.781 80.365,185.222 80.115,185.365 60.302,196.805 60.051,196.949 40.238,208.389 
	39.987,208.533 20.175,219.973 19.924,220.117 0.11,231.557 0,231.62 0,231.909 0.11,231.846 "/>
<polygon fill="#E2002A" points="438.176,1.805 438.679,1.805 438.958,1.644 438.454,1.644 "/>
<polygon fill="#E2002A" points="412.36,16.711 412.861,16.711 414.972,15.492 414.471,15.492 "/>
<polygon fill="#E2002A" points="427.851,7.767 428.352,7.767 429.364,7.183 428.863,7.183 "/>
<polygon fill="#E2002A" points="0.359,254.868 20.174,243.429 20.424,243.284 40.237,231.845 40.488,231.7 60.301,220.262 
	60.551,220.117 80.364,208.678 80.615,208.533 100.428,197.094 100.678,196.949 120.49,185.51 120.741,185.365 140.555,173.927 
	140.805,173.781 160.619,162.343 160.869,162.198 180.682,150.759 180.932,150.614 200.745,139.176 200.995,139.031 
	220.809,127.592 221.059,127.447 240.873,116.008 241.123,115.863 260.936,104.424 261.187,104.279 281,92.84 281.25,92.696 
	301.063,81.257 301.313,81.112 321.127,69.674 321.377,69.529 341.189,58.09 341.44,57.945 361.254,46.506 361.504,46.361 
	381.318,34.922 381.568,34.777 390.987,29.34 390.487,29.34 381.318,34.633 381.067,34.777 361.254,46.217 361.004,46.361 
	341.189,57.801 340.939,57.945 321.127,69.385 320.877,69.529 301.063,80.968 300.813,81.112 281,92.552 280.75,92.696 
	260.936,104.135 260.686,104.279 240.873,115.719 240.623,115.863 220.809,127.303 220.559,127.447 200.745,138.887 
	200.494,139.031 180.682,150.47 180.432,150.614 160.619,162.054 160.369,162.198 140.555,173.638 140.304,173.781 120.49,185.221 
	120.24,185.365 100.428,196.805 100.178,196.949 80.364,208.389 80.114,208.533 60.301,219.973 60.051,220.117 40.237,231.556 
	39.987,231.7 20.174,243.14 19.923,243.284 0.109,254.724 0,254.786 0,255.075 0.109,255.013 "/>
<polygon fill="#E2002A" points="397.371,25.654 400.582,23.801 400.08,23.801 396.87,25.654 "/>
<polygon fill="#E2002A" points="402.034,22.673 402.533,22.673 405.376,21.031 404.877,21.031 "/>
<polygon fill="#E2002A" points="418.025,13.729 419.769,12.722 419.268,12.722 417.524,13.729 "/>
<polygon fill="#E2002A" points="395.283,26.57 391.707,28.635 392.207,28.635 395.784,26.57 "/>
<polygon fill="#E2002A" points="407.198,19.692 407.698,19.692 410.174,18.261 409.674,18.261 "/>
<polygon fill="#E2002A" points="422.687,10.749 423.186,10.749 424.566,9.952 424.066,9.952 "/>
<polygon fill="#E2002A" points="433.013,4.786 433.515,4.786 434.16,4.414 433.658,4.414 "/>
<polygon fill="#E2002A" points="431.834,28.635 432.334,28.635 435.911,26.57 435.41,26.57 "/>
<polygon fill="#E2002A" points="436.997,25.654 437.498,25.654 440.709,23.801 440.207,23.801 "/>
<polygon fill="#E2002A" points="0.361,278.035 20.174,266.597 20.424,266.452 40.238,255.013 40.488,254.868 60.302,243.429 
	60.553,243.284 80.365,231.846 80.615,231.701 100.429,220.262 100.679,220.117 120.492,208.678 120.742,208.533 140.555,197.094 
	140.806,196.949 160.618,185.511 160.869,185.365 180.683,173.927 180.934,173.781 200.746,162.343 200.996,162.198 220.809,150.76 
	221.059,150.615 240.873,139.176 241.123,139.031 260.938,127.592 261.188,127.447 281,116.008 281.25,115.863 301.064,104.424 
	301.314,104.279 321.127,92.841 321.377,92.696 341.19,81.257 341.441,81.113 361.254,69.674 361.504,69.529 381.318,58.09 
	381.568,57.945 401.381,46.506 401.632,46.361 421.445,34.922 421.695,34.777 431.114,29.34 430.614,29.34 421.445,34.633 
	421.195,34.777 401.381,46.217 401.131,46.361 381.318,57.801 381.067,57.945 361.254,69.385 361.004,69.529 341.19,80.969 
	340.939,81.113 321.127,92.552 320.877,92.696 301.064,104.136 300.813,104.279 281,115.719 280.75,115.863 260.938,127.303 
	260.687,127.447 240.873,138.887 240.623,139.031 220.809,150.471 220.559,150.615 200.746,162.054 200.496,162.198 
	180.683,173.638 180.433,173.781 160.618,185.222 160.367,185.365 140.555,196.805 140.305,196.949 120.492,208.389 
	120.242,208.533 100.429,219.973 100.178,220.117 80.365,231.557 80.114,231.701 60.302,243.14 60.051,243.284 40.238,254.724 
	39.987,254.868 20.174,266.308 19.924,266.452 0.11,277.891 0,277.955 0,278.244 0.11,278.18 "/>
<polygon fill="#E2002A" points="441.258,46.361 421.445,57.801 421.195,57.945 401.381,69.385 401.131,69.529 381.318,80.969 
	381.068,81.113 361.254,92.553 361.004,92.697 341.191,104.136 340.94,104.28 321.127,115.719 320.877,115.863 301.064,127.303 
	300.814,127.447 281,138.887 280.75,139.031 260.938,150.471 260.687,150.615 240.873,162.055 240.623,162.198 220.811,173.638 
	220.561,173.781 200.746,185.222 200.496,185.365 180.682,196.806 180.432,196.95 160.619,208.389 160.369,208.533 140.556,219.973 
	140.305,220.117 120.492,231.557 120.242,231.701 100.428,243.141 100.178,243.285 80.365,254.724 80.115,254.868 60.301,266.308 
	60.051,266.452 40.237,277.892 39.986,278.036 20.174,289.475 19.924,289.619 0.11,301.059 0,301.121 0,301.41 0.11,301.348 
	0.361,301.202 20.174,289.764 20.424,289.619 40.237,278.181 40.488,278.036 60.301,266.597 60.551,266.452 80.365,255.013 
	80.615,254.868 100.428,243.43 100.679,243.285 120.492,231.846 120.742,231.701 140.556,220.262 140.807,220.117 160.619,208.678 
	160.869,208.533 180.682,197.095 180.932,196.95 200.746,185.51 200.996,185.365 220.811,173.927 221.061,173.781 240.873,162.344 
	241.123,162.198 260.938,150.76 261.188,150.615 281,139.176 281.251,139.031 301.064,127.592 301.314,127.447 321.127,116.008 
	321.378,115.863 341.191,104.425 341.441,104.28 361.254,92.841 361.505,92.697 381.318,81.258 381.568,81.113 401.381,69.674 
	401.632,69.529 421.445,58.09 421.695,57.945 441.508,46.506 441.51,46.506 441.51,46.217 441.508,46.218 "/>
<polygon fill="#E2002A" points="441.258,69.528 421.443,80.968 421.193,81.112 401.381,92.551 401.13,92.695 381.316,104.135 
	381.066,104.279 361.253,115.719 361.002,115.863 341.189,127.303 340.939,127.447 321.127,138.886 320.876,139.03 301.063,150.47 
	300.813,150.614 280.999,162.054 280.748,162.198 260.936,173.637 260.686,173.781 240.873,185.221 240.622,185.365 
	220.809,196.805 220.559,196.949 200.744,208.389 200.494,208.533 180.682,219.972 180.432,220.116 160.617,231.556 160.367,231.7 
	140.555,243.139 140.305,243.283 120.49,254.723 120.24,254.867 100.428,266.307 100.178,266.451 80.363,277.891 80.113,278.035 
	60.3,289.475 60.049,289.619 40.236,301.058 39.986,301.201 20.173,312.642 19.922,312.785 0.109,324.225 0,324.287 0,324.576 
	0.109,324.514 0.359,324.368 20.173,312.931 20.423,312.785 40.236,301.347 40.486,301.201 60.3,289.764 60.55,289.619 
	80.363,278.18 80.613,278.035 100.428,266.596 100.678,266.451 120.49,255.012 120.74,254.867 140.555,243.428 140.805,243.283 
	160.617,231.845 160.868,231.7 180.682,220.261 180.932,220.116 200.744,208.678 200.994,208.533 220.809,197.094 221.059,196.949 
	240.873,185.51 241.123,185.365 260.936,173.926 261.186,173.781 280.999,162.343 281.25,162.198 301.063,150.759 301.313,150.614 
	321.127,139.175 321.377,139.03 341.189,127.592 341.439,127.447 361.253,116.008 361.503,115.863 381.316,104.424 381.566,104.279 
	401.381,92.84 401.631,92.695 421.443,81.257 421.693,81.112 441.508,69.673 441.51,69.671 441.51,69.383 441.508,69.384 "/>
<polygon fill="#E2002A" points="441.258,92.695 421.443,104.135 421.193,104.279 401.381,115.719 401.131,115.863 381.316,127.303 
	381.066,127.447 361.254,138.887 361.004,139.03 341.189,150.47 340.939,150.614 321.127,162.054 320.877,162.197 301.063,173.637 
	300.813,173.781 280.999,185.221 280.748,185.365 260.936,196.805 260.686,196.949 240.873,208.389 240.623,208.533 
	220.809,219.973 220.559,220.117 200.745,231.556 200.494,231.7 180.682,243.14 180.432,243.284 160.619,254.723 160.368,254.867 
	140.555,266.307 140.305,266.451 120.492,277.891 120.242,278.035 100.428,289.475 100.178,289.619 80.363,301.059 80.113,301.202 
	60.301,312.642 60.051,312.785 40.236,324.226 39.986,324.369 20.174,335.809 19.924,335.952 0.109,347.393 0,347.455 0,347.744 
	0.109,347.682 0.359,347.536 20.174,336.098 20.424,335.952 40.236,324.515 40.487,324.369 60.301,312.931 60.551,312.785 
	80.363,301.348 80.613,301.202 100.428,289.764 100.678,289.619 120.492,278.18 120.742,278.035 140.555,266.596 140.805,266.451 
	160.619,255.012 160.869,254.867 180.682,243.429 180.932,243.284 200.745,231.845 200.996,231.7 220.809,220.262 221.059,220.117 
	240.873,208.678 241.123,208.533 260.936,197.094 261.187,196.949 280.999,185.51 281.25,185.365 301.063,173.926 301.313,173.781 
	321.127,162.342 321.377,162.197 341.189,150.759 341.44,150.614 361.254,139.175 361.504,139.03 381.316,127.592 381.566,127.447 
	401.381,116.008 401.631,115.863 421.443,104.424 421.693,104.279 441.508,92.84 441.51,92.839 441.51,92.55 441.508,92.551 "/>
<polygon fill="#E2002A" points="421.445,127.304 421.195,127.448 401.382,138.888 401.131,139.031 381.318,150.471 381.068,150.615 
	361.256,162.055 361.005,162.198 341.191,173.638 340.941,173.781 321.128,185.222 320.877,185.365 301.064,196.806 300.814,196.95 
	281.002,208.389 280.751,208.533 260.938,219.973 260.688,220.117 240.873,231.557 240.623,231.701 220.811,243.141 
	220.561,243.285 200.746,254.724 200.496,254.868 180.684,266.308 180.434,266.452 160.619,277.892 160.369,278.036 
	140.557,289.475 140.307,289.619 120.492,301.059 120.242,301.202 100.429,312.643 100.178,312.786 80.365,324.227 80.115,324.37 
	60.302,335.811 60.051,335.954 40.238,347.394 39.988,347.537 20.174,358.978 19.924,359.121 0.111,370.561 0,370.625 0,370.913 
	0.111,370.85 0.361,370.704 20.174,359.267 20.424,359.121 40.238,347.683 40.488,347.537 60.302,336.099 60.552,335.954 
	80.365,324.516 80.615,324.37 100.429,312.932 100.679,312.786 120.492,301.348 120.742,301.202 140.557,289.764 140.807,289.619 
	160.619,278.181 160.869,278.036 180.684,266.597 180.934,266.452 200.746,255.013 200.997,254.868 220.811,243.43 221.061,243.285 
	240.873,231.846 241.123,231.701 260.938,220.262 261.188,220.117 281.002,208.678 281.252,208.533 301.064,197.095 301.314,196.95 
	321.128,185.511 321.379,185.365 341.191,173.927 341.441,173.781 361.256,162.344 361.506,162.198 381.318,150.76 381.568,150.615 
	401.382,139.176 401.633,139.031 421.445,127.593 421.695,127.448 441.51,116.009 441.51,116.008 441.51,115.72 441.26,115.864 "/>
<polygon fill="#E2002A" points="441.258,139.031 421.445,150.471 421.195,150.615 401.381,162.055 401.131,162.198 381.318,173.638 
	381.068,173.781 361.255,185.222 361.004,185.365 341.191,196.806 340.94,196.949 321.127,208.389 320.877,208.533 301.064,219.973 
	300.814,220.117 281,231.557 280.75,231.701 260.936,243.141 260.686,243.285 240.873,254.724 240.623,254.868 220.811,266.308 
	220.56,266.451 200.746,277.891 200.496,278.035 180.683,289.475 180.432,289.619 160.619,301.059 160.369,301.202 140.555,312.643 
	140.305,312.786 120.492,324.227 120.241,324.37 100.428,335.81 100.178,335.953 80.365,347.394 80.114,347.537 60.301,358.977 
	60.051,359.12 40.237,370.561 39.986,370.704 20.174,382.145 19.924,382.288 0.11,393.729 0,393.79 0,394.079 0.11,394.018 
	0.36,393.872 20.174,382.434 20.424,382.288 40.237,370.85 40.487,370.704 60.301,359.266 60.551,359.12 80.365,347.683 
	80.615,347.537 100.428,336.099 100.678,335.953 120.492,324.516 120.742,324.37 140.555,312.932 140.805,312.786 160.619,301.348 
	160.869,301.202 180.683,289.764 180.934,289.619 200.746,278.18 200.996,278.035 220.811,266.596 221.061,266.451 240.873,255.013 
	241.123,254.868 260.936,243.43 261.186,243.285 281,231.845 281.251,231.701 301.064,220.262 301.314,220.117 321.127,208.678 
	321.377,208.533 341.191,197.094 341.441,196.949 361.255,185.51 361.505,185.365 381.318,173.927 381.568,173.781 401.381,162.343 
	401.632,162.198 421.445,150.76 421.695,150.615 441.508,139.176 441.51,139.175 441.51,138.886 441.508,138.887 "/>
<polygon fill="#E2002A" points="441.258,162.198 421.445,173.638 421.195,173.781 401.382,185.222 401.131,185.365 381.318,196.805 
	381.068,196.949 361.254,208.389 361.004,208.533 341.191,219.973 340.94,220.117 321.128,231.557 320.877,231.701 301.064,243.14 
	300.814,243.284 281,254.725 280.75,254.869 260.938,266.308 260.688,266.452 240.873,277.891 240.623,278.035 220.811,289.475 
	220.561,289.619 200.746,301.059 200.496,301.202 180.684,312.643 180.434,312.786 160.619,324.227 160.369,324.37 140.556,335.811 
	140.305,335.954 120.492,347.394 120.242,347.537 100.429,358.978 100.179,359.121 80.365,370.561 80.115,370.704 60.302,382.145 
	60.051,382.288 40.238,393.729 39.988,393.872 20.175,405.313 19.924,405.456 0.111,416.896 0,416.96 0,417.248 0.111,417.185 
	0.361,417.039 20.175,405.602 20.425,405.456 40.238,394.018 40.488,393.872 60.302,382.434 60.552,382.288 80.365,370.85 
	80.615,370.704 100.429,359.267 100.68,359.121 120.492,347.683 120.742,347.537 140.556,336.1 140.807,335.954 160.619,324.516 
	160.869,324.37 180.684,312.932 180.934,312.786 200.746,301.348 200.996,301.202 220.811,289.764 221.061,289.619 240.873,278.18 
	241.124,278.035 260.938,266.597 261.188,266.452 281,255.014 281.25,254.869 301.064,243.429 301.314,243.284 321.128,231.846 
	321.379,231.701 341.191,220.262 341.441,220.117 361.254,208.678 361.504,208.533 381.318,197.094 381.568,196.949 401.382,185.51 
	401.633,185.365 421.445,173.927 421.695,173.781 441.508,162.344 441.51,162.342 441.51,162.053 441.508,162.055 "/>
<polygon fill="#E2002A" points="441.258,185.365 421.445,196.805 421.195,196.949 401.382,208.389 401.131,208.533 381.318,219.973 
	381.067,220.117 361.254,231.557 361.004,231.701 341.191,243.14 340.941,243.284 321.127,254.724 320.877,254.868 301.063,266.308 
	300.813,266.452 281,277.891 280.75,278.035 260.938,289.475 260.688,289.619 240.873,301.059 240.623,301.202 220.811,312.643 
	220.56,312.786 200.747,324.226 200.496,324.369 180.682,335.81 180.432,335.953 160.619,347.394 160.369,347.537 140.556,358.977 
	140.305,359.12 120.492,370.561 120.242,370.704 100.429,382.145 100.178,382.288 80.365,393.729 80.115,393.872 60.302,405.312 
	60.051,405.455 40.238,416.896 39.987,417.039 20.175,428.479 19.924,428.623 0.111,440.063 0.611,440.063 20.175,428.768 
	20.425,428.623 40.238,417.185 40.488,417.039 60.302,405.601 60.552,405.455 80.365,394.018 80.615,393.872 100.429,382.434 
	100.679,382.288 120.492,370.85 120.742,370.704 140.556,359.266 140.806,359.12 160.619,347.683 160.869,347.537 180.682,336.099 
	180.933,335.953 200.747,324.515 200.997,324.369 220.811,312.932 221.061,312.786 240.873,301.348 241.123,301.202 
	260.938,289.764 261.188,289.619 281,278.18 281.25,278.035 301.063,266.597 301.313,266.452 321.127,255.013 321.378,254.868 
	341.191,243.429 341.441,243.284 361.254,231.846 361.504,231.701 381.318,220.262 381.568,220.117 401.382,208.678 
	401.633,208.533 421.445,197.094 421.695,196.949 441.508,185.511 441.51,185.51 441.51,185.221 441.508,185.222 "/>
<polygon fill="#E2002A" points="421.445,219.973 421.195,220.117 401.381,231.557 401.131,231.701 381.318,243.141 381.068,243.285 
	361.256,254.724 361.005,254.868 341.191,266.308 340.941,266.451 321.127,277.892 320.877,278.036 301.064,289.475 
	300.814,289.619 281,301.059 280.75,301.202 260.938,312.643 260.688,312.786 240.873,324.226 240.623,324.369 220.811,335.809 
	220.561,335.952 200.746,347.394 200.496,347.537 180.682,358.977 180.432,359.12 160.619,370.561 160.369,370.704 140.555,382.145 
	140.305,382.288 120.492,393.729 120.242,393.872 100.428,405.313 100.178,405.456 80.365,416.896 80.115,417.039 60.301,428.479 
	60.051,428.623 40.238,440.063 40.737,440.063 60.301,428.769 60.551,428.623 80.365,417.185 80.615,417.039 100.428,405.602 
	100.678,405.456 120.492,394.018 120.742,393.872 140.555,382.434 140.806,382.288 160.619,370.85 160.869,370.704 180.682,359.266 
	180.933,359.12 200.746,347.683 200.996,347.537 220.811,336.098 221.061,335.952 240.873,324.515 241.123,324.369 260.938,312.932 
	261.188,312.786 281,301.348 281.251,301.202 301.064,289.764 301.314,289.619 321.127,278.181 321.377,278.036 341.191,266.596 
	341.441,266.451 361.256,255.013 361.506,254.868 381.318,243.43 381.568,243.285 401.381,231.846 401.632,231.701 421.445,220.262 
	421.695,220.117 441.51,208.678 441.51,208.389 441.26,208.533 "/>
<polygon fill="#E2002A" points="441.258,231.7 421.445,243.141 421.195,243.285 401.381,254.724 401.131,254.868 381.318,266.307 
	381.068,266.451 361.254,277.891 361.004,278.035 341.189,289.475 340.939,289.619 321.127,301.059 320.877,301.202 
	301.064,312.642 300.813,312.785 281,324.226 280.75,324.369 260.937,335.81 260.686,335.953 240.873,347.393 240.623,347.536 
	220.809,358.977 220.559,359.12 200.746,370.561 200.496,370.704 180.682,382.145 180.432,382.288 160.619,393.729 160.368,393.872 
	140.555,405.312 140.305,405.455 120.491,416.896 120.241,417.039 100.428,428.479 100.178,428.622 80.364,440.063 80.863,440.063 
	100.428,428.768 100.678,428.622 120.491,417.185 120.742,417.039 140.555,405.601 140.805,405.455 160.619,394.018 
	160.869,393.872 180.682,382.434 180.933,382.288 200.746,370.85 200.996,370.704 220.809,359.266 221.059,359.12 240.873,347.682 
	241.124,347.536 260.937,336.098 261.188,335.953 281,324.515 281.25,324.369 301.064,312.931 301.314,312.785 321.127,301.348 
	321.377,301.202 341.189,289.764 341.439,289.619 361.254,278.18 361.505,278.035 381.318,266.596 381.568,266.451 401.381,255.013 
	401.631,254.868 421.445,243.429 421.695,243.285 441.508,231.845 441.51,231.844 441.51,231.555 441.508,231.557 "/>
<polygon fill="#E2002A" points="441.258,254.868 421.445,266.308 421.193,266.451 401.382,277.891 401.131,278.035 381.318,289.475 
	381.068,289.619 361.254,301.059 361.004,301.202 341.191,312.643 340.94,312.786 321.127,324.226 320.877,324.369 301.064,335.81 
	300.813,335.953 281,347.393 280.75,347.536 260.938,358.977 260.688,359.12 240.873,370.561 240.623,370.704 220.809,382.145 
	220.559,382.288 200.746,393.729 200.496,393.872 180.682,405.313 180.432,405.455 160.619,416.896 160.369,417.039 
	140.555,428.479 140.305,428.623 120.492,440.063 120.992,440.063 140.555,428.769 140.806,428.623 160.619,417.185 
	160.869,417.039 180.682,405.601 180.933,405.455 200.746,394.018 200.996,393.872 220.809,382.434 221.06,382.288 240.873,370.85 
	241.123,370.704 260.938,359.266 261.188,359.12 281,347.682 281.25,347.536 301.064,336.099 301.314,335.953 321.127,324.515 
	321.377,324.369 341.191,312.931 341.441,312.786 361.254,301.348 361.504,301.202 381.318,289.764 381.568,289.619 401.382,278.18 
	401.632,278.035 421.445,266.596 421.695,266.451 441.508,255.013 441.51,255.012 441.51,254.723 441.508,254.724 "/>
<polygon fill="#E2002A" points="421.447,289.475 421.195,289.619 401.383,301.059 401.133,301.202 381.318,312.643 381.068,312.786 
	361.256,324.227 361.005,324.37 341.191,335.81 340.941,335.953 321.129,347.394 320.878,347.537 301.064,358.978 300.814,359.12 
	281.002,370.561 280.752,370.704 260.938,382.145 260.688,382.288 240.873,393.729 240.623,393.872 220.811,405.313 
	220.561,405.456 200.746,416.896 200.496,417.04 180.684,428.479 180.434,428.623 160.619,440.063 161.119,440.063 180.684,428.769 
	180.934,428.623 200.746,417.185 200.996,417.04 220.811,405.602 221.061,405.456 240.873,394.018 241.124,393.872 260.938,382.434 
	261.188,382.288 281.002,370.85 281.252,370.704 301.064,359.266 301.314,359.12 321.129,347.683 321.379,347.537 341.191,336.099 
	341.441,335.953 361.256,324.516 361.506,324.37 381.318,312.932 381.568,312.786 401.383,301.348 401.633,301.202 421.447,289.764 
	421.697,289.619 441.51,278.181 441.51,278.18 441.51,277.892 441.26,278.036 "/>
<polygon fill="#E2002A" points="421.445,312.643 421.195,312.785 401.381,324.227 401.131,324.37 381.318,335.81 381.068,335.953 
	361.254,347.393 361.004,347.536 341.191,358.977 340.941,359.12 321.127,370.561 320.877,370.704 301.064,382.144 300.814,382.287 
	281,393.729 280.75,393.872 260.937,405.312 260.686,405.455 240.873,416.896 240.623,417.039 220.809,428.479 220.559,428.623 
	200.746,440.063 201.245,440.063 220.809,428.768 221.06,428.623 240.873,417.185 241.123,417.039 260.937,405.601 261.188,405.455 
	281,394.018 281.25,393.872 301.064,382.433 301.314,382.287 321.127,370.85 321.378,370.704 341.191,359.266 341.441,359.12 
	361.254,347.682 361.505,347.536 381.318,336.099 381.568,335.953 401.381,324.516 401.631,324.37 421.445,312.931 421.695,312.785 
	441.51,301.348 441.51,301.347 441.51,301.059 441.26,301.202 "/>
<polygon fill="#E2002A" points="441.258,324.369 421.443,335.81 421.193,335.953 401.381,347.393 401.131,347.536 381.318,358.977 
	381.067,359.12 361.254,370.561 361.004,370.704 341.191,382.144 340.94,382.287 321.127,393.727 320.877,393.87 301.063,405.312 
	300.813,405.455 281,416.896 280.75,417.038 260.936,428.479 260.686,428.622 240.873,440.063 241.371,440.063 260.936,428.768 
	261.187,428.622 281,417.184 281.25,417.038 301.063,405.601 301.313,405.455 321.127,394.016 321.378,393.87 341.191,382.433 
	341.441,382.287 361.254,370.85 361.504,370.704 381.318,359.266 381.568,359.12 401.381,347.682 401.631,347.536 421.443,336.099 
	421.693,335.953 441.508,324.514 441.51,324.514 441.51,324.225 441.508,324.226 "/>
<polygon fill="#E2002A" points="441.258,347.537 421.445,358.977 421.195,359.12 401.381,370.561 401.131,370.704 381.318,382.145 
	381.068,382.288 361.254,393.728 361.004,393.871 341.191,405.311 340.941,405.454 321.127,416.896 320.877,417.039 
	301.063,428.479 300.813,428.622 281,440.063 281.5,440.063 301.063,428.768 301.314,428.622 321.127,417.185 321.377,417.039 
	341.191,405.6 341.441,405.454 361.254,394.017 361.505,393.871 381.318,382.434 381.568,382.288 401.381,370.85 401.632,370.704 
	421.445,359.266 421.695,359.12 441.508,347.683 441.51,347.681 441.51,347.392 441.508,347.394 "/>
<polygon fill="#E2002A" points="421.445,382.145 421.195,382.288 401.383,393.729 401.132,393.872 381.318,405.312 381.068,405.455 
	361.256,416.895 361.006,417.038 341.191,428.479 340.941,428.623 321.127,440.063 321.627,440.063 341.191,428.769 
	341.441,428.623 361.256,417.184 361.506,417.038 381.318,405.601 381.568,405.455 401.383,394.018 401.633,393.872 
	421.445,382.434 421.695,382.288 441.51,370.85 441.51,370.561 441.26,370.704 "/>
<polygon fill="#E2002A" points="421.445,405.312 421.195,405.455 401.382,416.896 401.131,417.038 381.318,428.479 381.068,428.622 
	361.254,440.063 361.754,440.063 381.318,428.768 381.569,428.622 401.382,417.184 401.633,417.038 421.445,405.601 
	421.695,405.455 441.51,394.017 441.51,394.016 441.51,393.728 441.258,393.871 "/>
<polygon fill="#E2002A" points="441.258,417.039 421.445,428.479 421.195,428.622 401.383,440.063 401.881,440.063 421.445,428.768 
	421.695,428.622 441.508,417.185 441.51,417.184 441.51,416.895 441.508,416.896 "/>
</svg>
