<?xml version="1.0" encoding="UTF-8" standalone="no"?>
<!-- Generator: Adobe Illustrator 16.0.0, SVG Export Plug-In . SVG Version: 6.00 Build 0)  -->

<svg
   xmlns:dc="http://purl.org/dc/elements/1.1/"
   xmlns:cc="http://creativecommons.org/ns#"
   xmlns:rdf="http://www.w3.org/1999/02/22-rdf-syntax-ns#"
   xmlns:svg="http://www.w3.org/2000/svg"
   xmlns="http://www.w3.org/2000/svg"
   xmlns:sodipodi="http://sodipodi.sourceforge.net/DTD/sodipodi-0.dtd"
   xmlns:inkscape="http://www.inkscape.org/namespaces/inkscape"
   version="1.1"
   id="Layer_1"
   x="0px"
   y="0px"
   width="610.98499"
   height="282.65302"
   viewBox="0 0 610.98499 282.65302"
   enable-background="new 0 0 841.891 595.281"
   xml:space="preserve"
   inkscape:version="0.91 r13725"
   sodipodi:docname="pyconlogo.svg"><metadata
     id="metadata87"><rdf:RDF><cc:Work
         rdf:about=""><dc:format>image/svg+xml</dc:format><dc:type
           rdf:resource="http://purl.org/dc/dcmitype/StillImage" /><dc:title></dc:title></cc:Work></rdf:RDF></metadata><defs
     id="defs85" /><sodipodi:namedview
     pagecolor="#ffffff"
     bordercolor="#666666"
     borderopacity="1"
     objecttolerance="10"
     gridtolerance="10"
     guidetolerance="10"
     inkscape:pageopacity="0"
     inkscape:pageshadow="2"
     inkscape:window-width="1288"
     inkscape:window-height="666"
     id="namedview83"
     showgrid="false"
     inkscape:zoom="0.70793013"
     inkscape:cx="427.54676"
     inkscape:cy="296.85185"
     inkscape:window-x="64"
     inkscape:window-y="54"
     inkscape:window-maximized="0"
     inkscape:current-layer="Layer_1" /><g
     id="g3"
     transform="translate(-115.45275,-147.31957)"><polygon
       stroke-miterlimit="10"
       points="429.578,258.544 429.578,218.359 516.551,268.296 533.985,258.539 516.696,248.565 551.439,248.462 586.179,228.405 586.179,268.656 551.363,288.724 533.985,288.679 533.985,298.736 516.578,308.773 "
       id="polygon5"
       style="fill:#ffffff;stroke:#231f20;stroke-width:1.73450005;stroke-linecap:round;stroke-linejoin:round;stroke-miterlimit:10" /><polygon
       stroke-miterlimit="10"
       points="621.187,308.849 621.187,328.921 655.971,349.023 725.57,308.839 725.57,349.023 655.969,389.207 568.988,338.986 568.97,298.794 603.745,318.871 "
       id="polygon7"
       style="fill:#ffffff;stroke:#1a171b;stroke-width:1.73450005;stroke-linecap:round;stroke-linejoin:round;stroke-miterlimit:10" /><polygon
       stroke-miterlimit="10"
       points="412.195,308.628 447.462,308.628 481.78,288.679 481.78,329.011 446.98,349.101 412.179,349.101 359.981,318.964 359.981,278.783 "
       id="polygon9"
       style="fill:#ffffff;stroke:#1a171b;stroke-width:1.73450005;stroke-linecap:round;stroke-linejoin:round;stroke-miterlimit:10" /><polygon
       stroke-miterlimit="10"
       points="342.518,208.463 342.518,248.646 307.719,268.736 272.918,248.646 238.117,248.646 203.319,228.553 203.319,188.371 238.121,208.463 272.918,208.463 307.718,228.553 "
       id="polygon11"
       style="fill:#ffffff;stroke:#1a171b;stroke-width:1.73450005;stroke-linecap:round;stroke-linejoin:round;stroke-miterlimit:10" /><g
       id="g13"><polygon
         stroke-miterlimit="10"
         points="238.121,268.591 238.121,308.919 203.319,329.011 116.32,278.783 116.32,238.452 203.319,288.679 "
         id="polygon15"
         style="fill:#ffffff;stroke:#1a171b;stroke-width:1.73450005;stroke-linecap:round;stroke-linejoin:round;stroke-miterlimit:10" /><polygon
         stroke-miterlimit="10"
         points="220.593,258.763 220.593,238.526 203.319,248.499 "
         id="polygon17"
         style="fill:#ffffff;stroke:#1a171b;stroke-width:1.73450005;stroke-linecap:round;stroke-linejoin:round;stroke-miterlimit:10" /></g><g
       id="g19"><polygon
         stroke-miterlimit="10"
         points="325.182,358.564 359.98,358.564 394.781,338.472 394.781,379.238 359.981,399.332 325.182,399.332 272.98,369.193 272.982,329.011 "
         id="polygon21"
         style="fill:#ffffff;stroke:#1a171b;stroke-width:1.73450005;stroke-linecap:round;stroke-linejoin:round;stroke-miterlimit:10" /><polygon
         stroke-miterlimit="10"
         points="342.58,329.011 325.182,318.966 359.98,298.875 359.98,318.964 "
         id="polygon23"
         style="fill:#ffffff;stroke:#1a171b;stroke-width:1.73450005;stroke-linecap:round;stroke-linejoin:round;stroke-miterlimit:10" /></g><g
       id="g25"><polygon
         stroke-miterlimit="10"
         points="551.589,388.326 586.386,388.326 621.187,368.234 621.187,409 586.388,429.093 551.589,429.093 499.387,398.955 499.388,358.773 "
         id="polygon27"
         style="fill:#ffffff;stroke:#1a171b;stroke-width:1.73450005;stroke-linecap:round;stroke-linejoin:round;stroke-miterlimit:10" /><polygon
         stroke-miterlimit="10"
         points="568.986,358.773 551.589,348.728 586.386,328.636 586.386,348.726 "
         id="polygon29"
         style="fill:#ffffff;stroke:#1a171b;stroke-width:1.73450005;stroke-linecap:round;stroke-linejoin:round;stroke-miterlimit:10" /></g><line
       stroke-miterlimit="10"
       x1="203.319"
       y1="288.67899"
       x2="203.319"
       y2="327.56"
       id="line31"
       style="fill:none;stroke:#1a171b;stroke-width:1.73450005;stroke-linecap:round;stroke-linejoin:round;stroke-miterlimit:10" /><line
       stroke-miterlimit="10"
       x1="238.121"
       y1="208.463"
       x2="238.121"
       y2="248.646"
       id="line33"
       style="fill:none;stroke:#1a171b;stroke-width:1.73450005;stroke-linecap:round;stroke-linejoin:round;stroke-miterlimit:10" /><line
       stroke-miterlimit="10"
       x1="272.918"
       y1="208.463"
       x2="272.918"
       y2="248.646"
       id="line35"
       style="fill:none;stroke:#1a171b;stroke-width:1.73450005;stroke-linecap:round;stroke-linejoin:round;stroke-miterlimit:10" /><line
       stroke-miterlimit="10"
       x1="307.71799"
       y1="228.55299"
       x2="307.71799"
       y2="268.73599"
       id="line37"
       style="fill:none;stroke:#1a171b;stroke-width:1.73450005;stroke-linecap:round;stroke-linejoin:round;stroke-miterlimit:10" /><line
       stroke-miterlimit="10"
       x1="325.18201"
       y1="358.564"
       x2="325.18201"
       y2="399.332"
       id="line39"
       style="fill:none;stroke:#1a171b;stroke-width:1.73450005;stroke-linecap:round;stroke-linejoin:round;stroke-miterlimit:10" /><line
       stroke-miterlimit="10"
       x1="359.98001"
       y1="358.564"
       x2="359.98001"
       y2="399.332"
       id="line41"
       style="fill:none;stroke:#1a171b;stroke-width:1.73450005;stroke-linecap:round;stroke-linejoin:round;stroke-miterlimit:10" /><line
       stroke-miterlimit="10"
       x1="551.58899"
       y1="388.32599"
       x2="551.58899"
       y2="429.09299"
       id="line43"
       style="fill:none;stroke:#1a171b;stroke-width:1.73450005;stroke-linecap:round;stroke-linejoin:round;stroke-miterlimit:10" /><line
       stroke-miterlimit="10"
       x1="586.38599"
       y1="388.32599"
       x2="586.38599"
       y2="429.09299"
       id="line45"
       style="fill:none;stroke:#1a171b;stroke-width:1.73450005;stroke-linecap:round;stroke-linejoin:round;stroke-miterlimit:10" /><line
       stroke-miterlimit="10"
       x1="412.19501"
       y1="308.62799"
       x2="412.19501"
       y2="349.396"
       id="line47"
       style="fill:none;stroke:#1a171b;stroke-width:1.73450005;stroke-linecap:round;stroke-linejoin:round;stroke-miterlimit:10" /><line
       stroke-miterlimit="10"
       x1="447.46201"
       y1="308.62799"
       x2="447.46201"
       y2="349.396"
       id="line49"
       style="fill:none;stroke:#1a171b;stroke-width:1.73450005;stroke-linecap:round;stroke-linejoin:round;stroke-miterlimit:10" /><line
       stroke-miterlimit="10"
       x1="655.96899"
       y1="349.02301"
       x2="655.96899"
       y2="389.207"
       id="line51"
       style="fill:none;stroke:#1a171b;stroke-width:1.73450005;stroke-linecap:round;stroke-linejoin:round;stroke-miterlimit:10" /><line
       stroke-miterlimit="10"
       x1="621.18701"
       y1="328.92899"
       x2="621.18701"
       y2="369.11499"
       id="line53"
       style="fill:none;stroke:#1a171b;stroke-width:1.73450005;stroke-linecap:round;stroke-linejoin:round;stroke-miterlimit:10" /><line
       stroke-miterlimit="10"
       x1="603.745"
       y1="318.806"
       x2="603.745"
       y2="358.98999"
       id="line55"
       style="fill:none;stroke:#1a171b;stroke-width:1.73450005;stroke-linecap:round;stroke-linejoin:round;stroke-miterlimit:10" /><line
       stroke-miterlimit="10"
       x1="516.55103"
       y1="268.29599"
       x2="516.55103"
       y2="309.06601"
       id="line57"
       style="fill:none;stroke:#1a171b;stroke-width:1.73450005;stroke-linecap:round;stroke-linejoin:round;stroke-miterlimit:10" /><line
       stroke-miterlimit="10"
       x1="533.98499"
       y1="258.539"
       x2="533.98499"
       y2="298.73599"
       id="line59"
       style="fill:none;stroke:#1a171b;stroke-width:1.73450005;stroke-linecap:round;stroke-linejoin:round;stroke-miterlimit:10" /><line
       stroke-miterlimit="10"
       x1="551.43903"
       y1="248.46201"
       x2="551.43903"
       y2="288.53299"
       id="line61"
       style="fill:none;stroke:#1a171b;stroke-width:1.73450005;stroke-linecap:round;stroke-linejoin:round;stroke-miterlimit:10" /><polygon
       stroke-miterlimit="10"
       points="395.15,258.728 395.15,278.82 412.197,289.07 446.998,289.07 446.998,268.986 429.578,258.544 "
       id="polygon63"
       style="fill:#ffffff;stroke:#1a171b;stroke-width:1.73450005;stroke-linecap:round;stroke-linejoin:round;stroke-miterlimit:10" /><line
       stroke-miterlimit="10"
       x1="429.578"
       y1="258.54401"
       x2="429.578"
       y2="288.681"
       id="line65"
       style="fill:none;stroke:#1a171b;stroke-width:1.73450005;stroke-linecap:round;stroke-linejoin:round;stroke-miterlimit:10" /><polygon
       stroke-miterlimit="10"
       points="482.216,188.371 482.216,198.359 499.387,198.359 "
       id="polygon67"
       style="fill:#ffffff;stroke:#1a171b;stroke-width:1.73450005;stroke-linecap:round;stroke-linejoin:round;stroke-miterlimit:10" /><polygon
       stroke-miterlimit="10"
       points="586.179,228.405 499.55,178.362 482.216,188.371 499.55,198.452 464.841,198.27 429.578,218.359 516.576,268.587 533.985,258.539 516.696,248.565 551.439,248.462 "
       id="polygon69"
       style="fill:#b4beff;stroke:#1a171b;stroke-width:1.73450005;stroke-linecap:round;stroke-linejoin:round;stroke-miterlimit:10" /><polygon
       stroke-miterlimit="10"
       points="307.783,288.83 342.581,288.83 359.981,298.873 325.182,318.966 342.58,329.011 377.381,308.919 394.652,318.894 394.781,338.472 359.98,358.564 325.182,358.564 272.982,329.011 272.982,308.921 "
       id="polygon71"
       style="fill:#b4beff;stroke:#1a171b;stroke-width:1.73450005;stroke-linecap:round;stroke-linejoin:round;stroke-miterlimit:10" /><polygon
       stroke-miterlimit="10"
       points="534.19,318.591 568.988,318.591 586.388,328.636 551.589,348.728 568.986,358.773 603.787,338.681 621.058,348.656 621.187,368.234 586.386,388.326 551.589,388.326 499.388,358.773 499.388,338.683 "
       id="polygon73"
       style="fill:#b4beff;stroke:#1a171b;stroke-width:1.73450005;stroke-linecap:round;stroke-linejoin:round;stroke-miterlimit:10" /><polygon
       stroke-miterlimit="10"
       points="568.974,298.794 603.745,318.871 621.187,308.849 621.187,328.921 655.971,349.023 725.57,308.839 690.769,288.75 673.369,298.794 673.369,278.701 638.444,258.539 "
       id="polygon75"
       style="fill:#b4beff;stroke:#1a171b;stroke-width:1.73450005;stroke-linecap:round;stroke-linejoin:round;stroke-miterlimit:10" /><path
       stroke-miterlimit="10"
       d="m 429.58,238.599 -34.799,0 -34.8,20.165 0,20.02 52.069,30.064 34.802,0 34.926,-20.168 0,-19.943 -52.198,-30.138 z m 17.418,50.471 -34.801,0 -17.047,-10.25 0,-20.092 34.428,-0.184 17.42,10.191 0,20.335 z"
       id="path77"
       inkscape:connector-curvature="0"
       style="fill:#b4beff;stroke:#1a171b;stroke-width:1.73450005;stroke-linecap:round;stroke-linejoin:round;stroke-miterlimit:10" /><polygon
       stroke-miterlimit="10"
       points="238.121,208.463 272.918,208.463 307.718,228.553 342.518,208.463 307.719,188.371 307.719,168.278 272.918,148.187 255.953,157.982 255.953,178.218 220.904,178.218 203.319,188.371 "
       id="polygon79"
       style="fill:#b4beff;stroke:#1a171b;stroke-width:1.73450005;stroke-linecap:round;stroke-linejoin:round;stroke-miterlimit:10" /><polygon
       stroke-miterlimit="10"
       points="203.104,208.278 168.578,208.28 116.32,238.451 203.321,288.679 238.122,268.591 203.321,248.499 220.594,238.525 220.594,218.433 "
       id="polygon81"
       style="fill:#b4beff;stroke:#1a171b;stroke-width:1.73450005;stroke-linecap:round;stroke-linejoin:round;stroke-miterlimit:10" /></g></svg>