<?xml version="1.0" encoding="UTF-8" standalone="no"?>
<!-- Generator: Adobe Illustrator 16.0.0, SVG Export Plug-In . SVG Version: 6.00 Build 0)  -->

<svg
   xmlns:dc="http://purl.org/dc/elements/1.1/"
   xmlns:cc="http://creativecommons.org/ns#"
   xmlns:rdf="http://www.w3.org/1999/02/22-rdf-syntax-ns#"
   xmlns:svg="http://www.w3.org/2000/svg"
   xmlns="http://www.w3.org/2000/svg"
   xmlns:xlink="http://www.w3.org/1999/xlink"
   xmlns:sodipodi="http://sodipodi.sourceforge.net/DTD/sodipodi-0.dtd"
   xmlns:inkscape="http://www.inkscape.org/namespaces/inkscape"
   version="1.1"
   x="0px"
   y="0px"
   width="610.98499"
   height="282.65399"
   viewBox="0 0 610.98499 282.65398"
   enable-background="new 0 0 841.891 595.28"
   xml:space="preserve"
   id="svg2"
   inkscape:version="0.91 r13725"
   sodipodi:docname="pyconlogo_grid.svg"><metadata
     id="metadata288"><rdf:RDF><cc:Work
         rdf:about=""><dc:format>image/svg+xml</dc:format><dc:type
           rdf:resource="http://purl.org/dc/dcmitype/StillImage" /><dc:title></dc:title></cc:Work></rdf:RDF></metadata><defs
     id="defs286" /><sodipodi:namedview
     pagecolor="#ffffff"
     bordercolor="#666666"
     borderopacity="1"
     objecttolerance="10"
     gridtolerance="10"
     guidetolerance="10"
     inkscape:pageopacity="0"
     inkscape:pageshadow="2"
     inkscape:window-width="937"
     inkscape:window-height="559"
     id="namedview284"
     showgrid="false"
     inkscape:zoom="0.35396507"
     inkscape:cx="420.9455"
     inkscape:cy="297.64001"
     inkscape:window-x="347"
     inkscape:window-y="34"
     inkscape:window-maximized="0"
     inkscape:current-layer="svg2" /><g
     id="Layer_2"
     transform="translate(0,-312.62603)" /><g
     id="Layer_1"
     transform="translate(-120.45275,-140.3196)"><g
       id="g6"><polygon
         stroke-miterlimit="10"
         points="538.985,291.736 521.578,301.772 434.578,251.544 434.578,211.359 521.551,261.297 538.985,251.538 521.696,241.565 556.439,241.462 591.18,221.405 591.18,261.655 556.363,281.724 538.985,281.68 "
         id="polygon8"
         style="fill:#ffffff;stroke:#231f20;stroke-width:1.73450005;stroke-linecap:round;stroke-linejoin:round;stroke-miterlimit:10" /><polygon
         stroke-miterlimit="10"
         points="626.188,321.922 660.972,342.023 730.57,301.84 730.57,342.023 660.969,382.206 573.988,331.986 573.971,291.794 608.745,311.87 626.188,301.85 "
         id="polygon10"
         style="fill:#ffffff;stroke:#1a171b;stroke-width:1.73450005;stroke-linecap:round;stroke-linejoin:round;stroke-miterlimit:10" /><polygon
         stroke-miterlimit="10"
         points="486.78,281.68 486.78,322.011 451.98,342.102 417.18,342.102 364.981,311.964 364.981,271.783 417.195,301.628 452.462,301.628 "
         id="polygon12"
         style="fill:#ffffff;stroke:#1a171b;stroke-width:1.73450005;stroke-linecap:round;stroke-linejoin:round;stroke-miterlimit:10" /><polygon
         stroke-miterlimit="10"
         points="208.319,181.371 243.121,201.463 277.918,201.463 312.718,221.553 347.519,201.463 347.519,241.646 312.719,261.735 277.918,241.646 243.117,241.646 208.319,221.553 "
         id="polygon14"
         style="fill:#ffffff;stroke:#1a171b;stroke-width:1.73450005;stroke-linecap:round;stroke-linejoin:round;stroke-miterlimit:10" /><g
         id="g16"><polygon
           stroke-miterlimit="10"
           points="121.32,231.452 208.319,281.68 243.121,261.592 243.121,301.919 208.319,322.011 121.32,271.783 "
           id="polygon18"
           style="fill:#ffffff;stroke:#1a171b;stroke-width:1.73450005;stroke-linecap:round;stroke-linejoin:round;stroke-miterlimit:10" /><polygon
           stroke-miterlimit="10"
           points="225.593,231.526 208.319,241.499 225.593,251.764 "
           id="polygon20"
           style="fill:#ffffff;stroke:#1a171b;stroke-width:1.73450005;stroke-linecap:round;stroke-linejoin:round;stroke-miterlimit:10" /></g><g
         id="g22"><polygon
           stroke-miterlimit="10"
           points="399.781,331.472 399.781,372.237 364.981,392.331 330.183,392.331 277.98,362.193 277.982,322.011 330.183,351.563 364.98,351.563 "
           id="polygon24"
           style="fill:#ffffff;stroke:#1a171b;stroke-width:1.73450005;stroke-linecap:round;stroke-linejoin:round;stroke-miterlimit:10" /><polygon
           stroke-miterlimit="10"
           points="364.98,291.875 364.98,311.964 347.58,322.011 330.183,311.966 "
           id="polygon26"
           style="fill:#ffffff;stroke:#1a171b;stroke-width:1.73450005;stroke-linecap:round;stroke-linejoin:round;stroke-miterlimit:10" /></g><g
         id="g28"><polygon
           stroke-miterlimit="10"
           points="626.188,361.233 626.188,402 591.389,422.094 556.589,422.094 504.388,391.955 504.389,351.773 556.589,381.325 591.387,381.325 "
           id="polygon30"
           style="fill:#ffffff;stroke:#1a171b;stroke-width:1.73450005;stroke-linecap:round;stroke-linejoin:round;stroke-miterlimit:10" /><polygon
           stroke-miterlimit="10"
           points="591.387,321.637 591.387,341.726 573.986,351.773 556.589,341.728 "
           id="polygon32"
           style="fill:#ffffff;stroke:#1a171b;stroke-width:1.73450005;stroke-linecap:round;stroke-linejoin:round;stroke-miterlimit:10" /></g><line
         stroke-miterlimit="10"
         x1="208.319"
         y1="281.67999"
         x2="208.319"
         y2="320.56"
         id="line34"
         style="fill:none;stroke:#1a171b;stroke-width:1.73450005;stroke-linecap:round;stroke-linejoin:round;stroke-miterlimit:10" /><line
         stroke-miterlimit="10"
         x1="243.121"
         y1="201.463"
         x2="243.121"
         y2="241.646"
         id="line36"
         style="fill:none;stroke:#1a171b;stroke-width:1.73450005;stroke-linecap:round;stroke-linejoin:round;stroke-miterlimit:10" /><line
         stroke-miterlimit="10"
         x1="277.918"
         y1="201.463"
         x2="277.918"
         y2="241.646"
         id="line38"
         style="fill:none;stroke:#1a171b;stroke-width:1.73450005;stroke-linecap:round;stroke-linejoin:round;stroke-miterlimit:10" /><line
         stroke-miterlimit="10"
         x1="312.71799"
         y1="221.55299"
         x2="312.71799"
         y2="261.73499"
         id="line40"
         style="fill:none;stroke:#1a171b;stroke-width:1.73450005;stroke-linecap:round;stroke-linejoin:round;stroke-miterlimit:10" /><line
         stroke-miterlimit="10"
         x1="330.18301"
         y1="351.56299"
         x2="330.18301"
         y2="392.33099"
         id="line42"
         style="fill:none;stroke:#1a171b;stroke-width:1.73450005;stroke-linecap:round;stroke-linejoin:round;stroke-miterlimit:10" /><line
         stroke-miterlimit="10"
         x1="364.98001"
         y1="351.56299"
         x2="364.98001"
         y2="392.33099"
         id="line44"
         style="fill:none;stroke:#1a171b;stroke-width:1.73450005;stroke-linecap:round;stroke-linejoin:round;stroke-miterlimit:10" /><line
         stroke-miterlimit="10"
         x1="556.58899"
         y1="381.32501"
         x2="556.58899"
         y2="422.09399"
         id="line46"
         style="fill:none;stroke:#1a171b;stroke-width:1.73450005;stroke-linecap:round;stroke-linejoin:round;stroke-miterlimit:10" /><line
         stroke-miterlimit="10"
         x1="591.38702"
         y1="381.32501"
         x2="591.38702"
         y2="422.09399"
         id="line48"
         style="fill:none;stroke:#1a171b;stroke-width:1.73450005;stroke-linecap:round;stroke-linejoin:round;stroke-miterlimit:10" /><line
         stroke-miterlimit="10"
         x1="417.19501"
         y1="301.62799"
         x2="417.19501"
         y2="342.396"
         id="line50"
         style="fill:none;stroke:#1a171b;stroke-width:1.73450005;stroke-linecap:round;stroke-linejoin:round;stroke-miterlimit:10" /><line
         stroke-miterlimit="10"
         x1="452.46201"
         y1="301.62799"
         x2="452.46201"
         y2="342.396"
         id="line52"
         style="fill:none;stroke:#1a171b;stroke-width:1.73450005;stroke-linecap:round;stroke-linejoin:round;stroke-miterlimit:10" /><line
         stroke-miterlimit="10"
         x1="660.96899"
         y1="342.022"
         x2="660.96899"
         y2="382.20599"
         id="line54"
         style="fill:none;stroke:#1a171b;stroke-width:1.73450005;stroke-linecap:round;stroke-linejoin:round;stroke-miterlimit:10" /><line
         stroke-miterlimit="10"
         x1="626.18799"
         y1="321.92999"
         x2="626.18799"
         y2="362.11401"
         id="line56"
         style="fill:none;stroke:#1a171b;stroke-width:1.73450005;stroke-linecap:round;stroke-linejoin:round;stroke-miterlimit:10" /><line
         stroke-miterlimit="10"
         x1="608.745"
         y1="311.806"
         x2="608.745"
         y2="351.98999"
         id="line58"
         style="fill:none;stroke:#1a171b;stroke-width:1.73450005;stroke-linecap:round;stroke-linejoin:round;stroke-miterlimit:10" /><line
         stroke-miterlimit="10"
         x1="521.55103"
         y1="261.297"
         x2="521.55103"
         y2="302.065"
         id="line60"
         style="fill:none;stroke:#1a171b;stroke-width:1.73450005;stroke-linecap:round;stroke-linejoin:round;stroke-miterlimit:10" /><line
         stroke-miterlimit="10"
         x1="538.98499"
         y1="251.53799"
         x2="538.98499"
         y2="291.73599"
         id="line62"
         style="fill:none;stroke:#1a171b;stroke-width:1.73450005;stroke-linecap:round;stroke-linejoin:round;stroke-miterlimit:10" /><line
         stroke-miterlimit="10"
         x1="556.43903"
         y1="241.46201"
         x2="556.43903"
         y2="281.53201"
         id="line64"
         style="fill:none;stroke:#1a171b;stroke-width:1.73450005;stroke-linecap:round;stroke-linejoin:round;stroke-miterlimit:10" /><polygon
         stroke-miterlimit="10"
         points="451.998,261.986 434.578,251.544 400.15,251.729 400.15,271.82 417.197,282.069 451.998,282.069 "
         id="polygon66"
         style="fill:#ffffff;stroke:#1a171b;stroke-width:1.73450005;stroke-linecap:round;stroke-linejoin:round;stroke-miterlimit:10" /><line
         stroke-miterlimit="10"
         x1="434.578"
         y1="251.54401"
         x2="434.578"
         y2="281.68201"
         id="line68"
         style="fill:none;stroke:#1a171b;stroke-width:1.73450005;stroke-linecap:round;stroke-linejoin:round;stroke-miterlimit:10" /><polygon
         stroke-miterlimit="10"
         points="487.216,191.359 504.388,191.359 487.216,181.371 "
         id="polygon70"
         style="fill:#ffffff;stroke:#1a171b;stroke-width:1.73450005;stroke-linecap:round;stroke-linejoin:round;stroke-miterlimit:10" /><polygon
         stroke-miterlimit="10"
         points="521.576,261.588 538.985,251.538 521.696,241.565 556.439,241.462 591.18,221.405 504.55,171.362 487.216,181.371 504.55,191.452 469.841,191.27 434.578,211.359 "
         id="polygon72"
         style="fill:#ffffff;stroke:#1a171b;stroke-width:1.73450005;stroke-linecap:round;stroke-linejoin:round;stroke-miterlimit:10" /><polygon
         stroke-miterlimit="10"
         points="277.982,322.011 277.982,301.921 312.783,281.829 347.581,281.829 364.981,291.873 330.183,311.966 347.58,322.011 382.381,301.919 399.652,311.895 399.781,331.472 364.98,351.563 330.183,351.563 "
         id="polygon74"
         style="fill:#ffffff;stroke:#1a171b;stroke-width:1.73450005;stroke-linecap:round;stroke-linejoin:round;stroke-miterlimit:10" /><polygon
         stroke-miterlimit="10"
         points="504.389,351.773 504.389,331.683 539.19,311.591 573.988,311.591 591.389,321.636 556.589,341.728 573.986,351.773 608.787,331.682 626.059,341.656 626.188,361.233 591.387,381.325 556.589,381.325 "
         id="polygon76"
         style="fill:#ffffff;stroke:#1a171b;stroke-width:1.73450005;stroke-linecap:round;stroke-linejoin:round;stroke-miterlimit:10" /><polygon
         stroke-miterlimit="10"
         points="695.77,281.749 678.369,291.794 678.369,271.7 643.444,251.538 573.975,291.794 608.745,311.87 626.188,301.85 626.188,321.922 660.972,342.023 730.57,301.84 "
         id="polygon78"
         style="fill:#ffffff;stroke:#1a171b;stroke-width:1.73450005;stroke-linecap:round;stroke-linejoin:round;stroke-miterlimit:10" /><path
         stroke-miterlimit="10"
         d="m 434.58,231.599 -34.799,0 -34.8,20.165 0,20.02 52.069,30.063 34.802,0 34.926,-20.167 0,-19.944 -52.198,-30.137 z m 17.418,50.47 -34.801,0 -17.047,-10.249 0,-20.092 34.428,-0.185 17.42,10.191 0,20.335 z"
         id="path80"
         inkscape:connector-curvature="0"
         style="fill:#ffffff;stroke:#1a171b;stroke-width:1.73450005;stroke-linecap:round;stroke-linejoin:round;stroke-miterlimit:10" /><polygon
         stroke-miterlimit="10"
         points="225.904,171.218 208.319,181.371 243.121,201.463 277.918,201.463 312.718,221.553 347.519,201.463 312.719,181.371 312.719,161.278 277.918,141.187 260.953,150.982 260.953,171.218 "
         id="polygon82"
         style="fill:#ffffff;stroke:#1a171b;stroke-width:1.73450005;stroke-linecap:round;stroke-linejoin:round;stroke-miterlimit:10" /><polygon
         stroke-miterlimit="10"
         points="121.32,231.451 208.32,281.68 243.122,261.591 208.32,241.499 225.594,231.525 225.594,211.433 208.104,201.278 173.578,201.28 "
         id="polygon84"
         style="fill:#ffffff;stroke:#1a171b;stroke-width:1.73450005;stroke-linecap:round;stroke-linejoin:round;stroke-miterlimit:10" /><g
         id="g86"><defs
           id="defs88"><polygon
             id="SVGID_7_"
             points="521.576,261.588 538.985,251.538 521.696,241.565 556.439,241.462 591.18,221.405 504.55,171.362 487.216,181.371 504.55,191.452 469.841,191.27 434.578,211.359 " /></defs><clipPath
           id="SVGID_2_"><use
             xlink:href="#SVGID_7_"
             overflow="visible"
             id="use92"
             style="overflow:visible"
             x="0"
             y="0"
             width="100%"
             height="100%" /></clipPath><g
           clip-path="url(#SVGID_2_)"
           id="g94"><path
             stroke-miterlimit="10"
             d="m 442.22,195.262 c 46.779,27.008 91.887,53.051 134.584,77.702"
             id="path96"
             inkscape:connector-curvature="0"
             style="fill:none;stroke:#eb718b;stroke-width:0.5;stroke-miterlimit:10" /><path
             stroke-miterlimit="10"
             d="m 460.366,185.628 c 47.442,27.391 93.097,53.75 136.182,78.625"
             id="path98"
             inkscape:connector-curvature="0"
             style="fill:none;stroke:#eb718b;stroke-width:0.5;stroke-miterlimit:10" /><path
             stroke-miterlimit="10"
             d="m 473.863,173.31 c 44.91,25.93 88.187,50.916 129.16,74.573"
             id="path100"
             inkscape:connector-curvature="0"
             style="fill:none;stroke:#eb718b;stroke-width:0.5;stroke-miterlimit:10" /><path
             stroke-miterlimit="10"
             d="m 447.85,223.789 c 27.661,-15.97 54.861,-31.674 81.46,-47.031"
             id="path102"
             inkscape:connector-curvature="0"
             style="fill:none;stroke:#eb718b;stroke-width:0.5;stroke-miterlimit:10" /><path
             stroke-miterlimit="10"
             d="m 465.727,233.575 c 27.928,-16.125 55.367,-31.967 82.171,-47.442"
             id="path104"
             inkscape:connector-curvature="0"
             style="fill:none;stroke:#eb718b;stroke-width:0.5;stroke-miterlimit:10" /><path
             stroke-miterlimit="10"
             d="m 482.582,243.95 c 28.778,-16.615 57.019,-32.92 84.558,-48.82"
             id="path106"
             inkscape:connector-curvature="0"
             style="fill:none;stroke:#eb718b;stroke-width:0.5;stroke-miterlimit:10" /><path
             stroke-miterlimit="10"
             d="m 499.902,254.059 c 28.82,-16.64 57.08,-32.956 84.614,-48.853"
             id="path108"
             inkscape:connector-curvature="0"
             style="fill:none;stroke:#eb718b;stroke-width:0.5;stroke-miterlimit:10" /></g><use
           xlink:href="#SVGID_7_"
           overflow="visible"
           stroke-miterlimit="10"
           id="use110"
           style="overflow:visible;fill:none;stroke:#eb718b;stroke-width:0.5;stroke-miterlimit:10"
           x="0"
           y="0"
           width="100%"
           height="100%" /></g><g
         id="g112"><defs
           id="defs114"><polygon
             id="SVGID_9_"
             points="277.982,322.011 277.982,301.921 312.783,281.829 347.581,281.829 364.981,291.873 330.183,311.966 347.58,322.011 382.381,301.919 399.652,311.895 399.781,331.472 364.98,351.563 330.183,351.563 " /></defs><clipPath
           id="SVGID_4_"><use
             xlink:href="#SVGID_9_"
             overflow="visible"
             id="use118"
             style="overflow:visible"
             x="0"
             y="0"
             width="100%"
             height="100%" /></clipPath><g
           clip-path="url(#SVGID_4_)"
           id="g120"><path
             stroke-miterlimit="10"
             d="m 272.807,298.554 c 34.135,19.708 67.65,39.058 100.29,57.903"
             id="path122"
             inkscape:connector-curvature="0"
             style="fill:none;stroke:#eb718b;stroke-width:0.5;stroke-miterlimit:10" /><path
             stroke-miterlimit="10"
             d="m 288.243,287.353 c 35.683,20.601 70.667,40.799 104.656,60.423"
             id="path124"
             inkscape:connector-curvature="0"
             style="fill:none;stroke:#eb718b;stroke-width:0.5;stroke-miterlimit:10" /><path
             stroke-miterlimit="10"
             d="m 302.275,275.343 c 34.779,20.08 68.879,39.767 102.022,58.903"
             id="path126"
             inkscape:connector-curvature="0"
             style="fill:none;stroke:#eb718b;stroke-width:0.5;stroke-miterlimit:10" /><path
             stroke-miterlimit="10"
             d="m 270.895,325.955 c 28.918,-16.696 57.67,-33.296 86.114,-49.719"
             id="path128"
             inkscape:connector-curvature="0"
             style="fill:none;stroke:#eb718b;stroke-width:0.5;stroke-miterlimit:10" /><path
             stroke-miterlimit="10"
             d="m 289.137,335.53 c 26.965,-15.568 53.771,-31.045 80.306,-46.365"
             id="path130"
             inkscape:connector-curvature="0"
             style="fill:none;stroke:#eb718b;stroke-width:0.5;stroke-miterlimit:10" /><path
             stroke-miterlimit="10"
             d="m 304.492,346.771 c 28.999,-16.743 57.803,-33.373 86.27,-49.808"
             id="path132"
             inkscape:connector-curvature="0"
             style="fill:none;stroke:#eb718b;stroke-width:0.5;stroke-miterlimit:10" /><path
             stroke-miterlimit="10"
             d="M 325.524,354.737 C 353.23,338.74 380.74,322.858 407.927,307.161"
             id="path134"
             inkscape:connector-curvature="0"
             style="fill:none;stroke:#eb718b;stroke-width:0.5;stroke-miterlimit:10" /></g><use
           xlink:href="#SVGID_9_"
           overflow="visible"
           stroke-miterlimit="10"
           id="use136"
           style="overflow:visible;fill:none;stroke:#eb718b;stroke-width:0.5;stroke-miterlimit:10"
           x="0"
           y="0"
           width="100%"
           height="100%" /></g><g
         id="g138"><defs
           id="defs140"><polygon
             id="SVGID_11_"
             points="504.389,351.773 504.389,331.683 539.19,311.591 573.988,311.591 591.389,321.636 556.589,341.728 573.986,351.773 608.787,331.682 626.059,341.656 626.188,361.233 591.387,381.325 556.589,381.325 " /></defs><clipPath
           id="SVGID_6_"><use
             xlink:href="#SVGID_11_"
             overflow="visible"
             id="use144"
             style="overflow:visible"
             x="0"
             y="0"
             width="100%"
             height="100%" /></clipPath><g
           clip-path="url(#SVGID_6_)"
           id="g146"><path
             stroke-miterlimit="10"
             d="m 496.051,326.889 c 47.889,27.649 93.176,53.795 134.908,77.89"
             id="path148"
             inkscape:connector-curvature="0"
             style="fill:none;stroke:#eb718b;stroke-width:0.5;stroke-miterlimit:10" /><path
             stroke-miterlimit="10"
             d="m 514.64,317.511 c 43.543,25.139 84.846,48.985 123.177,71.116"
             id="path150"
             inkscape:connector-curvature="0"
             style="fill:none;stroke:#eb718b;stroke-width:0.5;stroke-miterlimit:10" /><path
             stroke-miterlimit="10"
             d="m 530.096,306.323 c 43.61,25.178 84.911,49.023 123.156,71.104"
             id="path152"
             inkscape:connector-curvature="0"
             style="fill:none;stroke:#eb718b;stroke-width:0.5;stroke-miterlimit:10" /><path
             stroke-miterlimit="10"
             d="m 481.944,364.976 c 33.913,-19.581 67.241,-38.823 99.732,-57.583"
             id="path154"
             inkscape:connector-curvature="0"
             style="fill:none;stroke:#eb718b;stroke-width:0.5;stroke-miterlimit:10" /><path
             stroke-miterlimit="10"
             d="m 494.539,377.827 c 35.696,-20.609 70.73,-40.836 104.811,-60.512"
             id="path156"
             inkscape:connector-curvature="0"
             style="fill:none;stroke:#eb718b;stroke-width:0.5;stroke-miterlimit:10" /><path
             stroke-miterlimit="10"
             d="m 516.063,385.54 c 35.271,-20.363 69.855,-40.33 103.466,-59.735"
             id="path158"
             inkscape:connector-curvature="0"
             style="fill:none;stroke:#eb718b;stroke-width:0.5;stroke-miterlimit:10" /><path
             stroke-miterlimit="10"
             d="m 531.23,396.894 c 36.271,-20.941 71.794,-41.45 106.254,-61.345"
             id="path160"
             inkscape:connector-curvature="0"
             style="fill:none;stroke:#eb718b;stroke-width:0.5;stroke-miterlimit:10" /></g><use
           xlink:href="#SVGID_11_"
           overflow="visible"
           stroke-miterlimit="10"
           id="use162"
           style="overflow:visible;fill:none;stroke:#eb718b;stroke-width:0.5;stroke-miterlimit:10"
           x="0"
           y="0"
           width="100%"
           height="100%" /></g><g
         id="g164"><defs
           id="defs166"><polygon
             id="SVGID_13_"
             points="695.77,281.749 678.369,291.794 678.369,271.7 643.444,251.538 573.975,291.794 608.745,311.87 626.188,301.85 626.188,321.922 660.972,342.023 730.57,301.84 " /></defs><clipPath
           id="SVGID_8_"><use
             xlink:href="#SVGID_13_"
             overflow="visible"
             id="use170"
             style="overflow:visible"
             x="0"
             y="0"
             width="100%"
             height="100%" /></clipPath><g
           clip-path="url(#SVGID_8_)"
           id="g172"><path
             stroke-miterlimit="10"
             d="m 582.572,276.294 c 36.859,21.281 71.88,41.5 104.578,60.379"
             id="path174"
             inkscape:connector-curvature="0"
             style="fill:none;stroke:#eb718b;stroke-width:0.5;stroke-miterlimit:10" /><path
             stroke-miterlimit="10"
             d="m 597.795,264.974 c 37.756,21.799 73.528,42.453 106.79,61.656"
             id="path176"
             inkscape:connector-curvature="0"
             style="fill:none;stroke:#eb718b;stroke-width:0.5;stroke-miterlimit:10" /><path
             stroke-miterlimit="10"
             d="m 618.904,257.052 c 36.627,21.147 71.287,41.159 103.48,59.746"
             id="path178"
             inkscape:connector-curvature="0"
             style="fill:none;stroke:#eb718b;stroke-width:0.5;stroke-miterlimit:10" /><path
             stroke-miterlimit="10"
             d="m 587.578,303.986 c 27.586,-15.927 54.554,-31.498 80.749,-46.622"
             id="path180"
             inkscape:connector-curvature="0"
             style="fill:none;stroke:#eb718b;stroke-width:0.5;stroke-miterlimit:10" /><path
             stroke-miterlimit="10"
             d="m 612.499,309.724 c 25.768,-14.877 50.96,-29.421 75.445,-43.558"
             id="path182"
             inkscape:connector-curvature="0"
             style="fill:none;stroke:#eb718b;stroke-width:0.5;stroke-miterlimit:10" /><path
             stroke-miterlimit="10"
             d="m 623.622,323.442 c 27.796,-16.047 54.914,-31.704 81.192,-46.875"
             id="path184"
             inkscape:connector-curvature="0"
             style="fill:none;stroke:#eb718b;stroke-width:0.5;stroke-miterlimit:10" /><path
             stroke-miterlimit="10"
             d="m 640,334.096 c 27.873,-16.093 55.045,-31.78 81.347,-46.965"
             id="path186"
             inkscape:connector-curvature="0"
             style="fill:none;stroke:#eb718b;stroke-width:0.5;stroke-miterlimit:10" /></g><use
           xlink:href="#SVGID_13_"
           overflow="visible"
           stroke-miterlimit="10"
           id="use188"
           style="overflow:visible;fill:none;stroke:#eb718b;stroke-width:0.5;stroke-miterlimit:10"
           x="0"
           y="0"
           width="100%"
           height="100%" /></g><g
         id="g190"><defs
           id="defs192"><path
             id="SVGID_15_"
             d="m 434.58,231.599 -34.799,0 -34.8,20.165 0,20.02 52.069,30.063 34.802,0 34.926,-20.167 0,-19.944 -52.198,-30.137 z m 17.418,50.47 -34.801,0 -17.047,-10.249 0,-20.092 34.428,-0.185 17.42,10.191 0,20.335 z"
             inkscape:connector-curvature="0" /></defs><clipPath
           id="SVGID_10_"><use
             xlink:href="#SVGID_15_"
             overflow="visible"
             id="use196"
             style="overflow:visible"
             x="0"
             y="0"
             width="100%"
             height="100%" /></clipPath><g
           clip-path="url(#SVGID_10_)"
           id="g198"><path
             stroke-miterlimit="10"
             d="m 357.62,246.967 c 46.71,26.968 92.021,53.128 135.239,78.08"
             id="path200"
             inkscape:connector-curvature="0"
             style="fill:none;stroke:#eb718b;stroke-width:0.5;stroke-miterlimit:10" /><path
             stroke-miterlimit="10"
             d="m 373.979,236.3 c 47.751,27.569 93.991,54.266 137.971,79.657"
             id="path202"
             inkscape:connector-curvature="0"
             style="fill:none;stroke:#eb718b;stroke-width:0.5;stroke-miterlimit:10" /><path
             stroke-miterlimit="10"
             d="m 394.223,227.877 c 46.514,26.854 91.52,52.839 134.316,77.547"
             id="path204"
             inkscape:connector-curvature="0"
             style="fill:none;stroke:#eb718b;stroke-width:0.5;stroke-miterlimit:10" /><path
             stroke-miterlimit="10"
             d="m 360.911,273.983 c 27.884,-16.099 55.467,-32.024 82.614,-47.698"
             id="path206"
             inkscape:connector-curvature="0"
             style="fill:none;stroke:#eb718b;stroke-width:0.5;stroke-miterlimit:10" /><path
             stroke-miterlimit="10"
             d="m 380.365,282.859 c 26.822,-15.486 53.35,-30.802 79.459,-45.876"
             id="path208"
             inkscape:connector-curvature="0"
             style="fill:none;stroke:#eb718b;stroke-width:0.5;stroke-miterlimit:10" /><path
             stroke-miterlimit="10"
             d="m 394.01,295.088 c 27.985,-16.158 55.64,-32.124 82.825,-47.82"
             id="path210"
             inkscape:connector-curvature="0"
             style="fill:none;stroke:#eb718b;stroke-width:0.5;stroke-miterlimit:10" /><path
             stroke-miterlimit="10"
             d="m 409.887,306.03 c 28.343,-16.364 56.333,-32.524 83.826,-48.397"
             id="path212"
             inkscape:connector-curvature="0"
             style="fill:none;stroke:#eb718b;stroke-width:0.5;stroke-miterlimit:10" /></g><use
           xlink:href="#SVGID_15_"
           overflow="visible"
           stroke-miterlimit="10"
           id="use214"
           style="overflow:visible;fill:none;stroke:#eb718b;stroke-width:0.5;stroke-miterlimit:10"
           x="0"
           y="0"
           width="100%"
           height="100%" /></g><g
         id="g216"><defs
           id="defs218"><polygon
             id="SVGID_17_"
             points="225.904,171.218 208.319,181.371 243.121,201.463 277.918,201.463 312.718,221.553 347.519,201.463 312.719,181.371 312.719,161.278 277.918,141.187 260.953,150.982 260.953,171.218 " /></defs><clipPath
           id="SVGID_12_"><use
             xlink:href="#SVGID_17_"
             overflow="visible"
             id="use222"
             style="overflow:visible"
             x="0"
             y="0"
             width="100%"
             height="100%" /></clipPath><g
           clip-path="url(#SVGID_12_)"
           id="g224"><path
             stroke-miterlimit="10"
             d="m 219.324,167.122 c 46.457,26.822 92.251,53.261 136.781,78.97"
             id="path226"
             inkscape:connector-curvature="0"
             style="fill:none;stroke:#eb718b;stroke-width:0.5;stroke-miterlimit:10" /><path
             stroke-miterlimit="10"
             d="m 231.202,153.869 c 47.483,27.414 94.258,54.419 139.683,80.646"
             id="path228"
             inkscape:connector-curvature="0"
             style="fill:none;stroke:#eb718b;stroke-width:0.5;stroke-miterlimit:10" /><path
             stroke-miterlimit="10"
             d="m 249.081,144.08 c 48.108,27.775 95.445,55.105 141.338,81.601"
             id="path230"
             inkscape:connector-curvature="0"
             style="fill:none;stroke:#eb718b;stroke-width:0.5;stroke-miterlimit:10" /><path
             stroke-miterlimit="10"
             d="m 218.533,195.281 c 27.583,-15.925 54.988,-31.748 82.094,-47.397"
             id="path232"
             inkscape:connector-curvature="0"
             style="fill:none;stroke:#eb718b;stroke-width:0.5;stroke-miterlimit:10" /><path
             stroke-miterlimit="10"
             d="m 236.625,204.952 c 28.84,-16.651 57.47,-33.181 85.748,-49.508"
             id="path234"
             inkscape:connector-curvature="0"
             style="fill:none;stroke:#eb718b;stroke-width:0.5;stroke-miterlimit:10" /><path
             stroke-miterlimit="10"
             d="m 253.078,215.559 c 26.638,-15.379 53.084,-30.648 79.229,-45.743"
             id="path236"
             inkscape:connector-curvature="0"
             style="fill:none;stroke:#eb718b;stroke-width:0.5;stroke-miterlimit:10" /><path
             stroke-miterlimit="10"
             d="m 271.805,224.866 c 28.826,-16.643 57.412,-33.147 85.614,-49.43"
             id="path238"
             inkscape:connector-curvature="0"
             style="fill:none;stroke:#eb718b;stroke-width:0.5;stroke-miterlimit:10" /></g><use
           xlink:href="#SVGID_17_"
           overflow="visible"
           stroke-miterlimit="10"
           id="use240"
           style="overflow:visible;fill:none;stroke:#eb718b;stroke-width:0.5;stroke-miterlimit:10"
           x="0"
           y="0"
           width="100%"
           height="100%" /></g><g
         id="g242"><defs
           id="defs244"><polygon
             id="SVGID_19_"
             points="121.32,231.451 208.32,281.68 243.122,261.591 208.32,241.499 225.594,231.525 225.594,211.433 208.104,201.278 173.578,201.28 " /></defs><clipPath
           id="SVGID_14_"><use
             xlink:href="#SVGID_19_"
             overflow="visible"
             id="use248"
             style="overflow:visible"
             x="0"
             y="0"
             width="100%"
             height="100%" /></clipPath><g
           clip-path="url(#SVGID_14_)"
           id="g250"><path
             stroke-miterlimit="10"
             d="m 130.435,216.355 c 45.409,26.217 90.377,52.179 134.357,77.571"
             id="path252"
             inkscape:connector-curvature="0"
             style="fill:none;stroke:#eb718b;stroke-width:0.5;stroke-miterlimit:10" /><path
             stroke-miterlimit="10"
             d="m 147.68,206.198 c 44.724,25.821 88.985,51.376 132.26,76.36"
             id="path254"
             inkscape:connector-curvature="0"
             style="fill:none;stroke:#eb718b;stroke-width:0.5;stroke-miterlimit:10" /><path
             stroke-miterlimit="10"
             d="m 164.114,195.576 c 46.41,26.795 92.289,53.283 137.048,79.125"
             id="path256"
             inkscape:connector-curvature="0"
             style="fill:none;stroke:#eb718b;stroke-width:0.5;stroke-miterlimit:10" /><path
             stroke-miterlimit="10"
             d="m 131.98,245.252 c 28.428,-16.413 56.804,-32.795 84.996,-49.073"
             id="path258"
             inkscape:connector-curvature="0"
             style="fill:none;stroke:#eb718b;stroke-width:0.5;stroke-miterlimit:10" /><path
             stroke-miterlimit="10"
             d="m 144.453,258.168 c 29.386,-16.966 58.709,-33.896 87.826,-50.708"
             id="path260"
             inkscape:connector-curvature="0"
             style="fill:none;stroke:#eb718b;stroke-width:0.5;stroke-miterlimit:10" /><path
             stroke-miterlimit="10"
             d="m 161.83,268.242 c 29.328,-16.933 58.581,-33.822 87.614,-50.584"
             id="path262"
             inkscape:connector-curvature="0"
             style="fill:none;stroke:#eb718b;stroke-width:0.5;stroke-miterlimit:10" /><path
             stroke-miterlimit="10"
             d="m 181.5,277.004 c 27.928,-16.125 55.771,-32.2 83.403,-48.154"
             id="path264"
             inkscape:connector-curvature="0"
             style="fill:none;stroke:#eb718b;stroke-width:0.5;stroke-miterlimit:10" /></g><use
           xlink:href="#SVGID_19_"
           overflow="visible"
           stroke-miterlimit="10"
           id="use266"
           style="overflow:visible;fill:none;stroke:#eb718b;stroke-width:0.5;stroke-miterlimit:10"
           x="0"
           y="0"
           width="100%"
           height="100%" /></g><g
         id="g268"><polygon
           stroke-miterlimit="10"
           points="521.576,261.588 538.985,251.538 521.696,241.565 556.439,241.462 591.18,221.405 504.55,171.362 487.216,181.371 504.55,191.452 469.841,191.27 434.578,211.359 "
           id="polygon270"
           style="fill:none;stroke:#1a171b;stroke-width:1.73450005;stroke-linecap:round;stroke-linejoin:round;stroke-miterlimit:10" /><polygon
           stroke-miterlimit="10"
           points="277.982,322.011 277.982,301.921 312.783,281.829 347.581,281.829 364.981,291.873 330.183,311.966 347.58,322.011 382.381,301.919 399.652,311.895 399.781,331.472 364.98,351.563 330.183,351.563 "
           id="polygon272"
           style="fill:none;stroke:#1a171b;stroke-width:1.73450005;stroke-linecap:round;stroke-linejoin:round;stroke-miterlimit:10" /><polygon
           stroke-miterlimit="10"
           points="504.389,351.773 504.389,331.683 539.19,311.591 573.988,311.591 591.389,321.636 556.589,341.728 573.986,351.773 608.787,331.682 626.059,341.656 626.188,361.233 591.387,381.325 556.589,381.325 "
           id="polygon274"
           style="fill:none;stroke:#1a171b;stroke-width:1.73450005;stroke-linecap:round;stroke-linejoin:round;stroke-miterlimit:10" /><polygon
           stroke-miterlimit="10"
           points="695.77,281.749 678.369,291.794 678.369,271.7 643.444,251.538 573.975,291.794 608.745,311.87 626.188,301.85 626.188,321.922 660.972,342.023 730.57,301.84 "
           id="polygon276"
           style="fill:none;stroke:#1a171b;stroke-width:1.73450005;stroke-linecap:round;stroke-linejoin:round;stroke-miterlimit:10" /><path
           stroke-miterlimit="10"
           d="m 434.58,231.599 -34.799,0 -34.8,20.165 0,20.02 52.069,30.063 34.802,0 34.926,-20.167 0,-19.944 -52.198,-30.137 z m 17.418,50.47 -34.801,0 -17.047,-10.249 0,-20.092 34.428,-0.185 17.42,10.191 0,20.335 z"
           id="path278"
           inkscape:connector-curvature="0"
           style="fill:none;stroke:#1a171b;stroke-width:1.73450005;stroke-linecap:round;stroke-linejoin:round;stroke-miterlimit:10" /><polygon
           stroke-miterlimit="10"
           points="225.904,171.218 208.319,181.371 243.121,201.463 277.918,201.463 312.718,221.553 347.519,201.463 312.719,181.371 312.719,161.278 277.918,141.187 260.953,150.982 260.953,171.218 "
           id="polygon280"
           style="fill:none;stroke:#1a171b;stroke-width:1.73450005;stroke-linecap:round;stroke-linejoin:round;stroke-miterlimit:10" /><polygon
           stroke-miterlimit="10"
           points="121.32,231.451 208.32,281.68 243.122,261.591 208.32,241.499 225.594,231.525 225.594,211.433 208.104,201.278 173.578,201.28 "
           id="polygon282"
           style="fill:none;stroke:#1a171b;stroke-width:1.73450005;stroke-linecap:round;stroke-linejoin:round;stroke-miterlimit:10" /></g></g></g></svg>