<?xml version="1.0" encoding="UTF-8" standalone="no"?>
<svg
   xmlns:dc="http://purl.org/dc/elements/1.1/"
   xmlns:cc="http://creativecommons.org/ns#"
   xmlns:rdf="http://www.w3.org/1999/02/22-rdf-syntax-ns#"
   xmlns:svg="http://www.w3.org/2000/svg"
   xmlns="http://www.w3.org/2000/svg"
   xmlns:sodipodi="http://sodipodi.sourceforge.net/DTD/sodipodi-0.dtd"
   xmlns:inkscape="http://www.inkscape.org/namespaces/inkscape"
   width="320"
   height="320"
   viewBox="0 0 320 320"
   id="svg4184"
   version="1.1"
   inkscape:version="0.91 r13725"
   sodipodi:docname="icon-320px.svg"
   inkscape:export-filename="C:\work\_pyvec\cz.pycon.org-2017\pyconcz_2017\static\img\favicon\src\icon-320px.png"
   inkscape:export-xdpi="90"
   inkscape:export-ydpi="90">
  <metadata
     id="metadata38">
    <rdf:RDF>
      <cc:Work
         rdf:about="">
        <dc:format>image/svg+xml</dc:format>
        <dc:type
           rdf:resource="http://purl.org/dc/dcmitype/StillImage" />
        <dc:title></dc:title>
      </cc:Work>
    </rdf:RDF>
  </metadata>
  <defs
     id="defs36" />
  <sodipodi:namedview
     pagecolor="#ffffff"
     bordercolor="#666666"
     borderopacity="1"
     objecttolerance="10"
     gridtolerance="10"
     guidetolerance="10"
     inkscape:pageopacity="0"
     inkscape:pageshadow="2"
     inkscape:window-width="1816"
     inkscape:window-height="1057"
     id="namedview34"
     showgrid="false"
     fit-margin-top="1"
     fit-margin-left="1"
     fit-margin-right="1"
     fit-margin-bottom="1"
     inkscape:zoom="2.0980392"
     inkscape:cx="61.937023"
     inkscape:cy="165.90979"
     inkscape:window-x="-8"
     inkscape:window-y="1192"
     inkscape:window-maximized="1"
     inkscape:current-layer="svg4184" />
  <style
     id="style4189">
    /*
<![CDATA[ */
    path{stroke-linecap:butt;stroke-linejoin:round;stroke-miterlimit:4;stroke-opacity:1}
    .border{stroke:#1a171b;stroke-width:1.5;}
    .frame{fill:transparent;}
    .side{fill:#fff;}
    .top{fill:#82e1e0;}
    svg:hover .top{fill:white;}
    .grid{stroke:#b800cc;stroke-width:0.5;display:none;}
    svg:hover .grid{display:block;}
    /*.left{fill:#d4d4d4;}
    .front{fill:#e4e4e4;}
    .right{fill:#fcfcfc;}*/
    /* ]]>
    */
  </style>
  <path
     id="path4235"
     style="fill:#ffffff;stroke:#1a171b;stroke-width:2;stroke-linecap:butt;stroke-linejoin:round;stroke-miterlimit:4;stroke-opacity:1"
     d="m 269.40519,148.92406 48.60802,-28.06466 0,56.12964 -48.60802,28.06449 0,-56.12947 m -121.52433,14.03242 0,56.12904 -24.30409,14.03267 0,-56.12915 z m -24.30409,126.29117 48.60772,-28.06478 0,-56.12934 -48.60772,28.06466 z m 48.60938,-112.25861 48.60811,0 0,-56.12964 -48.60811,0 0,56.12964 m 48.60953,0 48.60815,28.06449 0,-56.12947 -48.60815,-28.06466 0,56.12964 m -97.21891,-84.19439 0,56.12941 48.60772,28.06498 0,-56.12964 z m -121.5243442,70.16183 0,56.12904 121.5243442,70.16213 0,-56.12946 z"
     inkscape:connector-curvature="0" />
  <path
     id="path4178"
     style="fill:#82e1e0;fill-opacity:1;stroke:#1a171b;stroke-width:2;stroke-linecap:butt;stroke-linejoin:round;stroke-miterlimit:4;stroke-opacity:1"
     d="m 123.57677,92.79465 48.60772,28.06475 48.61119,0 48.60815,28.06466 48.61085,-28.06466 -48.60813,-28.06475 0,-28.06471 -48.61229,-28.06469 -24.30401,14.032421 0,28.064684 -48.6108,0 z M 2.0524258,162.95648 74.967323,120.8594 l 48.608017,0 24.30411,14.03254 0,28.06454 -24.30411,14.03256 48.61081,28.06449 -48.60801,28.06466 z"
     inkscape:connector-curvature="0" />
</svg>
