<svg xmlns="http://www.w3.org/2000/svg" viewBox="0 0 1200 412">
  <path fill="#fff" d="M413.55 215.8a81 81 0 0 0-53.57-76.38 114.8 114.8 0 0 0 2.16-22.11c0-64.12-52.17-116.29-116.3-116.29-37.45 0-72.3 17.97-94.2 48.24a61.5 61.5 0 0 0-37.78-12.93A61.8 61.8 0 0 0 56 119.57c-32 11.54-54 42.4-54 76.68a81.07 81.07 0 0 0 53.82 76.6 117.98 117.98 0 0 0-2.12 22.11c0 63.97 52.04 116.02 116.01 116.02 37.55 0 72.38-18.04 94.15-48.44a61.2 61.2 0 0 0 37.83 13.18 61.79 61.79 0 0 0 57.87-83.23c32-11.54 54-42.41 54-76.69"/>
  <path fill="#facf09" d="M163.8 177.58l90.06 41.06 90.86-79.61a100.63 100.63 0 0 0 1.95-19.97c0-56.02-45.56-101.59-101.57-101.59-33.51 0-64.77 16.5-83.76 44.17l-15.12 78.4 17.58 37.54"/>
  <path fill="#49c1ae" d="M70.59 272.94a103.37 103.37 0 0 0-2 20.28c0 56.15 45.7 101.85 101.87 101.85 33.78 0 65.2-16.66 84.16-44.6l15-78.15-20.02-38.25-90.4-41.2-88.61 80.07"/>
  <path fill="#ef299b" d="M70.02 117.1l61.71 14.57 13.52-70.17a48.69 48.69 0 0 0-78.18 38.67c0 5.93.99 11.6 2.95 16.93"/>
  <path fill="#4cabe4" d="M64.66 131.8c-27.57 9.14-46.74 35.57-46.74 64.64 0 28.3 17.5 53.59 43.78 63.59l86.59-78.27-15.9-33.96-67.73-16"/>
  <path fill="#85ce26" d="M270.45 350.46a48.33 48.33 0 0 0 29.4 10.06 48.68 48.68 0 0 0 48.63-48.63c0-5.92-.99-11.6-2.95-16.92l-61.66-14.43-13.42 69.92"/>
  <path fill="#3177a7" d="M283 264.37l67.88 15.88c27.59-9.11 46.76-35.56 46.76-64.64a67.94 67.94 0 0 0-43.88-63.48l-88.8 77.79L283 264.37"/>
  <path fill="#231f20" d="M1159.15 161.99c6.24 0 16.83 1.13 31.76 3.4l6.8.85-.84 17.3c-15.13-1.7-26.28-2.55-33.46-2.55-16.08 0-27 3.82-32.76 11.48-5.77 7.66-8.64 21.84-8.64 42.54s2.69 35.11 8.08 43.24c5.38 8.13 16.59 12.2 33.6 12.2l33.46-2.56.85 17.58c-17.58 2.65-30.72 3.97-39.42 3.97-22.11 0-37.38-5.67-45.8-17.01-8.4-11.35-12.6-30.49-12.6-57.42 0-26.94 4.53-45.84 13.6-56.72 9.08-10.87 24.2-16.3 45.37-16.3m-113.39 146.36V164.82h21.27v143.53zm0-161.64v-24.67h21.27v24.67h-21.27m-29.56 36.54H971.1v67.78c0 16.26 1.18 26.94 3.55 32.04 2.36 5.1 7.98 7.65 16.87 7.65l25.24-1.7 1.41 17.58c-12.66 2.08-22.3 3.12-28.92 3.12-14.74 0-24.95-3.58-30.62-10.77-5.68-7.18-8.51-20.89-8.51-41.12v-74.58H930v-18.43h20.13v-43.38h20.98v43.38h45.09v18.43M858.9 181c-20.6 0-30.9 7.18-30.9 21.55 0 6.62 2.35 11.3 7.08 14.03 4.72 2.75 15.5 5.58 32.33 8.51 16.82 2.93 28.73 7.05 35.73 12.33 6.99 5.3 10.49 15.22 10.49 29.78s-4.68 25.24-14.04 32.04c-9.36 6.8-23.02 10.21-40.97 10.21-11.73 0-50.84-4.34-50.84-4.34l1.13-18.43c22.48 2.17 38.74 3.77 49.7 3.77 10.97 0 19.33-1.75 25.1-5.24 5.77-3.5 8.65-9.36 8.65-17.58 0-8.23-2.46-13.8-7.37-16.74-4.92-2.92-15.7-5.71-32.33-8.36-16.64-2.65-28.45-6.52-35.44-11.63-7-5.1-10.5-14.55-10.5-28.35s4.87-24 14.6-30.63c9.74-6.61 21.89-9.92 36.45-9.92 11.52 0 51.54 2.93 51.54 2.93v18.54C888.26 182.5 871 181 858.9 181m-170.34 84.5c0 17.4 7.18 26.09 21.55 26.09 12.85 0 25.52-2.17 38-6.53l6.52-2.27V236l-41.97 3.97c-8.5.76-14.65 3.21-18.43 7.37-3.79 4.16-5.67 10.2-5.67 18.15zm87.33-57.85v71.52c0 7.09 17.65 6.8 17.65 6.8l-1.08 18.8c-14.94 0-27.3 1.23-34.73-5.95-17.02 7.56-34.01 10.63-51.03 10.63-13.04 0-22.96-3.69-29.77-11.06-6.8-7.37-10.2-17.96-10.2-31.76s3.49-23.96 10.48-30.48c7-6.52 17.96-10.54 32.9-12.05l44.52-4.26v-12.19c0-9.64-2.09-16.54-6.24-20.7-4.16-4.15-9.83-6.24-17.02-6.24l-55.87.05v-18.76h54.46c16.06 0 27.74 3.68 35.02 11.06 7.27 7.37 10.91 18.9 10.91 34.6m-155.2 100.7h21.27v-186.2H620.7zm-50.92-80.86c0-17.39-2.79-29.68-8.36-36.86-5.58-7.19-14.65-10.78-27.22-10.78-12.58 0-22.03 3.79-28.36 11.35-6.34 7.56-9.6 19.66-9.78 36.3zm7.66 61.53l8.22-.85.57 16.73c-21.55 3.02-39.98 4.54-55.3 4.54-20.41 0-34.87-5.9-43.38-17.72-8.5-11.81-12.76-30.2-12.76-55.15 0-49.72 19.75-74.58 59.26-74.58 19.1 0 33.37 5.34 42.82 16.02 9.45 10.68 14.18 27.46 14.18 50.33l-1.13 16.16h-93.58c0 15.7 2.84 27.32 8.5 34.88 5.68 7.57 15.55 11.34 29.64 11.34 14.08 0 28.4-.56 42.96-1.7"/>
</svg>
