<svg xmlns="http://www.w3.org/2000/svg" viewBox="0 0 1200 392">
  <path fill="#0065bd" d="M776.4 139.8h16.1v-20.4l19.2-35.3H794l-9.2 20h-.3l-8.8-20h-18.1l18.8 35.3zm-51.4 0h16V97h14V84h-43.8v13H725v42.7zm-48.8 0h36v-13.2h-20V84.1h-16zm-40 1.3c13.1 0 24-6.3 24-21.8V84h-16v33.6c0 6.4-3.5 9.2-8 9.2s-8-2.8-8-9.2V84.1h-16v35.1c0 15.6 10.9 21.9 24 21.9m-51.3-.4c6.7 0 12.2-1.7 15.6-3.5v-14a24.6 24.6 0 0 1-12.7 3.2c-5.8 0-14.3-4.4-14.3-14.4 0-10.1 7.7-14.9 15.2-14.9 5 0 8.6 1.2 11.7 2.7V86a32.4 32.4 0 0 0-14-2.6C570 83.4 556 94.2 556 112c0 17.7 12.5 28.7 29 28.7m-69.4-23.8l5.4-20.6h.8l5.5 20.6zm17.8 23h16.5l-16.7-55.7h-23.5L493 139.8h16.4l3-11.5h17.9zm-82-55.7v55.6h16v-21.5h21.9V106h-21.8v-9.2h22V84.2zm693.8 139h16.1v-33.4h.2l17 33.4h19.5v-55.7h-16v33.2h-.3l-16.7-33.2h-19.7zm-40.8-13c-7.2 0-10.8-5.6-10.8-14.8 0-9.2 3.6-15 10.8-15 7.2 0 10.6 5.8 10.6 15s-3.4 14.9-10.6 14.9m0 14.2c16.6 0 27.7-10.5 27.7-29.1s-11-29.2-27.7-29.2c-16.6 0-28 10.6-28 29.2 0 18.5 11.4 29.1 28 29.1m-57.1-1.3h16.1v-55.7h-16zm-40.4 0h16.1v-42.6h13.8v-13H993v13h13.9v42.6zm-48.5-22.9l5.5-20.5h.8l5.5 20.5zm18 23h16.4L976 167.5h-23.5L936 223.2h16.4l3-11.5h17.8zm-109.8 0h15.3v-34.1h.2l14.4 23.7h1.1l13.8-23.8h.3v34.1h15.6v-55.7h-18.6l-11.4 19.7h-.3l-11.5-19.7h-19v55.7zm-43.5-30v-13.9h6.5c4.3 0 6.8 3.4 6.8 6.9 0 3.5-2.5 7-6.8 7zm-16 30h16v-19.6h4l9.7 19.5h18.1l-10.2-17.1a14 14 0 0 0-3.1-4l.1-.3c4.9-2.3 11.9-6.4 11.9-16 0-9.9-8-18.3-21-18.3H807v55.7zm-41-13c-7.1 0-10.7-5.7-10.7-14.9s3.6-14.9 10.7-14.9c7.2 0 10.6 5.7 10.6 15 0 9-3.4 14.8-10.6 14.8m0 14.3c16.6 0 27.8-10.6 27.8-29.2 0-18.5-11.2-29.2-27.8-29.2s-27.9 10.6-27.9 29.2 11.4 29.2 28 29.2m-76-57v55.6h16.1v-21.5h21.8v-12.3h-21.8v-9.2h22v-12.7zm-69 55.6h16v-33.4h.3l16.9 33.4h19.5v-55.7h-16v33.2h-.3L641 167.5h-19.7v55.7zm-32.5 0h16v-55.7h-16zM517 167.5v55.7h16v-21.5h21.8v-12.3H533v-9.2h22v-12.7zm-41 42.8c-7 0-10.7-5.7-10.7-14.9s3.6-14.9 10.8-14.9c7.2 0 10.6 5.7 10.6 15 0 9-3.4 14.8-10.6 14.8m0 14.3c16.6 0 27.7-10.6 27.7-29.2 0-18.5-11.1-29.2-27.7-29.2s-28 10.6-28 29.2 11.4 29.2 28 29.2m514.3 82h16v-20.3l19.2-35.3h-17.7l-9 19.9h-.4l-8.8-20h-18.2l19 35.4zm-46.8 1.4c9.9 0 16.8-3 20.2-4.8v-24.6H948v15c-1.2.3-2.4.4-3.6.4-6.2 0-13.1-4.7-13.1-15.2 0-11.3 6-16.8 16.5-16.8 5.7 0 10.6 1.9 13.6 3.5v-13a37.8 37.8 0 0 0-16-3.6c-18.9 0-31.6 11.7-31.6 30 0 18.1 14.1 29 29.7 29m-67.3-14.2c-7.2 0-10.8-5.8-10.8-15 0-9.1 3.6-14.9 10.8-14.9 7.1 0 10.5 5.8 10.5 15 0 9.1-3.3 14.9-10.5 14.9m0 14.2c16.6 0 27.8-10.6 27.8-29.2 0-18.5-11.1-29.1-27.8-29.1-16.6 0-28 10.6-28 29.1 0 18.6 11.5 29.2 28 29.2m-69.6-1.3h36v-13.2h-20v-42.5h-16zm-40.9-13c-7.1 0-10.7-5.7-10.7-14.9 0-9.1 3.6-14.9 10.7-14.9 7.2 0 10.6 5.8 10.6 15 0 9.1-3.4 14.9-10.6 14.9m0 14.2c16.6 0 27.8-10.6 27.8-29.2 0-18.5-11.2-29.1-27.8-29.1s-28 10.6-28 29.1c0 18.6 11.4 29.2 28 29.2m-93.8-1.3H688v-33.5h.2l17 33.5h19.5V251h-16v33.3h-.3L691.7 251H672zM607 251v55.7h16.2v-21.8h16.4v21.8h16V251h-16v21.3h-16.4V251zm-27.6 56.6c6.7 0 12.2-1.7 15.6-3.4v-14a25 25 0 0 1-12.7 3.1c-5.9 0-14.3-4.4-14.3-14.5 0-10 7.7-14.8 15.2-14.8 5 0 8.6 1.2 11.7 2.7v-13.8a32.4 32.4 0 0 0-14-2.6c-16.4 0-30.4 10.8-30.4 28.5 0 17.8 12.5 28.8 28.9 28.8m-78.7-.9H539V294h-22.4v-9h21.6v-12.4h-21.6v-8.9H539V251h-38.4zm-40.5 0h16.1V264h13.9v-13.1h-43.9v13h14zM1059 390h38.4v-12.7H1075v-9h21.6v-12.4H1075V347h22.4v-12.7H1059zm-40 1.3c13.1 0 24-6.3 24-21.9v-35.1h-16V368c0 6.3-3.4 9-8 9-4.4 0-7.9-2.7-7.9-9v-33.7h-16v35.1c0 15.6 10.8 22 24 22m-57.7 0c10 0 16.8-3.1 20.1-4.8v-24.7H966v15c-1.1.3-2.4.5-3.6.5-6.2 0-13.1-4.8-13.1-15.3 0-11.2 6-16.8 16.5-16.8 5.7 0 10.6 2 13.6 3.6v-13.1a38.3 38.3 0 0 0-16-3.5c-18.9 0-31.6 11.7-31.6 29.8 0 18.3 14.2 29.2 29.7 29.2m-70.2-24.2l5.5-20.5h.7L903 367zm17.9 23h16.4l-16.7-55.8h-23.5L868.7 390h16.4l3-11.5H906zm-75.6-30v-13.9h6.6c4.3 0 6.8 3.3 6.8 6.8 0 3.6-2.5 7-6.8 7h-6.6zm-16 30h16v-19.7h4.1l9.7 19.6h18l-10.1-17.2a16.4 16.4 0 0 0-3.2-4l.1-.3c4.9-2.2 11.8-6.4 11.8-15.9 0-10-7.9-18.3-21-18.3h-25.5V390zm-41.1-30v-13.8h6.2c3.5 0 6.7 2.9 6.7 6.8 0 4-3.2 7-6.7 7h-6.3zm-16.1 30h16V372h8.2c13 0 21.1-8.3 21.1-18.5 0-10.3-8-19.2-21.1-19.2h-24.2zm-89.7 0h16v-33.5h.3l16.9 33.4h19.6v-55.7h-16v33.3h-.4l-16.7-33.3h-19.7zm-32.4 0h16v-55.8h-16zm-60.5 1.2c13 0 24-6.3 24-21.9v-35.1h-16.1V368c0 6.3-3.5 9-8 9s-7.9-2.7-7.9-9v-33.7h-16v35.1c0 15.6 10.8 22 24 22m-64-1.4h16v-42.6h13.9v-13h-43.9v13h14V390zm-36.6.9c6.7 0 12.2-1.7 15.6-3.4v-14a25 25 0 0 1-12.7 3.2c-5.8 0-14.2-4.5-14.2-14.6 0-10 7.7-14.8 15.1-14.8 5 0 8.6 1.1 11.7 2.7v-13.8a31.8 31.8 0 0 0-14-2.6c-16.4 0-30.4 10.7-30.4 28.5s12.6 28.8 29 28.8M2 .7h389.3V390H2z"/>
  <path fill="#fff" d="M317.5 169.5l10-7.3c-3.8-4-7.8-8.9-7.8-16.7 0-6 4-12.4 9-15-2.6-3.3-7-6.3-13.1-6.3-8.1 0-14.8 5.9-14.8 13.8 0 5.3 3.4 10 7.5 12a26 26 0 0 0 9.1 19.5m-53.4-53l8.5-14.9h-12.4c0 2.7-2.4 5.7-5.4 5.7-3.3 0-5.4-2.2-5.4-5.7h-11c0 3.3-2.4 5.7-5.4 5.7-3 0-5.4-2.5-5.4-5.7H215l7.3 14.3a225.3 225.3 0 0 1 41.8.5M241.4 248a20.6 20.6 0 0 1-2.7-10.8c0-7 4-13 12.7-16.8 5.6-2.6 10-5 17.5-8.8 17.8-9.2 24-26.4 24-44.2 0-8.9-2.5-15.9-5.5-21.8.9 4.8 1.7 8.9 1.7 13.7 0 18.6-6.5 32.3-23.5 40.7-10.8 5.4-16.1 7.6-22.6 10.7-9.1 5-14.3 11.1-14.3 18.7 0 9.4 4.8 16.4 12.7 18.6m-10.6-3.5a22 22 0 0 1-6.1-15.4c0-8.9 5.9-16.4 16.4-21.8 9.1-4.3 14.5-6.5 22.6-10.3 17-8.3 22.2-22.6 22.2-38 0-14.8-5-22.3-9-27.2a40 40 0 0 1 3.8 18.1c0 16.4-5 30.7-24 38.3-9.8 4-16 5.4-24.3 9.1-13.2 6.3-18.3 13.5-18.3 24.3 0 10.2 6.5 20 16.7 22.9m-10.2-2.1a26 26 0 0 1-10.5-21c0-11.7 4.9-20.3 20-26.8 9.6-4 14.7-5.9 24-9.4 19.3-7.3 23.4-21.6 23.4-35.6 0-13.4-5-21.3-10.8-26.4a32 32 0 0 1 5.6 19.2c0 17.7-6.7 27.7-25.8 34.5-7.8 2.4-16.2 4.8-24.8 8C206 191 198 199.5 198 214a29 29 0 0 0 22.7 28.4m-10.8-2c-10.8-5.3-16-17-16-27.1 0-14.9 9.3-25.4 24.6-31 9.4-3.6 17-5.7 26.4-9 18.4-6.4 24.3-15 24.3-31.5a28 28 0 0 0-9.1-22 11 11 0 0 1 2.4 7.2c0 4.5-2.5 6.7-6 6.7-2 0-4.3-1.3-4.5-3.5 1 .8 1.9 1.1 3 1.1 2.9 0 4.5-2.1 4.5-5 0-4.6-4.3-7-8.6-7.6-3.8-.5-7.8-.5-12.4-.5-4.5 0-8.9.2-14.6.5 3.5 4.9 15.1 3.6 18.6 6-3-.3-6-.3-8.9.5 0 1.9-.8 4-2.7 4-3.5 0-5.1-3.7-7.5-10.5l-13.8 1.2c-2.1.2-3 1-2.7 2.6l1.4 13.5c0 .6.5.9 1 .9.6 0 1.1-.3 1.4-1.1.5-1.1 2.2-3.5 6.2-3.5 6 0 10.5 5.4 10.8 11.6-2.2-3-7-5.7-15.1-5.7-6.2 0-11.3 2-19.4 2-8.6 0-13.5-3.3-13.5-7.4 0-1.8.4-2.9 1.4-4.3a9.9 9.9 0 0 0-6.2 9.5c0 5.8 4.3 12 17 12 11.6 0 17-7.2 27.5-7.2 4.9 0 7.3 2.4 7.3 5.1 0 2.4-2.2 4.6-6 4.6a11 11 0 0 1-9.4-5c-.2-.4-.5-.7-1-.7-.9 0-1.1.6-1.1 1.1l.2 13c0 1.6.8 2.4 2.7 2 8.1-.8 16.5-1.9 24.3-2.3 14.5-1.4 24.5-11.1 24.5-21.9 0-1.6 0-3-.3-4.6 1.4 2.2 2 4.3 2 7 0 10-5.5 17.5-22.7 22.1-9.2 2.4-16 3.5-23.8 5.4-20.7 4.9-34.2 20.8-34.2 38.5a33.2 33.2 0 0 0 28 33.5m-90.2-97.4a15 15 0 0 0 1.3-6.2c0-3.4-1.6-6.7-3.2-8 4 0 7.5 2.9 7.5 7 0 3.8-2.4 6.2-5.7 7.3m49.6 64.1l8.6-4.5a41 41 0 0 1 32.7-35.4c-10 .6-18.6.9-30.8 1.4-12.9.5-34.1 2.2-49 3.2-3 .3-4.9-.8-5.6-3.2-.8-2.7-2.4-7.9-2.7-10.8-.3-2.4.3-4 2.4-5.7 4.3-2.9 8.6-6.4 8.6-13.7a13 13 0 0 0-12.9-13c-2.1 0-3.8.3-5.1.9a11 11 0 0 0-6.5-1.9c-4.5 0-8.6 3-9.7 5.4-7.8-.5-14 5.1-13.4 12.6 1-1 3.2-2.1 5.6-2.1 3 0 5.7 2.1 5.7 5.4 0 3-.6 6.7-.6 10.7 0 12.5 10 19 10 25.4 0 3.3-2.5 5.9-5.7 5.9 1.9 6.8 8.1 10.3 16.4 10.3 5.4 0 10.3-.6 18-.6 22.4 0 32.1 2.5 34 9.7m83 76.3h2.8a42.4 42.4 0 0 0-6-20.8 97 97 0 0 0-6.2-9.7 4.5 4.5 0 0 0-4-2.1c-1.2 0-2 .8-1.2 2.1 2.3 3.5 5.3 9 9 17.3-3.3.5-4 2.1-4 4.9 0 4.2 4 8.3 9.7 8.3M109.2 144.1c.2-7.5-3-11.5-7.6-13.4.8-.3 1.9-.8 3.5-.8 3.5 0 7.3 2.9 7.3 7.4 0 2.5-.8 5.2-3.2 6.8M281.9 334c-1-2.5-4.5-4.9-8.9-4.9-2.4 0-4 .5-5 1 .1-2 2.3-4.5 6.6-4.5 5.1 0 7.8 4 7.3 8.4m-1.6 11.6a10.3 10.3 0 0 0-7.9-3.5c-4.3 0-6.5 1.9-7.5 3.2-.6-3.2 2.1-7.3 7.3-7.3 5.4 0 8 3.8 8 7.6M88.8 217c1.8-4.5 6.1-7.8 11.3-8.9 1-1.6 2.4-2.9 3.8-4l-9.2-38.3c-1-2.6-1.9-5.3-1.9-9 0-4.2.8-8.2.8-10.4 0-1.9-1-2.4-2.1-2.4-.8 0-1.4 0-1.6.3v1c0 6.3-3.8 11.1-10 11.1s-11-5-11-11a11 11 0 0 1 11-10.8c1 0 2.4 0 4 .6 2-5 7.8-9.2 14-8.4a22.8 22.8 0 0 0-18-8.6 27 27 0 0 0-28 27.2 27.4 27.4 0 0 0 27.2 27zm41.7 58c4 0 8.4-2.2 12.4-6.2 7.3-7 17.6-17.5 23.8-21.6 5.3-3.4 8.8-4.8 12.3-4.8 2.2 0 3.8.5 5.4 2.2l9.2-7a37 37 0 0 1-15.6-30.8c-14.6 7.9-25 18.6-37.2 28.9-2.2 1.6-3.3 2.4-5.1 2.4-2 0-3.5-2-6.8-5.2-2.6-2.7-3.2-4.3-3.2-6.2 0-3.2 1-4.3 1-8.6a13 13 0 0 0-13.1-13.5c-5.4 0-9.4 3-10.8 6.8-7.3.5-11.9 5.9-11.9 11.5 0 1.4.3 2.5.6 3.3a10.9 10.9 0 0 0-5.4 9c0 4.7 2.4 9 6.5 10.4-.6-.8-.9-1.9-.9-3.2 0-2.5 2.2-4.6 5.1-4.6 2.5 0 4.1.8 6 3 2.4 3.2 4.9 6.1 8.9 9.7 3.8 3.2 8 5.4 12.1 7.8 2.4 1.6 4.3 3.8 4.3 7 0 2.2-1.6 4.6-4.9 5.4 1.4 3 4.1 4.3 7.3 4.3m-15.3-52.5c-.3-5.5-4.3-9.8-9.5-10.8a7 7 0 0 1 4.3-1.3c3.8 0 6.8 3.1 6.8 6.6a9 9 0 0 1-1.6 5.4M145 364.1a6.4 6.4 0 0 1-1.6-4.3c0-3.3 2.6-5.7 6.4-5.7 6 0 9.2 6.5 17 6.5 8.9 0 13.2-6.5 21.3-6.5 4 0 9.7 2.4 9.7 7.6a3 3 0 0 1-.8 2.1c9.2 0 15.6-7.8 15.6-20.8 0-18-.5-25.3-.7-35.2 7-.4 13.7-3.8 12.7-14.9-2 1.6-4.1 2.4-6.6 2.4-3.2 0-5.6-2.4-5.6-5.9 0-1.6 0-3.5.2-5.3l31.6-.9a10 10 0 0 1-5-8.6c0-2.7 1-4.5 3.2-5.7-3-6.1-5.4-11-8.4-15.6-1.6-2.4-3.5-4.8-7.3-4.8-8.4-.3-25.3 2.2-34 5.1-6.5 2.2-12.6 7-12.6 18 0 10.3 3.4 28.4 3.2 56.7 0 4-1 5.4-3.6 5.9a36 36 0 0 1-11.2.6c-2-.4-3.5-1.7-4.6-5.7-1.4-5.7-5.4-11.3-13.5-11.3-7.3 0-13.8 5.4-12.7 13.5a10.5 10.5 0 0 0-5.1 8.8c0 3.3 1 6 2.4 7.6a11.8 11.8 0 0 0 10 16.4m-38-134.4a10 10 0 0 0-9.2-5.2c-1.6 0-3 .3-4 .5.5-2.1 2.9-4 6.5-4 4.5 0 7.5 3.5 6.7 8.6M154.2 334c-1.1-2.4-4.6-4.9-9-4.9-2.4 0-4 .6-5 1.1.2-2 2.4-4.5 6.7-4.5 5.1 0 7.8 4 7.3 8.4m-23 23.4a11 11 0 0 1-1-4.9c0-1.6.3-3 .8-4.2a16.7 16.7 0 0 1-2.1-8.2c0-4 2-7.8 4.5-10.2l-16.7-72.5a32 32 0 0 1-7.5-4.9c-3.8-3.2-6-5.6-9.4-9.7-1.1-1-2-1.6-3-1.6-1.6 0-2.7 1.1-2.2 3.3l3.6 16.7 7.2 5.2 20.2 86.7zm21.4-11.9a10.2 10.2 0 0 0-7.8-3.5c-4.4 0-6.5 2-7.6 3.3-.5-3.3 2.2-7.3 7.3-7.3 5.4 0 8 3.8 8 7.6m-133 20.2L35.8 353 56 266.3l7.3-5.2 16.1-69.5-3.4-16.1a37 37 0 0 1-10.5-3.5zm253.3-1.7a6.5 6.5 0 0 1-1.6-4.2c0-3.3 2.7-5.7 6.5-5.7 5.8 0 9.1 6.5 17 6.5 8.8 0 13.1-6.5 21.2-6.5 4 0 9.7 2.4 9.7 7.6a3 3 0 0 1-.7 2.1c9.1 0 15.6-7.8 15.6-20.8 0-17.2-1.6-36.3-3.5-55.5 4.8-1 9.4-5.9 9.4-12.1 0-2.2-.8-4.6-2.2-6.7-1.3 1.8-3.8 3.5-7.8 4.5a70.3 70.3 0 0 1-17.8 2.5c-11.6 0-15.3-.8-20.7-2.5-.3-7.2-5-13.2-9.1-17.2 6.6 2.7 9.6 4 20.4 4 34.5 0 55.8-23.1 55.8-49.5 0-19.2-12.2-28-23.2-34.6l-10.2 7.3c12.3 5.6 20.5 14 20.5 25.3 0 12.4-10 21.3-21.6 21.3-12.4 0-22.2-8.8-22.2-21 0-9 4.4-15.9 12.5-22.3 8-6.6 20.5-14.4 27.2-21.6 3.5-3.8 6.5-9.8 6.2-14.3a14 14 0 0 0 8.1-12.7c0-7.8-7.6-13.7-15.6-13.7-4.9 0-10.3 3-13 6.2 4.9 1.9 9.4 8.3 9.4 15 0 5.7-3.5 10.6-7.5 14.6-6.2 6.2-14.3 10.8-23.2 18-10.7 9-17.2 19.5-17.2 31.4a31.7 31.7 0 0 0 32.6 31.8c6.5 0 11.6-1.4 15.3-3.8-6.5 7.5-18.6 11.3-31.2 11.3-11 0-18.7-1.6-26.7-7.5a37.2 37.2 0 0 1-12.7-27.5c-6 3.5-13 6.7-18.9 9.4-8.3 4-11 8.4-11 15.6 0 9.7 6.7 17.3 9.7 23 4 7.2 5.4 13.7 5.9 20.5 1.6 16.4 11 24 27.8 24 7.5 0 17.5-.6 21.5-1.2a124 124 0 0 1 3.6 23.3c0 4-1.1 5.4-3.6 5.9a40 40 0 0 1-11.3.5c-1.9-.3-3.5-1.6-4.6-5.6-1.3-5.7-5.4-11.4-13.4-11.4-7.3 0-13.8 5.4-12.7 13.5a10.5 10.5 0 0 0-5.1 9c0 3.2 1 5.9 2.4 7.5-.8 1.8-1.1 2.9-1.1 4.8 0 6.7 6 11.6 11 11.6"/>
</svg>
