<svg xmlns="http://www.w3.org/2000/svg" viewBox="0 0 1200 360">
  <path fill="#0ca8de" d="M198.46 65.28a68.7 68.7 0 0 1 63.33-42.13 68.57 68.57 0 0 1 68.63 68.54c0 35.86-27.62 65.28-62.8 68.26a65 65 0 0 1 1.68 12.68c.24 2.5.48 5.04.58 7.54 45.39-4.08 80.93-42.13 80.93-88.48 0-49.1-39.86-88.9-89.02-88.9-36.7 0-68.21 22.19-81.83 53.8 6.42 2.47 12.61 5.37 18.5 8.69zm174.26-3.8c2.54 9.56 3.89 19.55 3.89 29.78v.48c45.46 8.89 79.78 48.85 79.78 96.83 0 54.52-44.26 98.66-98.85 98.66-54.62 0-98.88-44.19-98.88-98.66v-1.77h.05c0-70.7-57.4-128-128.24-128a127.9 127.9 0 0 0-78.13 26.48l-.14-.2c-56.2 43-66.81 123.38-23.7 179.48 41.78 54.42 118.78 66.04 174.66 27.38-5.45-8.17-9.99-17.05-13.45-26.42-43.3 32.52-104.87 24.2-137.9-18.8A98.28 98.28 0 0 1 31.4 185.9h.24c.48-54.09 44.53-97.75 98.83-97.75 54.58 0 98.85 44.14 98.85 98.64-.05.6-.05 1.2-.05 1.77 0 70.7 57.4 128 128.24 128 70.85 0 128.25-57.3 128.25-128 0-65.56-49.4-119.6-113.07-127.09z"/>
  <path fill="#13cdf0" d="M224.83 84.32l.84.14c3.45-20.72 23.05-34.82 43.94-31.55a38.4 38.4 0 0 1 31.95 43.9 38.53 38.53 0 0 1-44 31.94l-.31-.1c1.8 3.9 3.4 7.86 4.85 11.92a49.82 49.82 0 0 0 50.72-41.96 49.8 49.8 0 0 0-41.45-56.99 49.92 49.92 0 0 0-55.62 35.06c3.12 2.4 6.17 4.97 9.08 7.64zm148.94 31a113.39 113.39 0 0 1-27.66 53.66 113.87 113.87 0 0 1-62.45 34.82c7.14 34.03 37.37 59.63 73.5 59.63 41.44 0 75.16-33.62 75.16-75 0-35.64-25.07-65.52-58.52-73.1zm152.31 61.2c-6.3-87.83-80.26-156.59-168.35-156.59-1.92 0-3.84 0-5.76.08 5.28 6.72 9.8 13.97 13.44 21.68 73.33 3.9 133.82 62.59 139.13 136.41 5.76 80.86-55.43 151.4-136.48 157.21-3.56.24-7.14.39-10.7.39a146.7 146.7 0 0 1-144.9-121.12 85.32 85.32 0 0 0 4.85-28.48c0-47.26-38.55-85.74-85.9-85.74-47.08 0-85.6 38.19-85.91 85.16v5.6h29.54l.05-5.52c.24-30.74 25.52-55.72 56.34-55.72 31.07 0 56.34 25.22 56.34 56.2a56.37 56.37 0 0 1-56.34 56.29h-.96l-5.77-.2v29.55l5.53.12h1.2c25.6 0 49.4-11.2 65.6-30.43a168.67 168.67 0 0 0 172.61 115.32c45-3.17 86.07-23.7 115.64-57.75a167.37 167.37 0 0 0 40.83-122.49z"/>
  <path fill="#6e6f72" d="M558.7 72.38h19.35q7.54 0 12.92 5.38t5.38 12.9v11.29H558.7zm0 41.96h19.35q7.54 0 12.92 5.38 5.38 5.36 5.38 12.87V257.4H558.7zm173.53 143.09h-37.12v-91.48q0-12.9-8.07-18.83-7.54-5.88-17.22-5.88t-17.22 5.9q-7.52 5.96-7.52 18.86v91.45h-37.63v-83.91q0-36.6 18.8-49 19.36-12.36 42.51-13.44 12.37 0 24.18 2.71 11.84 2.64 21.52 10.74 8.07-6.97 18.83-9.68 11.29-3.22 23.13-3.75 23.68 0 43.56 12.4 19.94 12.36 19.94 50.02v83.89h-18.86q-8.07 0-13.44-4.85-4.8-5.36-4.8-13.45V166q0-12.9-8.1-18.83-7.54-5.88-17.22-5.88t-17.77 5.9q-7.52 5.96-7.52 18.86v91.43zm197.18-71.02q0-20.96-8.07-32.28-8.07-11.28-23.13-11.28-14.53 0-22.58 11.28-7.54 10.24-7.54 32.28 0 20.42 8.07 30.67 8.05 11.29 23.1 11.29 13.98 0 22.05-11.29t8.07-30.67zm-61.32 105.43q0 7.54-5.38 12.92-5.4 5.38-12.97 5.38H831.5V176.18q0-37.63 22.05-51.08 22.05-13.98 47.89-13.98 13.45 0 26.9 5.38 13.97 4.85 22.04 14.53 16.14 20.97 16.14 53.8 0 33.86-16.14 54.85-16.14 20.41-41.43 20.41-13.45 0-23.65-4.8-10.76-5.4-17.22-16.7v53.23zM1015 171.38h54.88q-1.05-14.56-7.51-21.54-6.97-7.52-19.94-7.52-11.81 0-19.33 7.52-7.54 7.54-8.07 21.51zm64.61 41.93h26.85q-5.9 22.58-22.57 34.42-16.7 12.36-41.96 12.36-30.64 0-47.86-19.93-17.25-19.3-17.25-55.33 0-34.44 16.7-53.8 17.21-19.93 47.86-19.93 32.28 0 50.02 19.38 17.25 19.93 17.25 55.4v5.94q0 2.69-.53 3.77H1015q.55 16.66 8.1 24.73 6.96 8.65 20.96 8.65 9.12 0 15.6-3.8 1.62-.57 2.7-1.63l3.22-3.24q.55-1.61 3.77-4.32 3.77-2.65 10.23-2.65zm37.7 44.12v-69.4q0-20.97 5.94-34.95 6.48-14.53 17.2-23.15 10.22-8.07 23.67-11.82 13.93-3.77 28.49-3.77h5.4v38.19h-12.37q-15.6 0-23.13 7.54-7.54 7.49-7.54 23.63v73.73z"/>
</svg>
