<svg xmlns="http://www.w3.org/2000/svg" viewBox="0 0 1200 440">
  <defs>
    <linearGradient id="d" x1="226.25" x2="682.34" y1="239.78" y2="540.76" gradientTransform="translate(-120.63 -60.33) scale(.81077)" gradientUnits="userSpaceOnUse">
      <stop offset="0" stop-color="#4AC7F4"/>
      <stop offset="1" stop-color="#5D2E8E"/>
    </linearGradient>
    <linearGradient id="c" x1="481.37" x2="676.17" y1="198.8" y2="536.72" gradientTransform="translate(-120.63 -60.33) scale(.81077)" gradientUnits="userSpaceOnUse">
      <stop offset="0" stop-color="#EA0E7D"/>
      <stop offset="1" stop-color="#5D2E8E"/>
    </linearGradient>
    <linearGradient id="b" x1="498.18" x2="1100.18" y1="218.37" y2="114.4" gradientTransform="translate(-120.63 -60.33) scale(.81077)" gradientUnits="userSpaceOnUse">
      <stop offset="0" stop-color="#EA0E7D"/>
      <stop offset="1" stop-color="#9F77A6"/>
    </linearGradient>
    <linearGradient id="a" x1="401.54" x2="1139.28" y1="531.38" y2="111.19" gradientTransform="translate(-120.63 -60.33) scale(.81077)" gradientUnits="userSpaceOnUse">
      <stop offset="0" stop-color="#29ABE2"/>
      <stop offset="1" stop-color="#9F77A6"/>
    </linearGradient>
  </defs>
  <path fill="url(#a)" stroke-width=".81" d="M994.68 30.77a29.62 29.62 0 0 0-29.51-29.52 31.1 31.1 0 0 0-15.4 4.14L265.7 411.75a14.79 14.79 0 0 0-8.35 12.89c0 7.94 6.65 14.1 14.6 14.1 2.51 0 4.54-.4 6.24-1.62.24 0 .4-.16.4-.4L977.26 57.03a8.58 8.58 0 0 0 3.32-2.1 27.38 27.38 0 0 0 14.1-24.16z"/>
  <path fill="url(#b)" stroke-width=".81" d="M994.68 30.77a29.62 29.62 0 0 0-29.51-29.52h-3.33L440.76 75.68c-22.86 1.22-40.38 21.24-39.08 44.1 1.3 22.87 21.24 40.39 44.1 39.09 3.74-.4 7.06-.81 10.38-2.11l513.14-97.3c1.22 0 2.11-.4 3.33-.4 12.48-3.32 22.05-14.6 22.05-28.3z"/>
  <path fill="url(#c)" stroke-width=".81" d="M643.29 373.88a55.91 55.91 0 0 0-9.16-28.7l-152.18-242.9c-6.25-16.22-22.87-27.4-41.19-26.6-22.86 1.22-40.38 21.24-39.08 44.1a32.1 32.1 0 0 0 1.7 9.58c1.62 5.02 3.73 9.56 7.06 13.3l131.34 251.98a37.45 37.45 0 0 0 5.03 9.16 52.47 52.47 0 0 0 45.32 23.68c28.7-.4 51.57-24.49 51.16-53.6z"/>
  <path fill="url(#d)" stroke-width=".81" d="M643.29 373.88a52.75 52.75 0 0 0-31.62-47.02L232.8 117.68c-3.33-1.7-7.06-2.92-10.79-2.51a18.3 18.3 0 0 0-16.62 19.86v.16a17.33 17.33 0 0 0 8.76 14.11l339.3 262.37a53.08 53.08 0 0 0 39.09 15.8c28.3-.4 51.16-24.48 50.75-53.59z"/>
  <path stroke-width="2.21" d="M412.05 153.85h212.12v212.11H412.05z"/>
  <path fill="#fff" stroke-width="2.21" d="M430.4 326.06h79.45v13.25h-79.46zm-.9-116.45l6.24-5.83c1.61 2.12 3.31 3.32 5.43 3.32 2.5 0 3.72-1.68 3.72-5.02v-22.1h9.56v22.1c0 4.1-1.21 7.45-3.31 9.54-2.1 2.1-5.44 3.32-9.57 3.32-4.7.57-9.32-1.46-12.08-5.35zm27.47-29.1h27.89v7.96h-18.34v5.41h16.61v7.47h-16.61v5.44h18.73v8.35h-27.9V180.6l-.4-.09zm40.3 8.36H486.9v-8.33h30.34v8.35h-10.39v26.2h-9.54v-26.25zm-66.86 34.07h17.9c4.16 0 7.47 1.21 9.57 2.91a8.03 8.03 0 0 1 2.12 5.84c0 4.15-2.12 6.25-5.44 7.95 4.14 1.22 7.07 3.76 7.07 8.35 0 5.84-5.03 9.57-12.9 9.57H430.9V223l-.49-.08zm19.93 10.87c0-2.12-1.6-2.92-4.13-2.92h-6.25v6.23h5.83c2.87-.48 4.55-1.28 4.55-3.31zm-3.31 9.57h-7.47v6.23h7.47c2.92 0 4.53-1.24 4.53-3.32.44-1.72-1.2-3.02-4.5-2.94zm15.8-20.44h16.24c5.43 0 9.17 1.21 11.27 3.75 2.12 2.08 2.91 4.51 2.91 7.96 0 5.39-2.91 8.73-7.07 10.76l8.4 12.04h-10.83l-7.02-10.38h-4.16v10.38H463l-.22-34.53zm15.84 16.61c3.31 0 5.02-1.6 5.02-4.13 0-2.91-2.1-4.13-5.02-4.13h-6.25v8.26zm26.18-16.61h9.17l14.59 34.95h-10.46l-2.51-6.25h-13.3l-2.1 5.86h-9.95l14.59-34.54zm8.27 20.77l-3.71-9.57-3.76 9.94h7.47v-.4zm16.7-20.77h9.57v34.53h-9.57zm12 0h9.17l14.1 18.34v-18.34h9.56v34.53h-8.33l-14.98-19.13v19.11h-9.5v-34.53zm33.25 29.52l5.44-6.26a16.5 16.5 0 0 0 11.27 4.14c2.5 0 4.13-.8 4.13-2.5 0-1.72-1.22-2.14-5.83-3.36-7.52-1.61-12.93-3.76-12.93-10.78 0-6.23 5.04-11.27 13.3-11.27a22.09 22.09 0 0 1 14.1 4.55l-5.02 6.63c-3.31-2.1-6.63-3.31-9.56-3.31-2.52 0-3.32.81-3.32 2.1 0 1.65 1.22 2.14 5.83 3.35 7.91 1.62 12.86 4.14 12.86 10.79 0 7.07-5.43 11.26-14.1 11.26a22.1 22.1 0 0 1-16.21-5.34z"/>
</svg>
