<svg xmlns="http://www.w3.org/2000/svg" viewBox="0 0 1200 740">
  <path fill="#00b2d3" d="M168.8 700.1c-25.8 4-78 27.1-22.8 35.3 55.4 8.2 638.6-47 904.8-19.3 42 4.5 33.5-10.4-8.1-14.3-76.4-15-774.5-20.3-873.9-1.7"/>
  <path fill="#003e7e" d="M648 563.4c-18.7-7.2-24.2-25.7-24.2-36.9.4-48.8 22.4-92 27.6-103.2 5.3-11.3-17.1-27.8-43.5-21.8s-46.1 39.4-50.8 45.4c-4.7 6-11.5 8.1-7.3-6.7 0-1.6 2.4-7.8 2.8-9.2 1-3.6 1.9-7.7-1-12.4-4-6.6-33.7-11.2-50.8-1.3-21.8 12.5-37 47.8-39.7 33.3.2-.6-1-6.5-2.3-8.6-2.6-4-14-6.2-25-1s-17.2 20.2-20.4 25.4l-2.8 5.3h-.1c-2.3 3.8-4 7.4-7.3 13.4-3.5 5.3-14.6 27.9-16.9 32.9-3 5.5-1.6 10.8 1.7 15.3 2.6 3.7 12.4 9 16.6 1 2-2.8 3.4-6.5 5-10l-.3 1 .3-1.1c3-6.7 5.7-13.7 8.7-20 0-1 5.4-11.6 10.5-21.5 3.8-6 13.7-10.6 11.5 2.2-1.1 7-5.3 19.9-7.6 28.5-1.2 4.8 8.6 15.8 15.4-2 5.4-16.8 19.3-39.4 32.9-52.6 5.1-4.4 17.1-8 14.5 3.5a227 227 0 0 0 2.5 77.2c5.3 26.4 27 30.1 38.6-6.2 6.9-21.4 24.2-63 39.7-85 11.6-16.5 32.2-21.9 23.8-3.4-.5 2.1-8.7 21.5-11.7 34.2-4.6 19.4-10.6 52.1-2 71.9 10 23.4 54.7 39.1 63 30.2 5.6-6 5.5-14.5-1.4-17.8M308.8 489c-45-158.6 88-493.5 150.7-447.7 24.4 17.9 29 124.4-32 259.9C409.7 340.7 334 459 308.8 489m147.8 74c-5.8 1.7-54.3 43.5-104 13.5-24-14-30.4-35.2-38.6-65.4C491 275.4 508.3 127.3 495 55.4c-5.4-29.7-20.4-65.7-79.6-46.1C355 32.6 291.7 124.3 267.6 292c-11.5 80.3.4 175.2 12.3 221.3-50.1 50-99.3 58.5-99.3 58.5s-24.2 4.4-20.2 29.5c.3 1.3 2.5 30.6 93.1-33.6 12.7-9 25-17 37.3-29.6 37.2 87.2 142 62.5 174.4 51 2-.7 5.3-2.8 6-3.7 10-11.2-4.6-27.2-14.6-22.4m492.6-118.5c-49 73.6-115.4 94.9-115.4 94.9s-100.9 40.2-132 2c-31-38.4 10-104 17.4-115.8 7.1-11.3 36.9-40.9 36.9-21.2 0 17.7-7.4 51.6 13.6 42.1a40.4 40.4 0 0 0 15-17.8c7.7-16.5 15-44.4-11.4-60.4-39.3-23.7-81.7 26.6-93.3 63.4-8.1 27.3-23.3 77.3 4 108.5 65.2 72.4 191 41.1 278.6-28.1 66.6-56.6 35.7-141.3-13.4-67.6"/>
</svg>
