<svg xmlns="http://www.w3.org/2000/svg" width="1200" height="158">
  <path d="M31 2.1h89.8v94.1c5.1-31 9.5-62.7 14.3-94h89.7v153.7H140v-132c-6.9 43.7-13.5 87.7-19.8 132H36.1V18.5C27.1 63.9 19 110.3 10 155.9H2A76527 76527 0 0 0 31 2m1167 129.3a24 24 0 0 1-7.3 18.7 22.6 22.6 0 0 1-15.7 5.8c-5 0-9.3-1.1-12.8-3.3l4.6-9.3c2.2 1.3 5 2 8.2 2a9 9 0 0 0 6.7-3c2.1-2.3 3.2-5.5 3.2-9.7 0-6.8-3.5-15.2-10.6-25.2-4.2-6-7.2-11-8.9-15-1.7-4-2.6-8.2-2.6-12.7 0-6.2 1.9-11 5.5-14.7a20 20 0 0 1 14.8-5.4c4.3 0 7.7.8 10.2 2.5l-4.4 9a15 15 0 0 0-6-1.2c-2.1 0-3.8.8-5.2 2.3a8.8 8.8 0 0 0-2 6.1c0 3.1 1 6.5 2.8 10.1 1.2 2.5 3.6 6.3 7.2 11.3a93.3 93.3 0 0 1 9 15.6 41.8 41.8 0 0 1 3.3 16m-48.8 24h-6.2l-21.4-54.2v54.2H1109v-95h6.3l21.2 54.5V60.2h12.7zm-67.7-47.6c0-25-2.9-37.6-8.5-37.6-5.7 0-8.5 12.5-8.5 37.6 0 25.2 2.8 37.7 8.5 37.7 5.6 0 8.5-12.5 8.5-37.7m13 0c0 18.7-2.2 31.8-6.8 39.6a16.1 16.1 0 0 1-14.7 8.6c-6.5 0-11.4-2.9-14.8-8.6-4.6-7.8-7-21-7-39.6s2.4-31.8 7-39.5c3.4-5.7 8.3-8.6 14.8-8.6 6.4 0 11.3 2.9 14.7 8.6 4.6 7.7 6.9 20.9 6.9 39.5m-57.7 47.6h-13v-95h13zm-24.4-84.6h-12.7v84.6h-13.1V70.7H974V60.2h38.5zM952 127.9L947 88.2l-5.2 39.7zm16 27.4h-12.3l-2.3-17h-13l-2.3 17h-11.6l14.4-95h12.6zm-48.5-.3c-2 .6-4.2.9-6.5.9-17.4 0-26.1-16.1-26.1-48.3 0-32 8.7-48 26.1-48 2.3 0 4.5.3 6.5.9v10.2L915 70c-10 0-15 12.5-15 37.5 0 25.2 5.1 37.8 15.3 37.8 1 0 2.3-.2 4.2-.5zm-47 .3h-13v-95h13zm-24.4 0h-30.7v-95h13v84.5h17.7zm-58.1-31.4c0-8.8-2.4-15.5-7-20.2-1.8.5-3.6.8-5.4.8v40.3c3.4 0 6.2-1.4 8.3-4.3 2.7-3.6 4-9.2 4-16.6m-2.5-41.7c0-7.4-3.3-11.3-9.8-11.5v23c6.5-.2 9.8-4 9.8-11.5m16 41.7c0 11.4-3.1 19.8-9.2 25a28.6 28.6 0 0 1-19.4 6.4h-10.2v-95H775c6.9 0 12.6 1.6 17.2 5 5.4 3.9 8.1 9.6 8.1 17 0 7.3-2.3 12.9-7.1 16.6 2.4 1.9 4.5 4.6 6.4 8.2 2.5 5 3.7 10.6 3.7 16.8m-55 8c0 7.8-2 14-6 18.3-3.5 3.8-8 5.7-13.4 5.7s-9.8-2-13.3-5.7c-4-4.3-6-10.5-6-18.3V60.2h13.1v74.2c0 3.6.6 6.3 1.9 8.2 1.2 1.9 2.6 2.8 4.3 2.8 1.6 0 3.1-1 4.4-2.8 1.3-2 2-4.6 2-8.2V60.2h13zM684.8 89c0-12.1-3.7-18.2-11-18.2v41.9c2-.4 4.2-2.2 6.4-5.6 3-4.6 4.6-10.6 4.6-18m13.2 0a37 37 0 0 1-10.1 26.9 31 31 0 0 1-14.1 8.7v30.6h-13.1v-95h10c7.8 0 14.1 2 18.9 6.2 5.6 5 8.4 12.5 8.4 22.6m-74.4 63.3a26.3 26.3 0 0 1-14.1 3.5c-18.5 0-27.7-16.1-27.7-48.3 0-32 8.8-48 26.2-48 2.9 0 5.6.4 8.3 1.1v10c-2.3-.4-4.3-.6-5.8-.6-10.3 0-15.5 12.5-15.5 37.5 0 25.2 5 37.8 15 37.8l1.3-.1v-19.7a20 20 0 0 0-1.6-9.6c-.8-1.4-2.2-2.1-4.2-2.1l-2 .1v-10.3c1.3-.3 2.8-.4 4.3-.4 10.5 0 15.8 7.8 15.8 23.4zm-56.3 2.9h-6.3L539.5 101v54.2H527v-95h6.3l21.3 54.5V60.2h12.7zm-56.7 0h-13v-95h13zm-29.6 0h-6.3L453.3 101v54.2h-12.6v-95h6.3l21.2 54.5V60.2h12.7zm-56.8 0h-6.3L396.5 101v54.2h-12.6v-95h6.3l21.2 54.5V60.2h12.7zM357 127.9l-5.2-39.7-5.2 39.7zm15.9 27.4h-12.2l-2.4-17h-13l-2.3 17h-11.6l14.4-95h12.6zm-52.5 0h-12.7v-50.8l-8.4 25h-5.7l-8.4-25v50.8h-12.5v-95h6.3l17.5 49.4L314 60.2h6.3z" fill="#333" fill-rule="evenodd"/>
</svg>
