<svg xmlns="http://www.w3.org/2000/svg" viewBox="0 0 1200 258">
  <path fill="#737373" d="M1198 116.721v-21.19h-25.944V63.05l-.792.198-24.558 7.327-.594.198V95.53h-38.817V81.667c0-6.337 1.584-11.289 4.357-14.457 2.773-3.17 6.931-4.753 12.08-4.753 3.566 0 7.328.792 11.487 2.574l.99.594V43.246l-.594-.198c-3.564-1.188-8.317-1.98-14.457-1.98-7.724 0-14.457 1.782-20.597 4.753-6.14 3.366-10.694 7.922-14.06 14.06-3.368 5.942-5.15 12.676-5.15 20.4v15.25h-18.022v20.992h18.022v88.725h25.944V116.72h38.817v56.443c0 23.172 10.892 34.856 32.677 34.856 3.565 0 7.328-.594 10.893-1.188 3.763-.792 6.536-1.782 8.12-2.575l.198-.198v-21.19l-.99.792c-1.585.99-2.97 1.782-5.347 2.376-1.98.594-3.763.792-5.15.792-5.149 0-8.714-1.188-11.288-4.159-2.377-2.772-3.565-7.327-3.565-14.06V116.72zM424.234 148.41l-7.13 20.2h-.594c-1.188-4.555-3.366-11.486-6.931-19.804l-38.223-96.053h-37.43v153.09h24.755v-94.468c0-5.941 0-12.675-.198-20.993-.198-4.159-.594-7.328-.792-9.704h.594c1.188 5.941 2.574 10.298 3.565 13.07l45.946 111.699h17.428l45.551-112.688c.99-2.575 1.98-7.724 2.97-12.081h.595c-.594 11.288-.99 21.389-1.188 27.528v97.043h26.34V52.356h-36.045zM524.445 95.53h25.746v109.718h-25.746zm13.071-46.343c-4.357 0-7.921 1.585-10.892 4.357-2.97 2.773-4.555 6.338-4.555 10.695 0 4.159 1.584 7.724 4.555 10.496 2.97 2.773 6.535 4.16 10.892 4.16 4.357 0 8.12-1.585 10.893-4.16 2.97-2.772 4.555-6.337 4.555-10.496 0-4.159-1.584-7.724-4.555-10.695-2.575-2.772-6.337-4.357-10.893-4.357M641.491 94.54c-4.753-.99-9.705-1.584-14.458-1.584-11.684 0-22.379 2.574-31.291 7.723-8.912 5.15-16.042 12.28-20.597 21.191-4.753 9.11-7.13 19.607-7.13 31.688 0 10.496 2.377 19.804 6.932 28.32 4.555 8.318 10.893 15.052 19.409 19.607 8.12 4.555 17.626 6.931 28.32 6.931 12.28 0 22.776-2.574 31.093-7.327l.199-.198v-23.766l-.99.792c-3.764 2.773-8.12 5.15-12.478 6.536-4.555 1.584-8.714 2.376-12.278 2.376-10.299 0-18.419-2.97-24.162-9.506-5.941-6.337-8.912-15.051-8.912-25.944 0-11.288 2.97-20.2 9.11-26.736 6.14-6.536 14.26-9.902 24.162-9.902 8.318 0 16.834 2.772 24.557 8.318l.99.792V98.699l-.198-.198c-3.366-1.386-7.13-2.97-12.278-3.961m84.961-.792c-6.337 0-12.278 1.98-17.428 6.14-4.357 3.564-7.327 8.713-9.902 14.853h-.198V95.53h-25.746v109.717h25.746V149.2c0-9.507 1.98-17.428 6.337-23.172 4.357-5.941 9.903-8.912 16.636-8.912 2.377 0 4.753.594 7.724.99 2.773.793 4.753 1.585 6.14 2.575l.99.792V95.728l-.594-.198c-1.783-1.188-5.348-1.782-9.705-1.782m70.109-.594c-18.022 0-32.48 5.347-42.58 15.843-10.299 10.497-15.25 24.954-15.25 43.174 0 17.032 5.15 30.896 15.052 40.996 9.902 9.902 23.37 15.051 40.203 15.051 17.626 0 31.687-5.347 41.788-16.041 10.298-10.695 15.25-24.954 15.25-42.58 0-17.428-4.754-31.291-14.458-41.392-9.308-10.1-22.973-15.051-40.005-15.051m20.596 84.367c-4.753 6.14-12.278 9.11-21.587 9.11-9.308 0-16.833-2.97-22.18-9.506-5.348-6.14-7.923-15.051-7.923-26.34 0-11.685 2.773-20.597 7.922-26.934 5.348-6.338 12.675-9.506 21.983-9.506 9.11 0 16.24 2.97 21.39 9.11 5.149 6.14 7.921 15.051 7.921 26.736-.396 11.883-2.574 21.19-7.526 27.33m91.3-36.44c-8.12-3.367-13.27-5.942-15.646-8.12-1.98-1.98-2.97-4.753-2.97-8.318 0-2.97 1.188-5.941 4.158-7.922 2.971-1.98 6.338-2.97 11.289-2.97 4.357 0 8.912.792 13.269 1.98 4.357 1.188 8.318 2.97 11.487 5.347l.99.792V97.71l-.594-.198c-2.97-1.189-6.932-2.377-11.685-3.367-4.753-.792-9.11-1.188-12.675-1.188-12.279 0-22.38 2.97-30.3 9.506-7.923 6.14-11.686 14.457-11.686 24.161 0 5.15.793 9.705 2.575 13.468 1.782 3.762 4.357 7.327 7.922 10.298 3.565 2.773 8.714 5.941 15.844 8.912 5.94 2.575 10.496 4.555 13.269 6.14 2.772 1.584 4.555 3.366 5.941 4.753.99 1.584 1.584 3.564 1.584 6.139 0 7.328-5.545 10.893-16.834 10.893-4.357 0-8.912-.793-14.259-2.575-5.347-1.782-10.298-4.357-14.457-7.328l-.99-.792v25.152l.594.198c3.763 1.782 8.318 2.97 13.863 4.357 5.545.99 10.496 1.782 14.853 1.782 13.27 0 24.162-2.97 31.886-9.506 7.922-6.337 12.08-14.457 12.08-24.954 0-7.327-1.98-13.863-6.337-18.814-5.743-4.753-12.873-9.704-23.171-13.665m97.438-47.927c-18.022 0-32.48 5.347-42.58 15.843-10.1 10.497-15.25 24.954-15.25 43.174 0 17.032 5.15 30.896 15.052 40.996 9.903 9.902 23.37 15.051 40.204 15.051 17.626 0 31.687-5.347 41.787-16.041 10.299-10.695 15.25-24.954 15.25-42.58 0-17.428-4.753-31.291-14.457-41.392-9.309-10.1-22.974-15.051-40.006-15.051m20.4 84.367c-4.754 6.14-12.28 9.11-21.588 9.11-9.506 0-16.834-2.97-22.181-9.506-5.347-6.14-7.922-15.051-7.922-26.34 0-11.685 2.773-20.597 7.922-26.934 5.347-6.338 12.675-9.506 21.983-9.506 8.912 0 16.24 2.97 21.389 9.11 5.15 6.14 7.922 15.051 7.922 26.736 0 11.883-2.575 21.19-7.526 27.33"/>
  <path fill="#f25022" d="M2 1.26h121.402v121.403H2z"/>
  <path fill="#7fba00" d="M136.077 1.26H257.48v121.403H136.077z"/>
  <path fill="#00a4ef" d="M2 135.337h121.402V256.74H2z"/>
  <path fill="#ffb900" d="M136.077 135.337H257.48V256.74H136.077z"/>
</svg>
