<svg xmlns="http://www.w3.org/2000/svg" viewBox="0 0 1200 360">
  <path fill="#00877b" d="M217.9 268.5h177a88.5 88.5 0 0 1-177 0m0-177a88.5 88.5 0 0 1 177 0h-177m177 0a88.5 88.5 0 0 1 0 177 88.5 88.5 0 0 0-88.5-88.5 88.5 88.5 0 0 0 88.5-88.5M129.4 180a88.5 88.5 0 0 1 88.5-88.5 88.5 88.5 0 0 0 88.5 88.5 88.5 88.5 0 0 0-88.5 88.5 88.5 88.5 0 0 1-88.5-88.5"/>
  <path fill-rule="evenodd" d="M887.3 257.2c-26.3 18-69 19-95.6 1.2-15.5-12-20.5-29.6-20.3-48.5h36c-.7 11.8 3.3 24 14.6 29.5a42 42 0 0 0 38.3-4.1 20.8 20.8 0 0 0 8-16.6 19 19 0 0 0-8.5-15.3c-19.6-10.8-43.8-10.4-61.9-25-14.5-10.5-23.5-26-21-44.5 1.7-17.5 16.7-33.7 32.6-40.4 23.5-10.6 57-10.1 76.6 9 11.1 10.7 15.3 24 15.5 39.3h-34c-.9-9.3-4-19.2-13.1-23.3-9.7-4.2-23-4-31.8 2-7.7 5.6-9.7 14.6-7.7 23.1 1.9 7.2 9.7 12 16 14.4 28.1 10.3 72.7 14.7 74.8 53.7.9 18.3-4.2 34.2-18.5 45.5m-168 9V144.3c-18.3 40-36.4 81.4-53.8 121.8h-2.4l-51.5-121.8-.7 1.6v120.3h-38.5V90.7H629l35.3 88.7 36.9-88.8h56v175.6h-38zM920.5 90.6l56-.2c49.1.4 93.7 28 94 92.3.4 66.5-57.3 83.5-103.5 83.1l-46.5.6V90.6zM959 234.4l12 .1c13.5-.2 60.8-3.6 60.9-51.8 0-59.8-45.3-58.3-60.9-58.6h-12v110.3"/>
</svg>
