<svg xmlns="http://www.w3.org/2000/svg" viewBox="0 0 1200 470">
  <path d="M741.8 84.7c0 .2-.3.3-.5.2 2.2 13.3 16.5 53.6 16.4 71.8-.6 105.5-66.1 161.5-153.2 165.4 1.6-18-.2-35.2 0-51.2a848.4 848.4 0 0 1 59.4-3.4c-6 8.8-14.9 41.3-10 40.4 15.6-2.7 23.5-28.6 28.5-41.6 17-4.5 49.7-16.2 52.3-26.1-5.5-3.5-31.4-1.8-43.1 4.5 4.1-18.6 10.5-35.2 10-62.1 15-8.1 50-29 48-35.5-6.5-1-37.2 5.6-47.7 13.6-.8-23.1-2.9-37.6-9.9-54.3 11.6-6 41.2-21.2 39.8-24.2-.9-2-33.4 1.2-48.4 7-10-19.7-28.9-51.5-38.8-58.3 42.2 4 70.5 35 96.7 54 0-.4.3-.5.5-.2.1-10-12.2-26.5-17.2-32.5-23.3-27.8-74.5-46.8-115.7-49a170.5 170.5 0 0 0-178.5 184.6c6.5 82.8 73.8 145.7 153.2 154.8 48 5.5 99-13.4 126.7-36.5 55.6-46.3 84.6-151 31.5-221.4zm-138.4-61c9.1 1.3 18.3 2.4 27.6 3.5 9.2 24.2 23.5 38 30.6 64.5a282 282 0 0 1-58.2 7.2 498.8 498.8 0 0 1 0-75.1zm-2.2 96.9c25.4-.3 47-3 67.4-8.5a116.3 116.3 0 0 1 10.9 54 479.6 479.6 0 0 1-79.4 10.3c.2-18.8 1.8-36.1 1.1-55.9zm-9.9-95.7c-3.4 19.9-6.7 50-11 74-14.7-.9-28.7-2.3-43-3.5 9.8-27 21.5-44.3 40.7-69.4 4.6-1.7 7.7-2 13.3-1.1zm-12 151.4c-22.6-3.7-41.9-5.3-63-8 3-18.6 6.9-38 12.2-52.4 16.7 1.4 31.8 2.4 50.7 3.5 1.3 14.6-.8 36.4 0 56.9zm0 21.6c.7 17.5 1.6 34.7 3.2 51.3-18.2-1.3-33-3.2-49.6-4.6a148.3 148.3 0 0 1-15.5-52.4 255.5 255.5 0 0 0 61.8 5.7zM550.4 34c2-.3 3.3-1.7 3.5-.3-15.8 14.4-27.7 36.7-37.7 57.3-11-2.7-21-5.4-31.9-8 14.9-23.7 40-36.7 66.1-49zm-80.4 67.3c13 2.9 23.9 8 37.4 10.2-4.8 16-7.8 33.7-11 51.2-15.9-3.3-28.1-8.3-43-14.8 3-18.1 9-33.1 16.6-46.7zm-18.8 68.3a241.6 241.6 0 0 0 45.2 16 208.8 208.8 0 0 0 11 52.3 161.1 161.1 0 0 1-48.4-16c-4.2-15.8-8.8-31.1-7.8-52.4zm23.2 82c15 4.1 29.4 9 45.1 12.5 9.2 22 21.9 40.5 44.1 49-3.6-17.5-11.7-30.5-18.7-44.4 14 1 27.6 2.6 41.9 3.4 1.8 18.6 6.7 34 11 50-59-5-98.3-30.4-123.4-70.5zM600 199c28.4-1.5 58.1-7.5 79.3-12.5 1.3 20.7-5.5 42.8-11 60.3-21.2 1.6-43.4 2.2-65 3.4-1.1-17-1.8-34.5-3.3-51.2zm259.5 249.5c-6 0-7-.9-7-6.3v-50.1c0-5.4.9-6.4 6.7-6.4h1.6c6 0 7.1 1 7.1 6.4v50.3c0 5.2-1 6.2-6.7 6.2zm-67.2 12V412c0-4.3.6-6.3 8.4-7.6 4.5-.8 11.4-1.3 18.6-1.3 23.4 0 28.5 7.3 28.5 23.3 0 16.1-4.4 23.3-27.4 23.3-4.4 0-7.7-.3-10.4-.5-1.3-.1-2.3.2-2.3 2.3v9.1c0 5.4-1 6.4-6.8 6.4h-1.6c-6.1 0-7-1-7-6.4zm39.3-34.2c0-14.2-3.3-17-12.4-17a55 55 0 0 0-9.7.9c-.8.2-1.8.6-1.8 2.5V440c0 2 1 2.2 1.8 2.6 1 .2 5 .7 9.7.7 9.1 0 12.4-2.8 12.4-17zm-62.3 14.3c0-8.2 1.2-8.5 7.4-8.5 6 0 7.4.3 7.4 8.5 0 7.6-1.4 8-7.4 8-6.2 0-7.4-.4-7.4-8zm-63.8-14.3c0-16 4.3-23.3 27.4-23.3 4.3 0 7.6.3 10.5.5 1.2.1 2.3-.2 2.3-2.4v-9.1c0-5.4 1-6.4 6.7-6.4h1.5c6.2 0 7.2 1 7.2 6.4v48.6c0 4.4-.7 6.4-8.5 7.7-4.4.7-11.4 1.3-18.6 1.3-23.4 0-28.5-7.2-28.5-23.3zm38.3 16.1c.9-.3 1.9-.6 1.9-2.5v-27.2c0-2-1-2.3-2-2.6-.8-.2-5-.8-9.7-.8-9 0-12.4 2.8-12.4 17 0 14.1 3.4 17 12.4 17a51 51 0 0 0 9.8-1zm-51.4 6c-6 0-7-.8-7-6.2v-50.1c0-5.4 1-6.4 6.7-6.4h1.6c6 0 7.1 1 7.1 6.4v50.3c0 5.2-1 6.2-6.7 6.2zm-37.7 0c-6 0-7-.8-7-6.2v-28.8c0-4.3.7-7.3 8.7-8.6 6.1-1.2 15.6-1.8 22.6-1.8 2.3 0 2.9.5 2.9 3.7 0 2.7-.3 4-2.6 4h-1c-4.9 0-11 .5-13.3 1-1 .4-2 1.1-2 3v27.6c0 5.3-.9 6.2-6.6 6.2zm-69.5-22c0-13 2.6-23.4 29-23.4 26 0 28.8 10.4 28.8 23.4 0 12.9-2.7 23.3-28.9 23.3-26.3 0-28.9-10.4-28.9-23.3zm41.6 0c0-11.1-1-17.2-12.7-17.2s-12.7 6-12.7 17.2c0 11.1 1 17 12.7 17s12.7-5.9 12.7-17zm-129.5 22.1c-4.5 0-7-1.9-8-6.7l-11-48.7c-1.5-6.2-1-7.4 7-7.4 6.4 0 7.7 1.3 8.9 6.4l10.2 45.7c.5 2.2 1.7 2.8 3.4 2.8h1.2c1.8 0 3-.6 3.4-2.8l8.6-45.6c1-4.9 3.5-6.6 8-6.6h14.8c4.6 0 7 1.7 8 6.6l8.8 45.5c.4 2.2 1.6 2.9 3.4 2.9h1.2c1.8 0 3-.7 3.5-2.9l9.9-47.5c.8-3.6 2-4.6 6.3-4.6 3.7 0 4.2 1 3.3 4.5L577 442c-1.1 4.8-3.5 6.6-8.1 6.6h-15c-4.5 0-7-1.8-8-6.7l-8.6-45.5c-.4-2.1-1.2-2.7-3-2.7H533c-1.7 0-2.6.6-3 2.7l-8.7 45.6c-1 4.8-3.5 6.6-8.1 6.6zm-80.7-1.2c-3-.6-3.4-1-3.4-4.6 0-4.9 1.7-4.5 5.5-4 4.8.7 14.6 2.2 23.7 2.2 11.1 0 19.4.1 19.4-8.3 0-6.9-3.6-7.3-15.8-8.1l-4-.3c-20-1.2-28.4-3.8-28.4-21 0-17.5 15.1-18.5 31.6-18.5 10.6 0 23.4 1.5 26 2 2.7.4 3.2 1 3.2 4.6 0 3.9-1 4.5-3.7 4-2.7-.4-14.9-2-24-2-10.1 0-16.6 0-16.6 7.4 0 6.8 3.4 6.7 16.4 7.8l3.3.2c17.4 1.4 27.8 2.4 27.8 20.4 0 16.3-10.6 20.5-33.8 20.5-13.7 0-25-1.8-27.2-2.2zM332 417.1c0-19.4 6-32.9 39.4-32.9 33.6 0 39.6 13.5 39.6 33 0 19.3-6 33-39.5 33-33.4 0-39.5-13.7-39.5-33zm61.3 0c0-15.3-2.2-25-21.8-25s-22 9.7-22 25 2.4 25 22 25 21.8-9.7 21.8-25z" fill="#1e5b97"/>
</svg>
