<svg xmlns="http://www.w3.org/2000/svg" viewBox="0 0 1200 390" stroke-linejoin="bevel" stroke-width=".5">
  <defs>
    <linearGradient id="a" x2="673.56" gradientTransform="matrix(.2554 .22183 .22183 -.2554 2 2.03)" gradientUnits="userSpaceOnUse">
      <stop offset="0" stop-color="#5a9fd4"/>
      <stop offset="1" stop-color="#306998"/>
    </linearGradient>
    <linearGradient id="b" x2="316.62" gradientTransform="scale(-.33828 .33828) rotate(-55 489.65 969.98)" gradientUnits="userSpaceOnUse">
      <stop offset="0" stop-color="#ffd43b"/>
      <stop offset="1" stop-color="#ffe873"/>
    </linearGradient>
    <linearGradient id="c" x2="742.28" gradientTransform="matrix(0 -.33828 .33828 -.00005 -282.8 -946.45)" gradientUnits="userSpaceOnUse">
      <stop offset="0" stop-color="#4c8cbf"/>
      <stop offset="1" stop-color="#306898"/>
    </linearGradient>
  </defs>
  <path fill="url(#a)" fill-rule="nonzero" d="M156.05 2.03A214.45 214.45 0 0 0 120.1 5.1c-31.83 5.62-37.6 17.39-37.6 39.1v28.65h75.2v9.56H54.28c-21.86 0-41 13.13-46.98 38.12-6.91 28.65-7.21 46.52 0 76.44 5.34 22.26 18.1 38.12 39.97 38.12h25.85v-34.35c0-24.83 21.48-46.73 46.99-46.73h75.12c20.91 0 37.6-17.21 37.6-38.21V44.2c0-20.39-17.2-35.7-37.6-39.1a234.25 234.25 0 0 0-39.18-3.07zm-40.68 23.05c7.77 0 14.12 6.45 14.12 14.38 0 7.9-6.35 14.29-14.12 14.29a14.2 14.2 0 0 1-14.1-14.29c0-7.93 6.3-14.38 14.1-14.38z"/>
  <path fill="url(#b)" fill-rule="nonzero" d="M242.21 82.4v33.4c0 25.89-21.95 47.68-46.98 47.68H120.1c-20.58 0-37.6 17.61-37.6 38.22v71.6c0 20.39 17.71 32.37 37.6 38.23 23.8 6.99 46.64 8.26 75.12 0 18.93-5.49 37.6-16.52 37.6-38.23v-28.66h-75.12v-9.55h112.73c21.85 0 30-15.24 37.6-38.13 7.85-23.55 7.52-46.2 0-76.43-5.4-21.76-15.71-38.13-37.6-38.13zm-42.25 181.35a14.2 14.2 0 0 1 14.11 14.3c0 7.92-6.31 14.37-14.1 14.37-7.78 0-14.12-6.45-14.12-14.38a14.2 14.2 0 0 1 14.11-14.29z"/>
  <path fill="#333" fill-rule="nonzero" d="M415.06 371.65c0 5.26-2.52 9.6-7.56 13v.1c-3.46 2.19-7.5 3.29-12.13 3.29-3.06 0-6.21-.7-9.45-2.09-3-1.21-5.5-2.74-7.46-4.6l2.7-4.42c4.56 3.82 9.33 5.7 14.3 5.65 3.42-.06 6.13-.81 8.16-2.26 2.71-2.02 4.07-4.59 4.07-7.7a7.7 7.7 0 0 0-2.26-5.76c-1.5-1.47-3.94-2.76-7.3-3.85l-5.45-1.86c-4.74-1.56-8-3.3-9.8-5.2-2.14-2.25-3.21-5.17-3.21-8.76 0-4.62 1.6-8.38 4.81-11.27 3.21-2.89 7.45-4.33 12.7-4.33 4.69 0 9.29 1.65 13.8 4.94l-2.7 4.17c-3.52-2.6-7.1-3.9-10.74-3.9-3.36 0-5.99.8-7.9 2.42-1.9 1.62-2.89 3.82-2.94 6.6-.06 3.69 3.06 6.55 9.36 8.57l6.16 2c4.4 1.44 7.63 3.38 9.72 5.8 2.08 2.43 3.12 5.59 3.12 9.46zm52.2-12.4c0 7.4-2 13.9-5.99 19.5-4.5 6.3-10.34 9.46-17.51 9.45-7.17 0-13-3.15-17.51-9.45-3.99-5.6-5.98-12.1-5.98-19.5 0-7.34 2.04-13.67 6.14-18.99 4.44-5.78 10.21-8.67 17.3-8.67 7.16 0 12.96 2.9 17.4 8.67 4.1 5.32 6.14 11.65 6.14 18.99zm-7.29 0c0-5.9-1.33-11.02-3.99-15.35-3.06-4.98-7.13-7.46-12.22-7.46-5.14 0-9.25 2.48-12.3 7.46-2.72 4.33-4.08 9.45-4.08 15.35 0 6.3 1.38 11.77 4.16 16.4 3.12 5.08 7.16 7.62 12.13 7.62 4.97 0 9.02-2.54 12.14-7.63 2.78-4.62 4.16-10.09 4.16-16.4zm45.5-26.43l-2.26 4.42h-21.84v18.63h18.29l-2.35 4.34h-15.94v27.21h-6.24v-54.6zm40.48 4.23H529.9v50.37h-6.41v-50.37h-16.3l2-4.25 36.75-.09zm68.37-4.59l-14.3 54.01-4.92 1.76-13.31-47.21-11.86 45.45-4.94 1.74-15.26-54.27 6.12-2.25 12.26 44.22 11.62-41.97 6.24-2.26 12.25 44.3 12.37-44.3zm44.66 54.96h-6.68l-5.88-17h-21.08l-6.25 17h-4.76l19.77-53.74 6.15-2zm-13.84-21.08l-8.7-25.86-9.6 25.86zm52.96 21.08h-7.63l-14.48-25.56h-4.6v25.56h-6.32v-54.7h17.25c4.33 0 8 1.42 11 4.29 3 2.86 4.51 6.35 4.51 10.45 0 4.17-1.39 7.6-4.17 10.33-2.77 2.72-6.25 4.08-10.42 4.08zm-6.68-40.14c0-2.6-.98-4.93-2.95-6.98a9.3 9.3 0 0 0-6.94-3.08H671.4v20.21h10.06c2.95 0 5.34-.97 7.2-2.9a10.08 10.08 0 0 0 2.77-7.25zm44.93-14.57l-2.17 4.43h-21.94v18.73h18.21l-2.25 4.34h-15.96v22.87h23.59v4.34H706V332.8zm64.68.1l-2.26 4.43h-21.84v18.63h18.29l-2.35 4.34h-15.94v27.21h-6.25v-54.6zm48.73 26.44c0 7.4-2 13.9-5.98 19.5-4.51 6.3-10.35 9.46-17.52 9.45-7.16 0-13-3.15-17.5-9.45-4-5.6-5.99-12.1-5.99-19.5 0-7.34 2.05-13.67 6.14-18.99 4.45-5.78 10.21-8.67 17.31-8.67 7.15 0 12.95 2.9 17.4 8.67 4.1 5.32 6.14 11.65 6.14 18.99zm-7.29 0c0-5.9-1.32-11.02-3.98-15.35-3.07-4.98-7.14-7.46-12.23-7.46-5.14 0-9.24 2.48-12.3 7.46-2.72 4.33-4.08 9.45-4.08 15.35 0 6.3 1.39 11.77 4.16 16.4 3.12 5.08 7.17 7.62 12.14 7.62 4.97 0 9.01-2.54 12.14-7.63 2.77-4.62 4.16-10.09 4.15-16.4zm54.17 9.62c0 5.67-1.9 10.3-5.68 13.92-3.79 3.61-8.54 5.42-14.26 5.42-5.55 0-10.2-1.8-13.92-5.38-3.73-3.58-5.6-8.2-5.6-13.87v-35.12l6.5-2.16v36.23c0 10.12 4.52 15.15 13.54 15.09 4.51 0 8.05-1.39 10.63-4.16 2.57-2.78 3.86-6.47 3.86-11.1v-34.93h4.93zm51.24 18.55h-6.25l-30.6-44.73v44.73h-4.42v-54.01l5.02-1.73 31.91 46.65v-45.52h4.34zM997.3 361c0 7.1-1.96 13.3-5.89 18.55-4.22 5.66-9.5 8.5-15.86 8.5-5.96 0-11.7-2.26-17.26-6.77v-48.56l17.52.1c6.99.07 12.45 3.07 16.38 9.02 3.4 5.26 5.11 11.65 5.11 19.16zm-7.2.7c0-16.36-6.18-24.53-18.54-24.53h-6.85v42.64a13.7 13.7 0 0 0 9.53 3.81c4.97 0 8.96-2.4 11.97-7.2 2.6-4.2 3.9-9.12 3.9-14.73zm55.32 25.73h-6.67l-5.9-17h-21.07l-6.25 17h-4.75l19.76-53.74 6.16-2zm-13.84-21.08l-8.69-25.86-9.6 25.86zm49.14-29.29h-16.05v50.37h-6.4v-50.37h-16.3l1.99-4.25 36.76-.09zm13.33 50.37h-6.4v-53.5l6.4-2.16zm54.82-28.17c0 7.4-2 13.9-5.98 19.5-4.5 6.3-10.35 9.46-17.52 9.45-7.16 0-13-3.15-17.5-9.45-4-5.6-5.98-12.1-5.98-19.5 0-7.34 2.04-13.67 6.14-18.99 4.44-5.78 10.2-8.67 17.3-8.67 7.16 0 12.96 2.9 17.4 8.67 4.1 5.32 6.14 11.65 6.14 18.99zm-7.28 0c0-5.9-1.33-11.02-3.99-15.35-3.06-4.98-7.13-7.46-12.22-7.46-5.14 0-9.25 2.48-12.31 7.46-2.72 4.33-4.07 9.45-4.07 15.35 0 6.3 1.38 11.77 4.16 16.4 3.12 5.08 7.16 7.62 12.13 7.62 4.97 0 9.02-2.54 12.14-7.63 2.77-4.62 4.16-10.09 4.16-16.4zm56.43 28.17h-6.25l-30.6-44.73v44.73h-4.43v-54.01l5.02-1.73 31.92 46.65v-45.52h4.34zM504.43 162.06c0 20.01-4.72 36.61-14.17 49.8-10.55 14.95-25.17 22.65-43.85 23.09-14.07.44-28.57-3.96-43.51-13.2v85.42l-23.76-8.57V108.97a53.93 53.93 0 0 1 15.2-12.53c14.33-8.36 31.75-12.64 52.24-12.87l.33.34c18.73-.22 33.17 7.47 43.31 23.08 9.47 14.3 14.21 32.65 14.21 55.07zm-27.7-1.63c0-39.35-11.27-59.57-33.8-60.67-8.97-.44-17.72.99-26.25 4.28-6.78 2.42-11.38 4.84-13.78 7.26v93.97c14.43 9 27.24 13.18 38.4 12.53 23.62-1.55 35.43-20.67 35.43-57.37zm175.22 57.7c0 26.83-2.7 45.41-8.08 55.74-5.39 10.34-15.67 18.58-30.83 24.74-12.32 4.84-25.61 7.47-39.9 7.92l-3.96-15.18c14.5-1.98 24.72-3.95 30.65-5.93 11.64-3.96 19.66-10 24.06-18.15 3.51-6.6 5.27-19.24 5.27-37.93.02-4.18.02-6.27 0-6.27a123.72 123.72 0 0 1-51.75 11.23c-11.87 0-22.31-3.73-31.32-11.21-10.11-8.14-15.17-18.47-15.16-31V91.81l24.4-8.24v100.91c0 10.77 3.45 19.07 10.38 24.9 6.93 5.82 15.88 8.63 26.88 8.41 10.99-.23 22.75-4.51 35.28-12.87V87.2h24.08zm94.04 15.52c-2.85.22-5.5.33-7.91.33-13.64 0-24.25-3.24-31.83-9.73-7.6-6.48-11.39-15.44-11.39-26.87v-94.64h-16.5V87.2h16.5V46.98l24.08-8.58v48.8H746v15.53h-27.05v93.99c0 9 2.42 15.38 7.26 19.12 4.18 3.08 10.78 4.84 19.8 5.28zm150.26-2h-24.4v-92.97c0-9.46-2.2-17.59-6.6-24.4-5.05-7.7-12.09-11.54-21.1-11.54-11 0-24.74 5.83-41.22 17.47v111.44h-24.08V9.35l24.08-7.58v101.26c15.38-11.2 32.2-16.8 50.45-16.8 12.75 0 23.08 4.29 31 12.86 7.91 8.57 11.87 19.23 11.87 31.99zm158.63-74.86c0 21.55-5.5 39.47-16.5 53.76-12.1 16.05-28.81 24.08-50.14 24.07-21.12 0-37.62-8.02-49.5-24.07-10.77-14.29-16.16-32.2-16.16-53.76 0-20.23 5.83-37.27 17.49-51.12 12.31-14.73 28.48-22.1 48.5-22.1 20.01 0 36.28 7.37 48.82 22.1 11.66 13.85 17.49 30.9 17.49 51.12zm-26.42.02c.01-15.17-2.85-27.7-8.56-37.6-6.82-12.09-17.37-18.47-31.66-19.13-26.39 1.54-39.57 20.44-39.57 56.7 0 16.72 2.76 30.7 8.28 41.9 7.06 14.3 17.66 21.35 31.79 21.13 26.49-.22 39.73-21.22 39.73-63zm169.18 74.84h-24.07V133.4c0-10.78-3.24-19.18-9.73-25.23-6.49-6.04-15.12-8.95-25.9-8.73-11.43.22-22.32 3.96-32.66 11.2v121h-24.07v-124c13.86-10.1 26.6-16.7 38.26-19.77 11-2.86 20.68-4.3 29.03-4.3a76 76 0 0 1 16.16 1.66c9.46 2.2 17.16 6.26 23.09 12.2 6.6 6.6 9.9 14.5 9.9 23.74z"/>
  <rect width="24.14" height="502.19" x="-294.87" y="-1197.55" fill="url(#c)" rx="8.53" transform="scale(-1 1) rotate(-89.99)"/>
</svg>
