<svg xmlns="http://www.w3.org/2000/svg" viewBox="0 0 1200 388">
  <path fill="#fff" d="M355.2 298.3c-7.4-1.7-15.3-2.8-23.2-2.8-13.6 0-26 2.4-35 6.2a3.1 3.1 0 0 0-1.5 4c1 3.1-.7 6.5-9.5 8.4-13 3-21.4 16.4-26 20.9-5.6 5.2-21.2 8.4-18.9 5.2 1.8-2.4 8.9-10 13.2-18.3 3.8-7.4 7.2-9.5 12-16.5 1.4-2 6.7-9.4 8.3-15.1 1.7-5.6 1.1-12.7 1.8-15.6 1-4.2 4.9-13.2 5.2-18.4.1-2.8-12.2 4.2-18 4.2-5.8 0-11.5-3.5-16.7-3.8-6.4-.3-10.6 5-16.4 4-3.3-.4-6.1-3.4-12-3.5-8.2-.4-18.3 4.5-37.3 4-18.8-.7-36-23.7-38.4-27.4-2.8-4.3-6.1-4.3-9.8-1-3.7 3.4-8.2.8-9.5-1.4-2.5-4.4-9-16.9-19.2-19.5-14-3.6-21.1 7.8-20.2 16.8 1 9.3 6.9 11.9 9.6 16.8 2.8 4.8 4.2 8 9.4 10.2 3.7 1.5 5 3.8 4 6.8-1 2.6-4.8 3.2-7.4 3.3-5.3.3-9-1.2-11.8-2.9-3.2-2-5.7-4.8-8.5-9.6a15.6 15.6 0 0 0-14.2-7.6c-2.8 0-5.4.8-7.7 2a69.9 69.9 0 0 1-32.2 7.6H12a192 192 0 0 0 343.2 43"/>
  <path d="M1198 287.7a9.7 9.7 0 1 1-9.7-9.7 9.7 9.7 0 0 1 9.7 9.7m-9.7-8a8 8 0 1 0 0 0m-1.8 8.7h1.7l2.7 4.3h1.7l-3-4.3c1.6-.3 2.7-1 2.7-2.8 0-2-1.2-2.8-3.5-2.8h-3.8v10h1.5zm0-1.3v-3h2c1 0 2.2.2 2.2 1.4 0 1.6-1.1 1.6-2.4 1.6zm-54-152.2v28.9h37.6v10.5h-37.6v85.5c0 16.8 5.2 27.3 19.4 27.3 6.8 0 11.6-1 15-2.1l1.5 10a47.2 47.2 0 0 1-18.1 3.2c-9.7 0-17.6-3-22.8-9.3-6-6.9-8-18-8-31.4v-83.2h-22.2v-10.5h22.2v-24.2zm-51.8 129.3c0 10.4.4 21.1 2 31.2h-12l-2-18.8h-.6a49.7 49.7 0 0 1-42 21.8c-26.4 0-38.8-18.6-38.8-36.2 0-30.3 26.9-48.6 80.4-48v-3.6c0-13-2.5-39-33.7-38.8-11.5 0-23.5 3-33 9.8l-4.1-9.5a70.6 70.6 0 0 1 38.6-11.4c38 0 45.3 28.5 45.3 52zm-13-39.1c-28.7-.8-66.5 3.5-66.5 35.1 0 19 12.5 27.4 26.1 27.4 22 0 34.5-13.5 39-26.3 1-2.9 1.4-5.7 1.4-8zM918 160.8a50 50 0 0 0-44.5 26.6h-.5v-61.7l-13-3.8v173.4h13v-80.5c0-5.2.3-9 1.7-13a43.2 43.2 0 0 1 39.7-29.7c27 0 36.3 21.6 36.3 45.3v78h13v-79.5c0-49-33.2-55.2-45.7-55.2M797 238.3c0 3.5-.2 6.7-1 9.7a29.5 29.5 0 0 1-28.7 23.7c-20.9 0-32.9-17.6-32.9-41.8 0-24.4 11.9-43.3 33.3-43.3 15 0 25.7 10.6 28.6 23.4.5 2.6.8 6 .8 8.7zm33.3-125l-33.3-9.4V178h-.5c-5.9-9.7-18.9-17-36.9-17-31.6 0-59.1 26.1-59 70.1 0 40.4 25 67.2 56.3 67.2 19 0 35-9 42.8-23.8h.6l1.5 20.8h29.6c-.6-9-1.1-23.4-1.1-36.9zM597.7 238.5c.9 23.8 19.4 34.2 40.7 34.2 15.2 0 26.2-2.4 36.2-6l5 22.8a119.7 119.7 0 0 1-46 8.3c-42.8 0-67.7-26.3-67.7-66.6 0-36.3 22-70.6 64.3-70.6 42.7 0 56.6 35.1 56.6 63.9 0 6.2-.5 11.2-1.1 14.2zm57.9-23.2c.1-12.2-5.2-32-27.5-32-20.4 0-29 18.5-30.5 32zM483.9 206c0-17.6-.4-30.5-1.1-42.3h28.7l1.3 25h1c6.4-18.5 21.7-28 36-28 3.2 0 5 .2 7.7.9V193c-3-.7-6-1-10-1-15.8 0-26.8 10-29.8 25.2-.6 2.9-.9 6.4-.9 10v68.2h-33.2zm-88.4 81.3a9.7 9.7 0 1 1-9.7-9.7 9.7 9.7 0 0 1 9.7 9.7m-9.7-8a8 8 0 0 0-8 8 8 8 0 0 0 8 8 8 8 0 1 0 0-16m-149.5 1.3c1 1 2.6 4.2.6 8.4a16.6 16.6 0 0 1-4.7 5.5c-2.7 2.2-8 4.6-15.2 0-4-2.5-4.2-3.3-9.5-2.6-3.9.5-5.4-3.4-4-6.6 1.4-3.2 7-5.8 14-1.7 3.3 2 8.2 5.8 12.5 2.3 1.8-1.4 3-2.4 5.4-5.2l.4-.2.4.1m119 17.7a102 102 0 0 0-58.3 3.3 3.1 3.1 0 0 0-1.4 4c1 3.1-.7 6.5-9.5 8.5-13.1 2.8-21.4 16.3-26 20.8-5.7 5.3-21.3 8.5-19 5.3 1.9-2.4 9-10 13.2-18.4 3.9-7.3 7.3-9.4 12-16.5 1.4-2 6.7-9.3 8.3-15 1.7-5.7 1.2-12.7 1.8-15.6 1-4.2 5-13.3 5.2-18.4.2-2.9-12.1 4.1-18 4.1-5.8 0-11.4-3.5-16.6-3.7-6.5-.3-10.6 5-16.5 4-3.3-.5-6-3.4-11.9-3.6-8.3-.4-18.4 4.5-37.4 4-18.7-.7-36-23.7-38.3-27.3-2.8-4.3-6.2-4.3-9.8-1-3.7 3.4-8.3.7-9.6-1.5-2.4-4.3-9-16.8-19.2-19.4-14-3.7-21.1 7.7-20.2 16.8 1 9.2 7 11.8 9.7 16.7 2.8 4.9 4.2 8 9.4 10.2 3.7 1.6 5 3.8 4 6.9-1 2.6-4.9 3.2-7.4 3.3-5.3.3-9-1.2-11.8-3-3.2-2-5.8-4.8-8.6-9.6a15.6 15.6 0 0 0-14.1-7.5c-2.8 0-5.5.7-7.8 1.9a69.9 69.9 0 0 1-32.1 7.7H12A191.9 191.9 0 0 1 194 2a192 192 0 0 1 161.2 296.2"/>
  <path fill="#e93442" d="M179 93.5c-22.1 1.6-24.4 4-28.6 8.4-5.8 6.3-13.5-8-13.5-8-4.7-1-10.3-8.5-7.3-15.5 3-6.9 8.5-4.8 10.3-2.7 2 2.7 6.5 7 12.3 6.8 5.9-.2 12.6-1.4 22-1.4 9.5 0 15.8 3.5 16.2 6.6.3 2.6-.8 5-11.4 5.8m23.3-36.6c-.4 0-.7-.3-.7-.6 0-.2.2-.4.4-.5 4.3-2.3 10.7-4.1 18-4.8 2.2-.3 4.4-.4 6.4-.4h1.1c12.4.3 22.2 5.2 22 10.9-.1 5.8-10.2 10.2-22.5 10-4-.2-7.8-.8-11-1.7a.8.8 0 0 1-.6-.8c0-.4.2-.7.7-.8 7.6-1.8 12.8-4.7 12.4-7.5-.4-3.6-10.5-5.5-22.4-4.3a63 63 0 0 0-3.8.4m100 86.1c-1.9 6.4-4.5 14.5-16.6 20.7-1.8.9-2.4-.6-1.6-2 4.6-7.7 5.3-9.6 6.7-12.6 1.8-4.5 2.8-10.8-.9-24-7.2-26-22.3-60.7-33.3-72-10.5-10.8-29.7-13.9-47-9.4-6.3 1.6-18.8 8-42 2.8-40-9-45.9 11-48.2 19.8-2.3 8.7-7.8 33.5-7.8 33.5-1.8 10.1-4.2 27.7 57.9 39.6 29 5.5 30.4 13 31.7 18.3 2.3 9.6 6 15.1 10.1 17.9 4.2 2.8 0 5-4.6 5.5-12.3 1.3-57.9-11.7-84.8-27-22-13.5-22.4-25.6-17.4-36-33.3-3.5-58.3 3.1-62.8 19-7.8 27 59.5 73.2 136.1 96.4 80.5 24.4 163.1 7.4 172.3-43.2 4.2-22.9-15.1-39.9-47.8-47.2"/>
  <path d="M384 288h1.8l2.6 4.4h1.7l-2.9-4.4c1.5-.2 2.7-1 2.7-2.7 0-2-1.2-2.8-3.6-2.8h-3.7v9.9h1.4zm0-1.2v-3.1h2c1.1 0 2.3.3 2.3 1.5 0 1.5-1.2 1.6-2.5 1.6z"/>
</svg>
