<svg xmlns="http://www.w3.org/2000/svg" viewBox="0 0 1200 176">
  <path d="M1129.4 139.6l23.9-122H1118l-29.6 151.6h98.2l11.3-29.6zM1057 80c-.5 4.4-1.2 9.3-2.2 14.7a169.3 169.3 0 0 1-6.1 25 44.2 44.2 0 0 1-8 14.8c-3.1 3.6-6.8 6-11 7.3-4.4 1.2-9.4 1.9-15.4 1.9-4.3 0-8-.4-11.3-1.1-3.3-.7-6-2-8.1-4a17.4 17.4 0 0 1-4.8-7.7c-1-3.2-1.6-7.4-1.6-12.6 0-3.3.3-7.3.7-11.7a241 241 0 0 1 8.5-39.6c2.2-6.4 5-11.3 8-14.9 3.2-3.5 6.9-6 11.1-7.2 4.3-1.3 9.4-2 15.4-2 4.2 0 8 .4 11.2 1.1 3.2.8 5.8 2 8 4 2.1 1.9 3.7 4.4 4.7 7.7 1.1 3.1 1.6 7.3 1.6 12.4 0 3.5-.2 7.5-.7 12m34 15.7c.8-5.1 1.5-10 2-14.6.4-4.6.7-9 .7-13.1 0-19.3-5-33.2-15-41.7-10-8.6-24.7-12.9-44.1-12.9-11.1 0-21 1.3-29.7 3.9a56.1 56.1 0 0 0-22.6 12.9A73 73 0 0 0 965.8 54c-4.5 10-8 22.2-10.6 36.8a159.3 159.3 0 0 0-2.7 27.9c0 19.1 5 33 14.8 41.5 10 8.5 24.7 12.8 44.1 12.8 11 0 21-1.3 29.6-3.8a57.2 57.2 0 0 0 22.8-13c6.5-6 12-14 16.5-23.8s8-22 10.6-36.7M910.6 80c-.5 4.4-1.2 9.3-2.2 14.7a169.3 169.3 0 0 1-6 25 43.4 43.4 0 0 1-8 14.8c-3.2 3.6-6.9 6-11.1 7.3-4.3 1.3-9.4 2-15.4 2-4.2 0-8-.5-11.3-1.2-3.2-.7-6-2-8-4a17 17 0 0 1-4.9-7.6c-1-3.3-1.5-7.5-1.5-12.6 0-3.4.2-7.3.7-11.7a241 241 0 0 1 8.4-39.7c2.3-6.3 5-11.3 8.1-14.8 3.1-3.6 6.8-6 11-7.3 4.4-1.3 9.5-2 15.4-2 4.3 0 8 .4 11.2 1.2 3.2.7 5.9 2 8 3.9 2.1 2 3.7 4.5 4.8 7.7 1 3.2 1.6 7.3 1.6 12.4 0 3.6-.3 7.5-.8 12m21.7-53.7c-10-8.5-24.7-12.8-44.2-12.8-11 0-20.9 1.3-29.5 3.8a56.4 56.4 0 0 0-22.7 13 73 73 0 0 0-16.4 23.8c-4.5 9.9-8 22.1-10.6 36.7a159.3 159.3 0 0 0-2.7 28c0 19.1 5 33 14.8 41.5 10 8.5 24.7 12.7 44.2 12.7 11 0 20.9-1.2 29.6-3.8a56.8 56.8 0 0 0 22.7-12.9c6.6-6 12.1-14 16.6-23.8 4.4-9.9 8-22.1 10.5-36.8.9-5 1.5-10 2-14.5.5-4.6.8-9 .8-13.1 0-19.3-5-33.3-15-41.8M769.8 70.5c-.8 3.7-1.7 6.7-3 9.1a15.7 15.7 0 0 1-5.4 5.9 24.2 24.2 0 0 1-8.9 3.2c-3.6.6-7.9 1-13 1H718l8.5-43.5h21.3a33 33 0 0 1 17.2 3.5c3.7 2.4 5.6 6.6 5.6 12.7 0 2.7-.3 5.4-.9 8m21-43a53.4 53.4 0 0 0-17.6-7.4l3.3-17h-14.8l-3 15c-3.1-.3-6.2-.4-9.5-.4h-2.6l2.9-14.7h-14.8l-3 14.7h-46.2L680 46h12.5L684 89.8h-12.2l-5.3 27.6h12.1l-10.1 51.8h34.3l10-51.1H737c8.6 0 16.7-.7 24.2-2.1 7.6-1.5 14.2-4 20-7.6A46.8 46.8 0 0 0 795.7 94c3.8-6 6.6-13.7 8.1-23 .9-4.5 1.3-8.7 1.3-12.6 0-14.2-4.8-24.5-14.4-31M606 17.6l-11.5 59h-57.3l11.5-59h-35.2L484 169.2h35.2l11.9-61.7h57.5l-12.1 61.7h35.1l29.6-151.6zM449.7 80.9L430 74.7a26.2 26.2 0 0 1-9.6-4.5c-2-1.7-3-4.2-3-7.5 0-1.5.3-3.1.7-4.9.8-4.2 3.1-7.3 6.8-9.2 3.7-2 9-2.9 15.8-2.9h20.3l11.3.1 13.8.1 11-28.3-17.3-.3-11.8-.1h-19.4c-8.7 0-16.7.6-24 1.8a61.4 61.4 0 0 0-19.4 6.4 41.6 41.6 0 0 0-21.6 31.2c-.8 4.5-1.2 8.7-1.2 12.5 0 4 .5 8 1.6 11.4 1.2 3.5 3 6.7 5.6 9.6 2.5 2.9 6 5.6 10.2 8a86 86 0 0 0 15.8 6.6l18 5.5a29 29 0 0 1 10 5 10 10 0 0 1 3.3 8l-.1 2.1-.4 2.2c-1 5.5-3.8 9.2-8.1 11A53.6 53.6 0 0 1 419 141h-19.6l-13.2-.1-13-.4-10.9 28.6c10 0 19.4 0 28.5.2l23.3.2c10 0 18.9-.6 26.5-1.9a59.6 59.6 0 0 0 19.6-6.6c5.5-3.1 9.8-7.3 13.2-12.5a55.8 55.8 0 0 0 7.3-19.7c.9-4.2 1.3-8.2 1.3-11.9 0-8-2.4-15.1-7.1-21.3A50.2 50.2 0 0 0 449.8 81m-68.1-63.3h-35l-18.8 95.6a81.7 81.7 0 0 1-4 14.6c-1.6 4-3.6 7-6 9.4-2.4 2.3-5.3 4-8.8 5-3.4 1-7.5 1.5-12.3 1.5-8.6 0-14.9-1.6-18.7-4.6-3.9-3-5.8-8-5.8-14.8l.3-5.1.7-5.8 18.8-95.8H257l-18 91.8a62.6 62.6 0 0 0-1.7 17.4c0 8.1 1.4 15.1 4 21a36 36 0 0 0 11.3 14.4 48 48 0 0 0 18 8.2c7 1.8 15.1 2.6 24 2.6 9.9 0 18.5-1 26-3a52.6 52.6 0 0 0 33.6-27.8c3.7-7.3 6.6-16.1 8.6-26.7zm-193.3 0h-35.2l-29.6 151.6h98.1l11.3-29.6h-68.5zM89.3 80.9l-19.6-6.2a26.6 26.6 0 0 1-9.6-4.5c-2-1.7-3-4.2-3-7.5 0-1.5.3-3.1.7-4.9.8-4.2 3-7.3 6.8-9.2 3.7-2 9-2.9 15.7-2.9h20.4l11.2.1 13.8.1 11-28.3-17.3-.3-11.8-.1H88.2c-8.6 0-16.6.6-23.9 1.8a61.4 61.4 0 0 0-19.4 6.4 41.4 41.4 0 0 0-21.6 31.2C22.4 61 22 65.3 22 69c0 4 .6 8 1.7 11.4 1.2 3.5 3 6.7 5.5 9.6a40 40 0 0 0 10.3 8c4.3 2.4 9.5 4.6 15.8 6.6l18 5.5a29 29 0 0 1 10 5 10 10 0 0 1 3.3 8l-.1 2.1c0 .8-.2 1.5-.3 2.2-1.2 5.5-3.9 9.2-8.2 11a53 53 0 0 1-19.3 2.6H39.1L26 141l-13-.4L2 169.3c10 0 19.4 0 28.4.2l23.3.2c10.1 0 19-.7 26.6-2a60.2 60.2 0 0 0 19.5-6.6c5.5-3 9.9-7.2 13.3-12.4a56.8 56.8 0 0 0 7.3-19.7c.9-4.3 1.3-8.3 1.3-12 0-8-2.4-15-7.2-21.2a50.2 50.2 0 0 0-25.2-14.9"/>
</svg>
