<svg xmlns="http://www.w3.org/2000/svg" viewBox="0 0 1200 846">
  <defs id="defs2642">
    <linearGradient id="a" x1="152.8" x2="239.1" y1="123.8" y2="123.8" gradientTransform="matrix(3.29416 0 0 3.29416 42 -23.7)" gradientUnits="userSpaceOnUse">
      <stop offset="0" stop-color="#4d4d4d"/>
      <stop offset="1" stop-color="#999"/>
    </linearGradient>
  </defs>
  <path fill="#000000" d="M819 273.5l10.6-34.6V3C706 3 693.2 50.5 693.2 95.6v259a224 224 0 0 1-4 41.4c65.6-11.8 108.4-52.4 129.8-122.5"/>
  <path fill="#00a0dd" d="M476.1 30h27.3v27h-27.3z"/>
  <path fill="#00a0dd" d="M503.5 70.6h27.3v27h-27.3z"/>
  <path fill="#00a0dd" d="M476.1 104.5h27v27h-27z"/>
  <path fill="#00a0dd" d="M449.1 145h27v27h-27z"/>
  <path fill="#00a0dd" d="M394.4 2.7h27.3V30h-27.3z"/>
  <path fill="#00a0dd" d="M448.8 198.7H476v60h27.4V158.2h27.3v196.3c0 93.2 81.4 138 81.4 138-136.7 0-217.8-83-217.8-193.3v-222h27.4v148.5H449v-27z"/>
  <path fill="url(#a)" d="M631.3 410.5a174.8 174.8 0 0 1-86-24.4c14.8 63.6 69.5 95 72.1 96.6l16.2 8.8c123.8-8.2 196-88.2 196-192.7v-22.7c-29.3 96.5-97.9 139-198.3 134.4"/>
  <path fill="#00a0dd" d="M449.1 57h27v27h-27z"/>
  <path fill="#58595b" d="M1166.2 547.2a17.3 17.3 0 1 1 0 34.6c-9.5 0-17.4-7.6-17.4-17.5a17 17 0 0 1 17.4-17zm0 32c8 0 14.2-6.3 14.2-14.9 0-8.2-6.2-14.4-14.2-14.4a14 14 0 0 0-14.1 14.4c0 8.6 6.2 14.9 14.1 14.9zm-6.5-24.7h7.9c5 0 6.9 2 6.9 5.9 0 3.6-2.3 5.3-5.3 5.6l6 8.9h-3.4l-5.6-8.6h-3.2v8.6h-3.3zm3 8.9h3.2c2.7 0 5.3 0 5.3-3.3 0-2.7-2.3-3-4.3-3h-4.3zM1097 826.9c0 2 .3 4 1 5.3a10.3 10.3 0 0 0 7.2 5.6c1.7.3 3.3.6 5.3.6s4-.3 5.2-.6c1.4-.4 2.7-1 3.7-2 1-.7 1.6-1.7 2-2.6.3-1 .6-2 .6-3 0-2-.3-3.6-1.3-4.6-1-1-2-1.7-3-2l-6.6-2c-2.6-.6-5.6-1.3-9.5-2.6-2.3-.7-4.3-1.3-6-2.3-1.6-1-2.6-2-3.6-3.3-1-1.3-1.6-2.6-2-4-.3-1.3-.6-2.6-.6-4.2 0-2.7.7-5 1.6-7.3 1-2 2.7-3.6 4.7-5 2-1.3 4-2.2 6.2-2.9a28.8 28.8 0 0 1 15.2 0c2.6.7 4.6 2 6.6 3.3 2 1.3 3.2 3.3 4.6 5.3 1 2.3 1.6 4.6 1.6 7.5h-9.5c-.4-3.6-1.4-5.9-3.7-7.2-2-1.3-5-2.3-8.2-2.3-1 0-2.3 0-3.3.3l-3.3 1c-1 .7-1.6 1.3-2.3 2.3-.7 1-1 2-1 3.3 0 2 .7 3.3 1.7 4.6 1.3 1 2.6 2 4.6 2.7l2.3.6c1.3.3 3 .7 4.6 1.3 1.6.4 3.3 1 5 1.3 1.6.4 2.9.7 3.6 1 1.6.7 3.3 1.4 4.6 2.3 1.3 1 2.3 2 3.3 3.3 1 1.4 1.6 2.7 2 4 .3 1.3.6 3 .6 4.3a15.2 15.2 0 0 1-7 13.2 22 22 0 0 1-6.8 3 40.9 40.9 0 0 1-16.8 0 18.8 18.8 0 0 1-12.2-9.6c-1.3-2.3-2-5.3-2-8.6zm-123.9-14.5l23.4 32.6h-11.9L967 819l-8 7.6V845h-9.2v-54.3h9.2v24.7l24.4-24.7H995zm-168-21.7h26c6 0 10.6 1.3 13.5 4a14 14 0 0 1 4.7 10.8c0 2.6-.4 4.6-1 6.2-.7 1.7-1.7 3-2.7 4-1 1-2 1.6-3 2.3-1 .3-1.6.7-2.2 1 .6 0 1.6.3 2.6.6 1 .4 1.6 1 2.6 2l2 3.3c.7 1.3.7 3.3.7 5.3 0 3.3.3 6 .6 8.6a9.9 9.9 0 0 0 2.3 5.6h-10.2a14 14 0 0 1-1.3-4c0-1.3-.3-2.6-.3-4 0-2.6 0-4.6-.4-6.2a19 19 0 0 0-1.6-4.6c-.7-1.3-2-2-3.3-2.7-1.3-.6-3.3-1-5.3-1h-13.8v22.5h-9.6v-53.7zm9.6 24.7h15.4c3 0 5.3-.7 7-2.3 1.6-1.4 2.3-3.7 2.3-6.6 0-1.7-.4-3-.7-4.3-.7-1-1.3-2-2-2.6-1-.7-2-1-3-1.4-1-.3-2.2-.3-3.6-.3h-15.4zm-134.8-26c4 0 7.6.6 10.9 2.2a26 26 0 0 1 8.2 6.3c2.3 2.6 4 5.6 5.3 8.9a37.6 37.6 0 0 1 0 21.7 26.6 26.6 0 0 1-13.5 15.2c-3.3 1.6-7 2.3-10.9 2.3-4 0-7.5-.7-10.8-2.3a26 26 0 0 1-8.3-6.3c-2.3-2.6-4-5.6-5.2-8.9a37.6 37.6 0 0 1 0-21.7 26.6 26.6 0 0 1 13.5-15.2c3-1.6 6.5-2.3 10.8-2.3m0 8c-3 0-5.2.6-7.5 1.6-2 1.3-4 2.6-5.3 4.6-1.3 2-2.3 4.3-3 6.6a30 30 0 0 0 0 15.1c.7 2.7 1.7 4.7 3 6.6 1.3 2 3 3.7 5.3 4.6 2 1.4 4.6 1.7 7.5 1.7 3 0 5.3-.7 7.6-1.7 2-1.3 4-2.6 5.3-4.6 1.3-2 2.3-4.2 3-6.6a30 30 0 0 0 0-15.1c-.7-2.6-1.7-4.6-3-6.6a12 12 0 0 0-5.3-4.6 15 15 0 0 0-7.6-1.7m-179.8-6.5l9.5 41.5h.4l10.8-41.5h9.6l10.8 41.5 10.3-41.5h9.5L546.3 845h-9.9l-10.9-41.5-11.2 41.5h-9.5l-14.5-54.3zm-103.8 0v8.2h-17.5V845h-9.2V799h-17.4v-8.2zM254.8 813v7.9h-27.4v15.8h30v8.2h-39.5v-54.3H257v8.2h-29.7V813zM116 845h-10.2l-24.7-40v40h-9.3v-54.4h10.2l24.7 39.8v-39.8h9.3zm243.4-207.6l-2.3-.7 2.3-1a43.4 43.4 0 0 0 25.4-39.2c0-30.3-21.4-49-59-49h-65.2v186.7h70.8c7.6 0 17.1-.3 25.7-3.6a49.5 49.5 0 0 0 33.3-45.8c-.4-16.8-8.3-40.5-31-47.4m-3-38.9c0 9.9-3 18.1-9.2 22-4.6 3-10.5 4.7-19.4 5H288v-54.3h38.6c21.4 1 30 9.8 30 27.3m-23.8 112h-43.1v-61.3h40.2c12.5 0 33.9 5.3 33.9 30.7 0 23.7-18.1 30.3-31 30.6M940 547.2V571h55.4v163.4h24a3 3 0 0 0 3-3V571h50.4a3 3 0 0 0 3-3v-20.7zm161.5 187.1V567c0-19.1 20.4-20.8 26.6-20.8h.4v185.2a3 3 0 0 1-3 3zm-670.7.7V567.3c0-19 20.4-20.7 27-20.7h.3v185a3 3 0 0 1-3 3h-24.3zm455.5-.7v-167c0-19 20.5-20.7 27-20.7h.4V731a3 3 0 0 1-3 3h-24.4zm-207.8-1.6c0-3-.3-12.5-6-18.1-3-3-6.9-4.6-11.5-4.6h-31.6c17.1-16.5 26.4-40.6 26.4-68 0-45.4-21.5-95.1-81-95.1-60 0-81.1 49.4-81.1 95.2 0 45.5 21.4 94.2 81 94.2 4.6-.3 9.2-.7 14.2-1.3 3-.3 6-1 8.9-1.3l4.6-.7h76zm-103.8-20.1c-46.1 0-52.7-44.2-52.7-70.8 0-21.4 5.3-71.5 52.7-71.5 46.1 0 52.7 45.1 52.7 71.5 0 21.4-5 70.8-52.7 70.8m-433.2 23.7c-23.4 0-41.8-6.6-54.3-19.4-12.9-13.2-19.1-32-18.8-56.4l.3-113.6h.4c6.2 0 27 1.6 27 20.7l-.4 98.9c.7 29.3 17.5 46 46.2 46 28.6 0 45.4-16.7 46-46l.4-98.9c0-19 20.4-20.7 27-20.7h.4l-.4 113.6c.4 24.4-5.9 43.2-18.8 56.4-13.1 12.8-31.2 19.4-55 19.4m625.3 0c-23.4 0-41.9-6.6-54.4-19.4-12.8-13.2-19-32-18.8-56.4V547h.4c6.2 0 27 1.6 27 20.7v98.9c.6 29.3 17.4 46 46.1 46 28.7 0 45.5-16.7 46.1-46v-98.9c0-19 20.4-20.7 27-20.7h.4v113.6c.3 24.4-6 43.2-18.8 56.4-13.2 12.8-31.6 19.4-55 19.4"/>
</svg>
