<svg xmlns="http://www.w3.org/2000/svg" viewBox="0 0 1200 232">
  <path d="M1076.6 64.3c-40 0-61.9 13.6-70.4 61.6l-3 16.3c-8.2 48.9 10 62 49.4 62a308 308 0 0 0 51.8-4.8l5.3-29.1c-17.6 2.6-28 4.5-52.3 4.5-19.2 0-21.9-7.5-18.7-29.6l30 1c31.7 1.1 56.5-3.4 57.9-39.5 1-32.8-19.3-42.4-50-42.4zm14.2 47.2c-1 11.2-5.9 15.5-17.9 15.5h-30.2c3.5-20 8.6-31 29.1-31 14.2 0 20 5.1 19 15.5zm68-81h36.2l-31.4 173.7h-36.2zm-178 170.3A105.6 105.6 0 0 1 956 204c-23.2 0-33.4-8.5-28.6-37l11.9-70h-16.5l4.4-25.8 17.2-3.5 5.1-30 36-7.2-6.2 37.2h24L998.1 97h-23.9L963 163.6c-1.3 8.5 1 11.1 8.2 11.1a102.9 102.9 0 0 0 14.2-1.3zM858.6 64.5c-39.4 0-62 13.9-70.5 61.5l-3 16.5C776.9 190.4 794 204 834 204c39 0 61.7-13.6 70.2-61.5l3-16.5c8.4-47.6-9.6-61.5-48.5-61.5zm12.8 58.8l-4 21.8c-4 23.5-11.2 29.6-28.2 29.6s-22.4-6.1-18.4-29.6l4-21.8c4-23.4 11.5-29.5 28.5-29.5s22 6.1 18 29.5zm-88.6-26a61.9 61.9 0 0 0-34.6 10.3L731.8 204h-36.2L719 68h25.6l4 10a69.5 69.5 0 0 1 39.9-13.3zm-138-32.9c-40 0-61.7 13.6-70.2 61.5l-3 16.2c-8.2 48.7 9.9 61.8 49.2 61.8a307 307 0 0 0 51.7-4.8l5.3-29c-17.6 2.6-28 4.5-52.2 4.5-19.1 0-21.8-7.4-18.6-29.5l29.8 1c31.7 1.1 56.4-3.4 57.7-39.4 1.1-32.7-19.1-42.3-49.7-42.3zm14 47.2c-1 11.1-5.8 15.4-17.7 15.4H611c3.5-20 8.5-30.9 29-30.9 14.1 0 20 5 18.9 15.5zm-149.4 92.1h-46.9L447.4 30.6h38.3l5.8 139.7h.6l54.8-139.7h38.3z" fill="#3d3d3d"/>
  <path d="M194 1.7C89.5 1.7 5 52.9 5 116c0 63 84.6 114.3 189 114.3 104.3 0 188.8-51.2 188.8-114.3C382.8 52.9 298.3 1.7 194 1.7zM110.1 180C80.8 180 74 117 74 117s2.2 17 34.5 23c49.6 9 116.6-84.9 119-88.3-2.3 4-77.3 128.2-117.3 128.3zm169.3-88.3C230 82.6 163 176.5 160.5 180 163 176 238 51.8 278 51.6c29.4 0 36.3 63 36.3 63s-2.3-16.9-34.7-22.9z" fill="#ce0505" fill-rule="evenodd"/>
</svg>
