<svg xmlns="http://www.w3.org/2000/svg" viewBox="0 0 1200 234">
  <path fill="#2e3d4b" d="M369.6 71.6l-31 64.3-31-64.3h-19.2L338.6 176l50-104.3zm86.4 75c6.7 8.2 14.1 13.6 26 13.6 10.7 0 22.4-4.5 22.4-15.6 0-10.9-10.8-13.7-21.7-16C463.4 124.1 447 120 447 99c0-19.8 19-30 38-30 14.3 0 27.6 5.4 34.5 18.5l-14 9.3a24.2 24.2 0 0 0-21.6-12.2c-9.3 0-20 4.6-20 14.2 0 8.4 12.2 12.1 25.7 14.7 18 3.5 33.2 10 33.2 30.4 0 23-20.4 32-40.6 32-17.2 0-29.6-4.6-39.6-19zM600.8 86h-30v50.8c0 13 .3 23.4 15.2 23.4 5 0 10.5-1 15-3.4l.7 15.4a51.6 51.6 0 0 1-19.8 3.7c-24.1 0-28-13-28-34.1V86h-22.2V71.6H554V42.7h17v29h29.9zm559.6 0h-30v50.8c0 13 .3 23.4 15.3 23.4 5 0 10.4-1 15-3.4l.6 15.4a51.6 51.6 0 0 1-19.8 3.7c-24 0-28-13-28-34.1V86h-22.1V71.6h22.1V42.7h17v29h30zM744.3 71.6h17v14.8h.4A47.1 47.1 0 0 1 798 69c32 0 53.5 22.6 53.5 53.4 0 30.4-22.4 53.5-50.8 53.5a44 44 0 0 1-39.1-20.7h-.5v57h-17zm53 88.6c22 0 36-16.5 36-37.8 0-21.2-14-37.8-36-37.8s-36 16.6-36 37.8c0 21.3 14 37.8 36 37.8m-77.6-88.6h-17v14.8h-.4A47.1 47.1 0 0 0 665.8 69c-32 0-53.4 22.6-53.4 53.4 0 30.4 22.3 53.5 50.8 53.5a44 44 0 0 0 39.1-20.7h.4v18h17zm-53 88.6c-22 0-36-16.5-36-37.8 0-21.2 14-37.8 36-37.8s36 16.6 36 37.8c0 21.3-14 37.8-36 37.8m202.1-64.5c0-9.3-.8-17.4-.8-24h16c0 5.3.5 11 .5 16.6h.4c4.6-10 17.2-19.3 33.9-19.3 2.2 0 4.6.2 7 1.1l-1.2 17.1c-2.8-.8-6-1.2-9-1.2-20.7 0-29.8 14.5-29.8 37.7v49.6h-17zm121.7 0c0-9.3-1-17.4-1-24h16.2c0 5.3.4 11 .4 16.6h.4c4.6-10 17.2-19.3 34-19.3 26.6 0 38.6 17 38.6 41.5v62.8h-17v-61c0-17-7.4-27.7-23.2-27.7-22 0-31.5 15.9-31.5 39.1v49.6h-17zm-582.6-24h17v101.6h-17zm18.5-20a10 10 0 1 1-20 0 10 10 0 0 1 20 0m519.1 20h17v101.6h-17zm18.5-20a10 10 0 1 1-20 0 10 10 0 0 1 20 0m236 3.2a15 15 0 0 1-15.1 15 15 15 0 0 1-15.3-15 15 15 0 0 1 15.3-15 15 15 0 0 1 15.1 15m-3 0c0-6.8-5.4-12.3-12.1-12.3-7 0-12.3 5.5-12.3 12.3 0 6.8 5.3 12.2 12.3 12.2 6.7 0 12.1-5.4 12.1-12.2m-11.2-7.3c3.4 0 5.5 1.7 5.5 4.5 0 2.3-1.8 4-4.7 4.2l4.8 5.7h-3l-4.6-5.7h-2V62h-2.4V47.6zm-4 2.1v4.7h4c1.8 0 3-.8 3-2.3 0-1.5-1.2-2.4-3-2.4z"/>
  <path fill="#44a2dd" d="M75.6 131h118.7L135 28.2z"/>
  <path fill="#73d2f2" d="M118.7.1H0l75.6 131 59.3-103z"/>
  <path fill="#295e9d" d="M151.1.1l-16.2 28 59.4 103L270 0zM135 234L194.3 131H75.6z"/>
</svg>
