<svg xmlns:xlink="http://www.w3.org/1999/xlink" xmlns="http://www.w3.org/2000/svg" width="612" height="284" viewBox="0 0 612 284"><style>/*<![CDATA[ */
    path{stroke-linecap:butt;stroke-linejoin:round;stroke-miterlimit:4;stroke-opacity:1}
    .border{stroke:#1a171b;stroke-width:1.5;}
    .frame{fill:transparent;}
    .side{fill:#fff;}
    .top{fill:#82e1e0;}
    svg:hover .top{fill:white;}
    .grid{stroke:#b800cc;stroke-width:0.5;display:none;}
    svg:hover .grid{display:block;}
    /*.left{fill:#d4d4d4;}
    .front{fill:#e4e4e4;}
    .right{fill:#fcfcfc;}*/
    /* ]]>*/</style><symbol id="ltr" viewBox="0 0 612 284"><path d="M3 93l51.962-30h34.64l17.32 10v20l-17.32 10 34.642 20-34.64 20zm86.603-50l34.64 20h34.642l34.64 20 34.642-20-34.64-20V23L158.884 3l-17.32 10v20h-34.642zm155.884 110l-17.32-10h-34.64l-34.642 20v20l51.96 30h34.642l34.64-20v-20l-17.32-10-34.64 20-17.32-10zm34.643-60l-34.644 20v20l51.963 30h34.64l34.64-20v-20l-51.96-30h-34.64zm0 20h34.64l17.32 10v20h-34.64l-17.32-10v-20zm155.883-10l34.64-20-86.602-50-17.32 10 17.32 10h-34.64l-34.64 20 86.604 50 17.32-10-17.32-10zm-51.963 90v20l51.963 30h34.64l34.642-20v-20l-17.32-10-34.642 20-17.32-10 34.64-20-17.32-10h-34.64l-34.642 20m138.565-80l34.64 20v20l17.322-10 34.64 20-69.28 40-34.642-20v-20l-17.32 10-34.642-20z"/></symbol><g class="border side"><path class="left" d="M3 93v40l86.603 50v-40zm86.603-50v40l34.64 20V63zm69.282 60l34.64 20V83l-34.64-20v40m51.96 150l-51.96-30v-40l51.96 30zm34.642-120l51.962 30v40l-51.965-30zM366.73 43l17.32 10v40l-17.32-10zm17.32 170l51.963 30v40l-51.962-30zm17.322-50l-86.603-50V73l86.6 50v40m51.963-10l34.64 20v40l-34.64-20zm51.962 30l34.64 20v40l-34.64-20zm-381.05-80h34.64V63h-34.64v40m86.6 110h34.64v40h-34.64zm86.605-50h34.64v40h-34.64z"/><path class="front" d="M314.77 113v40h-34.642v-40zm121.243-10h-34.64v40h34.64zm0 140h34.64v40h-34.64zm-346.41-60l34.64-20v-40l-34.64 20z"/><path class="right" d="M106.923 93v40l-17.32 10v-40zm86.603-10l34.64-20v40l-34.64 20V83m51.96 70v40l-34.64 20v-40zm34.642 40v40l-34.64 20v-40zm51.962-70l-17.32-10v40l17.32 10v-40m34.64 20v40l-34.64 20v-40l34.64-20m51.962-30v40l-17.32 10v-40zm51.962-30v40l-34.64 20v-40zm0 100l-34.64 20v40l34.64-20zm0 60l34.64-20v40l-34.64 20zm34.64-40v-40l-17.32 10v40zm103.924-40v40l-69.282 40v-40l69.282-40"/></g><use class="top" xlink:href="#ltr"/><path class="grid" d="M20.32 83l86.6 50M37.64 73l51.96 30M54.96 63l51.96 30m-86.6 10L89.6 63m-51.96 50l69.28-40m-51.96 50l34.64-20m-17.32 30l34.64-20m0-60l69.3-40m-51.98 50l69.3-40m-34.66 40l34.65-20M176.2 73l34.65-20m0 20l-69.3-40m.01-20l51.97 30m-86.61-10l51.96 30m0 120l69.3-40m-51.98 50l34.65-20m-17.32 30l34.64-20m-17.32 30l69.28-40M176.2 153l34.65 20m17.32 10l34.64 20m-103.93-40l86.6 50m-51.95-70l34.64 20m17.33 10l34.63 20m-34.63-60l69.27-40m-51.97 50l17.33-10m51.97-30l-17.33 10m34.63 0l-17.3 10m-34.65 20l-17.32 10m17.32 10l69.28-40m-86.6-30l34.64 20m17.33 10l34.63 20m-34.63 0l17.3 10m-86.6-50l17.33 10m-34.63 0l34.63 20m17.32 10l34.64 20m.01-80l69.27-40m17.33 10l-69.3 40m17.33 10L436 63m17.33 10l-69.28 40M332.1 63l69.27 40M349.4 53l86.6 50m-51.95-50l69.28 40m-69.28 120l69.28-40m-51.96 50L436 203m-17.3 30l34.63-20M436 243l69.3-40m-103.93-20L436 203m17.33 10l34.64 20m-103.92-40l86.6 50m-51.95-70l34.63 20m17.32 10l34.64 20m.01-60l51.96-30m0 20l-51.97 30m17.33 10l69.28-40m-121.25 10l69.3-40m-34.65 0l86.6 50m-103.93-40l86.6 50m-103.92-40l86.6 50"/><use class="border frame" xlink:href="#ltr"/></svg>